<?xml version="1.0" encoding="UTF-8" standalone="no"?>
<!-- Generator: Adobe Illustrator 23.0.0, SVG Export Plug-In . SVG Version: 6.00 Build 0)  -->

<svg
   xmlns:dc="http://purl.org/dc/elements/1.1/"
   xmlns:cc="http://creativecommons.org/ns#"
   xmlns:rdf="http://www.w3.org/1999/02/22-rdf-syntax-ns#"
   xmlns:svg="http://www.w3.org/2000/svg"
   xmlns="http://www.w3.org/2000/svg"
   xmlns:sodipodi="http://sodipodi.sourceforge.net/DTD/sodipodi-0.dtd"
   xmlns:inkscape="http://www.inkscape.org/namespaces/inkscape"
   version="1.1"
   id="Capa_1"
   x="0px"
   y="0px"
   viewBox="0 0 1265.1 170.6"
   style="enable-background:new 0 0 1265.1 170.6;"
   xml:space="preserve"
   sodipodi:docname="PWR3.svg"
   inkscape:version="0.92.3 (2405546, 2018-03-11)"><metadata
   id="metadata7826"><rdf:RDF><cc:Work
       rdf:about=""><dc:format>image/svg+xml</dc:format><dc:type
         rdf:resource="http://purl.org/dc/dcmitype/StillImage" /><dc:title></dc:title></cc:Work></rdf:RDF></metadata><defs
   id="defs7824" /><sodipodi:namedview
   pagecolor="#ffffff"
   bordercolor="#666666"
   borderopacity="1"
   objecttolerance="10"
   gridtolerance="10"
   guidetolerance="10"
   inkscape:pageopacity="0"
   inkscape:pageshadow="2"
   inkscape:window-width="1321"
   inkscape:window-height="713"
   id="namedview7822"
   showgrid="false"
   inkscape:zoom="1.9495601"
   inkscape:cx="1195.168"
   inkscape:cy="74.073676"
   inkscape:window-x="45"
   inkscape:window-y="27"
   inkscape:window-maximized="1"
   inkscape:current-layer="g7819" />
<style
   type="text/css"
   id="style7771">
	.st0{enable-background:new    ;}
	.st1{fill:#FFFFFF;}
	.st2{fill:#040F23;stroke:#FFFFFF;stroke-width:7;stroke-miterlimit:10;}
	.st3{fill:#FFFFFF;stroke:#FFFFFF;stroke-width:3.2107;stroke-miterlimit:10;}
	.st4{fill:#FFFFFF;stroke:#FFFFFF;stroke-width:3.1643;stroke-miterlimit:10;}
	.st5{fill:#FFFFFF;stroke:#FFFFFF;stroke-width:3.0401;stroke-miterlimit:10;}
</style>
<g
   id="g7805"
   style="fill:#333333">
	<g
   class="st0"
   id="g7803"
   style="fill:#ffffff">
		<path
   class="st1"
   d="M24.1,127.8V29.2c8.3-0.7,16.4-1.1,24.2-1.1c10.5,0,19,2.3,25.4,6.8s9.6,11.4,9.6,20.5S79,72,70.3,77.8    c-8.7,5.9-19,8.8-31.1,8.8c-0.5,0-1,0-1.7,0v-4.6c0.4,0,0.8,0,1,0c9.9,0,18.6-2.4,25.9-7.2s11-11.1,11-18.8s-2.6-13.3-7.7-16.8    s-12-5.2-20.6-5.2c-4.5,0-9.8,0.2-15.8,0.5v93.2L24.1,127.8L24.1,127.8z"
   id="path7773"
   style="fill:#ffffff" />
		<path
   class="st1"
   d="M120.3,114.7c-10-9.9-15-22-15-36.5s5-26.6,15-36.4S142.9,27,158.2,27s27.9,4.9,37.9,14.8s15.1,22,15.1,36.4    s-5,26.6-15.1,36.5s-22.7,14.8-37.9,14.8C142.9,129.5,130.3,124.5,120.3,114.7z M125.7,46.1c-8.3,8.6-12.5,19.4-12.5,32.1    s4.2,23.5,12.6,32.2s19.2,13,32.5,13c13.3,0,24.1-4.3,32.5-13c8.4-8.7,12.6-19.4,12.6-32.2s-4.2-23.5-12.6-32.1    c-8.4-8.6-19.3-13-32.6-13C144.8,33.1,134,37.4,125.7,46.1z"
   id="path7775"
   style="fill:#ffffff" />
		<path
   class="st1"
   d="M271.3,103.8l31.2-73.2h4.4l27.3,73.8c2.1,5.8,3.5,10,4.2,12.6c0.8-3.1,2.2-7.2,4.2-12.5l27.7-75.9h7.5    l-37.5,100H336l-27.9-73.5c-0.4-1.2-0.8-2.4-1.3-3.6c-0.5-1.2-0.8-2.3-1.1-3.2c-0.3-0.9-0.6-1.7-0.9-2.4l-0.6-1.7    c-0.1-0.5-0.1-0.7-0.1-0.8c-1.2,3.3-2.8,7.2-4.7,11.5L268,128.7h-4.2l-37.8-100h8l27.6,74.6c1.3,3.3,2.4,6.3,3.2,9    c0.9,2.7,1.3,4.2,1.4,4.4C266.6,114.6,268.4,110.3,271.3,103.8z"
   id="path7777"
   style="fill:#ffffff" />
		<path
   class="st1"
   d="M398,28.9c0,1.7,0,3.3,0,5.8h58.9v-5.8H398z"
   id="path7779"
   style="fill:#ffffff" />
		<path
   class="st1"
   d="M398,70.3c0,1.7,0,3.3,0,5.8h58.9v-5.8H398z"
   id="path7781"
   style="fill:#ffffff" />
		<path
   class="st1"
   d="M398,122.2c0,1.7,0,3.3,0,5.8h58.9v-5.8H398z"
   id="path7783"
   style="fill:#ffffff" />
		<path
   class="st1"
   d="M480.6,127.8V29.1c9.5-0.6,17.5-1,23.9-1c10.2,0,18.7,2.4,25.3,7.3s9.9,11.7,9.9,20.6c0,6-1.9,11.6-5.7,16.8    c-3.8,5.2-8.1,9.3-12.8,12.3c3.7,4.7,8.3,10.3,13.8,16.8c5.5,6.5,9,10.6,10.6,12.3c6.1,6,13,9.4,20.8,10.3l-0.2,4.4    c-6.1-0.1-11.1-0.9-14.9-2.6c-3.8-1.6-7.5-4.1-10.9-7.4c-3.5-3.3-12.1-13.7-25.8-31.1c-9.8,0-18.8-0.3-26.8-0.8v40.8L480.6,127.8    L480.6,127.8z M510.2,82.3c4.4,0,9.1-2.7,14.2-8c5-5.4,7.5-11.6,7.5-18.7c0-7.1-2.6-12.4-7.8-16.1s-12-5.5-20.5-5.5    c-4.5,0-9.8,0.2-15.8,0.5v47C495.8,82.1,503.3,82.3,510.2,82.3z"
   id="path7785"
   style="fill:#ffffff" />
		<path
   class="st1"
   d="M666,93.4l-15.5,34.4h-7.7L688.1,28h4.2l45.5,99.9h-8.1l-15.5-34.4H666z M689.7,39.1    c-0.1,0.1-0.3,0.7-0.6,1.7c-1.4,4-2.8,7.3-4.1,10.1l-16.6,36.9h43.1L695,51C691.5,44,689.7,40,689.7,39.1z"
   id="path7787"
   style="fill:#ffffff" />
		<path
   class="st1"
   d="M791.1,27.7c16.6,0,30.4,4.7,41.6,14.2s16.7,22.3,16.7,38.6c0,8.2-1.4,15.5-4.3,21.8    c-2.9,6.3-6.8,11.4-11.8,15.2c-10.3,7.7-23.2,11.5-38.7,11.5c-10.1,0-21.6-0.5-34.5-1.5V28.7C770.3,28,780.6,27.7,791.1,27.7z     M794.5,123c14.2,0,25.5-3.5,34.1-10.6c8.6-7.1,12.9-17.7,12.9-32s-4.8-25.6-14.5-34s-21.7-12.6-35.9-12.6    c-9.1,0-17.1,0.2-23.8,0.7v87.4C773.8,122.6,782.9,123,794.5,123z"
   id="path7789"
   style="fill:#ffffff" />
		<path
   class="st1"
   d="M882.8,127.8V28.7h7.2v99.2H882.8z"
   id="path7791"
   style="fill:#ffffff" />
		<path
   class="st1"
   d="M936.7,44.5l0.3,11.8v71.6h-7.2v-100h3.3l70.9,75.3c4.8,5.3,8.5,9.5,11.1,12.6c-0.4-4.4-0.6-9.5-0.6-15.3    V28.7h7.2v100h-3.3L946.2,52c-5-5.3-8.2-8.8-9.6-10.5L936.7,44.5z"
   id="path7793"
   style="fill:#ffffff" />
		<path
   class="st1"
   d="M1075.5,46.1c-8.3,8.7-12.5,19.4-12.5,32s4.7,23.3,14.2,32.1c9.4,8.8,20.9,13.2,34.5,13.2    c11.6,0,21.3-1.5,29.1-4.4V78.2h7.2V122c-8.7,5-21,7.5-36.7,7.5c-15.7,0-29-5-39.8-14.9s-16.3-22.1-16.3-36.5s4.9-26.5,14.8-36.3    s22.4-14.8,37.8-14.8c12.1,0,24.2,1.9,36.6,5.5l-2,5.5c-12.1-3.3-23.6-5-34.6-5C1094.6,33.1,1083.9,37.4,1075.5,46.1z"
   id="path7795"
   style="fill:#ffffff" />
		<path
   class="st1"
   d="M575.1,28.9c0,1.7,0,3.3,0,5.8H634v-5.8C634,28.9,575.1,28.9,575.1,28.9z"
   id="path7797"
   style="fill:#ffffff" />
		<path
   class="st1"
   d="M575.1,70.3c0,1.7,0,3.3,0,5.8H634v-5.8H575.1z"
   id="path7799"
   style="fill:#ffffff" />
		<path
   class="st1"
   d="M575.1,122.3c0,1.7,0,3.3,0,5.8H634v-5.8H575.1z"
   id="path7801"
   style="fill:#ffffff" />
	</g>
</g>
<g
   id="g7819">
	<ellipse
   class="st2"
   cx="1205.8"
   cy="120.3"
   rx="44.1"
   ry="44.3"
   id="ellipse7807" />
	<g
   id="g7817"
   transform="translate(0.38470219,3.1023616)"
   style="stroke-width:0;stroke-miterlimit:4;stroke-dasharray:none">
		<g
   id="g7815"
   style="stroke-width:0;stroke-miterlimit:4;stroke-dasharray:none">
			<path
   class="st3"
   d="m 1206.4718,130.138 v -21.67184 c 0,-0.43343 -0.3,-0.75851 -0.7,-0.75851 -0.4,0 -0.7,0.32508 -0.7,0.75851 v 9.93392 11.73792 c 0,0.43344 0.3,0.75852 0.7,0.75852 0.4,-0.10836 0.7,-0.43344 0.7,-0.75852 z"
   id="path7809"
   style="fill:#ffffff;stroke:#ffffff;stroke-width:2.79999995;stroke-miterlimit:4;stroke-dasharray:none"
   inkscape:connector-curvature="0"
   sodipodi:nodetypes="sssscscs" />
			<path
   class="st4"
   d="m 1231.5,105.8 c -1.8,0 -4.1,-0.6 -6.5,-1.2 -3,-0.8 -6.4,-1.6 -10,-1.6 -4.1,0 -6.6,1.3 -8,2.4 -0.5,0.4 -0.9,0.8 -1.2,1.2 -0.3,-0.4 -0.7,-0.8 -1.2,-1.2 -1.4,-1.1 -3.9,-2.4 -8,-2.4 -3.6,0 -7,0.9 -10,1.6 -2.4,0.6 -4.6,1.2 -6.5,1.2 -0.5,0 -0.9,0.3 -0.9,0.6 v 25.3 c 0,0.3 0.4,0.6 0.9,0.6 2.1,0 4.5,-0.6 7,-1.2 2.9,-0.7 6.2,-1.6 9.4,-1.6 2.8,0 5.1,0.7 6.7,2 0.3,0.3 2.0541,0.3 2.3541,0 0.4,-0.2 -0.7541,-0.6 -1.0541,-0.9 -1.4,-1.1 -3.9,-2.4 -8,-2.4 -3.6,0 -7,0.9 -10,1.6 -2,0.5 -4,1 -5.6,1.1 V 107 c 1.9,-0.1 4,-0.7 6.2,-1.2 2.9,-0.7 6.2,-1.6 9.4,-1.6 6.6,0 8.3,3.9 8.4,4 0.1,0.3 0.4,0.4 0.8,0.4 0.4,0 0.7,-0.2 0.8,-0.4 0,0 1.8,-4 8.4,-4 3.3,0 6.5,0.8 9.4,1.6 2.2,0.6 4.3,1.1 6.2,1.2 v 24.1 c -1.6,-0.1 -3.6,-0.6 -5.6,-1.1 -3,-0.8 -6.4,-1.6 -10,-1.6 -4.1,0 -6.6,1.3 -8,2.4 -0.3,0.3 -1.1335,0.44353 -0.7335,0.64353 0.4,0.2 1.7335,0.45647 2.0335,0.25647 1.7,-1.3 3.9,-2 6.7,-2 3.3,0 6.5,0.8 9.4,1.6 2.5,0.6 4.9,1.2 7,1.2 0.5,0 0.9,-0.3 0.9,-0.6 v -25.3 c 0.2,-0.6 -0.2,-0.8 -0.7,-0.8 z"
   id="path7811"
   style="fill:#ffffff;stroke:#ffffff;stroke-width:2.79999995;stroke-miterlimit:4;stroke-dasharray:none"
   inkscape:connector-curvature="0"
   sodipodi:nodetypes="scscccscsssscscccsccccscscsccccscscscsscs" />
			
		</g>
	</g>
</g>
</svg>