<svg id="Layer_1" data-name="Layer 1" xmlns="http://www.w3.org/2000/svg" viewBox="0 0 2000 1821"><defs><style>.cls-1,.cls-3{fill:#36358d;}.cls-2{fill:#1a1255;}.cls-2,.cls-3{fill-rule:evenodd;}.cls-4{fill:#424243;}.cls-5{fill:#343334;}.cls-6{fill:#161616;}.cls-7,.cls-9{fill:#ecb730;}.cls-8{fill:#94662f;}.cls-11,.cls-12,.cls-9{stroke:#94662f;stroke-miterlimit:10;}.cls-9{stroke-width:1.98px;}.cls-10{fill:#de8a2e;}.cls-11,.cls-12{fill:none;}.cls-11{stroke-width:1.9px;}.cls-12{stroke-width:1.47px;}</style></defs><title>Artboard 8</title><path class="cls-1" d="M1002.29,589.48a440.53,440.53,0,0,1,363.34,689.57,78,78,0,0,0-13.67,41.7c-.2,6.16-1.44,61.92,14.85,123.69a354.46,354.46,0,0,0,13.62,41.53,388.36,388.36,0,0,1-55.37-8.08c-32.48-7.26-62.32-18.82-88.69-34.36a77.95,77.95,0,0,0-68.87-5.09,440.61,440.61,0,1,1-165.21-849m0-78c-286.35,0-518.48,232.14-518.48,518.49s232.13,518.48,518.48,518.48a517,517,0,0,0,194.48-37.72c72.64,42.81,151.92,54.45,216.64,54.45,77.12,0,133.55-16.51,133.55-16.51-123.23-30.36-117-225.44-117-225.44A516.09,516.09,0,0,0,1520.78,1030c0-286.35-232.14-518.49-518.49-518.49Z"/><path class="cls-1" d="M1251.9,1136.76c-145.38,143.9-362.48,143.9-507.91,0-11.66-11.43-13.38-29.63-4.65-39.19s23.52-8.78,33.64,1.35c128.84,127.26,321.2,127.26,450,0,10.12-10.13,24.9-11,33.64-1.35S1263.51,1125.34,1251.9,1136.76Z"/><path class="cls-1" d="M1210.78,872.16a62.94,62.94,0,1,0,62.93,62.77A62.86,62.86,0,0,0,1210.78,872.16Z"/><path class="cls-1" d="M828.49,904.1,757.1,916.71c-14.48,2.4-24.33,15.64-21.92,29.42,2.51,13.46,16.17,22.65,30.65,20l71.39-12.63c14.48-2.37,24.33-15.62,21.8-29.39C856.63,910.6,843,901.41,828.49,904.1Z"/><path class="cls-2" d="M1514,1030.36l-5.56,1.63c-52.75,15.42-47.85,125,8.49,126h8.62c12.85,11.82,29.81,19.46,49.43,21.44a236.47,236.47,0,0,0,46.12,1.8c11.68-.56,24.89-.81,35.64,4.51,5.31,2.62,10.41,6.39,15.28,9.75a279.29,279.29,0,0,0,25.3,15.73c12.91,7,28.24,11.59,43,8.42,11.65-2.5,21.57-9.79,26.37-20.83,13.42-30.89-15.94-53.43-46.5-66,2.27.36,4.54.67,6.82,1,14.76,1.78,43,3.19,56.61-2.17,31.57-12.47,33.65-62.55,2-76.51-12.78-5.65-38.56-6-54.18-3.73,18-8.38,37.43-23.87,44-40.81a40.61,40.61,0,0,0-19.89-50.72c-26-13-67.75,11.19-87,27.62-11.83,10.09-23.6,23.67-39.29,27.1,18-21.44,27.38-48.89,10.15-75.09-11.19-17-39.39-34.56-59-21.27-8.65,5.87-11.49,15.9-11,25.9.73,15.54-2.32,39.78-11.79,52.54a27.92,27.92,0,0,1-4.64,4.83c-11.4,9.5-23.92,12.34-35.25,24.58a56.13,56.13,0,0,0-3.67,4.39Zm182.73,30.06c-3.59,1.19-7.16,2.4-10.74,3.63a10.38,10.38,0,0,0-3.66,2.2c-.27-1.33-.57-2.67-.9-4C1686.78,1061.57,1691.79,1061.05,1696.72,1060.42Z"/><path class="cls-3" d="M1679.77,1130.35c30,4,94.87,28.29,78.92,65-6.69,15.39-28.22,24.07-57.23,8.27-39.81-21.68-36.23-33.19-80.79-31a214.76,214.76,0,0,1-44.67-1.76c-42.12-4.18-65.62-35.18-67.77-69.88-5.29-85.64,38.29-75,56.28-99.22,10.64-14.35,14.32-40.07,13.48-58.1-2.52-54.48,113,4.38,34,76.25,5,35-7.66,62.41-32.12,84.12,7.84-1.46,16.22-8.26,21.75-13.89,13.77,9.53,16.51,37.18,14.14,52.14,12.22-20.12,2.52-52.58-7.79-60.08,14.81-17.37,19.56-34.38,16-58.27,21.68-1.12,35-17,50.15-29.92,29.36-25,62.46-34,77.54-26.47a31.94,31.94,0,0,1,15.68,39.86c-7.16,18.59-32.81,34.73-49.07,39.82s-32.38,5.76-39,6.63c-5.48-11.27-13.8-21.34-24.61-27,27.94,31.43,29.36,96.52,2.84,129.14,9.82-5.67,17.35-15.12,22.33-25.65Zm100.61-6.87c25.33-10,25.78-49.91,1.72-60.55-11.09-4.9-38-5.42-52.69-2.52s-29.43,8-40.62,11.83c-6.37,2.18-5,43.07-1.18,44a251.2,251.2,0,0,0,40.37,8.83C1742.49,1126.86,1769.18,1127.9,1780.38,1123.48Z"/><path class="cls-2" d="M488.3,1030.77q-1.71-2.28-3.66-4.41c-11.3-12.27-23.81-15.15-35.19-24.67a27.86,27.86,0,0,1-4.62-4.84c-9.44-12.79-12.42-37-11.65-52.58.49-10-2.32-20-11-25.93-19.53-13.34-47.77,4.14-59,21.12-17.31,26.14-8,53.62,9.94,75.11-15.68-3.47-27.41-17.08-39.22-27.2-19.23-16.49-60.91-40.82-87-27.86a40.61,40.61,0,0,0-20,50.66c6.49,17,25.88,32.51,43.85,40.94-15.61-2.34-41.4-2-54.19,3.57-31.65,13.89-29.7,64,1.84,76.53,13.54,5.39,41.84,4.06,56.6,2.32q3.42-.4,6.82-.94c-30.6,12.54-60,35-46.68,65.93,4.77,11,14.67,18.37,26.31,20.9,14.7,3.21,30.05-1.31,43-8.3a279.24,279.24,0,0,0,25.34-15.66c4.88-3.35,10-7.11,15.31-9.72,10.76-5.28,24-5,35.65-4.4a237.33,237.33,0,0,0,46.13-1.68c19.62-1.93,36.6-9.53,49.48-21.3H485c56.35-.84,61.54-110.4,8.83-126l-5.55-1.64ZM320.78,1062.2c-.33,1.33-.63,2.67-.91,4a10.09,10.09,0,0,0-3.66-2.21c-3.57-1.24-7.14-2.47-10.73-3.66C310.41,1061,315.42,1061.51,320.78,1062.2Z"/><path class="cls-3" d="M322.24,1130.3c5,10.55,12.46,20,22.27,25.72-26.44-32.7-24.84-97.78,3.19-129.13-10.82,5.58-19.18,15.62-24.68,26.87-6.64-.88-22.77-1.59-39-6.73s-41.85-21.34-49-39.95a32,32,0,0,1,15.79-39.82c15.1-7.51,48.18,1.58,77.46,26.68,15.09,12.94,28.39,28.88,50.08,30-3.63,23.89,1.07,40.91,15.83,58.32-10.33,7.48-20.11,39.9-7.95,60.06-2.32-15,.49-42.61,14.29-52.1,5.51,5.64,13.87,12.46,21.71,13.94-24.41-21.77-36.94-49.25-31.9-84.2-78.83-72.09,36.84-130.63,34.17-76.16-.89,18,2.72,43.75,13.33,58.14,17.92,24.29,61.53,13.74,56,99.37-2.24,34.69-25.82,65.63-68,69.7a214.21,214.21,0,0,1-44.67,1.63c-44.56-2.27-41,9.24-80.87,30.81-29.05,15.72-50.56,7-57.21-8.41-15.85-36.75,49-60.84,79.09-64.79Zm-48.19-5.37a252,252,0,0,0,40.39-8.72c3.77-1,5.31-41.84-1.06-44-11.18-3.86-25.89-9-40.59-11.94s-41.59-2.49-52.69,2.38c-24.09,10.57-23.74,50.47,1.56,60.55C232.84,1127.61,259.53,1126.64,274.05,1124.93Z"/><path class="cls-4" d="M1552.35,498.24c16.41-14.66,20.16-27.23,17.91-37.26-.12-12.65-10-16.68-10-16.68l-1.76-.88a51.47,51.47,0,0,0-10.4-6.59c-143-67.95-491.39-242.53-508.05-251.6-17.73-9.65-42.08-18.81-71.63-4.66-76.77,36.76-166,77.66-249.17,115-76.47,32.31-170.06,73.15-283.1,124.49l-.12.05c-10.46,5-12.07,14.43-10.29,23.57,1,8.75,5.34,20.4,16.32,35.7,12.52,17.43,51.3,36.93,96,54.58,64.35,29.44,143.55,52.58,205.21,60.82,120.47,16.1,486.42,23.76,486.42,23.76,11.81-1,29.42-3.82,50.58-8.34,0,.82,0,1.25,0,1.25,6-.51,28.14-6.33,57.57-15.5,57.48-16,123.77-39.64,173-68.39C1529.3,517.58,1544,507.61,1552.35,498.24Z"/><path class="cls-5" d="M655.31,435.21s18.37,77.53-10.89,173.33c-16.81,55.06,37.08,76.86,366.73,80.77,102.74,1.22,270.79-2,331.35-38.56,28.14-17-1.9-48.11-9.53-108.78-8.16-65,6.81-105.13,6.81-107.16S1043.81,319.93,655.31,435.21Z"/><path class="cls-6" d="M655.62,435.39a3.1,3.1,0,0,1,.25.62l.19.88.39,1.76.7,3.53q.66,3.54,1.24,7.09l1.05,7.12.86,7.15c.28,2.38.45,4.78.68,7.17l.32,3.59c.1,1.19.15,2.39.23,3.59l.43,7.19c.12,2.4.14,4.8.21,7.2a375.64,375.64,0,0,1-3,57.56l-.91,7.16-1.2,7.11c-.85,4.74-1.5,9.52-2.63,14.2s-2,9.42-3.15,14.1l-3.78,14-.94,3.47c-.32,1.12-.63,2.23-.88,3.36a49.38,49.38,0,0,0-1.2,6.76,32.52,32.52,0,0,0,1,13.18,28.27,28.27,0,0,0,6.72,11.13,42.11,42.11,0,0,0,5,4.44,60,60,0,0,0,5.74,3.72c8,4.57,17,7.71,26,10.32s18.37,4.56,27.73,6.25c18.71,3.4,37.67,5.64,56.68,7.45,38,3.54,76.24,5.5,114.47,7.14s76.51,2.79,114.79,3.63q28.71.66,57.41.78t57.41-.77c19.13-.59,38.26-1.42,57.34-2.78s38.15-3.05,57.11-5.56c9.49-1.19,18.93-2.66,28.35-4.25s18.76-3.58,28-5.79,18.44-4.85,27.4-8a135.81,135.81,0,0,0,25.72-11.76,28.57,28.57,0,0,0,5.25-4.13,22.49,22.49,0,0,0,2.11-2.48,19.2,19.2,0,0,0,1.56-2.8,18.07,18.07,0,0,0,1.6-6.24l.09-.82,0-.83c0-.56,0-1.11,0-1.67-.08-1.13-.09-2.25-.26-3.39a83.13,83.13,0,0,0-3-13.63c-1.33-4.53-2.84-9.06-4.34-13.6-3-9.09-6-18.26-8.47-27.61a240.79,240.79,0,0,1-5.75-28.47c-.34-2.4-.56-4.8-.85-7.2s-.59-4.8-.77-7.21c-.33-4.82-.81-9.63-.91-14.47a278.16,278.16,0,0,1,.24-29,242,242,0,0,1,3.37-28.89q1.29-7.17,3-14.26c.59-2.34,1.24-4.76,1.84-7l.11-.42c.06-.19,0-.17,0-.16h.05c-.32-.63,2.41,4.94,1.44,2.71l-.21-.1-.33-.16-.74-.32c-1-.44-2.13-.87-3.22-1.28-8.81-3.32-17.92-6.19-27-8.91s-18.33-5.21-27.57-7.55c-18.48-4.69-37.13-8.74-55.88-12.28s-37.6-6.57-56.51-9.14-37.89-4.63-56.9-6.28A1242.37,1242.37,0,0,0,880.63,393c-38,3.78-75.92,9.13-113.48,16.32Q739,414.73,711,421.24q-14,3.3-27.86,6.88ZM655,435c4.56-1.5,9.43-3,13.94-4.38s9.19-2.73,13.79-4.06q13.82-3.94,27.73-7.59c18.55-4.84,37.2-9.32,56-13.22,37.54-7.86,75.45-14.09,113.6-18.37a1181.39,1181.39,0,0,1,230.06-3.53q28.73,2.39,57.29,6.32c19,2.6,38,5.69,56.88,9.39s37.63,7.88,56.25,12.72q13.95,3.63,27.79,7.81c9.21,2.81,18.36,5.76,27.46,9.24,1.14.44,2.28.9,3.44,1.4l.9.4.49.23.59.31c-.78-2.07,2.43,3.62,1.91,3.34,0,.29-.08.59-.13.88s-.13.62-.16.71l-.13.45c-.66,2.4-1.27,4.6-1.87,6.9q-1.72,6.86-3,13.81a243.47,243.47,0,0,0-3.49,28.12,271.74,271.74,0,0,0-.5,28.4c.06,4.74.5,9.46.76,14.2.14,2.37.45,4.72.66,7.08s.44,4.73.74,7.07a234.93,234.93,0,0,0,5.25,27.89c2.26,9.21,5.06,18.31,7.92,27.44,1.43,4.57,2.87,9.16,4.16,13.83a87.55,87.55,0,0,1,2.94,14.44c.16,1.23.16,2.51.22,3.77,0,.64,0,1.28,0,1.92l0,1-.12,1a22.29,22.29,0,0,1-2.09,7.55,23.28,23.28,0,0,1-2,3.42,26.16,26.16,0,0,1-2.59,2.95,32.8,32.8,0,0,1-6.08,4.63,139.74,139.74,0,0,1-26.6,11.72c-9.16,3.06-18.48,5.53-27.84,7.69-18.78,4.16-37.76,7.14-56.8,9.45s-38.13,4-57.26,5.32-38.26,2.3-57.41,2.93-38.31,1.16-57.47,1.39-38.33.36-57.48.26c-38.31-.16-76.63-.57-114.95-1.66-19.16-.62-38.32-1.32-57.47-2.44s-38.29-2.42-57.41-4.34-38.2-4.25-57.17-7.78c-9.48-1.76-18.92-3.92-28.24-6.63s-18.55-6.11-27.16-11.12a63.86,63.86,0,0,1-6.25-4.15,47.84,47.84,0,0,1-5.68-5.09,35.11,35.11,0,0,1-4.68-6.18,32.79,32.79,0,0,1-3.12-7.16,37.52,37.52,0,0,1-1-15.27,56.09,56.09,0,0,1,1.4-7.35c.3-1.21.64-2.4,1-3.58l1-3.45,3.94-13.72c1.19-4.6,2.2-9.25,3.33-13.88s1.94-9.32,2.87-14l1.33-7,1-7.07a389.35,389.35,0,0,0,4.26-57c0-2.38,0-4.77,0-7.15l-.22-7.16c0-1.19-.06-2.39-.12-3.58l-.22-3.57c-.16-2.39-.25-4.77-.46-7.15l-.63-7.14-.8-7.12c-.31-2.37-.63-4.74-1-7.1l-.57-3.53-.33-1.76-.16-.89A7.42,7.42,0,0,1,655,435Z"/><path class="cls-7" d="M1410.68,343.52s132.94-67,103,203l-15.46-4.12s23.19-197.72-61.83-184.84"/><path class="cls-8" d="M1410.61,343.38a77.25,77.25,0,0,1,16.6-5.92,73.16,73.16,0,0,1,17.58-2.11,62.29,62.29,0,0,1,17.61,2.49,55.68,55.68,0,0,1,8.35,3.24,56.43,56.43,0,0,1,7.72,4.55,64.26,64.26,0,0,1,13,12.21,85,85,0,0,1,9.71,14.94,119.57,119.57,0,0,1,6.85,16.38,169.73,169.73,0,0,1,4.61,17.09,259.69,259.69,0,0,1,4.73,34.95c.87,11.71,1.16,23.45,1.16,35.18s-.45,23.46-1,35.18-1.59,23.41-2.69,35.1l-.12,1.29-1.29-.33-15.49-4-1-.26.11-1.09c1.74-18.1,2.6-36.36,2.58-54.56a410.46,410.46,0,0,0-3.35-54.43,211.38,211.38,0,0,0-5.28-26.67,110.05,110.05,0,0,0-10-25.12,59.62,59.62,0,0,0-7.84-10.94,41.63,41.63,0,0,0-10.45-8.37A37.91,37.91,0,0,0,1450,357.8a49.33,49.33,0,0,0-13.57-.08l0-.3a47.47,47.47,0,0,1,13.73-.48,38.66,38.66,0,0,1,13.23,4,43.38,43.38,0,0,1,11.07,8.39,62.26,62.26,0,0,1,8.4,11.06,109.25,109.25,0,0,1,10.67,25.48,202.76,202.76,0,0,1,5.76,27,362.5,362.5,0,0,1,3.43,54.87q-.09,13.74-.89,27.45c-.52,9.15-1.22,18.26-2.3,27.39l-.92-1.36,15.42,4.25-1.4,1c1.38-11.62,2.63-23.27,3.52-34.94s1.38-23.39,1.48-35.1c.18-23.39-1.74-46.92-7.1-69.63q-2.08-8.49-4.89-16.74a130.4,130.4,0,0,0-6.82-16,85.79,85.79,0,0,0-9.29-14.56,61.07,61.07,0,0,0-12.42-11.88,55,55,0,0,0-7.36-4.46,62.76,62.76,0,0,0-8-3.27,60.87,60.87,0,0,0-17-2.85,82.79,82.79,0,0,0-34,6.66Z"/><path class="cls-9" d="M1487.08,572.46c-14.88,93.32-53.95,198.36-53.95,198.36l25.77-34-1.12,11.27-.68,14v24.34l17.81-35.84,3.38,28.4s14.22-39.22,15.1-45.53l1.13,42.38s31.78-43.28,30-205.12"/><path class="cls-10" d="M1482.42,579.07s2.43-48,28.85-40.27c22.54,6.61,14.43,48.69,14.43,48.69S1492.34,587.19,1482.42,579.07Z"/><path class="cls-8" d="M1482.24,579.15a.6.6,0,0,1,0-.2v-.78l0-.88c0-.59,0-1.18,0-1.77q0-1.77.15-3.54c.16-2.35.41-4.71.78-7.06a67.8,67.8,0,0,1,1.46-7,52.18,52.18,0,0,1,2.31-6.86,33.38,33.38,0,0,1,3.51-6.51,21.43,21.43,0,0,1,5.32-5.52,16.37,16.37,0,0,1,7.34-3,19.82,19.82,0,0,1,19.69,9.55,28.78,28.78,0,0,1,2.86,6.77,44,44,0,0,1,1.41,7,106.17,106.17,0,0,1,.72,14.13,130.29,130.29,0,0,1-.66,14.19l-.12,1.09-1.27,0a93.91,93.91,0,0,1-11.26-.15c-1.88-.11-3.74-.33-5.61-.55s-3.73-.47-5.58-.81a73.83,73.83,0,0,1-11-2.69,38.46,38.46,0,0,1-5.27-2.18,25.43,25.43,0,0,1-2.47-1.46c-.4-.26-.77-.57-1.15-.86S1482.57,579.48,1482.24,579.15Zm.36-.16,1.15.6c.42.19.81.4,1.24.58.83.36,1.7.66,2.56,1a53.28,53.28,0,0,0,5.29,1.36c3.58.74,7.22,1.25,10.86,1.67,1.83.19,3.66.41,5.49.57l5.5.45c3.67.26,7.37.64,11,.91l-1.39,1.14a76.19,76.19,0,0,0,2.11-13.7,53.75,53.75,0,0,0-1-13.82,32.3,32.3,0,0,0-5.23-12.38,18.69,18.69,0,0,0-4.56-4.45,16.61,16.61,0,0,0-5.77-2.45,15.78,15.78,0,0,0-6.18-.23,13.74,13.74,0,0,0-5.5,2.33,21,21,0,0,0-4.44,4.45,40,40,0,0,0-3.41,5.67,76.31,76.31,0,0,0-4.7,12.83q-.9,3.33-1.67,6.74-.39,1.71-.72,3.42l-.32,1.73-.16.86-.08.43,0,.22,0,.1S1482.64,579.09,1482.6,579Z"/><path class="cls-8" d="M1499.25,531.28c3.4-4.73,7-9.25,10.25-13.95q2.52-3.48,4.72-7.15a35.55,35.55,0,0,0,3.67-7.75,21.47,21.47,0,0,1-2.36,8.45c-.59,1.36-1.37,2.6-2.08,3.88s-1.56,2.48-2.41,3.67a70.33,70.33,0,0,1-5.49,6.8A56.26,56.26,0,0,1,1499.25,531.28Z"/><path class="cls-8" d="M1499.25,498.22c3.4-4.73,7-9.25,10.25-14q2.52-3.48,4.72-7.15a35.55,35.55,0,0,0,3.67-7.75,21.47,21.47,0,0,1-2.36,8.45c-.59,1.36-1.37,2.6-2.08,3.88s-1.56,2.48-2.41,3.67a70.33,70.33,0,0,1-5.49,6.8A56.26,56.26,0,0,1,1499.25,498.22Z"/><path class="cls-8" d="M1498.05,462.16c3.4-4.74,7-9.26,10.24-14,1.68-2.32,3.26-4.71,4.73-7.15a35.49,35.49,0,0,0,3.66-7.75,21.1,21.1,0,0,1-2.36,8.44,43.86,43.86,0,0,1-2.07,3.89c-.77,1.24-1.57,2.47-2.41,3.66a72.31,72.31,0,0,1-5.49,6.81A58.1,58.1,0,0,1,1498.05,462.16Z"/><path class="cls-11" d="M1496,423.69s13.7-14.13,15.32-25.25"/><path class="cls-11" d="M1488.73,392.13s11-6.31,12.63-17.43"/><path class="cls-12" d="M1471.6,371.69s12.62-14.4,13.83-23.44"/><path class="cls-11" d="M1460.18,337.43s2.11,13.53-1.8,20.44"/><path class="cls-11" d="M1430.13,337.43s9.61,7.52,13.82,19.24"/><path class="cls-8" d="M1502.12,584.54c-2.35,11.8-4.93,23.52-7.62,35.23s-5.55,23.36-8.58,35-6.27,23.18-9.77,34.66-7.32,22.87-11.61,34.07c4-11.32,7.43-22.8,10.65-34.35s6-23.19,8.79-34.86,5.21-23.39,7.59-35.14,4.6-23.53,6.62-35.31Z"/><path class="cls-8" d="M1515.18,589.68c-.76,8.66-1.85,17.21-3.12,25.76s-2.75,17-4.44,25.5c-.81,4.24-1.77,8.45-2.67,12.67s-1.93,8.4-3,12.57c-2.08,8.37-4.57,16.63-7.16,24.84,2.35-8.29,4.6-16.6,6.43-25,1-4.18,1.79-8.42,2.68-12.63s1.61-8.45,2.3-12.7q2.16-12.72,3.68-25.53c1-8.53,1.85-17.12,2.35-25.64Z"/></svg>