<svg id="Layer_1" data-name="Layer 1" xmlns="http://www.w3.org/2000/svg" viewBox="0 0 2000 1819.29"><defs><style>.cls-1,.cls-9{fill:#32a457;}.cls-17,.cls-18,.cls-2{fill:none;}.cls-2{stroke:#389b55;stroke-width:79px;}.cls-15,.cls-17,.cls-18,.cls-2{stroke-miterlimit:10;}.cls-2,.cls-8,.cls-9{fill-rule:evenodd;}.cls-3{fill:#eaca9b;}.cls-4{fill:#473519;}.cls-5{fill:#f6dfb6;}.cls-6{fill:#ce3a35;}.cls-7{fill:#7a1e20;}.cls-8{fill:#186534;}.cls-10{fill:#424243;}.cls-11{fill:#343334;}.cls-12{fill:#161616;}.cls-13,.cls-15{fill:#ecb730;}.cls-14{fill:#94662f;}.cls-15,.cls-17,.cls-18{stroke:#94662f;}.cls-15{stroke-width:1.98px;}.cls-16{fill:#de8a2e;}.cls-17{stroke-width:1.9px;}.cls-18{stroke-width:1.47px;}</style></defs><title>Mesa de trabajo 17</title><path class="cls-1" d="M631.18,866.65a62.86,62.86,0,1,0,62.93,62.87A62.78,62.78,0,0,0,631.18,866.65Z"/><path class="cls-1" d="M1056.9,866.65a62.86,62.86,0,1,0,62.77,62.87A62.77,62.77,0,0,0,1056.9,866.65Z"/><path class="cls-1" d="M592.45,1091.51c0,138.78,112.65,251.43,251.58,251.43s251.43-112.65,251.43-251.43Z"/><path class="cls-2" d="M1395,1034.59s174.24,83.76,116.32-128.32"/><path class="cls-3" d="M1366.12,660c-20.23,6.43-49,9.95-77.83-34-28.66-43.65,10.39-95.12,62-110.77S1469.35,627.15,1366.12,660Z"/><path class="cls-4" d="M1366.18,660.17a83.68,83.68,0,0,1-13.72,3.24,55.38,55.38,0,0,1-14.09.24,51.29,51.29,0,0,1-13.66-3.48,60.92,60.92,0,0,1-12.34-6.89c-7.7-5.5-14.18-12.52-19.9-20l-2.11-2.84-2-2.91a62.39,62.39,0,0,1-3.76-6,56.68,56.68,0,0,1-3-6.45,52.42,52.42,0,0,1-2.25-6.79,57.14,57.14,0,0,1,.06-28.4,76.11,76.11,0,0,1,12.3-25.66,102.51,102.51,0,0,1,19.8-20.43,119.94,119.94,0,0,1,37.64-19.91,33.46,33.46,0,0,1,14.64-1.45,43.32,43.32,0,0,1,14,4.3,61,61,0,0,1,12.12,8A81.22,81.22,0,0,1,1400,534.87a89.16,89.16,0,0,1,8.33,11.72,97.83,97.83,0,0,1,11,26.44,87.45,87.45,0,0,1,2.31,14.19,76,76,0,0,1-.31,14.39,63.82,63.82,0,0,1-9.53,26.87,67.22,67.22,0,0,1-20.08,19.91A101.27,101.27,0,0,1,1366.18,660.17Zm-.12-.38a94.2,94.2,0,0,0,25.15-12.21,64.79,64.79,0,0,0,18.86-20.19,61.07,61.07,0,0,0,8.07-26.12,80.4,80.4,0,0,0-2.59-27.26,95.84,95.84,0,0,0-10.74-25.29,85.85,85.85,0,0,0-17.53-21A59.09,59.09,0,0,0,1376,520.1a39.76,39.76,0,0,0-12.74-4.1,29.82,29.82,0,0,0-13.16,1.14,114,114,0,0,0-13,4.8,115.43,115.43,0,0,0-23.86,14.12,99.68,99.68,0,0,0-19.48,19.66,73.54,73.54,0,0,0-12.18,24.69,55,55,0,0,0-.38,27.33,50.94,50.94,0,0,0,2.06,6.6,54.22,54.22,0,0,0,2.84,6.32,63.63,63.63,0,0,0,3.56,6l1.94,2.91,2,2.85c5.49,7.53,11.72,14.62,19.21,20.21a59.41,59.41,0,0,0,12.07,7c1.07.47,2.17.86,3.27,1.27s2.21.75,3.34,1a43.54,43.54,0,0,0,6.88,1.33,54.53,54.53,0,0,0,14-.24A82.4,82.4,0,0,0,1366.06,659.79Z"/><path class="cls-5" d="M1665.85,1031.71s-44.38-114.31-162.28-223.56-227.55-151-227.55-151,106.18,32.36,133.54-45.67c22.66-64.63-26.23-110.07-59.22-96.23,0,0,44.91-18.27,72.64,43.24s194.78,232.61,249.63,263.34,127.11,63,127.11,63,25.66,49.79-32.81,117.6C1722.31,1054.12,1665.85,1031.71,1665.85,1031.71Z"/><path class="cls-4" d="M1665.66,1031.9l-1.77-4.05-1.77-3.93c-1.21-2.61-2.45-5.2-3.71-7.79-2.52-5.16-5.14-10.28-7.82-15.37q-8.07-15.24-17-30c-11.94-19.64-24.64-38.82-38.38-57.23s-28.31-36.19-43.57-53.35-31.46-33.45-48.26-49.08-34.32-30.53-52.29-44.82q-3.35-2.71-6.76-5.33l-6.81-5.28-6.87-5.18c-2.29-1.73-4.59-3.45-6.92-5.13q-13.86-10.22-28.12-19.89c-19-12.85-38.44-25.15-58.44-36.45q-15-8.49-30.38-16.24-7.69-3.88-15.5-7.51c-5.2-2.41-10.45-4.77-15.73-6.89l.85-2.51a164.29,164.29,0,0,0,17.84,4.11c6,1.06,12.11,1.86,18.21,2.33A142.64,142.64,0,0,0,1349,660.7c12-2.24,23.68-6.61,33.62-13.68a69.49,69.49,0,0,0,22.91-27.91,98.13,98.13,0,0,0,6-17.27,93.74,93.74,0,0,0,2.74-18.07,77,77,0,0,0-6.33-35.6c-5-11-12.86-20.89-23.08-27.28a43.76,43.76,0,0,0-16.64-6.33,32.14,32.14,0,0,0-17.34,2.07l-1.14-2.77a35.13,35.13,0,0,1,4.72-1.42,48,48,0,0,1,4.76-.87,51.76,51.76,0,0,1,28.38,4.2,59,59,0,0,1,15.95,10.8,81.41,81.41,0,0,1,12.3,14.7A121.66,121.66,0,0,1,1425,558a148.71,148.71,0,0,0,9,16.14c6.65,10.46,14,20.52,21.65,30.37,15.3,19.68,31.56,38.65,48.27,57.2s33.92,36.67,51.5,54.42q13.18,13.3,26.67,26.3t27.28,25.64c9.22,8.41,18.58,16.65,28.15,24.62a345.85,345.85,0,0,0,29.57,22.53c2.58,1.71,5.15,3.27,7.85,4.77l8.19,4.53c5.48,3,11,6,16.49,8.85,11,5.83,22.18,11.47,33.35,17.07q33.52,16.74,67.63,32.31l.76.35.33.68a40.1,40.1,0,0,1,1.54,3.74c.43,1.23.82,2.47,1.18,3.71a73.49,73.49,0,0,1,1.72,7.55,88.68,88.68,0,0,1,1.27,15.33,105.31,105.31,0,0,1-4.72,30.16c-6,19.51-16.68,37.15-29.37,52.78l-4.88,5.78c-1.65,1.91-3.37,3.78-5.15,5.58a106.77,106.77,0,0,1-11.39,10.07,90.31,90.31,0,0,1-56.57,18.73,95.8,95.8,0,0,1-15-1.38q-3.72-.64-7.37-1.59-1.83-.46-3.63-1l-1.79-.59-.89-.31-.45-.17A4.2,4.2,0,0,1,1665.66,1031.9Zm.38-.38s.19,0,.34.1l.44.15.89.29,1.79.53c1.2.33,2.41.64,3.62.92,2.43.56,4.89,1,7.35,1.37a97.62,97.62,0,0,0,14.89,1,88.69,88.69,0,0,0,55-19.46,104.42,104.42,0,0,0,10.94-10c3.45-3.54,6.51-7.48,9.67-11.32,12.28-15.59,22.43-33,28-52a103,103,0,0,0,4.26-29,84.44,84.44,0,0,0-1.35-14.56,67.49,67.49,0,0,0-1.68-7.08c-.34-1.16-.72-2.3-1.13-3.43a34.45,34.45,0,0,0-1.34-3.19l1.09,1q-34.33-15.32-68.08-31.79-16.9-8.24-33.57-16.92c-5.57-2.88-11.08-5.86-16.61-8.82l-8.25-4.53c-2.77-1.52-5.56-3.19-8.2-4.94-5.33-3.47-10.43-7.19-15.44-11s-9.91-7.76-14.74-11.79c-9.64-8-19.06-16.35-28.32-24.81-18.53-16.9-36.48-34.4-54-52.3s-34.7-36.16-51.39-54.86q-12.53-14-24.63-28.41c-8-9.61-16-19.35-23.55-29.35s-14.94-20.2-21.62-30.92a151,151,0,0,1-9.11-16.7,117.76,117.76,0,0,0-8.71-16.25A78.79,78.79,0,0,0,1401,529.3,55.62,55.62,0,0,0,1386.17,519a48,48,0,0,0-17.45-4.52,49,49,0,0,0-9.06.24c-1.51.18-3,.43-4.48.75a35.47,35.47,0,0,0-4.27,1.22l-1.15-2.77a35.21,35.21,0,0,1,18.92-2.05,46.26,46.26,0,0,1,17.58,6.92c10.64,6.84,18.68,17.15,23.64,28.59a79.78,79.78,0,0,1,6.21,36.53,98.37,98.37,0,0,1-2.89,18.39,99.44,99.44,0,0,1-6.17,17.56,72.21,72.21,0,0,1-23.46,28.55c-10.15,7.28-22.08,11.73-34.24,14.08a144.21,144.21,0,0,1-37,2q-9.29-.61-18.46-2.09a172.41,172.41,0,0,1-18.22-3.91l.86-2.51c5.44,2.1,10.72,4.38,16,6.73s10.5,4.8,15.69,7.32q15.57,7.54,30.76,15.88t30,17.3c9.87,6,19.63,12.15,29.21,18.59a848.72,848.72,0,0,1,108.35,86c16.86,15.78,32.91,32.42,48.21,49.71,7.59,8.7,15,17.5,22.2,26.57,3.63,4.48,7.1,9.1,10.63,13.66s6.94,9.22,10.28,13.93q10.14,14,19.56,28.54t18.07,29.5q8.63,15,16.41,30.44c2.58,5.15,5.12,10.33,7.49,15.58,1.19,2.62,2.36,5.26,3.49,7.91l1.67,4,.82,2,.39,1A9.48,9.48,0,0,1,1666,1031.52Z"/><path class="cls-4" d="M1374.16,651.59q-9.65-7.44-19.52-14.52t-20-13.84c-3.34-2.29-6.78-4.41-10.15-6.64l-5.13-3.24c-1.69-1.11-3.41-2.18-5.13-3.24-6.81-4.37-13.79-8.46-20.85-12.44l-7.28-4.1,8,2.32a91.07,91.07,0,0,0,24.3,3.67,56.67,56.67,0,0,0,12.21-1.07,32.39,32.39,0,0,0,11.13-4.47,20.37,20.37,0,0,0,2.33-1.8,10.11,10.11,0,0,0,1-1c.33-.36.68-.7,1-1.07l.85-1.18a7.34,7.34,0,0,0,.78-1.21,16.9,16.9,0,0,0,1.25-2.61,27.77,27.77,0,0,0,1.58-11.52l-.27-3c-.1-1-.29-2-.43-3s-.33-2-.53-3-.38-2-.63-3a41.51,41.51,0,0,0-4.13-11,18.54,18.54,0,0,0-3.45-4.34,10.91,10.91,0,0,0-4.52-2.43c-3.31-.88-7.06.16-10.34,2a24.81,24.81,0,0,0-4.65,3.3,20.67,20.67,0,0,0-2,2,11,11,0,0,0-1.48,2.24,31.47,31.47,0,0,0-3.34,11.09,22.2,22.2,0,0,0,1.38,11.26,10.85,10.85,0,0,0,3.34,4.22,11,11,0,0,0,5.12,2c3.83.53,7.87-.43,11.71-1.67a77.74,77.74,0,0,0,11.27-5l.21.34a67.67,67.67,0,0,1-10.92,6.1c-.48.21-1,.43-1.45.62l-1.5.53a29.14,29.14,0,0,1-3.07.88,21.64,21.64,0,0,1-6.5.6,13.78,13.78,0,0,1-6.46-2.07,13.17,13.17,0,0,1-4.58-5.14,24.76,24.76,0,0,1-2.22-13,34.11,34.11,0,0,1,3.42-12.65,15.34,15.34,0,0,1,1.89-2.95,23.85,23.85,0,0,1,2.32-2.48,28.76,28.76,0,0,1,5.38-4,22.68,22.68,0,0,1,6.36-2.47,15.58,15.58,0,0,1,7.12.07,14.7,14.7,0,0,1,6.26,3.48,22.54,22.54,0,0,1,4.15,5.42,45.25,45.25,0,0,1,4.29,12.21c.25,1,.42,2.09.6,3.13s.36,2.08.48,3.13.28,2.08.36,3.15l.19,3.22a29.44,29.44,0,0,1-2.38,12.78,19.54,19.54,0,0,1-1.6,2.9,8.86,8.86,0,0,1-1,1.33l-1,1.28c-.38.4-.79.76-1.19,1.15a11.35,11.35,0,0,1-1.22,1.08,24.12,24.12,0,0,1-2.68,1.85,34.24,34.24,0,0,1-12,4.15,68.21,68.21,0,0,1-12.51.82,117.72,117.72,0,0,1-12.45-.95c-4.14-.52-8.23-1.2-12.34-2.11l.69-1.78c7.32,3.56,14.64,7.19,21.71,11.27,3.57,2,7,4.19,10.46,6.33s6.82,4.48,10.15,6.83q10,7,19.55,14.68c6.32,5.15,12.49,10.47,18.27,16.22Z"/><path class="cls-4" d="M1403.34,621.06l-.59-.72-.66-.76-1.31-1.51-2.65-3-5.28-6.06c-3.5-4-7-8.11-10.45-12.21-6.87-8.23-13.63-16.56-20.11-25.14-3.26-4.27-6.4-8.65-9.47-13.11-1.43-2.32-3-4.53-4.22-7a56.62,56.62,0,0,0-3.79-6.67,14.89,14.89,0,0,0-2.37-2.62,11.31,11.31,0,0,0-2.91-1.73,10.33,10.33,0,0,0-3.34-.65,15.35,15.35,0,0,0-3.58.43,26,26,0,0,0-7,3.06,47.22,47.22,0,0,0-6.41,4.67l-.3-.26a34.64,34.64,0,0,1,5.65-5.9,25,25,0,0,1,7.23-4.26,15.78,15.78,0,0,1,4.31-.94,13.65,13.65,0,0,1,4.56.51,14,14,0,0,1,4.11,2.1,19,19,0,0,1,3.2,3.13,46.54,46.54,0,0,1,4.3,7.17l.91,1.73c.31.57.67,1.13,1,1.7l2,3.42c1.41,2.24,2.76,4.52,4.24,6.73s2.93,4.45,4.47,6.62c6.11,8.75,12.54,17.3,19.08,25.77,3.24,4.25,6.54,8.47,9.84,12.68l5,6.3,2.48,3.16,1.23,1.59.62.8c.2.27.42.59.61.88Z"/><path class="cls-3" d="M1787.19,875.45l13.57-28.34s-76.11,3.91-185.2-77.61C1615.56,769.5,1687.85,852.51,1787.19,875.45Z"/><path class="cls-4" d="M1787.1,875.27l6.35-14.51c2.07-4.79,4.16-9.48,6.27-14.15l1.1,1.65a106.55,106.55,0,0,1-12.91-.35c-4.26-.39-8.52-.83-12.74-1.56s-8.42-1.48-12.61-2.33c-2.1-.4-4.16-.95-6.23-1.48l-6.22-1.57c-4.13-1.08-8.18-2.44-12.27-3.68-2-.59-4-1.34-6.06-2.08l-6-2.22c-4-1.39-7.91-3.19-11.83-4.87s-7.85-3.33-11.64-5.29l-11.46-5.63-11.22-6.08-5.62-3c-1.89-1-3.68-2.13-5.52-3.19-3.66-2.17-7.35-4.29-11-6.42l-2.76-1.6-2.7-1.7-5.38-3.41L1635.81,785l-21.08-14.4,1.89-2c5.75,6.15,11.84,12.12,18.09,17.84s12.63,11.34,19.19,16.71,13.31,10.53,20.15,15.54,13.83,9.81,21,14.4a361.84,361.84,0,0,0,44.44,24.64c3.82,1.84,7.73,3.47,11.63,5.17,2,.82,3.94,1.57,5.91,2.36l3,1.17c1,.38,2,.71,3,1.08l6,2.16,6.06,2,3,1,3,.86Zm.17.36-6.3-1.31-3.22-.7-3.1-.81-6.2-1.62-6.14-1.87c-1-.32-2-.61-3.06-1l-3-1c-2-.71-4.06-1.38-6.06-2.12-4-1.54-8-3-12-4.72s-7.84-3.45-11.73-5.25c-1.94-.9-3.85-1.88-5.77-2.83l-2.87-1.44-2.84-1.5c-7.61-3.94-15-8.32-22.25-12.87a363.34,363.34,0,0,1-41.36-30.43,345.71,345.71,0,0,1-36.88-35.74l-8.54-9.76,10.43,7.72c6.8,5,13.57,10.14,20.44,15.11l10.57,7.08,5.3,3.5c.89.58,1.76,1.18,2.67,1.74l2.74,1.61c3.65,2.15,7.3,4.31,11,6.42,1.84,1,3.64,2.18,5.53,3.13l5.67,2.89c3.78,1.91,7.54,3.86,11.37,5.67l11.63,5.11c3.84,1.79,7.82,3.23,11.76,4.77s7.87,3.09,11.89,4.41l6,2.07c2,.68,4,1.44,6,2l6,1.84,3,.94,1.51.47,1.53.41c8.14,2.2,16.34,4.25,24.64,5.69,4.14.8,8.32,1.34,12.49,1.88a120.7,120.7,0,0,0,12.52.83h1.94l-.84,1.66c-2.41,4.78-4.85,9.54-7.3,14.2Z"/><path class="cls-6" d="M1547.35,862.13s50.55-23.65,78.19-88.13c0,0-51.64-37.57-84.75-76.66,0,0-20.65,59.95-71.66,82.35C1469.13,779.69,1506.92,807,1547.35,862.13Z"/><path class="cls-7" d="M1547.42,861.87c-.12-.07.11-.11.23-.2l.4-.23.81-.47,1.6-1,3.15-2c2.09-1.37,4.12-2.8,6.13-4.26,4-3,7.87-6.09,11.63-9.33a189.17,189.17,0,0,0,20.78-21.21c1.61-1.87,3.12-3.83,4.66-5.76s3-3.92,4.43-5.94c2.91-4,5.6-8.14,8.18-12.34a204.27,204.27,0,0,0,13.49-26.29l.95,3.43c-7.74-5.74-15.28-11.61-22.64-17.76s-14.61-12.39-21.72-18.81l-5.3-4.86c-1.76-1.62-3.47-3.3-5.21-5l-2.59-2.49-2.55-2.53c-1.69-1.71-3.39-3.39-5-5.12-6.67-6.89-13-14.11-19.1-21.52l2.44-.46A180.32,180.32,0,0,1,1529.5,723c-2.41,4-4.9,8-7.6,11.82s-5.45,7.62-8.42,11.25-6,7.18-9.31,10.57a129.2,129.2,0,0,1-10.28,9.7A109.27,109.27,0,0,1,1470,781.72l.41-3.83c4,2.88,7.68,5.82,11.33,9s7.23,6.27,10.68,9.57c1.75,1.63,3.46,3.3,5.17,5s3.41,3.34,5.07,5.06c3.37,3.39,6.58,6.92,9.83,10.42,1.6,1.77,3.19,3.55,4.75,5.35l2.36,2.7,2.29,2.74,4.58,5.49,4.42,5.63c3,3.7,5.73,7.61,8.57,11.43l1.06,1.44,1,1.42,1.94,2.87Zm-.13.52-9.28-11-4.62-5.41-2.31-2.7-2.36-2.66c-6.22-7.15-12.71-14.05-19.23-20.9-3.31-3.37-6.61-6.75-10-10-1.67-1.68-3.37-3.32-5.09-4.94s-3.42-3.25-5.17-4.84c-7-6.34-14.06-12.67-21.39-18.38l-3.06-2.39,3.47-1.44A108.55,108.55,0,0,0,1492,764a128.52,128.52,0,0,0,10.58-8.94,133.82,133.82,0,0,0,9.53-10.1A152.4,152.4,0,0,0,1528,722.1c2.28-4,4.42-8.16,6.32-12.39a137.62,137.62,0,0,0,5.16-12.84l.78-2.3,1.66,1.84c6.35,7.06,13,13.82,19.88,20.39s13.87,13,21,19.21,14.47,12.33,21.89,18.27,14.92,11.82,22.53,17.41l1.85,1.36-.91,2.07a194.29,194.29,0,0,1-14.3,26.83,181.53,181.53,0,0,1-18.5,24.06c-1.69,1.89-3.45,3.7-5.21,5.51s-3.61,3.54-5.48,5.24q-5.58,5.13-11.56,9.78a146.71,146.71,0,0,1-12.38,8.65c-2.14,1.33-4.3,2.62-6.5,3.83-1.1.61-2.22,1.19-3.34,1.75l-1.7.83-.86.39-.43.19A1.89,1.89,0,0,1,1547.29,862.39Z"/><path class="cls-8" d="M1608.69,914.14a46.85,46.85,0,0,1-3.69,12.2,46.13,46.13,0,0,1-3.69,6.55c-21.29,31.3-69.26,26-100.09,10.44-29.22-14.7-61.93-47.81-56.23-84.23a47.42,47.42,0,0,1,2.21-8.7c-22.49-52.64-10.56-122.27,33.06-153.36a70.37,70.37,0,0,1,1.82-12.78c6.73-28.23,20.47-55.62,46.38-68.09,25.35-12.21,52.55-6.21,71.26,18.65a51.31,51.31,0,0,1,10.22,26.58l.27.19c21.92-3.74,43.19,5.32,57.56,27.12a51.18,51.18,0,0,1,8.56,27.39c16.35,1.68,31.45,10.9,42.49,27.65,28.52,43.25-21.64,110.84-62.28,117.54C1643.81,887.24,1628.12,904.58,1608.69,914.14Z"/><path class="cls-9" d="M1537.48,909c34.7-7.49,44.76-44.62,27.22-78.34,6.5,63.75-28.72,82.14-63.26,64.83-73.36-36.77-70.51-159.8-7-194.12,28.11-15.18,85.58-22.77,96,22.11,12,53.34-43,89.71-81,61.22,21.75,25.89,39.78,27.54,58.87,14.09,6.5,5,16.2,7.77,26.6,10.39,2.24,28.14,23.81,49.49,49.26,52.25-20.2,38.56-47.68,59.26-106.77,47.57Zm160.2-89.21c17.6-23.67,25.88-49.95,12.61-70.08-9.73-14.75-22.13-21.43-34.71-22.6-2.56,16.45-11.22,32.31-20.51,44.79a105.91,105.91,0,0,1-12.58,14.22,75.57,75.57,0,0,1-10.5,9.27,57.56,57.56,0,0,1-26.53,10.87c1.18,34.9,38.54,58.7,71.25,34.92a66.26,66.26,0,0,0,9.35-8.29,97.2,97.2,0,0,0,11.62-13.1Zm-51-55c17.6-23.67,25.88-50,12.6-70.08-13.52-20.51-32.21-25.44-49.35-21.59-1.26,13.25-6.35,26.37-12.62,37.79a62.54,62.54,0,0,1,3.47,10.66c6.15,27.43-3.33,53.85-21.7,69.57,13.45,6.91,30.59,6.69,46.63-5a65.65,65.65,0,0,0,9.34-8.29,96.58,96.58,0,0,0,11.63-13.1Zm-154.85-74.63c29-14.51,76.79-19.37,99,9.6,10.35-21.05,12.85-42.35.83-58.33-17.11-22.73-39.81-24-58.3-15.07-23.2,11.16-35.07,36.35-41,61.25C1492.11,688.42,1491.94,689.26,1491.78,690.11Z"/><path class="cls-1" d="M846.87,585.66a499.25,499.25,0,0,1,411.76,781.47,88.41,88.41,0,0,0-15.5,47.25c-.22,7-1.63,70.17,16.83,140.18a402.22,402.22,0,0,0,15.44,47.06,438.94,438.94,0,0,1-62.75-9.16c-36.81-8.22-70.63-21.32-100.51-38.93a88.42,88.42,0,0,0-78.06-5.78A499.33,499.33,0,1,1,846.87,585.66m0-88.4c-324.52,0-587.58,263.07-587.58,587.58s263.06,587.58,587.58,587.58a585.86,585.86,0,0,0,220.39-42.74c82.32,48.52,172.17,61.71,245.51,61.71,87.39,0,151.35-18.71,151.35-18.71-139.65-34.41-132.64-255.49-132.64-255.49a584.85,584.85,0,0,0,103-332.35c0-324.51-263.07-587.58-587.58-587.58Z"/><path class="cls-10" d="M158,620.47c-19.52-11.32-25.9-23.17-25.73-33.71-2.51-12.73,6.54-18.82,6.54-18.82l1.6-1.25a52.68,52.68,0,0,1,9.07-8.78c129.48-98,443.17-345.74,458-358.31,15.79-13.37,38.35-27.63,71-19.56,84.75,21,182.82,43.51,274.17,63.72,83.53,16.56,186,38.13,310.23,66.2l.13,0c11.56,2.87,15.13,12,15.24,21.53.87,9-1.12,21.61-9,39.25-9,20.11-43.86,47.76-85.06,74.77-58.52,42.95-133.26,82.65-193.49,103.74-117.66,41.21-483.63,125-483.63,125-12.06,1.48-30.34,2.28-52.54,2.13.16.84.25,1.27.25,1.27-6.1.73-29.58-.51-61-3.61-61.07-4.14-132.56-14.09-188-32.73C185.16,635.1,168.31,628.15,158,620.47Z"/><path class="cls-11" d="M1045.9,370.72s-2.33,81.69,47,171.83c28.34,51.81-21.27,84.92-351.56,157.36C638.36,722.48,468.88,754.15,400.47,730c-31.8-11.21-8.1-48.72-13.05-111.25-5.29-66.93-28.68-104.18-29.1-106.22S631.72,335.68,1045.9,370.72Z"/><path class="cls-12" d="M1046.17,370.49a7.15,7.15,0,0,1,.09,1.15l0,.93,0,1.83.16,3.67c.13,2.45.3,4.9.48,7.34l.67,7.32.85,7.3c.28,2.43.68,4.85,1,7.27l.53,3.64c.18,1.21.41,2.41.62,3.62l1.26,7.23c.45,2.41,1,4.8,1.46,7.2a398.23,398.23,0,0,0,16.11,56.38l2.51,6.89,2.79,6.77c1.9,4.5,3.62,9.08,5.79,13.46s4.07,8.88,6.22,13.26l6.81,13,1.71,3.26c.6,1.11,1.2,2.23,1.74,3.38a57.44,57.44,0,0,1,2.94,7.09,38.49,38.49,0,0,1,2.17,15.51,33.3,33.3,0,0,1-1.65,7.83,35.39,35.39,0,0,1-3.41,7.16,49,49,0,0,1-4.63,6.29,68.14,68.14,0,0,1-5.42,5.46c-7.6,6.81-16.2,12.06-25,16.8s-17.83,8.78-27,12.52c-18.32,7.49-37,13.81-55.81,19.69S941.55,654.91,922.54,660s-38.09,9.79-57.21,14.4c-38.26,9.06-76.66,17.45-115.1,25.59q-28.83,6.12-57.79,11.7t-58,10.55q-29.05,5-58.28,9c-19.47,2.68-39,4.92-58.62,6.56s-39.28,2.58-59,2.3c-9.86-.23-19.73-.77-29.56-1.94a144,144,0,0,1-29.14-6.25,32.91,32.91,0,0,1-7.06-3.38,26.71,26.71,0,0,1-3.21-2.42,25.07,25.07,0,0,1-2.71-3,23,23,0,0,1-3.66-7.14l-.31-.94-.24-1c-.15-.64-.32-1.28-.45-1.92-.2-1.27-.46-2.56-.56-3.83a90.69,90.69,0,0,1-.05-15.1c.33-5,.83-9.87,1.31-14.76,1-9.77,1.91-19.48,2.26-29.21a239.53,239.53,0,0,0-.52-29.11c-.18-2.41-.49-4.84-.72-7.26s-.46-4.84-.81-7.25c-.72-4.81-1.26-9.65-2.19-14.42a278.11,278.11,0,0,0-6.4-28.43,247.69,247.69,0,0,0-9.35-27.53c-1.83-4.48-3.79-8.91-5.9-13.25-1.08-2.19-2.15-4.28-3.31-6.55l-.22-.42a6.82,6.82,0,0,1-.3-.68c-.12-.28-.22-.56-.32-.85-.46.39,1.54-5.84,1.21-3.66.19-.17.38-.32.52-.43l.43-.33.82-.59c1.07-.74,2.11-1.43,3.17-2.12,8.41-5.38,17-10.24,25.66-15s17.44-9.25,26.28-13.61q26.54-13.11,53.85-24.47T522.23,432q27.87-9.84,56.22-18.26a1212.34,1212.34,0,0,1,231.8-44.29c39.21-3.63,78.58-5.27,117.92-5.18,19.67,0,39.33.62,59,1.62q14.73.78,29.43,1.85c4.9.38,9.8.76,14.69,1.21S1041.27,369.93,1046.17,370.49Zm-.53.47-29.17-1.6q-14.7-.72-29.42-1.12-29.43-.78-58.86-.31c-39.23.57-78.4,3.06-117.38,7.17a1272.2,1272.2,0,0,0-230.18,46q-28.14,8.41-55.86,18.14t-54.86,20.93q-27.15,11.18-53.58,23.95-13.2,6.42-26.12,13.32c-8.59,4.63-17.15,9.41-25.31,14.57-1,.65-2,1.3-3,2l-.68.48-.29.22-.2.15c-.5,2.38,1-3.61.86-2.93h0l.08.16.2.4c1.07,2.11,2.22,4.39,3.3,6.62q3.22,6.75,6,13.7a248.09,248.09,0,0,1,9.38,28.3,281.06,281.06,0,0,1,6.28,29.09c.9,4.88,1.43,9.81,2.09,14.72.33,2.46.48,4.94.73,7.4s.49,4.93.64,7.41a246.6,246.6,0,0,1,.15,29.78c-.52,9.9-1.62,19.73-2.76,29.49-.57,4.87-1.13,9.73-1.53,14.57a84.79,84.79,0,0,0-.2,14.32c.06,1.18.28,2.31.44,3.46.1.57.24,1.12.36,1.68l.2.84.25.8a18.92,18.92,0,0,0,2.92,6,20.4,20.4,0,0,0,2.16,2.49,23,23,0,0,0,2.64,2,29.61,29.61,0,0,0,6.14,3.07,141.35,141.35,0,0,0,28.29,6.47c9.66,1.29,19.42,2,29.19,2.33s19.57.26,29.37,0,19.58-.85,29.36-1.63c19.57-1.42,39.07-3.68,58.52-6.29S614.7,723.32,634,720s38.61-7.16,57.83-11.16,38.38-8.29,57.51-12.7q57.42-13.2,114.55-27.48c38.06-9.59,76-19.49,113.5-31,18.71-5.77,37.3-12,55.39-19.27,9-3.64,18-7.58,26.55-12s16.88-9.53,24-15.78a61.49,61.49,0,0,0,5-4.95,43.65,43.65,0,0,0,4.15-5.51,29,29,0,0,0,4.45-12.61,33.47,33.47,0,0,0-1.73-13.48,52.79,52.79,0,0,0-2.6-6.55c-.49-1.07-1-2.13-1.59-3.19l-1.67-3.28-6.7-13.23c-2.11-4.46-4.07-9-6.1-13.5s-3.75-9.13-5.59-13.71l-2.68-6.9-2.4-7a384.74,384.74,0,0,1-15-57.18c-.43-2.43-.9-4.84-1.28-7.28l-1.06-7.31c-.18-1.22-.37-2.44-.52-3.66l-.43-3.67c-.26-2.44-.59-4.88-.81-7.34l-.63-7.35-.43-7.38q-.15-3.69-.23-7.38l0-3.69,0-1.84,0-.92A2.57,2.57,0,0,1,1045.64,371Z"/><path class="cls-13" d="M268.13,435.62S120.68,396,206.81,661l14.67-7.35s-64.38-193.78,23.7-198.52"/><path class="cls-14" d="M268.09,435.76a84.73,84.73,0,0,0-35.56.37A62.29,62.29,0,0,0,216,442.52a64.79,64.79,0,0,0-7.32,5,55.61,55.61,0,0,0-6.47,6,62.9,62.9,0,0,0-10,14.52,88.16,88.16,0,0,0-6.31,16.57A132.12,132.12,0,0,0,182.39,502c-.74,5.91-1.21,11.87-1.43,17.84-.65,23.93,2.32,48,7.36,71.42q3.8,17.61,8.77,34.94c3.31,11.55,7,23,10.79,34.37l-1.57-.65,14.61-7.48-.63,1.52c-3-8.94-5.57-18-8-27s-4.63-18.21-6.59-27.4a371.72,371.72,0,0,1-7.95-55.81,205.19,205.19,0,0,1,.17-28.27,112.08,112.08,0,0,1,5.41-27.81,63.93,63.93,0,0,1,6.13-12.85,44.08,44.08,0,0,1,9.38-10.72,39.53,39.53,0,0,1,12.44-6.8,48.77,48.77,0,0,1,13.89-2.38v.3a50.77,50.77,0,0,0-13.61,2.9,38.91,38.91,0,0,0-11.85,7A42.71,42.71,0,0,0,211,475.75a61.38,61.38,0,0,0-5.61,12.61,113.11,113.11,0,0,0-4.8,27.32,218.16,218.16,0,0,0,.23,27.89,421.45,421.45,0,0,0,8,55.37c3.75,18.29,8.42,36.44,13.93,54.26l.33,1-.95.47L207.32,662l-1.19.59-.39-1.24c-3.54-11.51-6.91-23.06-10-34.7s-5.9-23.33-8.34-35.12-4.59-23.63-6.15-35.57a265.12,265.12,0,0,1-2.5-36.08,174.27,174.27,0,0,1,1.08-18.12,124.1,124.1,0,0,1,3.48-17.88,87.89,87.89,0,0,1,6.65-17,65.61,65.61,0,0,1,10.54-15,58.61,58.61,0,0,1,6.8-6.18,57.93,57.93,0,0,1,7.71-5,64.07,64.07,0,0,1,17.16-6.17A75.41,75.41,0,0,1,250.26,433a79.55,79.55,0,0,1,17.91,2.49Z"/><path class="cls-15" d="M239,681.45c34.34,90.64,95.41,188,95.41,188l-33-28.83,3.48,11.08,3.58,13.9,5.06,24.45-25.33-32.3,2.5,29.23s-22.43-36.44-24.63-42.59l7.68,42.8S232.84,850.35,201,687.42"/><path class="cls-16" d="M245,687.12s-12.42-47.73-37.35-34.45c-21.26,11.33-4.37,51.9-4.37,51.9S236.75,697.34,245,687.12Z"/><path class="cls-14" d="M244.83,687.08c0,.11,0,0,0,0l0-.1-.08-.21-.16-.42-.34-.84-.68-1.66c-.45-1.11-.93-2.2-1.43-3.29-1-2.17-2-4.32-3.07-6.43a77.57,77.57,0,0,0-7.38-11.93,39.84,39.84,0,0,0-4.6-5,21.67,21.67,0,0,0-5.4-3.56,14,14,0,0,0-6-1.2,15.88,15.88,0,0,0-6.16,1.53,17,17,0,0,0-5.31,3.66,19.27,19.27,0,0,0-3.66,5.44,33.16,33.16,0,0,0-2.66,13.54,55.64,55.64,0,0,0,1.87,14.09A78.53,78.53,0,0,0,204.6,704L203,703.2,213.89,700l5.43-1.61c1.81-.54,3.6-1.14,5.4-1.71,3.57-1.19,7.12-2.45,10.56-4a52.13,52.13,0,0,0,5-2.48c.81-.47,1.61-1,2.37-1.49.39-.26.74-.56,1.13-.84Zm.39.09c-.27.39-.58.87-.9,1.26s-.63.76-1,1.1a25.33,25.33,0,0,1-2.18,2,39.2,39.2,0,0,1-4.84,3.28,76.75,76.75,0,0,1-10.49,5c-1.79.72-3.61,1.36-5.44,2s-3.66,1.21-5.51,1.71A99.93,99.93,0,0,1,203.6,706l-1.25.21-.35-1a134.44,134.44,0,0,1-3.62-14.1,106.09,106.09,0,0,1-2.21-14.34,46.35,46.35,0,0,1,0-7.36,29.21,29.21,0,0,1,1.47-7.37,20.88,20.88,0,0,1,17.76-13.66,16.87,16.87,0,0,1,8,1.45,21.94,21.94,0,0,1,6.47,4.43,34.75,34.75,0,0,1,4.88,5.8,51.37,51.37,0,0,1,3.74,6.4,68.48,68.48,0,0,1,2.93,6.71c.87,2.28,1.61,4.59,2.26,6.93.32,1.17.62,2.34.89,3.52.14.58.28,1.17.39,1.77l.17.89.08.44,0,.23,0,.11A1,1,0,0,1,245.22,687.17Z"/><path class="cls-14" d="M218.19,642.62a59.64,59.64,0,0,1-7.58-4.78,75,75,0,0,1-6.92-5.7c-1.1-1-2.15-2.09-3.18-3.18a43.52,43.52,0,0,1-2.9-3.46,22,22,0,0,1-4.14-8,36.22,36.22,0,0,0,5.28,7c2,2.15,4.06,4.23,6.23,6.21C209.27,634.79,213.78,638.59,218.19,642.62Z"/><path class="cls-14" d="M211.32,609.42a60.78,60.78,0,0,1-7.58-4.78,76.69,76.69,0,0,1-6.92-5.7c-1.1-1-2.15-2.1-3.18-3.18a43.67,43.67,0,0,1-2.9-3.47,22,22,0,0,1-4.14-8,36.59,36.59,0,0,0,5.28,7q3,3.23,6.23,6.2C202.4,601.58,206.91,605.38,211.32,609.42Z"/><path class="cls-14" d="M205,572.94a58.83,58.83,0,0,1-7.57-4.78,73.86,73.86,0,0,1-6.93-5.7c-1.09-1-2.15-2.09-3.18-3.18a43.4,43.4,0,0,1-2.89-3.46,21.87,21.87,0,0,1-4.14-8,35.94,35.94,0,0,0,5.27,7q3,3.23,6.23,6.21C196.11,565.11,200.62,568.91,205,572.94Z"/><path class="cls-17" d="M199.15,533.86s-16.71-11.33-20.65-22.17"/><path class="cls-17" d="M199.83,500.67s-12.36-4.05-16.3-14.89"/><path class="cls-18" d="M212.79,476.58S197.12,464.73,194,455.91"/><path class="cls-17" d="M217.14,439.79s.7,14,6.06,20.16"/><path class="cls-17" d="M247.33,433.55s-8.1,9.54-9.89,22.19"/><path class="cls-14" d="M230.13,695.19c4.47,11.42,9.18,22.79,14,34.09s9.79,22.55,14.94,33.71,10.49,22.24,16.08,33.19,11.5,21.74,17.85,32.28c-6.63-10.37-12.8-21-18.73-31.81s-11.52-21.77-17-32.8-10.73-22.17-15.87-33.36-10.15-22.43-15-33.8Z"/><path class="cls-14" d="M217.26,703.79c2.28,8.47,4.91,16.91,7.7,25.27s5.8,16.66,9,24.88c1.57,4.12,3.29,8.19,5,12.28s3.45,8.13,5.32,12.12c3.59,8.07,7.58,15.95,11.66,23.79-4.29-7.71-8.52-15.49-12.34-23.47-2-3.95-3.78-8-5.67-12s-3.62-8.08-5.31-12.17q-5.19-12.22-9.75-24.7c-3.05-8.32-5.92-16.68-8.47-25.22Z"/></svg>