<svg id="Layer_1" data-name="Layer 1" xmlns="http://www.w3.org/2000/svg" viewBox="0 0 2000 1819.29"><defs><style>.cls-1,.cls-17,.cls-18{fill:none;}.cls-1{stroke:#00abda;stroke-width:79px;}.cls-1,.cls-15,.cls-17,.cls-18{stroke-miterlimit:10;}.cls-1,.cls-7,.cls-8{fill-rule:evenodd;}.cls-2{fill:#eaca9b;}.cls-3{fill:#473519;}.cls-4{fill:#f6dfb6;}.cls-5{fill:#ce3a35;}.cls-6{fill:#7a1e20;}.cls-7{fill:#006883;}.cls-8,.cls-9{fill:#00abda;}.cls-10{fill:#424243;}.cls-11{fill:#343334;}.cls-12{fill:#161616;}.cls-13,.cls-15{fill:#ecb730;}.cls-14{fill:#94662f;}.cls-15,.cls-17,.cls-18{stroke:#94662f;}.cls-15{stroke-width:1.98px;}.cls-16{fill:#de8a2e;}.cls-17{stroke-width:1.9px;}.cls-18{stroke-width:1.47px;}</style></defs><title>Mesa de trabajo 19</title><path class="cls-1" d="M1498.75,1034.59s174.24,83.76,116.32-128.32"/><path class="cls-2" d="M1469.87,660c-20.23,6.43-49,9.95-77.83-34-28.66-43.65,10.39-95.12,62-110.77S1573.1,627.15,1469.87,660Z"/><path class="cls-3" d="M1469.93,660.17a83.68,83.68,0,0,1-13.72,3.24,55.38,55.38,0,0,1-14.09.24,51.29,51.29,0,0,1-13.66-3.48,60.92,60.92,0,0,1-12.34-6.89c-7.7-5.5-14.19-12.52-19.9-20l-2.11-2.84-2-2.91a64.32,64.32,0,0,1-3.75-6,56.68,56.68,0,0,1-3-6.45,54,54,0,0,1-2.26-6.79,57.26,57.26,0,0,1,.07-28.4,76.11,76.11,0,0,1,12.3-25.66,102.51,102.51,0,0,1,19.8-20.43,119.94,119.94,0,0,1,37.64-19.91,33.46,33.46,0,0,1,14.64-1.45,43.32,43.32,0,0,1,14,4.3,61,61,0,0,1,12.12,8,81.22,81.22,0,0,1,10.18,10.22,88.16,88.16,0,0,1,8.32,11.72,97.54,97.54,0,0,1,11,26.44,87.43,87.43,0,0,1,2.3,14.19,76,76,0,0,1-.3,14.39,63.82,63.82,0,0,1-9.53,26.87,67.22,67.22,0,0,1-20.08,19.91A101.27,101.27,0,0,1,1469.93,660.17Zm-.12-.38A94.2,94.2,0,0,0,1495,647.58a64.79,64.79,0,0,0,18.86-20.19,61.06,61.06,0,0,0,8.06-26.12A80.14,80.14,0,0,0,1519.3,574a95.84,95.84,0,0,0-10.74-25.29,85.85,85.85,0,0,0-17.53-21,59.09,59.09,0,0,0-11.26-7.61A39.84,39.84,0,0,0,1467,516a29.82,29.82,0,0,0-13.16,1.14,114,114,0,0,0-13,4.8A115.17,115.17,0,0,0,1417,536.06a99.73,99.73,0,0,0-19.49,19.66,73.7,73.7,0,0,0-12.17,24.69,55,55,0,0,0-.38,27.33,52.49,52.49,0,0,0,2,6.6,56,56,0,0,0,2.85,6.32,63.63,63.63,0,0,0,3.56,6l1.94,2.91,2,2.85c5.49,7.53,11.72,14.62,19.21,20.21a59.41,59.41,0,0,0,12.07,7c1.07.47,2.17.86,3.26,1.27s2.22.75,3.35,1a43.54,43.54,0,0,0,6.88,1.33,54.53,54.53,0,0,0,14-.24A82.4,82.4,0,0,0,1469.81,659.79Z"/><path class="cls-4" d="M1769.59,1031.71s-44.37-114.31-162.27-223.56-227.55-151-227.55-151,106.17,32.36,133.54-45.67c22.66-64.63-26.23-110.07-59.22-96.23,0,0,44.9-18.27,72.64,43.24s194.78,232.61,249.63,263.34,127.11,63,127.11,63,25.66,49.79-32.81,117.6C1826.06,1054.12,1769.59,1031.71,1769.59,1031.71Z"/><path class="cls-3" d="M1769.41,1031.9l-1.77-4.05-1.77-3.93c-1.21-2.61-2.45-5.2-3.71-7.79q-3.79-7.74-7.82-15.37-8.08-15.24-17-30c-11.95-19.64-24.64-38.82-38.38-57.23s-28.31-36.19-43.57-53.35-31.46-33.45-48.26-49.08-34.32-30.53-52.29-44.82q-3.35-2.71-6.76-5.33l-6.81-5.28-6.88-5.18c-2.28-1.73-4.58-3.45-6.91-5.13q-13.86-10.22-28.12-19.89c-19-12.85-38.44-25.15-58.44-36.45q-15-8.49-30.38-16.24-7.69-3.88-15.5-7.51c-5.2-2.41-10.45-4.77-15.73-6.89l.85-2.51A164.29,164.29,0,0,0,1398,660c6,1.06,12.11,1.86,18.21,2.33a142.64,142.64,0,0,0,36.57-1.62c12-2.24,23.68-6.61,33.62-13.68a69.49,69.49,0,0,0,22.91-27.91,98.13,98.13,0,0,0,6-17.27,93.74,93.74,0,0,0,2.74-18.07,77,77,0,0,0-6.33-35.6c-5-11-12.86-20.89-23.09-27.28a43.71,43.71,0,0,0-16.63-6.33,32.14,32.14,0,0,0-17.34,2.07l-1.14-2.77a35.13,35.13,0,0,1,4.72-1.42,48,48,0,0,1,4.76-.87,51.76,51.76,0,0,1,28.38,4.2,59,59,0,0,1,15.95,10.8,81.41,81.41,0,0,1,12.3,14.7,121.66,121.66,0,0,1,9.15,16.71,148.71,148.71,0,0,0,9,16.14c6.65,10.46,14,20.52,21.65,30.37,15.3,19.68,31.56,38.65,48.27,57.2s33.92,36.67,51.5,54.42q13.18,13.3,26.67,26.3t27.28,25.64c9.22,8.41,18.58,16.65,28.14,24.62a347.57,347.57,0,0,0,29.58,22.53c2.58,1.71,5.15,3.27,7.85,4.77l8.19,4.53c5.48,3,10.95,6,16.49,8.85,11,5.83,22.18,11.47,33.35,17.07q33.51,16.74,67.63,32.31l.76.35.33.68a39.93,39.93,0,0,1,1.53,3.74c.44,1.23.83,2.47,1.19,3.71a73.49,73.49,0,0,1,1.72,7.55,88.68,88.68,0,0,1,1.27,15.33,105.66,105.66,0,0,1-4.72,30.16c-6,19.51-16.68,37.15-29.38,52.78l-4.87,5.78c-1.65,1.91-3.37,3.78-5.15,5.58a106.77,106.77,0,0,1-11.39,10.07,90.31,90.31,0,0,1-56.58,18.73,95.78,95.78,0,0,1-15-1.38q-3.72-.64-7.37-1.59-1.83-.46-3.63-1l-1.8-.59-.89-.31-.44-.17A3.65,3.65,0,0,1,1769.41,1031.9Zm.37-.38s.2,0,.35.1l.44.15.89.29,1.79.53c1.2.33,2.41.64,3.62.92,2.43.56,4.89,1,7.35,1.37a97.62,97.62,0,0,0,14.89,1,89.66,89.66,0,0,0,29.19-5.09,90.65,90.65,0,0,0,25.82-14.37,104.42,104.42,0,0,0,10.94-10c3.45-3.54,6.5-7.48,9.67-11.32,12.28-15.59,22.43-33,28-52a102.67,102.67,0,0,0,4.27-29,84.44,84.44,0,0,0-1.35-14.56,67.49,67.49,0,0,0-1.68-7.08c-.34-1.16-.72-2.3-1.13-3.43a34.45,34.45,0,0,0-1.34-3.19l1.09,1q-34.33-15.32-68.09-31.79-16.89-8.24-33.56-16.92c-5.57-2.88-11.09-5.86-16.61-8.82l-8.25-4.53c-2.77-1.52-5.56-3.19-8.2-4.94-5.33-3.47-10.44-7.19-15.44-11s-9.91-7.76-14.74-11.79c-9.64-8-19.06-16.35-28.32-24.81-18.53-16.9-36.49-34.4-54-52.3s-34.7-36.16-51.39-54.86q-12.53-14-24.63-28.41c-8-9.61-16-19.35-23.55-29.35s-14.94-20.2-21.62-30.92a149.36,149.36,0,0,1-9.11-16.7,117.76,117.76,0,0,0-8.71-16.25,78.79,78.79,0,0,0-11.53-14.16A55.62,55.62,0,0,0,1489.92,519a48,48,0,0,0-17.45-4.52,49.1,49.1,0,0,0-9.07.24c-1.5.18-3,.43-4.47.75a35.47,35.47,0,0,0-4.27,1.22l-1.15-2.77a35.21,35.21,0,0,1,18.92-2.05,46.26,46.26,0,0,1,17.58,6.92c10.64,6.84,18.68,17.15,23.64,28.59a79.78,79.78,0,0,1,6.21,36.53,98.37,98.37,0,0,1-2.89,18.39,99.44,99.44,0,0,1-6.17,17.56,72.21,72.21,0,0,1-23.46,28.55c-10.15,7.28-22.08,11.73-34.24,14.08a144.27,144.27,0,0,1-37,2q-9.27-.61-18.45-2.09a171.87,171.87,0,0,1-18.22-3.91l.86-2.51c5.43,2.1,10.72,4.38,16,6.73s10.5,4.8,15.69,7.32q15.57,7.54,30.75,15.88t30,17.3c9.87,6,19.63,12.15,29.21,18.59a849.42,849.42,0,0,1,108.35,86c16.86,15.78,32.91,32.42,48.21,49.71,7.59,8.7,15,17.5,22.2,26.57,3.63,4.48,7.1,9.1,10.63,13.66s6.94,9.22,10.27,13.93q10.15,14,19.57,28.54t18.07,29.5q8.63,15,16.41,30.44c2.58,5.15,5.12,10.33,7.49,15.58q1.79,3.93,3.49,7.91l1.67,4,.82,2,.39,1A7.13,7.13,0,0,1,1769.78,1031.52Z"/><path class="cls-3" d="M1477.91,651.59q-9.65-7.44-19.52-14.52t-20-13.84c-3.34-2.29-6.78-4.41-10.15-6.64l-5.13-3.24c-1.7-1.11-3.41-2.18-5.13-3.24-6.81-4.37-13.8-8.46-20.86-12.44l-7.27-4.1,8,2.32a91.21,91.21,0,0,0,24.31,3.67,56.67,56.67,0,0,0,12.21-1.07A32.39,32.39,0,0,0,1445.5,594a20.37,20.37,0,0,0,2.33-1.8,10.11,10.11,0,0,0,1-1c.33-.36.68-.7,1-1.07l.85-1.18a7.34,7.34,0,0,0,.78-1.21,16.9,16.9,0,0,0,1.25-2.61,27.77,27.77,0,0,0,1.58-11.52l-.27-3c-.1-1-.3-2-.43-3s-.33-2-.53-3-.38-2-.64-3a41.15,41.15,0,0,0-4.12-11,18.54,18.54,0,0,0-3.45-4.34,11,11,0,0,0-4.52-2.43c-3.31-.88-7.06.16-10.34,2a24.81,24.81,0,0,0-4.65,3.3,20.67,20.67,0,0,0-2,2,11,11,0,0,0-1.48,2.24,31.47,31.47,0,0,0-3.34,11.09,22.2,22.2,0,0,0,1.38,11.26,10.85,10.85,0,0,0,3.34,4.22,11,11,0,0,0,5.12,2c3.82.53,7.86-.43,11.71-1.67a77.74,77.74,0,0,0,11.27-5l.21.34a67.67,67.67,0,0,1-10.92,6.1c-.49.21-1,.43-1.46.62l-1.49.53a29.32,29.32,0,0,1-3.08.88,21.57,21.57,0,0,1-6.49.6,13.75,13.75,0,0,1-6.46-2.07,13.09,13.09,0,0,1-4.58-5.14,24.76,24.76,0,0,1-2.22-13,34.11,34.11,0,0,1,3.42-12.65,15.34,15.34,0,0,1,1.89-2.95,23.85,23.85,0,0,1,2.32-2.48,29,29,0,0,1,5.37-4,22.86,22.86,0,0,1,6.37-2.47,15.58,15.58,0,0,1,7.12.07,14.76,14.76,0,0,1,6.26,3.48,22.25,22.25,0,0,1,4.14,5.42,44.94,44.94,0,0,1,4.3,12.21c.25,1,.42,2.09.6,3.13s.36,2.08.48,3.13.28,2.08.36,3.15l.19,3.22a29.44,29.44,0,0,1-2.38,12.78,19.54,19.54,0,0,1-1.6,2.9,9.62,9.62,0,0,1-1,1.33l-1,1.28c-.38.4-.79.76-1.19,1.15a11.35,11.35,0,0,1-1.22,1.08,24.12,24.12,0,0,1-2.68,1.85,34.24,34.24,0,0,1-12,4.15,68.21,68.21,0,0,1-12.51.82,117.72,117.72,0,0,1-12.45-.95c-4.14-.52-8.23-1.2-12.34-2.11L1398,596c7.32,3.56,14.64,7.19,21.71,11.27,3.57,2,7,4.19,10.46,6.33s6.82,4.48,10.15,6.83q10,7,19.55,14.68c6.32,5.15,12.49,10.47,18.27,16.22Z"/><path class="cls-3" d="M1507.09,621.06l-.59-.72-.66-.76-1.31-1.51-2.66-3L1496.6,609q-5.26-6.07-10.45-12.21c-6.87-8.23-13.63-16.56-20.11-25.14-3.26-4.27-6.4-8.65-9.47-13.11-1.43-2.32-3-4.53-4.22-7a56.62,56.62,0,0,0-3.79-6.67,14.89,14.89,0,0,0-2.37-2.62,11.48,11.48,0,0,0-2.91-1.73,10.33,10.33,0,0,0-3.34-.65,15.35,15.35,0,0,0-3.58.43,26,26,0,0,0-7,3.06A47.22,47.22,0,0,0,1423,548l-.3-.26a34.64,34.64,0,0,1,5.65-5.9,25,25,0,0,1,7.23-4.26,15.78,15.78,0,0,1,4.31-.94,13.65,13.65,0,0,1,4.56.51,14,14,0,0,1,4.11,2.1,19,19,0,0,1,3.2,3.13,46.54,46.54,0,0,1,4.3,7.17l.91,1.73c.31.57.67,1.13,1,1.7l2,3.42c1.41,2.24,2.76,4.52,4.24,6.73s2.93,4.45,4.47,6.62c6.11,8.75,12.54,17.3,19.08,25.77,3.24,4.25,6.54,8.47,9.84,12.68l5,6.3,2.48,3.16,1.23,1.59.62.8c.2.27.42.59.61.88Z"/><path class="cls-2" d="M1890.94,875.45l13.57-28.34s-76.11,3.91-185.2-77.61C1719.31,769.5,1791.6,852.51,1890.94,875.45Z"/><path class="cls-3" d="M1890.85,875.27l6.35-14.51c2.07-4.79,4.16-9.48,6.27-14.15l1.1,1.65a106.5,106.5,0,0,1-12.91-.35c-4.26-.39-8.52-.83-12.74-1.56s-8.42-1.48-12.61-2.33c-2.1-.4-4.16-.95-6.24-1.48l-6.21-1.57c-4.13-1.08-8.18-2.44-12.27-3.68-2-.59-4-1.34-6.06-2.08l-6-2.22c-4-1.39-7.91-3.19-11.83-4.87s-7.85-3.33-11.64-5.29l-11.46-5.63-11.22-6.08-5.62-3c-1.89-1-3.68-2.13-5.53-3.19-3.65-2.17-7.34-4.29-11-6.42l-2.76-1.6-2.7-1.7-5.38-3.41L1739.56,785l-21.08-14.4,1.89-2c5.75,6.15,11.84,12.12,18.09,17.84s12.62,11.34,19.19,16.71,13.31,10.53,20.15,15.54,13.83,9.81,20.94,14.4a362.7,362.7,0,0,0,44.45,24.64c3.82,1.84,7.73,3.47,11.63,5.17,2,.82,3.94,1.57,5.91,2.36l3,1.17c1,.38,2,.71,3,1.08l6,2.16,6.06,2,3,1,3,.86Zm.17.36-6.3-1.31-3.22-.7-3.1-.81-6.2-1.62-6.14-1.87c-1-.32-2-.61-3.06-1l-3-1c-2-.71-4.06-1.38-6.06-2.12-4-1.54-8-3-12-4.72s-7.84-3.45-11.73-5.25c-1.94-.9-3.85-1.88-5.77-2.83l-2.87-1.44-2.84-1.5c-7.61-3.94-15-8.32-22.25-12.87a363.34,363.34,0,0,1-41.36-30.43,345.71,345.71,0,0,1-36.88-35.74l-8.54-9.76,10.43,7.72c6.8,5,13.57,10.14,20.44,15.11l10.57,7.08,5.3,3.5c.89.58,1.76,1.18,2.66,1.74l2.75,1.61c3.65,2.15,7.3,4.31,11,6.42,1.84,1,3.64,2.18,5.53,3.13l5.67,2.89c3.78,1.91,7.54,3.86,11.37,5.67l11.63,5.11c3.84,1.79,7.82,3.23,11.76,4.77s7.87,3.09,11.88,4.41l6,2.07c2,.68,4,1.44,6,2l6,1.84,3,.94,1.51.47,1.53.41c8.14,2.2,16.33,4.25,24.64,5.69,4.14.8,8.32,1.34,12.49,1.88a120.7,120.7,0,0,0,12.52.83h1.94l-.84,1.66c-2.41,4.78-4.85,9.54-7.3,14.2Z"/><path class="cls-5" d="M1651.1,862.13s50.54-23.65,78.19-88.13c0,0-51.64-37.57-84.75-76.66,0,0-20.65,59.95-71.66,82.35C1572.88,779.69,1610.67,807,1651.1,862.13Z"/><path class="cls-6" d="M1651.17,861.87c-.12-.07.11-.11.23-.2l.4-.23.81-.47,1.6-1,3.15-2c2.09-1.37,4.12-2.8,6.13-4.26,4-3,7.87-6.09,11.63-9.33a189.17,189.17,0,0,0,20.78-21.21c1.61-1.87,3.12-3.83,4.66-5.76s3-3.92,4.43-5.94c2.91-4,5.59-8.14,8.17-12.34a203.07,203.07,0,0,0,13.5-26.29l.95,3.43c-7.74-5.74-15.28-11.61-22.64-17.76s-14.61-12.39-21.72-18.81l-5.3-4.86c-1.76-1.62-3.47-3.3-5.21-5l-2.59-2.49-2.55-2.53c-1.69-1.71-3.39-3.39-5.06-5.12-6.66-6.89-13-14.11-19.09-21.52l2.44-.46a180.32,180.32,0,0,1-12.64,25.2c-2.41,4-4.9,8-7.6,11.82s-5.45,7.62-8.42,11.25-6,7.18-9.31,10.57a130.94,130.94,0,0,1-10.28,9.7,109.27,109.27,0,0,1-23.87,15.38l.41-3.83c4,2.88,7.68,5.82,11.33,9s7.23,6.27,10.68,9.57c1.75,1.63,3.46,3.3,5.17,5s3.41,3.34,5.07,5.06c3.37,3.39,6.58,6.92,9.83,10.42,1.6,1.77,3.19,3.55,4.75,5.35l2.36,2.7,2.29,2.74,4.58,5.49,4.42,5.63c3,3.7,5.73,7.61,8.57,11.43l1,1.44,1,1.42,1.94,2.87Zm-.13.52-9.28-11-4.63-5.41-2.31-2.7-2.35-2.66c-6.22-7.15-12.71-14.05-19.23-20.9-3.31-3.37-6.61-6.75-10-10-1.67-1.68-3.37-3.32-5.09-4.94s-3.42-3.25-5.17-4.84c-7-6.34-14.06-12.67-21.39-18.38l-3.07-2.39,3.48-1.44A108.55,108.55,0,0,0,1595.78,764a128.52,128.52,0,0,0,10.58-8.94,133.82,133.82,0,0,0,9.53-10.1,152.4,152.4,0,0,0,15.82-22.87c2.28-4,4.42-8.16,6.32-12.39a137.62,137.62,0,0,0,5.16-12.84l.78-2.3,1.66,1.84c6.35,7.06,13,13.82,19.88,20.39s13.87,13,21,19.21,14.47,12.33,21.89,18.27,14.92,11.82,22.53,17.41l1.85,1.36-.91,2.07a194.29,194.29,0,0,1-14.3,26.83,181.53,181.53,0,0,1-18.5,24.06c-1.69,1.89-3.45,3.7-5.21,5.51s-3.61,3.54-5.49,5.24q-5.57,5.13-11.55,9.78a146.71,146.71,0,0,1-12.38,8.65c-2.14,1.33-4.3,2.62-6.5,3.83-1.1.61-2.22,1.19-3.34,1.75l-1.7.83-.86.39-.43.19A1.89,1.89,0,0,1,1651,862.39Z"/><path class="cls-7" d="M1712.44,914.14a46.85,46.85,0,0,1-3.69,12.2,46.13,46.13,0,0,1-3.69,6.55c-21.29,31.3-69.26,26-100.09,10.44-29.22-14.7-61.93-47.81-56.23-84.23a47.42,47.42,0,0,1,2.21-8.7C1528.46,797.76,1540.38,728.13,1584,697a70.37,70.37,0,0,1,1.82-12.78c6.73-28.23,20.47-55.62,46.38-68.09,25.35-12.21,52.55-6.21,71.26,18.65a51.31,51.31,0,0,1,10.22,26.58l.27.19c21.92-3.74,43.19,5.32,57.56,27.12a51.18,51.18,0,0,1,8.56,27.39c16.34,1.68,31.45,10.9,42.49,27.65,28.52,43.25-21.64,110.84-62.28,117.54C1747.56,887.24,1731.87,904.58,1712.44,914.14Z"/><path class="cls-8" d="M1641.23,909c34.7-7.49,44.76-44.62,27.22-78.34,6.5,63.75-28.73,82.14-63.26,64.83-73.36-36.77-70.51-159.8-7-194.12,28.11-15.18,85.58-22.77,96,22.11,12,53.34-43,89.71-81,61.22,21.75,25.89,39.77,27.54,58.87,14.09,6.5,5,16.2,7.77,26.59,10.39,2.25,28.14,23.81,49.49,49.27,52.25-20.2,38.56-47.68,59.26-106.77,47.57Zm160.2-89.21c17.6-23.67,25.88-49.95,12.6-70.08-9.72-14.75-22.12-21.43-34.7-22.6-2.56,16.45-11.22,32.31-20.51,44.79a105.91,105.91,0,0,1-12.58,14.22,75.57,75.57,0,0,1-10.5,9.27,57.56,57.56,0,0,1-26.53,10.87c1.17,34.9,38.53,58.7,71.25,34.92a66.26,66.26,0,0,0,9.35-8.29,97.2,97.2,0,0,0,11.62-13.1Zm-51-55c17.59-23.67,25.88-50,12.6-70.08-13.52-20.51-32.22-25.44-49.35-21.59-1.26,13.25-6.35,26.37-12.62,37.79a62.54,62.54,0,0,1,3.47,10.66c6.15,27.43-3.33,53.85-21.7,69.57,13.45,6.91,30.59,6.69,46.63-5a65.65,65.65,0,0,0,9.34-8.29,96.58,96.58,0,0,0,11.63-13.1Zm-154.85-74.63c29-14.51,76.79-19.37,99,9.6,10.35-21.05,12.85-42.35.83-58.33-17.11-22.73-39.81-24-58.3-15.07-23.2,11.16-35.07,36.35-41,61.25C1595.86,688.42,1595.69,689.26,1595.53,690.11Z"/><path class="cls-9" d="M734.35,872a63,63,0,1,0,63.27,63A62.93,62.93,0,0,0,734.35,872Z"/><path class="cls-9" d="M1161.24,872a63,63,0,1,0,63.27,63C1224.51,900.17,1196,872,1161.24,872Z"/><polygon class="cls-9" points="1083.68 766.55 1066.35 813.93 1255.85 883.39 1273.17 836.01 1083.68 766.55"/><polygon class="cls-9" points="622.4 836.01 639.74 883.39 829.23 813.93 811.91 766.55 622.4 836.01"/><path class="cls-9" d="M695.67,1083c0,139.32,113,252.28,252.12,252.28,139.48,0,252.43-113,252.43-252.28Z"/><path class="cls-9" d="M943.71,585.66a499.25,499.25,0,0,1,411.77,781.47,88.32,88.32,0,0,0-15.5,47.25c-.22,7-1.63,70.17,16.82,140.18a404.11,404.11,0,0,0,15.45,47.06,438.94,438.94,0,0,1-62.75-9.16c-36.81-8.22-70.63-21.32-100.51-38.93a88.42,88.42,0,0,0-78.06-5.78A499.33,499.33,0,1,1,943.71,585.66m0-88.4c-324.51,0-587.58,263.07-587.58,587.58s263.07,587.58,587.58,587.58a585.87,585.87,0,0,0,220.4-42.74c82.32,48.52,172.17,61.71,245.51,61.71,87.39,0,151.35-18.71,151.35-18.71-139.66-34.41-132.64-255.49-132.64-255.49a584.85,584.85,0,0,0,103-332.35c0-324.51-263.07-587.58-587.59-587.58Z"/><path class="cls-10" d="M217.37,673.12c-20.5-9.45-28-20.65-28.76-31.16-3.69-12.44,4.76-19.35,4.76-19.35l1.47-1.39a52.37,52.37,0,0,1,8.21-9.59C322.84,502,612.06,226.09,625.67,212.19c14.49-14.79,35.61-31.09,68.84-26.1,86.34,13,186.09,26.28,278.92,37.89,84.71,8.7,188.77,20.63,315.05,37l.14,0c11.77,1.78,16.17,10.52,17.18,20,1.69,8.87.89,21.61-5.28,39.91-7,20.86-39.21,51.64-77.72,82.38-54.26,48.21-125,94.71-183,121.32C926.52,576.62,570,694.12,570,694.12c-11.88,2.6-30,5.09-52.11,7,.23.81.36,1.24.36,1.24-6,1.29-29.49,2.25-61.11,2.09C395.9,706,323.8,702.8,266.85,689.41,245.79,685.15,228.37,679.8,217.37,673.12Z"/><path class="cls-11" d="M1078.14,341.7s5.29,81.55,62.77,166.7c33,48.94-13.26,86.53-335.36,189.44C705.16,729.91,539.37,777.24,469,759.61c-32.71-8.19-12.6-47.75-23.36-109.54C434.14,583.92,407.38,549,406.77,547S662.5,345.41,1078.14,341.7Z"/><path class="cls-12" d="M1078.39,341.43a10.2,10.2,0,0,1,.2,1.15l.1.91.21,1.83.5,3.64q.54,3.63,1.16,7.26l1.36,7.22,1.52,7.19c.51,2.4,1.13,4.77,1.69,7.15l.86,3.57c.3,1.19.64,2.37,1,3.55l1.94,7.08c.67,2.36,1.42,4.69,2.12,7a398.56,398.56,0,0,0,21.29,54.64l3.14,6.62,3.41,6.49c2.32,4.3,4.45,8.69,7,12.86s4.88,8.45,7.44,12.61l8,12.28,2,3.08c.7,1.05,1.4,2.11,2,3.2a57.67,57.67,0,0,1,3.58,6.79,38.61,38.61,0,0,1,3.61,15.24,33.79,33.79,0,0,1-.91,7.95,35.7,35.7,0,0,1-2.73,7.45,49.06,49.06,0,0,1-4,6.69,66.7,66.7,0,0,1-4.88,5.94c-6.94,7.49-15,13.52-23.28,19s-16.93,10.41-25.7,15c-17.53,9.16-35.56,17.19-53.73,24.8s-36.54,14.68-55,21.51-37,13.3-55.61,19.68c-37.25,12.58-74.71,24.51-112.22,36.2q-28.14,8.77-56.45,17T701.22,730c-19,5.14-38,9.89-57.18,14.38s-38.39,8.53-57.75,12-38.87,6.24-58.53,7.79c-9.84.7-19.72,1.08-29.62.83a144,144,0,0,1-29.59-3.5,33.42,33.42,0,0,1-7.35-2.72,25.69,25.69,0,0,1-3.41-2.11,23.52,23.52,0,0,1-3-2.75,22.92,22.92,0,0,1-4.31-6.76l-.41-.91-.32-.93c-.21-.62-.44-1.24-.63-1.86-.32-1.26-.7-2.51-.91-3.77a89.66,89.66,0,0,1-1.46-15c-.13-5-.1-9.9-.07-14.81.06-9.82.08-19.58-.48-29.3A239.25,239.25,0,0,0,443,651.64c-.41-2.39-.94-4.78-1.4-7.16s-.91-4.79-1.48-7.15c-1.17-4.72-2.15-9.49-3.53-14.16a277.14,277.14,0,0,0-9-27.7,249.3,249.3,0,0,0-11.87-26.54q-3.36-6.43-7.11-12.64c-1.28-2.08-2.54-4.07-3.91-6.21l-.25-.4a7.3,7.3,0,0,1-.37-.65c-.14-.27-.27-.54-.4-.81-.41.42,1-6,.86-3.76L405,544l.41-.37.75-.66c1-.84,2-1.63,3-2.41,7.87-6.15,16-11.78,24.15-17.31s16.51-10.83,24.9-16q25.2-15.53,51.34-29.38t53-26.29q26.85-12.4,54.28-23.42A1212.61,1212.61,0,0,1,843.4,362.43c38.7-7.27,77.74-12.57,116.92-16.15,19.59-1.82,39.22-3,58.87-3.88q14.73-.6,29.47-.9c4.91-.08,9.83-.15,14.74-.16S1073.46,341.33,1078.39,341.43Zm-.49.53-29.19,1.12q-14.71.66-29.4,1.63-29.37,2-58.63,5.17c-39,4.23-77.77,10.36-116.2,18.09a1272.65,1272.65,0,0,0-224.89,67.25q-27.23,11-53.92,23.27T513,484.44q-26,13.65-51.12,28.84-12.54,7.62-24.77,15.7c-8.12,5.41-16.19,11-23.84,16.86-.94.74-1.88,1.49-2.77,2.23l-.63.54-.27.25-.18.17c-.28,2.42.7-3.7.58-3h0s0,0,.09.15l.24.38c1.26,2,2.62,4.17,3.9,6.28q3.84,6.43,7.25,13.08a247.68,247.68,0,0,1,12,27.3,283.83,283.83,0,0,1,9,28.38c1.36,4.78,2.34,9.64,3.46,14.47.55,2.41.94,4.87,1.41,7.3s.95,4.86,1.33,7.31a246,246,0,0,1,2.92,29.64c.41,9.91.23,19.8,0,29.62-.11,4.9-.23,9.8-.17,14.65a85.12,85.12,0,0,0,1.13,14.28c.18,1.17.5,2.27.76,3.4.16.56.36,1.09.53,1.64l.27.81.33.78a18.89,18.89,0,0,0,3.46,5.66,20.54,20.54,0,0,0,2.38,2.28,22.8,22.8,0,0,0,2.82,1.79,29.21,29.21,0,0,0,6.4,2.48,140.36,140.36,0,0,0,28.77,3.81c9.74.38,19.51.15,29.28-.4s19.51-1.57,29.24-2.76,19.42-2.67,29.08-4.35c19.35-3.25,38.55-7.32,57.68-11.72s38.13-9.33,57.07-14.5,37.77-10.72,56.53-16.5,37.44-11.83,56.08-18q55.93-18.48,111.49-38c37-13.09,73.89-26.49,110.12-41.4,18.09-7.49,36-15.39,53.35-24.34,8.67-4.47,17.17-9.23,25.32-14.47s15.91-11.06,22.4-17.95a64.15,64.15,0,0,0,4.52-5.39,43.55,43.55,0,0,0,3.61-5.88,29,29,0,0,0,3.26-13,33.43,33.43,0,0,0-3-13.26,52.26,52.26,0,0,0-3.2-6.28c-.59-1-1.23-2-1.88-3l-2-3.11-7.9-12.54c-2.52-4.25-4.89-8.59-7.33-12.88s-4.59-8.74-6.84-13.13l-3.32-6.62-3.05-6.75a385.68,385.68,0,0,1-20.24-55.53c-.65-2.38-1.35-4.74-1.95-7.13l-1.74-7.18c-.29-1.2-.59-2.39-.86-3.59l-.76-3.61c-.49-2.42-1-4.82-1.49-7.24l-1.32-7.26-1.11-7.3q-.49-3.66-.92-7.33l-.38-3.67-.14-1.84-.08-.92A3.45,3.45,0,0,1,1077.9,342Z"/><path class="cls-13" d="M309.8,478.8s-150.5-25.73-40,230.07l13.92-8.69s-82.16-186.93,5.08-199.85"/><path class="cls-14" d="M309.78,479a84.94,84.94,0,0,0-35.37,3.68,62.59,62.59,0,0,0-15.84,7.9,63.45,63.45,0,0,0-6.83,5.61,56.59,56.59,0,0,0-5.89,6.58,63.2,63.2,0,0,0-8.61,15.39,88.89,88.89,0,0,0-4.74,17.09,132.91,132.91,0,0,0-1.87,17.72q-.27,8.94.24,17.9c1.58,23.88,6.77,47.53,14,70.42q5.43,17.18,12,34c4.38,11.19,9.1,22.23,14,33.22l-1.63-.51,13.85-8.8-.48,1.57c-3.8-8.62-7.22-17.35-10.49-26.16s-6.3-17.7-9.11-26.66A371.7,371.7,0,0,1,249.81,593a207.3,207.3,0,0,1-2.47-28.17,112,112,0,0,1,2.8-28.19,63.47,63.47,0,0,1,4.91-13.37,44.12,44.12,0,0,1,8.33-11.54,39.32,39.32,0,0,1,11.76-7.93,48.61,48.61,0,0,1,13.6-3.66l.05.3a50.34,50.34,0,0,0-13.29,4.15,38.67,38.67,0,0,0-11.14,8.11,42.59,42.59,0,0,0-7.74,11.35,61.4,61.4,0,0,0-4.4,13.08A112.84,112.84,0,0,0,250,564.82a217.62,217.62,0,0,0,2.83,27.75A423.53,423.53,0,0,0,265.89,647c5.45,17.86,11.79,35.5,18.94,52.73l.42,1-.91.56-14,8.58-1.13.69-.49-1.2c-4.6-11.13-9-22.32-13.2-33.61S247.48,653,244,641.52s-6.77-23.1-9.43-34.85A263.17,263.17,0,0,1,228.67,571a171.44,171.44,0,0,1-.62-18.14,122.63,122.63,0,0,1,1.8-18.12,87.58,87.58,0,0,1,5-17.56,65.67,65.67,0,0,1,9.1-15.89,59.42,59.42,0,0,1,6.2-6.78,57.25,57.25,0,0,1,7.21-5.69,64.47,64.47,0,0,1,16.51-7.74,75.13,75.13,0,0,1,17.87-3.21,78.54,78.54,0,0,1,18.06.81Z"/><path class="cls-15" d="M303.69,726.29c42.63,87,112.52,178.31,112.52,178.31L380.71,879l4.49,10.71,4.86,13.5,7.32,23.88-28.23-29.8,5.22,28.87s-25.74-34.19-28.5-40.11l11.63,41.89S313.33,895,266.45,735.76"/><path class="cls-16" d="M310.24,731.37s-16.82-46.36-40.4-30.82c-20.11,13.26.49,52.08.49,52.08S303,742.31,310.24,731.37Z"/><path class="cls-14" d="M310,731.35c0,.11,0,0,0,0l-.05-.1-.1-.2-.21-.4-.41-.8-.83-1.6c-.56-1-1.13-2.1-1.73-3.14Q304.92,722,303,719a78.23,78.23,0,0,0-8.45-11.18,39.76,39.76,0,0,0-5.05-4.54,21.48,21.48,0,0,0-5.71-3,14.18,14.18,0,0,0-6.12-.63,16.08,16.08,0,0,0-6,2.1,16.89,16.89,0,0,0-4.94,4.14,19.38,19.38,0,0,0-3.14,5.76,33.32,33.32,0,0,0-1.39,13.73,56.32,56.32,0,0,0,3.18,13.86,79.46,79.46,0,0,0,6.17,12.8l-1.66-.68,10.53-4.19,5.27-2.1c1.75-.72,3.47-1.47,5.21-2.21,3.44-1.52,6.86-3.11,10.14-4.92a54.24,54.24,0,0,0,4.79-2.93c.75-.55,1.51-1.1,2.22-1.71.36-.3.68-.63,1-.94Zm.4,0c-.23.42-.49.93-.78,1.35s-.56.81-.87,1.19a23.9,23.9,0,0,1-2,2.16,38.24,38.24,0,0,1-4.51,3.72,76.9,76.9,0,0,1-10,5.93c-1.72.88-3.47,1.69-5.23,2.47s-3.53,1.55-5.33,2.22a99.77,99.77,0,0,1-11,3.54l-1.23.33-.44-1a133,133,0,0,1-4.93-13.71,108.06,108.06,0,0,1-3.54-14.07,46.67,46.67,0,0,1-.72-7.32,29.37,29.37,0,0,1,.78-7.48,20.89,20.89,0,0,1,16.41-15.25,16.94,16.94,0,0,1,8.06.7A22.14,22.14,0,0,1,292,700a34.79,34.79,0,0,1,5.39,5.32,51.36,51.36,0,0,1,4.32,6,68.19,68.19,0,0,1,3.55,6.42q1.61,3.27,2.89,6.68c.43,1.13.83,2.27,1.22,3.42.19.57.38,1.14.55,1.72l.25.88.12.43.06.22,0,.11A.82.82,0,0,1,310.44,731.39Z"/><path class="cls-14" d="M279.38,689.57a60.55,60.55,0,0,1-8-4.06,74,74,0,0,1-7.43-5c-1.18-.91-2.33-1.88-3.46-2.87a41.74,41.74,0,0,1-3.2-3.18,21.82,21.82,0,0,1-4.87-7.56,36.34,36.34,0,0,0,5.91,6.52c2.17,2,4.44,3.82,6.78,5.59C269.77,682.6,274.61,686,279.38,689.57Z"/><path class="cls-14" d="M269.44,657.14a59.3,59.3,0,0,1-8-4,73.82,73.82,0,0,1-7.42-5c-1.19-.91-2.33-1.88-3.47-2.87s-2.22-2-3.2-3.18a21.92,21.92,0,0,1-4.87-7.56,36,36,0,0,0,5.92,6.51q3.26,2.94,6.78,5.6C259.83,650.18,264.67,653.54,269.44,657.14Z"/><path class="cls-14" d="M259.78,621.41a59.3,59.3,0,0,1-8-4,72.69,72.69,0,0,1-7.42-5c-1.19-.91-2.34-1.88-3.47-2.87s-2.22-2-3.2-3.18a21.92,21.92,0,0,1-4.87-7.56,36.31,36.31,0,0,0,5.91,6.51q3.27,2.94,6.79,5.6C250.17,614.45,255,617.81,259.78,621.41Z"/><path class="cls-17" d="M250.28,583.06s-17.69-9.74-22.62-20.16"/><path class="cls-17" d="M247.87,549.94s-12.69-2.88-17.62-13.3"/><path class="cls-18" d="M258.53,524.75s-16.71-10.34-20.61-18.84"/><path class="cls-17" d="M259.43,487.72s2,13.89,7.91,19.5"/><path class="cls-17" d="M288.9,478.68s-7.17,10.26-7.77,23"/><path class="cls-14" d="M296.17,740.79c5.52,11,11.26,21.83,17.11,32.64s11.86,21.53,18,32.17,12.51,21.16,19.1,31.54,13.48,20.57,20.78,30.48c-7.56-9.7-14.7-19.74-21.61-29.93s-13.5-20.6-20-31.06-12.75-21.08-18.92-31.74-12.19-21.39-18.05-32.26Z"/><path class="cls-14" d="M284.16,750.55c3,8.22,6.45,16.38,10,24.44s7.34,16,11.3,23.93c1.95,4,4,7.85,6.08,11.77s4.19,7.77,6.43,11.58c4.32,7.7,9,15.17,13.83,22.6-5-7.29-9.93-14.64-14.48-22.22-2.35-3.75-4.51-7.61-6.76-11.42s-4.36-7.7-6.43-11.62q-6.3-11.68-12-23.68c-3.81-8-7.44-16.06-10.78-24.32Z"/></svg>