<?xml version="1.0" encoding="UTF-8" standalone="no"?>
<svg
   xmlns:dc="http://purl.org/dc/elements/1.1/"
   xmlns:cc="http://creativecommons.org/ns#"
   xmlns:rdf="http://www.w3.org/1999/02/22-rdf-syntax-ns#"
   xmlns:svg="http://www.w3.org/2000/svg"
   xmlns="http://www.w3.org/2000/svg"
   xmlns:sodipodi="http://sodipodi.sourceforge.net/DTD/sodipodi-0.dtd"
   xmlns:inkscape="http://www.inkscape.org/namespaces/inkscape"
   id="Layer_1"
   data-name="Layer 1"
   viewBox="0 0 2000 1884.43"
   version="1.1"
   sodipodi:docname="carita-22.svg"
   inkscape:version="0.92.3 (2405546, 2018-03-11)">
  <metadata
     id="metadata3871">
    <rdf:RDF>
      <cc:Work
         rdf:about="">
        <dc:format>image/svg+xml</dc:format>
        <dc:type
           rdf:resource="http://purl.org/dc/dcmitype/StillImage" />
        <dc:title>Artboard 1</dc:title>
      </cc:Work>
    </rdf:RDF>
  </metadata>
  <sodipodi:namedview
     pagecolor="#ffffff"
     bordercolor="#666666"
     borderopacity="1"
     objecttolerance="10"
     gridtolerance="10"
     guidetolerance="10"
     inkscape:pageopacity="0"
     inkscape:pageshadow="2"
     inkscape:window-width="1321"
     inkscape:window-height="713"
     id="namedview3869"
     showgrid="false"
     inkscape:zoom="0.14115674"
     inkscape:cx="-504.90973"
     inkscape:cy="951.21841"
     inkscape:window-x="45"
     inkscape:window-y="27"
     inkscape:window-maximized="1"
     inkscape:current-layer="Layer_1" />
  <defs
     id="defs3814">
    <style
       id="style3812">.cls-1,.cls-12,.cls-13{fill:none;}.cls-1{stroke:#489758;stroke-width:72px;}.cls-1,.cls-10,.cls-12,.cls-13{stroke-miterlimit:10;}.cls-1,.cls-3,.cls-4{fill-rule:evenodd;}.cls-2,.cls-4{fill:#469f5a;}.cls-3{fill:#246036;}.cls-5{fill:#424243;}.cls-6{fill:#343334;}.cls-7{fill:#161616;}.cls-10,.cls-8{fill:#ecb730;}.cls-9{fill:#94662f;}.cls-10,.cls-12,.cls-13{stroke:#94662f;}.cls-10{stroke-width:1.98px;}.cls-11{fill:#de8a2e;}.cls-12{stroke-width:1.9px;}.cls-13{stroke-width:1.47px;}</style>
  </defs>
  <title
     id="title3816">Artboard 1</title>
  <path
     class="cls-1"
     d="M614.91,1227.09s-103.78,59.62-116.22-66.2"
     id="path3818"
     style="stroke:#0d4c87;stroke-opacity:0.94117647" />
  <path
     class="cls-2"
     d="M866.07,931.22a63.87,63.87,0,1,0,63.8,63.88A63.81,63.81,0,0,0,866.07,931.22Z"
     id="path3820"
     style="fill:#0d4c87;fill-opacity:0.94117647" />
  <path
     class="cls-2"
     d="M1298.49,931.22a63.87,63.87,0,1,0,64,63.88A63.9,63.9,0,0,0,1298.49,931.22Z"
     id="path3822"
     style="fill:#0d4c87;fill-opacity:0.94117647" />
  <path
     class="cls-2"
     d="M1340.29,1200.09c-147.74,146-368.32,146-516.09,0-11.85-11.63-13.6-30.12-4.73-40s23.89-8.75,34.18,1.37c130.91,129.47,326.37,129.47,457.27,0,10.29-10.12,25.3-11.12,34.18-1.37S1352.07,1188.47,1340.29,1200.09Z"
     id="path3824"
     style="fill:#0d4c87;fill-opacity:0.94117647" />
  <path
     class="cls-2"
     d="M1083.2,636.26a440.54,440.54,0,0,1,363.34,689.57,78,78,0,0,0-13.68,41.7c-.19,6.16-1.44,61.92,14.85,123.69a356.34,356.34,0,0,0,13.63,41.53,388.29,388.29,0,0,1-55.38-8.08c-32.48-7.26-62.32-18.82-88.69-34.36a78,78,0,0,0-68.87-5.1,440.61,440.61,0,1,1-165.2-848.95m0-78c-286.35,0-518.49,232.14-518.49,518.48s232.14,518.49,518.49,518.49a516.92,516.92,0,0,0,194.47-37.72c72.64,42.81,151.93,54.45,216.64,54.45,77.12,0,133.55-16.51,133.55-16.51-123.23-30.36-117-225.45-117-225.45a516,516,0,0,0,90.86-293.26c0-286.34-232.13-518.48-518.48-518.48Z"
     id="path3826"
     style="opacity:1;fill-rule:evenodd;fill:#0d4c87;fill-opacity:0.94117647" />
  <path
     class="cls-3"
     d="M578.73,1138.17a46.8,46.8,0,0,1-.59,10.64c-6.19,36.45-48.43,54.91-81.53,56.81s-77.17-11.58-87.5-47.08a46.94,46.94,0,0,1-1.44-19.63c-40.94-35.11-30.76-83-33.79-90.47-12.09-13.66-21-30.63-24.42-45.12-10-42.39,23.36-74.23,62.16-65.2-22.51-37.59-62.37-118.88-10.47-142C441.32,778.2,472.41,810.72,486,847c2.58-84.57,114-75.47,108.33,2.15-3.76,51.91-31,100.43-21.65,120.37l13,24.61c27.27,40.82,21.66,98.43-8,136.67A46.72,46.72,0,0,1,578.73,1138.17Z"
     id="path3828"
     style="fill:#0d0092;fill-opacity:0.94117647" />
  <path
     class="cls-4"
     d="M358.86,1001.1c-9.45-40,25.43-66.08,61-50,38.77,17.47,57.62,82.06,17.79,107.77-30.34,20.43-70.55-22.81-78.8-57.75Zm102.31,154.78c-28.1-22.72-22.56-59.88,6.32-81.18-30.75,52.7-6.46,85.21,31.2,86.19,80,2.07,120.46-104.55,77.05-164.2-19.2-26.38-69.44-63-96.32-28.63-31.56,41.06,10.34,99.42,55.4,92.2-29.58,12.49-56-5.11-67.8-25.77-9.31,33-47.31,55.43-83,24.54,2,46,17.36,78.79,77.17,96.85Zm-56.09-351c-53.3,23.76,18.21,135.65,21.78,138.82,13.29,6.85,24.24,18.35,31.72,31.85,5.79-15,18.93-27.59,32.63-31.76,1-25-3.6-63.37-13.47-91.34-10.42-29.5-36.18-63.83-72.66-47.57ZM563.76,970.1c-15.56-15.32-42.72-29-62.3-28-.7-31-8.5-81.6-4.31-102.29,11.2-55.36,90.39-48,86.11,14.11C578.94,916.61,551.12,943.21,563.76,970.1Z"
     id="path3830"
     style="fill:#0d4c87;fill-opacity:0.94117647" />
  <path
     class="cls-5"
     d="M1618.54,555.21c16.4-14.67,20.16-27.23,17.91-37.26-.12-12.65-10-16.68-10-16.68l-1.77-.88a51.41,51.41,0,0,0-10.39-6.59c-143-67.95-491.4-242.53-508.06-251.6-17.72-9.65-42.07-18.81-71.62-4.66-76.77,36.76-166,77.66-249.17,115C709,384.85,615.41,425.69,502.37,477l-.12.05c-10.47,5-12.07,14.43-10.3,23.57.95,8.75,5.35,20.4,16.33,35.7,12.51,17.43,51.3,36.93,96,54.58,64.35,29.44,143.55,52.58,205.21,60.82,120.47,16.1,486.41,23.76,486.41,23.76,11.81-1,29.42-3.83,50.58-8.34,0,.82,0,1.25,0,1.25,6-.51,28.13-6.33,57.56-15.5,57.49-16,123.77-39.64,173-68.39C1595.49,574.55,1610.2,564.58,1618.54,555.21Z"
     id="path3832" />
  <path
     class="cls-6"
     d="M721.49,492.18s18.37,77.53-10.88,173.32c-16.82,55.07,37.08,76.87,366.73,80.78,102.73,1.22,270.79-2,331.34-38.56,28.15-17-1.89-48.11-9.52-108.78-8.17-65,6.8-105.14,6.8-107.16S1110,376.9,721.49,492.18Z"
     id="path3834" />
  <path
     class="cls-7"
     d="M721.8,492.36a3.17,3.17,0,0,1,.26.62l.19.88.39,1.76.7,3.53q.66,3.54,1.24,7.09l1,7.12.85,7.15c.28,2.38.45,4.78.68,7.17l.32,3.59c.1,1.19.15,2.39.23,3.59l.43,7.19c.12,2.4.15,4.8.22,7.2a374.19,374.19,0,0,1-3,57.55l-.9,7.17-1.2,7.11c-.85,4.74-1.51,9.52-2.63,14.2s-2,9.42-3.15,14.1l-3.78,14-.94,3.47c-.32,1.11-.63,2.23-.89,3.36a50.92,50.92,0,0,0-1.19,6.76,32.52,32.52,0,0,0,1,13.18,28.29,28.29,0,0,0,6.73,11.13,43.72,43.72,0,0,0,5,4.44,61.4,61.4,0,0,0,5.75,3.72c8,4.57,16.94,7.71,26,10.32s18.37,4.56,27.72,6.25c18.71,3.4,37.68,5.64,56.68,7.45,38,3.54,76.25,5.5,114.48,7.14s76.5,2.79,114.78,3.63q28.71.66,57.42.78t57.41-.77c19.13-.59,38.25-1.42,57.34-2.78s38.15-3.06,57.11-5.56c9.48-1.19,18.93-2.66,28.35-4.25s18.76-3.58,28-5.79,18.44-4.85,27.4-8a137,137,0,0,0,25.72-11.76,29.25,29.25,0,0,0,5.25-4.13,21.36,21.36,0,0,0,2.1-2.48,20.24,20.24,0,0,0,1.57-2.8,18.53,18.53,0,0,0,1.6-6.24l.09-.82v-.83c0-.56,0-1.12,0-1.67-.08-1.13-.09-2.25-.26-3.39a83.09,83.09,0,0,0-3-13.63c-1.34-4.53-2.84-9.06-4.35-13.6-3-9.09-6-18.26-8.46-27.61a238.79,238.79,0,0,1-5.75-28.47c-.34-2.4-.57-4.8-.85-7.2s-.6-4.8-.77-7.21c-.34-4.82-.81-9.63-.91-14.47a275.65,275.65,0,0,1,.24-29,242.1,242.1,0,0,1,3.36-28.88c.86-4.78,1.86-9.54,3-14.27.59-2.33,1.23-4.75,1.84-7l.11-.42c.06-.19,0-.17,0-.16h0c-.32-.63,2.41,4.93,1.44,2.71l-.21-.1-.33-.16-.74-.32c-1-.44-2.12-.87-3.21-1.28-8.81-3.32-17.92-6.19-27-8.91s-18.32-5.21-27.56-7.55c-18.49-4.69-37.14-8.74-55.89-12.28s-37.59-6.57-56.5-9.14-37.89-4.63-56.91-6.28A1242.26,1242.26,0,0,0,946.82,450c-38,3.78-75.92,9.12-113.49,16.32q-28.17,5.4-56.13,11.91-14,3.3-27.87,6.88Zm-.62-.36c4.57-1.5,9.44-3.05,14-4.38s9.18-2.73,13.78-4.06q13.83-3.94,27.73-7.59c18.55-4.84,37.2-9.32,56-13.22,37.54-7.87,75.45-14.09,113.6-18.37a1181.5,1181.5,0,0,1,230.07-3.53q28.73,2.38,57.29,6.32t56.88,9.38q28.29,5.52,56.24,12.73,14,3.63,27.79,7.8c9.22,2.82,18.37,5.76,27.47,9.25,1.14.44,2.27.9,3.44,1.4l.9.4.48.23.59.31c-.77-2.07,2.44,3.62,1.92,3.34,0,.29-.08.59-.14.88a6.32,6.32,0,0,1-.16.71l-.12.45c-.67,2.39-1.28,4.6-1.87,6.9-1.16,4.57-2.15,9.17-3,13.81a245.69,245.69,0,0,0-3.49,28.12,271.73,271.73,0,0,0-.49,28.4c0,4.74.49,9.46.76,14.2.13,2.36.44,4.72.66,7.08s.43,4.73.74,7.07a232.94,232.94,0,0,0,5.25,27.89c2.25,9.21,5,18.3,7.91,27.44,1.43,4.57,2.87,9.16,4.17,13.83a87.54,87.54,0,0,1,2.93,14.44c.16,1.23.16,2.51.23,3.77,0,.64,0,1.28-.06,1.92l0,1-.12,1a22.52,22.52,0,0,1-2.09,7.55,23.87,23.87,0,0,1-2,3.42,25.12,25.12,0,0,1-2.58,2.95,32.54,32.54,0,0,1-6.09,4.63,139.46,139.46,0,0,1-26.6,11.72c-9.15,3.06-18.47,5.53-27.84,7.69-18.77,4.16-37.75,7.14-56.79,9.45s-38.14,4-57.26,5.32-38.26,2.3-57.42,2.93-38.3,1.16-57.46,1.39-38.33.36-57.49.26c-38.31-.16-76.63-.57-114.95-1.66-19.15-.62-38.32-1.32-57.46-2.44s-38.3-2.42-57.41-4.34-38.21-4.25-57.17-7.78c-9.48-1.76-18.92-3.92-28.24-6.63S735,719.2,726.43,714.19a65.22,65.22,0,0,1-6.26-4.15A47.75,47.75,0,0,1,714.5,705a35.11,35.11,0,0,1-4.68-6.18,32.82,32.82,0,0,1-3.13-7.16,37.87,37.87,0,0,1-1-15.27,56.26,56.26,0,0,1,1.41-7.36c.29-1.2.64-2.39,1-3.57l1-3.45L713,648.24c1.2-4.6,2.21-9.25,3.33-13.88s1.94-9.32,2.88-14l1.32-7,1-7.07a388,388,0,0,0,4.25-57c0-2.38,0-4.77,0-7.16l-.22-7.15c0-1.19-.06-2.39-.12-3.58l-.22-3.57c-.16-2.39-.26-4.77-.47-7.15l-.63-7.14-.79-7.12q-.46-3.56-1-7.1l-.58-3.53-.32-1.76-.17-.89A7.42,7.42,0,0,1,721.18,492Z"
     id="path3836" />
  <path
     class="cls-8"
     d="M1476.86,400.49s132.94-67,103.06,203l-15.46-4.12s23.18-197.72-61.84-184.84"
     id="path3838" />
  <path
     class="cls-9"
     d="M1476.8,400.35a77.25,77.25,0,0,1,16.6-5.92,73.09,73.09,0,0,1,17.57-2.12,62.68,62.68,0,0,1,17.62,2.5,55,55,0,0,1,16.06,7.79,63.73,63.73,0,0,1,13,12.21,85,85,0,0,1,9.71,14.94,119.63,119.63,0,0,1,6.86,16.38,167.06,167.06,0,0,1,4.6,17.09,257.9,257.9,0,0,1,4.74,34.95c.86,11.71,1.16,23.45,1.15,35.18s-.45,23.46-1,35.18-1.58,23.41-2.69,35.1l-.12,1.29-1.28-.33-15.49-4-1-.26.1-1.1c1.74-18.09,2.61-36.35,2.58-54.55a412.15,412.15,0,0,0-3.34-54.43,213.17,213.17,0,0,0-5.28-26.67,110.05,110.05,0,0,0-10-25.12,60.58,60.58,0,0,0-7.84-10.94,41.63,41.63,0,0,0-10.45-8.37,37.88,37.88,0,0,0-12.7-4.38,49.26,49.26,0,0,0-13.56-.08l-.05-.3a47.5,47.5,0,0,1,13.73-.48,38.6,38.6,0,0,1,13.23,4,43.21,43.21,0,0,1,11.08,8.39,61.73,61.73,0,0,1,8.39,11.06,109.28,109.28,0,0,1,10.68,25.48,202.73,202.73,0,0,1,5.75,27,363.81,363.81,0,0,1,3.44,54.87q-.11,13.74-.89,27.45c-.53,9.15-1.22,18.26-2.3,27.39l-.93-1.36,15.43,4.25-1.41,1c1.39-11.62,2.64-23.27,3.52-35s1.38-23.38,1.48-35.09c.18-23.39-1.74-46.92-7.09-69.63q-2.1-8.49-4.9-16.74a128.81,128.81,0,0,0-6.81-16,87,87,0,0,0-9.29-14.56,61.39,61.39,0,0,0-12.42-11.89,55,55,0,0,0-7.36-4.45,62.76,62.76,0,0,0-8-3.27,60.87,60.87,0,0,0-17-2.85,82.84,82.84,0,0,0-34,6.66Z"
     id="path3840" />
  <path
     class="cls-10"
     d="M1553.27,629.43c-14.88,93.32-54,198.36-54,198.36l25.77-34L1524,805l-.67,14v24.34l17.8-35.84,3.39,28.4s14.22-39.22,15.1-45.53l1.12,42.38s31.79-43.28,30-205.13"
     id="path3842" />
  <path
     class="cls-11"
     d="M1548.61,636s2.43-48,28.85-40.27c22.54,6.61,14.43,48.69,14.43,48.69S1558.52,644.15,1548.61,636Z"
     id="path3844" />
  <path
     class="cls-9"
     d="M1548.42,636.12a1.47,1.47,0,0,1,0-.2v-.78l0-.88c0-.59,0-1.18,0-1.77q0-1.77.15-3.54c.15-2.36.4-4.71.78-7.06a67.8,67.8,0,0,1,1.46-7,50.24,50.24,0,0,1,2.3-6.86,34.48,34.48,0,0,1,3.51-6.51,22,22,0,0,1,5.32-5.53,16.51,16.51,0,0,1,7.35-3,19.85,19.85,0,0,1,19.69,9.55,28.33,28.33,0,0,1,2.85,6.77,45.14,45.14,0,0,1,1.42,7,106.17,106.17,0,0,1,.72,14.13,132.85,132.85,0,0,1-.66,14.19l-.13,1.09-1.27.05a96.07,96.07,0,0,1-11.26-.15c-1.87-.11-3.74-.33-5.6-.55s-3.73-.47-5.58-.81a74,74,0,0,1-11-2.69,38.3,38.3,0,0,1-5.27-2.19,23.33,23.33,0,0,1-2.46-1.45c-.4-.26-.78-.57-1.15-.86S1548.76,636.45,1548.42,636.12Zm.37-.16,1.14.6c.42.19.82.4,1.24.58.84.36,1.7.66,2.56,1a52.77,52.77,0,0,0,5.3,1.36c3.58.74,7.21,1.24,10.86,1.67,1.83.19,3.65.4,5.49.57l5.5.45c3.67.26,7.36.64,11,.91l-1.4,1.14a76.33,76.33,0,0,0,2.12-13.7,54.66,54.66,0,0,0-1-13.82,32.45,32.45,0,0,0-5.23-12.38,18.87,18.87,0,0,0-4.56-4.45,16.58,16.58,0,0,0-5.78-2.45,15.73,15.73,0,0,0-6.17-.23,13.6,13.6,0,0,0-5.5,2.33,20.59,20.59,0,0,0-4.44,4.45,38.22,38.22,0,0,0-3.41,5.67,76.31,76.31,0,0,0-4.7,12.83q-.91,3.33-1.67,6.74c-.26,1.14-.51,2.28-.72,3.42l-.32,1.72-.17.87-.07.43,0,.21,0,.11S1548.83,636.06,1548.79,636Z"
     id="path3846" />
  <path
     class="cls-9"
     d="M1565.44,588.25c3.4-4.73,7-9.25,10.24-14q2.52-3.48,4.73-7.15a35.51,35.51,0,0,0,3.66-7.75,21.31,21.31,0,0,1-2.36,8.45,43.69,43.69,0,0,1-2.07,3.88c-.78,1.24-1.57,2.48-2.41,3.67a73.48,73.48,0,0,1-5.49,6.8A58.06,58.06,0,0,1,1565.44,588.25Z"
     id="path3848" />
  <path
     class="cls-9"
     d="M1565.44,555.19c3.4-4.73,7-9.25,10.24-14q2.52-3.48,4.73-7.15a35.51,35.51,0,0,0,3.66-7.75,21.31,21.31,0,0,1-2.36,8.45,43.69,43.69,0,0,1-2.07,3.88c-.78,1.24-1.57,2.48-2.41,3.67a73.48,73.48,0,0,1-5.49,6.8A58.06,58.06,0,0,1,1565.44,555.19Z"
     id="path3850" />
  <path
     class="cls-9"
     d="M1564.24,519.13c3.39-4.74,7-9.26,10.24-13.95,1.68-2.32,3.26-4.71,4.72-7.15a35.52,35.52,0,0,0,3.67-7.75,21.26,21.26,0,0,1-2.36,8.44,43.86,43.86,0,0,1-2.07,3.89c-.78,1.24-1.57,2.47-2.41,3.66a70.85,70.85,0,0,1-5.5,6.81A58,58,0,0,1,1564.24,519.13Z"
     id="path3852" />
  <path
     class="cls-12"
     d="M1562.13,480.66s13.71-14.13,15.33-25.25"
     id="path3854" />
  <path
     class="cls-12"
     d="M1554.92,449.1s11-6.31,12.62-17.43"
     id="path3856" />
  <path
     class="cls-13"
     d="M1537.79,428.66s12.62-14.4,13.82-23.44"
     id="path3858" />
  <path
     class="cls-12"
     d="M1526.37,394.4s2.1,13.53-1.81,20.44"
     id="path3860" />
  <path
     class="cls-12"
     d="M1496.31,394.4s9.62,7.52,13.83,19.24"
     id="path3862" />
  <path
     class="cls-9"
     d="M1568.31,641.51c-2.36,11.8-4.93,23.52-7.62,35.23s-5.55,23.36-8.59,35-6.27,23.18-9.76,34.66-7.33,22.87-11.61,34.07c4-11.32,7.43-22.8,10.65-34.35s6-23.19,8.78-34.86,5.22-23.39,7.59-35.14,4.61-23.53,6.62-35.31Z"
     id="path3864" />
  <path
     class="cls-9"
     d="M1581.36,646.65c-.76,8.66-1.84,17.21-3.11,25.76s-2.75,17-4.44,25.5c-.81,4.24-1.77,8.45-2.68,12.66s-1.92,8.41-3,12.58c-2.08,8.37-4.58,16.63-7.16,24.84,2.34-8.29,4.6-16.6,6.43-25,1-4.18,1.79-8.42,2.67-12.63s1.62-8.45,2.3-12.7q2.16-12.72,3.69-25.53c1-8.53,1.85-17.12,2.35-25.64Z"
     id="path3866" />
</svg>
