<svg id="Layer_1" data-name="Layer 1" xmlns="http://www.w3.org/2000/svg" viewBox="0 0 2000 1884.43"><defs><style>.cls-1,.cls-6{fill:#9ebc53;}.cls-2{fill:#4d99d5;}.cls-3{fill:#2f4b87;}.cls-4{fill:#fdfefe;}.cls-5{fill:#5b7031;}.cls-5,.cls-6{fill-rule:evenodd;}.cls-7{fill:#424243;}.cls-8{fill:#343334;}.cls-9{fill:#161616;}.cls-10,.cls-12{fill:#ecb730;}.cls-11{fill:#94662f;}.cls-12,.cls-14,.cls-15{stroke:#94662f;stroke-miterlimit:10;}.cls-12{stroke-width:1.98px;}.cls-13{fill:#de8a2e;}.cls-14,.cls-15{fill:none;}.cls-14{stroke-width:1.9px;}.cls-15{stroke-width:1.47px;}</style></defs><title>Artboard 2</title><path class="cls-1" d="M656,1548.1a40.16,40.16,0,0,1-15.14-40l37.6-185c-93.14-97.15-144.17-223.9-144.17-359.35,0-286.71,233.26-520,520-520s520,233.26,520,520-233.26,520-520,520A518,518,0,0,1,885,1455.48l-186.33,96.27A40.16,40.16,0,0,1,656,1548.1Zm240.6-173.88a437.83,437.83,0,0,0,157.66,29.13c242.4,0,439.61-197.21,439.61-439.61s-197.21-439.63-439.61-439.63S614.59,721.33,614.59,963.74c0,120.87,48.07,233.54,135.33,317.26a40.2,40.2,0,0,1,11.15,38.83l-24.81,122.05L863.71,1376a40.1,40.1,0,0,1,32.85-1.81Z"/><path class="cls-1" d="M841.35,678.72a62.86,62.86,0,1,0,62.94,62.87A62.77,62.77,0,0,0,841.35,678.72Z"/><path class="cls-1" d="M1267.08,678.72a62.86,62.86,0,1,0,62.77,62.87A62.79,62.79,0,0,0,1267.08,678.72Z"/><path class="cls-1" d="M802.63,903.58c0,138.78,112.64,251.43,251.58,251.43,138.78,0,251.43-112.65,251.43-251.43Z"/><path class="cls-2" d="M1447.16,1043.6a23.51,23.51,0,0,0-22.68-1.33l-71.2,34v-54.43a11.77,11.77,0,0,0-19-9.29l-111.12,86.33v-92.13a11.77,11.77,0,0,0-21.59-6.48L1066,1205.81V1001.88a11.77,11.77,0,0,0-23.53,0V1205.7l-135-205.44a11.76,11.76,0,0,0-21.59,6.46v92.58l-111.7-86.78a11.77,11.77,0,0,0-19,9.29v54.43l-71.2-34a23.52,23.52,0,0,0-33.66,21.23v519.13a23.51,23.51,0,0,0,13.4,21.23l380.39,181.51c.12.06.24.1.36.15.3.14.6.25.91.37.64.26,1.28.5,1.94.7.33.11.66.2,1,.29.67.17,1.34.31,2,.42.32.06.64.12,1,.16a20.88,20.88,0,0,0,2.73.19l.24,0a23.71,23.71,0,0,0,3-.21l.73-.13a22.32,22.32,0,0,0,2.24-.47l.9-.26c.7-.21,1.38-.47,2.07-.75.28-.12.57-.22.84-.35l.32-.13,380.39-181.51a23.51,23.51,0,0,0,13.4-21.23V1063.5A23.55,23.55,0,0,0,1447.16,1043.6Zm-228.55,89a11.64,11.64,0,0,0,2-2l109.13-84.78v41.63l-137.6,65.65Zm-19-86.72v71.21L1103.28,1192Zm-290.27.12,96.07,146.18-96.07-74.64Zm-130.69-.2,111.69,86.78h0l27.15,21.09-138.85-66.25Zm252,681L697.35,1567.78v-467l333.33,159Zm380.4-159.06-333.34,159.06v-467l333.34-159Z"/><polygon class="cls-3" points="1030.68 1726.84 697.35 1571.46 697.35 1100.8 1030.68 1259.85 1030.68 1726.84"/><polygon class="cls-3" points="1077.62 1254.29 1411.08 1100.8 1411.08 1567.78 1077.74 1726.84 1077.62 1254.29"/><polygon class="cls-4" points="778.68 1045.84 778.68 1087.47 917.53 1153.72 778.68 1045.84"/><polygon class="cls-4" points="909.37 1046.04 909.37 1117.58 1005.44 1192.22 909.37 1046.04"/><polygon class="cls-4" points="1103.28 1191.99 1199.64 1045.92 1199.64 1117.13 1103.28 1191.99"/><polygon class="cls-4" points="1329.75 1045.84 1329.75 1087.47 1192.15 1153.12 1329.75 1045.84"/><path class="cls-5" d="M1437.21,1311.63c-6.79-6.51-11.32-14.7-11.78-24.73-.54-11.86,5.59-21.84,14.52-29-9.61-7.49-16.77-17.4-18.86-29.88a39.74,39.74,0,0,1-.32-10.78,41,41,0,0,1,1.23-6.39c4.88-17.62,19.52-29,36.56-35.38v-71.07c11.85-1.76,23.93,2.16,34,10.25,10.36,8.32,19,20,26.1,31.1,6.67,10.45,7.86,18.94,6.21,28.58,20.78,6.88,40,20.87,43.68,42.76a38.88,38.88,0,0,1,.32,10.77,39.59,39.59,0,0,1-1.22,6.39c-3.49,12.61-12,22-22.78,28.72,7.11,6.7,12.27,15.37,12.73,25.37a31.06,31.06,0,0,1-.74,8.27c-2.61,11.52-10.57,19.78-20.67,25.39a37.29,37.29,0,0,1,3.87,10.15l.15.74,0,.75c1.36,24.14-19.12,38.35-39.6,45-15.46,5-32.67,3.07-47.08-4.17-12.36-6.21-24.14-17.21-27.17-31.18C1423.72,1330.86,1428,1319.77,1437.21,1311.63Z"/><path class="cls-6" d="M1531,1334.19a27.67,27.67,0,0,0-3.24-8.22,94.62,94.62,0,0,1-34.82,6c-14.66-.3-34.08-4.81-48.33-14.39-7.34,5.83-11.28,13.84-9.11,23.8,2.4,11,12.46,19.92,22.26,24.83,12.84,6.45,27.48,7.72,40,3.65,15.87-5.14,34.3-16,33.19-35.63Zm-14.91-162.31c1.41-9.49-.74-14.6-5-21.26-8.32-13-16.27-22.6-24.15-28.92-9.7-7.79-19.65-9.84-28.38-8.11v61.91a103.58,103.58,0,0,1,41.63-6,99.82,99.82,0,0,1,15.9,2.41Zm-16.52,6.86c-35.79-2.38-66.94,15.32-69.56,39.52s24.29,45.78,60.08,48.17,67-15.32,69.57-39.53-24.29-45.78-60.09-48.16Zm-51.44,84.67a98.24,98.24,0,0,0,41.34,12.28c14.51,1,31.82-1.46,46.63-8.06,7.34,6,11.88,13.32,12.24,21.17.89,19.33-23.84,34.49-55.21,33.84s-57.54-16.84-58.42-36.17C1434.3,1277.5,1439.41,1269.42,1448.13,1263.41Z"/><path class="cls-5" d="M671.22,1311.63c6.79-6.51,11.32-14.7,11.78-24.73.54-11.86-5.59-21.84-14.52-29,9.61-7.49,16.76-17.4,18.86-29.88a39.86,39.86,0,0,0-.91-17.17c-4.88-17.62-19.52-29-36.56-35.38v-71.07c-11.85-1.76-23.93,2.16-34,10.25-10.36,8.32-19,20-26.1,31.1-6.67,10.45-7.86,18.94-6.22,28.58-20.77,6.88-40,20.87-43.68,42.76a39.83,39.83,0,0,0,.91,17.16c3.49,12.61,12,22,22.77,28.72-7.1,6.7-12.26,15.37-12.72,25.37a30.65,30.65,0,0,0,.74,8.27c2.61,11.52,10.57,19.78,20.67,25.39a37.29,37.29,0,0,0-3.87,10.15l-.16.74,0,.75c-1.36,24.14,19.12,38.35,39.6,45,15.45,5,32.67,3.07,47.08-4.17,12.36-6.21,24.14-17.21,27.17-31.18C684.71,1330.86,680.46,1319.77,671.22,1311.63Z"/><path class="cls-6" d="M577.42,1334.19c-1.1,19.62,17.33,30.49,33.2,35.63,12.57,4.07,27.21,2.8,40-3.65,9.79-4.91,19.86-13.8,22.26-24.83,2.17-10-1.77-18-9.11-23.8-14.26,9.58-33.67,14.09-48.33,14.39a94.62,94.62,0,0,1-34.82-6,28,28,0,0,0-3.25,8.22Zm14.92-162.31a99.82,99.82,0,0,1,15.9-2.41,103.58,103.58,0,0,1,41.63,6v-61.91c-8.73-1.73-18.68.32-28.39,8.11-7.87,6.32-15.83,15.89-24.14,28.92-4.26,6.66-6.41,11.77-5,21.26Zm16.52,6.86c-35.81,2.38-62.71,24-60.09,48.16s33.77,41.9,69.56,39.53,62.71-24,60.09-48.17-33.78-41.9-69.56-39.52Zm64.86,107.73c-.89,19.33-27.05,35.53-58.42,36.17s-56.1-14.51-55.21-33.84c.36-7.85,4.89-15.19,12.24-21.17,14.81,6.6,32.12,9,46.63,8.06a98.15,98.15,0,0,0,41.33-12.28C669,1269.42,674.13,1277.5,673.72,1286.47Z"/><path class="cls-7" d="M1585,438.72c16.4-14.67,20.15-27.24,17.9-37.26-.12-12.65-10-16.69-10-16.69l-1.77-.87a51.25,51.25,0,0,0-10.39-6.59c-143-67.95-491.4-242.53-508.06-251.6-17.72-9.65-42.08-18.81-71.62-4.66-76.77,36.76-165.95,77.65-249.17,115C675.49,268.36,581.9,309.2,468.86,360.53l-.11.06c-10.47,5-12.07,14.43-10.3,23.57.95,8.75,5.34,20.4,16.32,35.69,12.52,17.44,51.3,36.94,96,54.59C635.1,503.88,714.3,527,776,535.26,896.44,551.35,1262.38,559,1262.38,559c11.81-1,29.42-3.83,50.58-8.35,0,.83,0,1.26,0,1.26,6-.51,28.14-6.33,57.57-15.51,57.49-16,123.77-39.63,173-68.38C1562,458.05,1576.69,448.09,1585,438.72Z"/><path class="cls-8" d="M688,375.69S706.36,453.22,677.11,549c-16.82,55.07,37.08,76.87,366.72,80.78,102.74,1.22,270.8-2,331.35-38.56,28.15-17-1.9-48.11-9.52-108.79-8.17-64.94,6.8-105.13,6.8-107.16S1076.49,260.41,688,375.69Z"/><path class="cls-9" d="M688.3,375.87a3.1,3.1,0,0,1,.25.62l.2.88.39,1.76.7,3.53c.44,2.35.84,4.72,1.24,7.09l1,7.12L693,404c.28,2.38.45,4.78.68,7.17l.32,3.58c.1,1.2.15,2.4.23,3.6l.43,7.19c.12,2.4.14,4.8.22,7.2a375.45,375.45,0,0,1-3,57.55l-.91,7.16-1.2,7.12c-.85,4.74-1.5,9.52-2.62,14.2s-2,9.42-3.15,14.1l-3.78,14-1,3.47c-.32,1.11-.63,2.23-.88,3.36a51.06,51.06,0,0,0-1.19,6.75,32.55,32.55,0,0,0,1,13.19,28.07,28.07,0,0,0,6.73,11.12,42.19,42.19,0,0,0,5,4.45,60,60,0,0,0,5.74,3.72c8,4.56,16.95,7.7,26,10.32s18.37,4.56,27.72,6.25c18.71,3.4,37.68,5.64,56.68,7.45,38,3.54,76.25,5.49,114.47,7.13s76.51,2.8,114.79,3.64q28.71.66,57.42.78t57.41-.77c19.12-.59,38.25-1.43,57.34-2.79s38.15-3,57.1-5.55c9.49-1.2,18.94-2.66,28.36-4.25s18.76-3.59,28-5.79,18.43-4.86,27.4-8a137,137,0,0,0,25.72-11.76,28.45,28.45,0,0,0,5.24-4.14,22.39,22.39,0,0,0,2.11-2.47,19.2,19.2,0,0,0,1.56-2.8,18.31,18.31,0,0,0,1.61-6.24l.09-.82v-.84c0-.55,0-1.11,0-1.67-.08-1.12-.09-2.25-.26-3.38a84.13,84.13,0,0,0-3-13.63c-1.34-4.54-2.85-9.06-4.35-13.6-3-9.09-6-18.26-8.46-27.62a238.23,238.23,0,0,1-5.75-28.46c-.35-2.4-.57-4.8-.86-7.2s-.59-4.8-.76-7.21c-.34-4.82-.81-9.64-.92-14.47a281.13,281.13,0,0,1,.24-29A242.12,242.12,0,0,1,1364,397.1q1.29-7.17,3-14.27c.59-2.34,1.24-4.75,1.85-7l.11-.42c0-.19,0-.17,0-.16h0c-.32-.63,2.41,4.93,1.44,2.71l-.21-.11-.33-.15-.74-.32c-1-.44-2.12-.87-3.22-1.29-8.8-3.31-17.92-6.18-27-8.9s-18.33-5.21-27.57-7.56q-27.72-7-55.88-12.27T1199,338.25c-18.91-2.58-37.89-4.63-56.9-6.29a1242.38,1242.38,0,0,0-228.83,1.53c-38,3.78-75.91,9.12-113.48,16.32q-28.17,5.4-56.13,11.91-14,3.28-27.87,6.87Zm-.62-.36c4.57-1.51,9.44-3.05,14-4.38s9.18-2.74,13.78-4.06q13.83-3.94,27.73-7.59c18.55-4.84,37.2-9.32,56-13.22,37.54-7.87,75.45-14.09,113.6-18.38a1182.26,1182.26,0,0,1,230.07-3.52q28.71,2.38,57.29,6.32t56.87,9.38c18.87,3.68,37.64,7.88,56.25,12.73q14,3.63,27.79,7.8c9.22,2.82,18.37,5.76,27.46,9.25,1.14.44,2.28.9,3.45,1.4l.9.4.48.23c.15.07.37.18.59.31-.78-2.07,2.44,3.62,1.91,3.33,0,.3-.08.59-.13.89s-.13.62-.16.71l-.12.45c-.67,2.39-1.28,4.6-1.87,6.9q-1.74,6.84-3,13.81a243.2,243.2,0,0,0-3.49,28.12,271.69,271.69,0,0,0-.49,28.4c0,4.74.49,9.46.75,14.2.14,2.36.45,4.72.66,7.08s.44,4.73.74,7.07A234.39,234.39,0,0,0,1373.9,511c2.26,9.22,5.06,18.31,7.92,27.45,1.43,4.57,2.87,9.16,4.16,13.83a87.55,87.55,0,0,1,2.94,14.44c.16,1.23.16,2.51.22,3.77,0,.64,0,1.28-.05,1.92l0,1-.11,1a22.81,22.81,0,0,1-2.09,7.56,23.87,23.87,0,0,1-2,3.42,25.2,25.2,0,0,1-2.59,2.95,32.48,32.48,0,0,1-6.08,4.63,139.46,139.46,0,0,1-26.6,11.72c-9.16,3.06-18.47,5.53-27.84,7.69-18.78,4.16-37.76,7.14-56.79,9.45s-38.14,4-57.26,5.32-38.27,2.3-57.42,2.93-38.31,1.16-57.47,1.39-38.32.36-57.48.26c-38.31-.16-76.63-.58-114.95-1.66-19.16-.62-38.32-1.32-57.47-2.44s-38.29-2.42-57.4-4.34-38.21-4.25-57.18-7.78c-9.48-1.77-18.91-3.92-28.24-6.64s-18.54-6.1-27.16-11.11a68.36,68.36,0,0,1-6.25-4.15,46.24,46.24,0,0,1-5.67-5.1,34.61,34.61,0,0,1-4.69-6.17,33.14,33.14,0,0,1-3.12-7.17,37.63,37.63,0,0,1-1-15.26,54.35,54.35,0,0,1,1.41-7.36c.29-1.2.64-2.39,1-3.57l1-3.45,3.93-13.72c1.19-4.6,2.2-9.26,3.33-13.88s1.94-9.32,2.87-14l1.33-7,1-7.07a389.34,389.34,0,0,0,4.25-57c0-2.38,0-4.77,0-7.16l-.22-7.15c0-1.2-.06-2.39-.12-3.58l-.21-3.58c-.16-2.38-.26-4.77-.47-7.14l-.63-7.14-.8-7.12c-.31-2.37-.63-4.74-1-7.1l-.57-3.54-.33-1.76-.16-.88A7.42,7.42,0,0,1,687.68,375.51Z"/><path class="cls-10" d="M1443.36,284s132.94-67,103.05,203L1531,482.89s23.18-197.72-61.84-184.84"/><path class="cls-11" d="M1443.29,283.86a76.8,76.8,0,0,1,16.61-5.92,73.09,73.09,0,0,1,17.57-2.12,62.78,62.78,0,0,1,17.62,2.5,56.61,56.61,0,0,1,8.34,3.23,57.54,57.54,0,0,1,7.72,4.56,63.73,63.73,0,0,1,13,12.21,85,85,0,0,1,9.71,14.94,119.63,119.63,0,0,1,6.86,16.38,169.68,169.68,0,0,1,4.6,17.09,256.38,256.38,0,0,1,4.73,34.94c.87,11.72,1.16,23.45,1.16,35.19s-.45,23.45-1,35.17-1.58,23.42-2.69,35.11l-.12,1.29-1.28-.33-15.5-4-1-.26.11-1.1c1.74-18.1,2.61-36.35,2.58-54.55a410.35,410.35,0,0,0-3.35-54.43,213.14,213.14,0,0,0-5.27-26.67,109.9,109.9,0,0,0-10-25.12,59.71,59.71,0,0,0-7.83-10.94,41.68,41.68,0,0,0-10.46-8.37,37.54,37.54,0,0,0-12.69-4.38,48.94,48.94,0,0,0-13.57-.08l0-.3a46.79,46.79,0,0,1,13.73-.48,38.45,38.45,0,0,1,13.23,4,43,43,0,0,1,11.07,8.39,61.78,61.78,0,0,1,8.4,11.06,108.82,108.82,0,0,1,10.67,25.48,200.86,200.86,0,0,1,5.76,27,362.5,362.5,0,0,1,3.43,54.87c-.06,9.16-.37,18.31-.88,27.45s-1.22,18.26-2.31,27.39l-.92-1.36,15.42,4.25-1.4,1c1.38-11.63,2.64-23.27,3.52-34.95s1.38-23.38,1.48-35.09c.18-23.4-1.74-46.92-7.1-69.63q-2.09-8.49-4.89-16.75a130.87,130.87,0,0,0-6.81-16,86.47,86.47,0,0,0-9.3-14.56A61.6,61.6,0,0,0,1509.79,288a55.59,55.59,0,0,0-7.36-4.45,61.9,61.9,0,0,0-8-3.27,60.51,60.51,0,0,0-17-2.85,82.64,82.64,0,0,0-34,6.66Z"/><path class="cls-12" d="M1519.76,512.94c-14.87,93.32-53.94,198.36-53.94,198.36l25.77-34-1.13,11.27-.68,14v24.34L1507.59,691l3.38,28.4s14.22-39.22,15.1-45.53l1.13,42.38s31.78-43.28,30-205.13"/><path class="cls-13" d="M1515.1,519.55s2.44-48,28.86-40.27c22.54,6.61,14.42,48.68,14.42,48.68S1525,527.66,1515.1,519.55Z"/><path class="cls-11" d="M1514.92,519.63a1.47,1.47,0,0,1,0-.2v-.34l0-.44v-.88c0-.59,0-1.18,0-1.77,0-1.18.08-2.36.15-3.54.15-2.36.4-4.71.78-7.06a63.55,63.55,0,0,1,1.46-7,50.11,50.11,0,0,1,2.3-6.85,34.48,34.48,0,0,1,3.51-6.51,21.79,21.79,0,0,1,5.32-5.53,16.6,16.6,0,0,1,7.34-3,19.88,19.88,0,0,1,19.7,9.56,29,29,0,0,1,2.85,6.77,44,44,0,0,1,1.41,7,104.51,104.51,0,0,1,.72,14.13,132.83,132.83,0,0,1-.65,14.19l-.13,1.09-1.27,0a96,96,0,0,1-11.26-.15c-1.87-.11-3.74-.33-5.61-.55s-3.72-.48-5.58-.81a75.09,75.09,0,0,1-11-2.69,38.3,38.3,0,0,1-5.27-2.19,22.86,22.86,0,0,1-2.47-1.46c-.4-.25-.77-.57-1.14-.85S1515.26,520,1514.92,519.63Zm.37-.16,1.14.6c.42.19.82.4,1.24.58.84.36,1.7.65,2.56,1,1.73.55,3.51,1,5.3,1.36,3.57.74,7.21,1.24,10.86,1.67,1.82.19,3.65.4,5.48.57l5.51.45c3.67.26,7.36.64,11,.91l-1.4,1.14a75.44,75.44,0,0,0,2.11-13.7,53.75,53.75,0,0,0-1-13.82,32.22,32.22,0,0,0-5.22-12.38,18.72,18.72,0,0,0-4.57-4.45,16.35,16.35,0,0,0-5.77-2.45,15.93,15.93,0,0,0-6.17-.24,13.7,13.7,0,0,0-5.5,2.34,20.59,20.59,0,0,0-4.44,4.45,38.22,38.22,0,0,0-3.41,5.67,74.61,74.61,0,0,0-4.7,12.83q-.91,3.33-1.68,6.74-.39,1.71-.72,3.42l-.32,1.72-.16.87-.07.43,0,.21,0,.11S1515.33,519.57,1515.29,519.47Z"/><path class="cls-11" d="M1531.93,471.76c3.4-4.73,7-9.25,10.25-13.95,1.68-2.32,3.25-4.71,4.72-7.15a35.77,35.77,0,0,0,3.67-7.75,21.31,21.31,0,0,1-2.36,8.45,43.69,43.69,0,0,1-2.07,3.88c-.78,1.24-1.57,2.47-2.41,3.67a72,72,0,0,1-5.5,6.8A57.2,57.2,0,0,1,1531.93,471.76Z"/><path class="cls-11" d="M1531.93,438.7c3.4-4.73,7-9.25,10.25-13.95,1.68-2.32,3.25-4.71,4.72-7.15a35.77,35.77,0,0,0,3.67-7.75,21.31,21.31,0,0,1-2.36,8.45c-.59,1.35-1.36,2.6-2.07,3.88s-1.57,2.48-2.41,3.67a72,72,0,0,1-5.5,6.8A57.2,57.2,0,0,1,1531.93,438.7Z"/><path class="cls-11" d="M1530.73,402.64c3.4-4.74,7-9.26,10.25-13.95,1.68-2.32,3.25-4.71,4.72-7.15a35.84,35.84,0,0,0,3.67-7.76,21.43,21.43,0,0,1-2.36,8.45,44,44,0,0,1-2.08,3.89c-.77,1.24-1.56,2.47-2.41,3.66a71.7,71.7,0,0,1-5.49,6.81A57.2,57.2,0,0,1,1530.73,402.64Z"/><path class="cls-14" d="M1528.63,364.17S1542.34,350,1544,338.92"/><path class="cls-14" d="M1521.42,332.61s11-6.31,12.62-17.43"/><path class="cls-15" d="M1504.28,312.17s12.63-14.41,13.83-23.44"/><path class="cls-14" d="M1492.86,277.91s2.11,13.52-1.8,20.44"/><path class="cls-14" d="M1462.81,277.91s9.62,7.51,13.82,19.24"/><path class="cls-11" d="M1534.8,525c-2.35,11.81-4.92,23.53-7.62,35.23s-5.55,23.37-8.58,35-6.27,23.18-9.77,34.66-7.32,22.87-11.61,34.07c4-11.32,7.44-22.8,10.65-34.35s6.06-23.19,8.79-34.86,5.21-23.4,7.59-35.14,4.61-23.53,6.62-35.31Z"/><path class="cls-11" d="M1547.86,530.16c-.76,8.66-1.85,17.21-3.11,25.75S1542,573,1540.3,581.42c-.8,4.24-1.76,8.45-2.67,12.66s-1.92,8.41-3.05,12.58c-2.07,8.37-4.57,16.62-7.15,24.84,2.34-8.29,4.6-16.6,6.42-25,1-4.19,1.79-8.42,2.68-12.63s1.62-8.45,2.3-12.7q2.16-12.72,3.69-25.53c1-8.53,1.85-17.12,2.34-25.65Z"/></svg>