<svg id="Layer_1" data-name="Layer 1" xmlns="http://www.w3.org/2000/svg" viewBox="0 0 2000 1884.43"><defs><style>.cls-1,.cls-12,.cls-13{fill:none;}.cls-1{stroke:#be353e;stroke-width:76px;}.cls-1,.cls-10,.cls-12,.cls-13{stroke-miterlimit:10;}.cls-2,.cls-4{fill:#ca2f3d;}.cls-3{fill:#75141e;}.cls-3,.cls-4{fill-rule:evenodd;}.cls-5{fill:#424243;}.cls-6{fill:#343334;}.cls-7{fill:#161616;}.cls-10,.cls-8{fill:#ecb730;}.cls-9{fill:#94662f;}.cls-10,.cls-12,.cls-13{stroke:#94662f;}.cls-10{stroke-width:1.98px;}.cls-11{fill:#de8a2e;}.cls-12{stroke-width:1.9px;}.cls-13{stroke-width:1.47px;}</style></defs><title>Artboard 5</title><path class="cls-1" d="M1562.17,953.2s108.94,330.27-217.29,109.83"/><path class="cls-2" d="M669.8,917.92a62.88,62.88,0,1,0,62.94,62.81A62.9,62.9,0,0,0,669.8,917.92Z"/><path class="cls-2" d="M1095.36,917.92a62.88,62.88,0,1,0,62.94,62.81A62.77,62.77,0,0,0,1095.36,917.92Z"/><path class="cls-2" d="M1094.28,1193.22C1025.11,1289.07,899.85,1327,789,1286c-18.6-6.86-27.64-24.82-20.84-36.71,6.86-12.11,23.73-15.79,38.27-10.49,89.66,33.45,191.16,2.52,247.07-75,9.14-12.56,25-19.12,37.5-12.84S1106,1177.15,1094.28,1193.22Z"/><path class="cls-3" d="M1498.79,1046.5c0,7.29-.31,12.19,2.5,19.44,22,56.58,144.56,28.37,140.84-32.15-.65-10.66-4.67-16.47-10.5-24.32,24.77-66.36-22.88-120.72-36.07-168.94-8.36-30.54-8.14-58.49-4.23-89.65,4.14-33,2-66.27-38.71-71.06-72.49-7.06-75.35,96.79-51.12,145.78-49-11.63-94.79,2.23-84.12,71.88-50,41.59-36,127.12,15.1,123.3a46.71,46.71,0,0,0,33.77-19C1471.19,1020.35,1483.38,1035.12,1498.79,1046.5Z"/><path class="cls-4" d="M1626.23,947.72c-8.51-40.15-25.53-62.74-36.66-93.67-4.83,5.87-12.35,9.88-20.48,9.24,9.1-4.44,15-13.64,15.28-26.26-5.46-21.84-7.59-48.79-2.75-87.37,3.62-28.86,3.37-56.18-30-60.11-66.56-6.48-62,101.14-37.23,139,12.65,6,29.36,16,39.89,33.21-38.59-32.22-141.38-58.16-127.74,30.89,40.79-30.76,96.2-22.91,126.47,16-54.57-45.32-156.24-27-157,57.91-.18,24.33,13.73,46.14,35.75,44.51,22.21-1.67,38.27-24.14,33.58-45.36-10-15.66-2.62-36.27,6.79-41.92-3.75,6.34-4.06,25.16,1,33.07a31.51,31.51,0,0,1,34.71-13c-44.74,11.15-48.24,68.65,6.4,101.26C1574.05,1080.72,1643,1027,1626.23,947.72Z"/><path class="cls-3" d="M1562.38,913.67c8.1,19,3.38,32.89-9.69,39.63C1574.11,955,1587.53,925.39,1562.38,913.67Z"/><path class="cls-3" d="M1567,867.57c11.7,14,9.18,32.13-3.89,38.87C1584.49,908.12,1592.11,879.29,1567,867.57Z"/><path class="cls-2" d="M881.16,674.82a440.54,440.54,0,0,1,363.34,689.57,78,78,0,0,0-13.67,41.7c-.2,6.15-1.44,61.92,14.84,123.69a356.34,356.34,0,0,0,13.63,41.53,388.36,388.36,0,0,1-55.37-8.08c-32.48-7.26-62.33-18.82-88.69-34.36a78,78,0,0,0-68.88-5.1,440.61,440.61,0,1,1-165.2-848.95m0-78c-286.35,0-518.48,232.13-518.48,518.48s232.13,518.49,518.48,518.49a516.89,516.89,0,0,0,194.47-37.72c72.64,42.81,151.93,54.45,216.65,54.45,77.11,0,133.55-16.51,133.55-16.51-123.24-30.36-117-225.45-117-225.45a516.11,516.11,0,0,0,90.85-293.26c0-286.35-232.13-518.48-518.48-518.48Z"/><path class="cls-5" d="M1430.53,575.6c16.4-14.67,20.16-27.24,17.91-37.26-.12-12.65-10-16.68-10-16.68l-1.77-.88a51.41,51.41,0,0,0-10.39-6.59c-143-68-491.4-242.53-508.06-251.6-17.72-9.65-42.07-18.81-71.62-4.66-76.77,36.76-166,77.66-249.17,115C521,405.24,427.4,446.08,314.36,497.42l-.12.05c-10.47,5-12.07,14.43-10.3,23.57.95,8.75,5.35,20.4,16.33,35.7,12.51,17.43,51.3,36.93,96,54.58,64.35,29.44,143.55,52.58,205.21,60.82,120.47,16.1,486.41,23.76,486.41,23.76,11.81-1,29.42-3.83,50.58-8.35,0,.83,0,1.26,0,1.26,6-.51,28.13-6.33,57.56-15.5,57.49-16,123.77-39.64,173-68.39C1407.48,594.94,1422.19,585,1430.53,575.6Z"/><path class="cls-6" d="M533.48,512.57s18.37,77.53-10.88,173.32c-16.82,55.07,37.08,76.87,366.73,80.78,102.73,1.22,270.79-2,331.34-38.56,28.15-17-1.89-48.11-9.52-108.79-8.17-64.94,6.8-105.13,6.8-107.16S922,397.29,533.48,512.57Z"/><path class="cls-7" d="M533.79,512.75a3.17,3.17,0,0,1,.26.62l.19.88.39,1.76.7,3.53q.66,3.54,1.24,7.09l1,7.12.85,7.15c.28,2.38.45,4.78.68,7.17l.32,3.58c.1,1.2.16,2.4.23,3.6l.43,7.19c.12,2.4.15,4.8.22,7.2a374.19,374.19,0,0,1-3,57.55l-.9,7.17-1.2,7.11c-.85,4.74-1.51,9.52-2.63,14.2s-2,9.42-3.15,14.1l-3.78,14-.94,3.47c-.32,1.11-.63,2.23-.89,3.36a51.06,51.06,0,0,0-1.19,6.75,32.55,32.55,0,0,0,1,13.19,28.29,28.29,0,0,0,6.73,11.13,43.72,43.72,0,0,0,5,4.44,61.4,61.4,0,0,0,5.75,3.72c8,4.56,16.94,7.7,26,10.32s18.37,4.56,27.72,6.25c18.71,3.4,37.68,5.64,56.68,7.45,38,3.54,76.25,5.5,114.48,7.14s76.5,2.79,114.78,3.63q28.71.66,57.42.78t57.41-.77c19.13-.59,38.25-1.42,57.34-2.79s38.15-3,57.11-5.55c9.48-1.2,18.93-2.66,28.35-4.25s18.76-3.58,28-5.79,18.44-4.86,27.4-8a137,137,0,0,0,25.72-11.76,29.25,29.25,0,0,0,5.25-4.13,21.36,21.36,0,0,0,2.1-2.48,20.24,20.24,0,0,0,1.57-2.8,18.53,18.53,0,0,0,1.6-6.24l.09-.82v-.83c0-.56,0-1.12,0-1.68-.08-1.12-.09-2.24-.26-3.38a83.09,83.09,0,0,0-3-13.63c-1.34-4.53-2.84-9.06-4.35-13.6-3-9.09-6-18.26-8.46-27.61a238.79,238.79,0,0,1-5.75-28.47c-.34-2.4-.57-4.8-.85-7.2s-.6-4.8-.77-7.21c-.34-4.82-.81-9.64-.91-14.47a275.62,275.62,0,0,1,.24-29,242.1,242.1,0,0,1,3.36-28.88c.86-4.78,1.86-9.54,3-14.27.59-2.34,1.23-4.75,1.84-7l.11-.42c.06-.19,0-.17,0-.16h0c-.32-.63,2.41,4.93,1.44,2.71l-.21-.1-.33-.16-.74-.32c-1-.44-2.12-.87-3.21-1.28-8.81-3.32-17.92-6.19-27-8.91s-18.32-5.21-27.56-7.55q-27.73-7-55.89-12.28t-56.5-9.14c-18.91-2.58-37.89-4.63-56.91-6.28a1241.38,1241.38,0,0,0-228.82,1.52c-38,3.78-75.92,9.12-113.49,16.32q-28.17,5.4-56.13,11.91-14,3.28-27.87,6.88Zm-.62-.36c4.57-1.5,9.44-3.05,14-4.38s9.18-2.73,13.78-4.06q13.83-3.94,27.73-7.59c18.55-4.84,37.2-9.32,56-13.22,37.54-7.87,75.45-14.09,113.6-18.37a1181.5,1181.5,0,0,1,230.07-3.53q28.72,2.38,57.29,6.32t56.88,9.38q28.29,5.52,56.24,12.73,14,3.63,27.79,7.8c9.22,2.82,18.37,5.76,27.47,9.25,1.14.44,2.27.9,3.44,1.4l.9.4.48.23.59.31c-.77-2.07,2.44,3.62,1.92,3.33,0,.3-.08.6-.14.89a6.32,6.32,0,0,1-.16.71l-.12.45c-.67,2.39-1.27,4.6-1.87,6.9-1.16,4.56-2.15,9.17-3,13.81a245.41,245.41,0,0,0-3.49,28.12,271.73,271.73,0,0,0-.49,28.4c0,4.74.49,9.46.76,14.2.13,2.36.44,4.72.66,7.08s.43,4.73.74,7.07a232.94,232.94,0,0,0,5.25,27.89c2.25,9.21,5,18.3,7.92,27.44,1.42,4.57,2.86,9.16,4.16,13.83a87.54,87.54,0,0,1,2.93,14.44c.16,1.23.17,2.51.23,3.77,0,.64,0,1.28-.06,1.92l0,1-.12,1a22.58,22.58,0,0,1-2.09,7.55,23.87,23.87,0,0,1-2,3.42,25.12,25.12,0,0,1-2.58,2.95,32.54,32.54,0,0,1-6.09,4.63,139.46,139.46,0,0,1-26.6,11.72c-9.15,3.06-18.47,5.53-27.84,7.69-18.77,4.16-37.75,7.14-56.79,9.45s-38.14,4-57.26,5.32-38.26,2.3-57.41,2.93-38.31,1.16-57.47,1.39-38.33.36-57.49.26c-38.31-.16-76.63-.57-114.95-1.66-19.15-.62-38.32-1.32-57.46-2.44S670.1,762,651,760.11s-38.21-4.25-57.17-7.78c-9.48-1.77-18.92-3.92-28.24-6.64s-18.55-6.1-27.16-11.11a67.16,67.16,0,0,1-6.26-4.15,47,47,0,0,1-5.67-5.1,34.68,34.68,0,0,1-4.68-6.17,32.82,32.82,0,0,1-3.13-7.16,37.87,37.87,0,0,1-1-15.27,55.94,55.94,0,0,1,1.41-7.36c.29-1.2.64-2.39,1-3.57l1-3.45L525,668.63c1.2-4.6,2.21-9.25,3.33-13.88s1.94-9.32,2.88-14l1.32-7,1-7.07a388,388,0,0,0,4.25-57c0-2.38,0-4.77,0-7.16l-.22-7.15c0-1.2-.06-2.39-.12-3.58l-.22-3.58c-.16-2.38-.26-4.77-.47-7.14l-.63-7.14-.79-7.12q-.47-3.56-1-7.1l-.58-3.53-.32-1.76-.17-.89A7.42,7.42,0,0,1,533.17,512.39Z"/><path class="cls-8" d="M1288.85,420.88s132.94-67,103.06,203l-15.46-4.12s23.18-197.72-61.84-184.84"/><path class="cls-9" d="M1288.79,420.74a77.25,77.25,0,0,1,16.6-5.92A73.09,73.09,0,0,1,1323,412.7a62.68,62.68,0,0,1,17.62,2.5,55,55,0,0,1,16.06,7.79,63.73,63.73,0,0,1,13,12.21,85,85,0,0,1,9.71,14.94,119.63,119.63,0,0,1,6.86,16.38,167.06,167.06,0,0,1,4.6,17.09,258,258,0,0,1,4.74,34.94c.86,11.72,1.16,23.45,1.15,35.19s-.45,23.45-1,35.17-1.58,23.42-2.69,35.11l-.12,1.29-1.28-.33-15.49-4-1-.26.1-1.1c1.74-18.1,2.61-36.35,2.58-54.55a412,412,0,0,0-3.34-54.43,213.17,213.17,0,0,0-5.28-26.67,110.05,110.05,0,0,0-10-25.12,60.24,60.24,0,0,0-7.84-10.94,41.63,41.63,0,0,0-10.45-8.37,37.67,37.67,0,0,0-12.7-4.38,49.26,49.26,0,0,0-13.56-.08l-.05-.3a46.8,46.8,0,0,1,13.73-.48,38.6,38.6,0,0,1,13.23,4,43.21,43.21,0,0,1,11.08,8.39,61.73,61.73,0,0,1,8.39,11.06,109.28,109.28,0,0,1,10.68,25.48,202.39,202.39,0,0,1,5.75,27,363.81,363.81,0,0,1,3.44,54.87q-.11,13.74-.89,27.45c-.53,9.15-1.22,18.26-2.3,27.39l-.93-1.36,15.43,4.25-1.41,1c1.39-11.62,2.64-23.27,3.52-34.95s1.38-23.38,1.48-35.09c.18-23.4-1.74-46.92-7.09-69.63q-2.1-8.49-4.9-16.75a129.32,129.32,0,0,0-6.81-16,87,87,0,0,0-9.29-14.56,61.39,61.39,0,0,0-12.42-11.89,55,55,0,0,0-7.36-4.45,57.92,57.92,0,0,0-25-6.12,82.84,82.84,0,0,0-34,6.66Z"/><path class="cls-10" d="M1365.26,649.82c-14.88,93.32-54,198.36-54,198.36l25.77-34L1336,825.41l-.67,14v24.34l17.8-35.84,3.39,28.4s14.22-39.22,15.1-45.53l1.12,42.38s31.79-43.28,30-205.13"/><path class="cls-11" d="M1360.6,656.43s2.43-48,28.85-40.27c22.54,6.61,14.43,48.68,14.43,48.68S1370.52,664.54,1360.6,656.43Z"/><path class="cls-9" d="M1360.41,656.51a1.47,1.47,0,0,1,0-.2v-.78l0-.88c0-.59,0-1.18,0-1.77q0-1.77.15-3.54c.15-2.36.4-4.71.78-7.06a67.8,67.8,0,0,1,1.46-7,50.24,50.24,0,0,1,2.3-6.86,34.48,34.48,0,0,1,3.51-6.51,22,22,0,0,1,5.32-5.53,16.51,16.51,0,0,1,7.35-2.95,19.85,19.85,0,0,1,19.69,9.55,28.33,28.33,0,0,1,2.85,6.77,45.14,45.14,0,0,1,1.42,7,106.17,106.17,0,0,1,.72,14.13,132.85,132.85,0,0,1-.66,14.19l-.13,1.09-1.27,0a96.1,96.1,0,0,1-11.26-.15c-1.87-.11-3.74-.33-5.6-.55s-3.73-.48-5.58-.81a75.21,75.21,0,0,1-11-2.69,38.3,38.3,0,0,1-5.27-2.19,23.33,23.33,0,0,1-2.46-1.45c-.4-.26-.78-.57-1.15-.86S1360.75,656.83,1360.41,656.51Zm.37-.16,1.14.6c.42.19.82.4,1.24.58.84.36,1.7.66,2.56,1a52.77,52.77,0,0,0,5.3,1.36c3.58.74,7.21,1.24,10.86,1.67,1.83.19,3.65.4,5.49.57l5.5.45c3.67.26,7.36.64,11,.91l-1.4,1.14a76.33,76.33,0,0,0,2.12-13.7,54.66,54.66,0,0,0-1-13.82,32.39,32.39,0,0,0-5.23-12.38,18.69,18.69,0,0,0-4.56-4.45,16.58,16.58,0,0,0-5.78-2.45,15.73,15.73,0,0,0-6.17-.23,13.6,13.6,0,0,0-5.5,2.33,20.59,20.59,0,0,0-4.44,4.45,38.22,38.22,0,0,0-3.41,5.67,76.31,76.31,0,0,0-4.7,12.83q-.91,3.33-1.67,6.74c-.26,1.14-.51,2.28-.72,3.42l-.32,1.72-.17.87-.07.43,0,.21,0,.11S1360.82,656.45,1360.78,656.35Z"/><path class="cls-9" d="M1377.43,608.64c3.4-4.73,7-9.25,10.24-13.95q2.52-3.48,4.73-7.15a35.73,35.73,0,0,0,3.66-7.75,21.31,21.31,0,0,1-2.36,8.45,43.69,43.69,0,0,1-2.07,3.88c-.78,1.24-1.57,2.48-2.41,3.67a73.48,73.48,0,0,1-5.49,6.8A57.16,57.16,0,0,1,1377.43,608.64Z"/><path class="cls-9" d="M1377.43,575.58c3.4-4.73,7-9.25,10.24-14q2.52-3.48,4.73-7.15a35.73,35.73,0,0,0,3.66-7.75,21.31,21.31,0,0,1-2.36,8.45,43.69,43.69,0,0,1-2.07,3.88c-.78,1.24-1.57,2.48-2.41,3.67a73.48,73.48,0,0,1-5.49,6.8A57.16,57.16,0,0,1,1377.43,575.58Z"/><path class="cls-9" d="M1376.23,539.52c3.39-4.74,7-9.26,10.24-13.95,1.68-2.32,3.26-4.71,4.72-7.15a35.52,35.52,0,0,0,3.67-7.75,21.26,21.26,0,0,1-2.36,8.44,43.86,43.86,0,0,1-2.07,3.89c-.78,1.24-1.57,2.47-2.41,3.66a73.62,73.62,0,0,1-5.49,6.81A59,59,0,0,1,1376.23,539.52Z"/><path class="cls-12" d="M1374.12,501.05s13.71-14.13,15.33-25.25"/><path class="cls-12" d="M1366.91,469.49s11-6.31,12.62-17.43"/><path class="cls-13" d="M1349.78,449.05s12.62-14.4,13.82-23.44"/><path class="cls-12" d="M1338.36,414.79s2.1,13.53-1.81,20.44"/><path class="cls-12" d="M1308.3,414.79s9.62,7.51,13.83,19.24"/><path class="cls-9" d="M1380.3,661.89c-2.36,11.81-4.93,23.53-7.62,35.23s-5.55,23.37-8.59,35-6.27,23.18-9.76,34.66-7.33,22.87-11.61,34.07c4-11.32,7.43-22.8,10.65-34.35s6.05-23.19,8.78-34.86,5.22-23.4,7.59-35.14,4.61-23.53,6.62-35.31Z"/><path class="cls-9" d="M1393.35,667c-.75,8.66-1.84,17.21-3.11,25.75s-2.75,17.05-4.44,25.51c-.81,4.24-1.77,8.45-2.68,12.66s-1.92,8.41-3,12.58c-2.08,8.37-4.58,16.62-7.16,24.84,2.34-8.29,4.6-16.6,6.43-25,1-4.18,1.79-8.42,2.67-12.63s1.62-8.45,2.3-12.7q2.16-12.72,3.69-25.53c1-8.53,1.85-17.12,2.35-25.65Z"/></svg>