<svg id="Layer_1" data-name="Layer 1" xmlns="http://www.w3.org/2000/svg" viewBox="0 0 2000 1884.43"><defs><style>.cls-1,.cls-6{fill:#862d88;}.cls-2{fill:#edbb30;}.cls-3{fill:#a47633;}.cls-4{fill:#fdfefe;}.cls-5{fill:#500051;}.cls-5,.cls-6{fill-rule:evenodd;}.cls-7{fill:#424243;}.cls-8{fill:#343334;}.cls-9{fill:#161616;}.cls-10,.cls-12{fill:#ecb730;}.cls-11{fill:#94662f;}.cls-12,.cls-14,.cls-15{stroke:#94662f;stroke-miterlimit:10;}.cls-12{stroke-width:1.98px;}.cls-13{fill:#de8a2e;}.cls-14,.cls-15{fill:none;}.cls-14{stroke-width:1.9px;}.cls-15{stroke-width:1.47px;}</style></defs><title>Artboard 3</title><path class="cls-1" d="M605.64,1537.25a40.2,40.2,0,0,1-15.15-40l37.61-185C535,1215.08,483.93,1088.33,483.93,952.88c0-286.71,233.25-520,520-520s520,233.25,520,520-233.25,520-520,520a518,518,0,0,1-169.26-28.21L648.3,1540.89a40.18,40.18,0,0,1-42.66-3.64Zm240.6-173.89a437.57,437.57,0,0,0,157.65,29.14c242.41,0,439.62-197.21,439.62-439.62S1246.3,513.26,1003.89,513.26,564.27,710.47,564.27,952.88c0,120.88,48.06,233.55,135.33,317.27A40.15,40.15,0,0,1,710.74,1309l-24.81,122,127.46-65.85a40.2,40.2,0,0,1,32.85-1.81Z"/><path class="cls-1" d="M791.19,683.67c-34.69,0-63.09,28.08-63.09,62.78a62.94,62.94,0,1,0,63.09-62.78Z"/><path class="cls-1" d="M1216.91,683.67a62.94,62.94,0,1,0,62.78,62.78A62.82,62.82,0,0,0,1216.91,683.67Z"/><path class="cls-1" d="M1004,829.51c-62.62,0-113.56,69.36-113.56,154.69,0,85.6,50.94,154.69,113.56,154.69s113.3-69.09,113.3-154.69C1117.32,898.87,1066.66,829.51,1004,829.51Z"/><path class="cls-2" d="M1396.84,1043.6a23.53,23.53,0,0,0-22.69-1.33l-71.2,34v-54.43a11.76,11.76,0,0,0-19-9.29l-111.12,86.33v-92.13a11.77,11.77,0,0,0-21.59-6.48l-135.6,205.57V1001.88a11.77,11.77,0,0,0-23.53,0V1205.7l-135-205.44a11.77,11.77,0,0,0-21.6,6.46v92.58l-111.7-86.78a11.76,11.76,0,0,0-19,9.29v54.43l-71.2-34A23.52,23.52,0,0,0,600,1063.5v519.13a23.52,23.52,0,0,0,13.39,21.23l380.39,181.51c.12.06.25.1.37.15.29.14.6.25.9.37.64.26,1.29.5,1.94.7.33.11.67.2,1,.29.67.17,1.34.31,2,.42.32.06.64.12,1,.16a20.72,20.72,0,0,0,2.72.19l.25,0a23.43,23.43,0,0,0,3-.21l.73-.13a21.75,21.75,0,0,0,2.24-.47l.91-.26c.69-.21,1.38-.47,2.06-.75.29-.12.57-.22.85-.35l.31-.13,380.4-181.51a23.52,23.52,0,0,0,13.39-21.23V1063.5A23.54,23.54,0,0,0,1396.84,1043.6Zm-228.56,89a11.36,11.36,0,0,0,2-2l109.12-84.78v41.63l-137.59,65.65Zm-19-86.72v71.21L1053,1192ZM859,1046l96.07,146.18L859,1117.58Zm-130.68-.2,111.69,86.78h0l27.15,21.09-138.84-66.25Zm252,681L647,1567.78v-467l333.33,159Zm380.4-159.06-333.34,159.06v-467l333.34-159Z"/><polygon class="cls-3" points="980.36 1726.84 647.02 1571.46 647.02 1100.8 980.36 1259.85 980.36 1726.84"/><polygon class="cls-3" points="1027.29 1254.29 1360.76 1100.8 1360.76 1567.78 1027.42 1726.84 1027.29 1254.29"/><polygon class="cls-4" points="728.36 1045.84 728.36 1087.47 867.2 1153.72 728.36 1045.84"/><polygon class="cls-4" points="859.04 1046.04 859.04 1117.58 955.11 1192.22 859.04 1046.04"/><polygon class="cls-4" points="1052.96 1191.99 1149.32 1045.92 1149.32 1117.13 1052.96 1191.99"/><polygon class="cls-4" points="1279.42 1045.84 1279.42 1087.47 1141.83 1153.12 1279.42 1045.84"/><path class="cls-5" d="M1386.88,1311.63c-6.78-6.51-11.32-14.7-11.77-24.73-.55-11.86,5.59-21.84,14.51-29-9.61-7.49-16.76-17.4-18.85-29.88a39.34,39.34,0,0,1-.32-10.78,42.12,42.12,0,0,1,1.22-6.39c4.88-17.62,19.53-29,36.56-35.38v-71.07c11.85-1.76,23.94,2.16,34,10.25,10.36,8.32,19,20,26.1,31.1,6.68,10.45,7.86,18.94,6.22,28.58,20.77,6.88,40,20.87,43.68,42.76a39.66,39.66,0,0,1-.9,17.16c-3.49,12.61-12,22-22.78,28.72,7.11,6.7,12.26,15.37,12.72,25.37a30.64,30.64,0,0,1-.73,8.27c-2.61,11.52-10.58,19.78-20.68,25.39a37.29,37.29,0,0,1,3.87,10.15l.16.74,0,.75c1.37,24.14-19.12,38.35-39.6,45-15.45,5-32.66,3.07-47.08-4.17-12.36-6.21-24.13-17.21-27.17-31.18C1373.4,1330.86,1377.64,1319.77,1386.88,1311.63Z"/><path class="cls-6" d="M1480.68,1334.19a27.67,27.67,0,0,0-3.24-8.22,94.69,94.69,0,0,1-34.82,6c-14.67-.3-34.08-4.81-48.33-14.39-7.34,5.83-11.28,13.84-9.12,23.8,2.4,11,12.47,19.92,22.27,24.83,12.83,6.45,27.47,7.72,40,3.65,15.87-5.14,34.3-16,33.19-35.63Zm-14.92-162.31c1.41-9.49-.73-14.6-5-21.26-8.32-13-16.28-22.6-24.15-28.92-9.71-7.79-19.65-9.84-28.39-8.11v61.91a103.63,103.63,0,0,1,41.63-6,99.65,99.65,0,0,1,15.9,2.41Zm-16.51,6.86c-35.79-2.38-67,15.32-69.57,39.52s24.29,45.78,60.09,48.17,67-15.32,69.57-39.53-24.29-45.78-60.09-48.16Zm-51.44,84.67a98.15,98.15,0,0,0,41.34,12.28c14.51,1,31.82-1.46,46.62-8.06,7.35,6,11.89,13.32,12.25,21.17.88,19.33-23.85,34.49-55.22,33.84s-57.53-16.84-58.42-36.17C1384,1277.5,1389.08,1269.42,1397.81,1263.41Z"/><path class="cls-5" d="M620.9,1311.63c6.78-6.51,11.32-14.7,11.77-24.73.55-11.86-5.59-21.84-14.51-29,9.61-7.49,16.76-17.4,18.85-29.88a39.34,39.34,0,0,0,.32-10.78,42.12,42.12,0,0,0-1.22-6.39c-4.88-17.62-19.53-29-36.56-35.38v-71.07c-11.85-1.76-23.93,2.16-34,10.25-10.36,8.32-19,20-26.1,31.1-6.68,10.45-7.86,18.94-6.22,28.58-20.77,6.88-40,20.87-43.68,42.76a39.66,39.66,0,0,0,.9,17.16c3.49,12.61,12,22,22.78,28.72-7.11,6.7-12.26,15.37-12.72,25.37a30.64,30.64,0,0,0,.73,8.27c2.61,11.52,10.58,19.78,20.68,25.39a37.29,37.29,0,0,0-3.87,10.15l-.16.74,0,.75c-1.37,24.14,19.12,38.35,39.6,45,15.45,5,32.67,3.07,47.08-4.17,12.36-6.21,24.13-17.21,27.17-31.18C634.38,1330.86,630.14,1319.77,620.9,1311.63Z"/><path class="cls-6" d="M527.1,1334.19c-1.11,19.62,17.32,30.49,33.19,35.63,12.58,4.07,27.22,2.8,40.05-3.65,9.8-4.91,19.87-13.8,22.27-24.83,2.16-10-1.78-18-9.12-23.8-14.25,9.58-33.66,14.09-48.33,14.39a94.69,94.69,0,0,1-34.82-6,27.67,27.67,0,0,0-3.24,8.22ZM542,1171.88a99.82,99.82,0,0,1,15.9-2.41,103.63,103.63,0,0,1,41.63,6v-61.91c-8.73-1.73-18.68.32-28.39,8.11-7.87,6.32-15.83,15.89-24.15,28.92-4.26,6.66-6.4,11.77-5,21.26Zm16.51,6.86c-35.8,2.38-62.7,24-60.09,48.16s33.78,41.9,69.57,39.53,62.7-24,60.09-48.17-33.78-41.9-69.57-39.52Zm64.87,107.73c-.89,19.33-27,35.53-58.42,36.17s-56.1-14.51-55.22-33.84c.36-7.85,4.9-15.19,12.25-21.17,14.8,6.6,32.11,9,46.62,8.06A98.15,98.15,0,0,0,610,1263.41C618.7,1269.42,623.81,1277.5,623.4,1286.47Z"/><path class="cls-7" d="M1558.24,438.72c16.41-14.67,20.16-27.24,17.91-37.26-.12-12.65-10-16.69-10-16.69l-1.77-.87a51,51,0,0,0-10.4-6.59c-143-67.95-491.39-242.53-508-251.6-17.73-9.65-42.08-18.81-71.62-4.66-76.77,36.76-166,77.65-249.17,115C648.7,268.36,555.11,309.2,442.07,360.53a.52.52,0,0,1-.12.06c-10.46,5-12.07,14.43-10.29,23.57.95,8.75,5.34,20.4,16.32,35.69,12.52,17.44,51.3,36.94,96,54.59,64.35,29.44,143.55,52.58,205.21,60.82C869.64,551.35,1235.59,559,1235.59,559c11.81-1,29.42-3.83,50.58-8.35,0,.83,0,1.26,0,1.26,6-.51,28.14-6.33,57.57-15.51,57.49-16,123.77-39.63,173-68.38C1535.19,458.05,1549.9,448.09,1558.24,438.72Z"/><path class="cls-8" d="M661.2,375.69S679.57,453.22,650.31,549c-16.81,55.07,37.08,76.87,366.73,80.78,102.74,1.22,270.79-2,331.35-38.56,28.14-17-1.9-48.11-9.53-108.79-8.16-64.94,6.81-105.13,6.81-107.16S1049.7,260.41,661.2,375.69Z"/><path class="cls-9" d="M661.51,375.87a3.1,3.1,0,0,1,.25.62l.19.88.39,1.76.7,3.53c.44,2.35.85,4.72,1.24,7.09l1.05,7.12.86,7.15c.28,2.38.45,4.78.68,7.17l.32,3.58c.1,1.2.15,2.4.23,3.6l.43,7.19c.12,2.4.14,4.8.21,7.2a375.44,375.44,0,0,1-3,57.55l-.91,7.16-1.2,7.12c-.85,4.74-1.5,9.52-2.62,14.2s-2,9.42-3.16,14.1l-3.78,14-.94,3.47c-.32,1.11-.63,2.23-.88,3.36a49.51,49.51,0,0,0-1.2,6.75,32.73,32.73,0,0,0,1,13.19,28.17,28.17,0,0,0,6.72,11.12,43.08,43.08,0,0,0,5,4.45,60,60,0,0,0,5.74,3.72c8,4.56,17,7.7,26,10.32s18.37,4.56,27.73,6.25c18.71,3.4,37.67,5.64,56.68,7.45,38,3.54,76.24,5.49,114.47,7.13s76.51,2.8,114.79,3.64q28.71.66,57.41.78t57.41-.77c19.13-.59,38.26-1.43,57.34-2.79s38.15-3,57.11-5.55c9.49-1.2,18.93-2.66,28.35-4.25s18.77-3.59,28-5.79,18.44-4.86,27.4-8a136.44,136.44,0,0,0,25.72-11.76,28.19,28.19,0,0,0,5.25-4.14,22.39,22.39,0,0,0,2.11-2.47,19.2,19.2,0,0,0,1.56-2.8,18.31,18.31,0,0,0,1.61-6.24l.08-.82,0-.84c0-.55,0-1.11,0-1.67-.08-1.12-.09-2.25-.26-3.38a83.13,83.13,0,0,0-3-13.63c-1.33-4.54-2.84-9.06-4.34-13.6-3-9.09-6-18.26-8.47-27.62a242.24,242.24,0,0,1-5.75-28.46c-.34-2.4-.56-4.8-.85-7.2s-.59-4.8-.77-7.21c-.33-4.82-.81-9.64-.91-14.47a278.35,278.35,0,0,1,.24-29,242.12,242.12,0,0,1,3.37-28.88q1.29-7.17,3-14.27c.59-2.34,1.24-4.75,1.84-7l.11-.42c.06-.19,0-.17,0-.16h0c-.32-.63,2.41,4.93,1.44,2.71l-.21-.11-.33-.15-.74-.32c-1-.44-2.13-.87-3.22-1.29-8.81-3.31-17.92-6.18-27-8.9s-18.33-5.21-27.57-7.56q-27.72-7-55.88-12.27t-56.51-9.14c-18.91-2.58-37.89-4.63-56.9-6.29a1242.38,1242.38,0,0,0-228.83,1.53c-38,3.78-75.92,9.12-113.48,16.32q-28.17,5.4-56.13,11.91-14,3.28-27.87,6.87Zm-.62-.36c4.56-1.51,9.43-3.05,13.94-4.38s9.19-2.74,13.79-4.06q13.82-3.94,27.73-7.59c18.55-4.84,37.2-9.32,56-13.22,37.54-7.87,75.45-14.09,113.6-18.38A1182.17,1182.17,0,0,1,1116,324.36q28.73,2.38,57.29,6.32t56.88,9.38c18.87,3.68,37.63,7.88,56.25,12.73q14,3.63,27.79,7.8c9.21,2.82,18.36,5.76,27.46,9.25,1.14.44,2.28.9,3.44,1.4l.9.4.49.23.59.31c-.78-2.07,2.43,3.62,1.91,3.33,0,.3-.08.59-.13.89s-.13.62-.16.71l-.13.45c-.66,2.39-1.27,4.6-1.87,6.9q-1.73,6.84-3,13.81a243.2,243.2,0,0,0-3.49,28.12,271.69,271.69,0,0,0-.5,28.4c.06,4.74.5,9.46.76,14.2.14,2.36.45,4.72.66,7.08s.44,4.73.74,7.07a234.39,234.39,0,0,0,5.25,27.88c2.26,9.22,5.06,18.31,7.92,27.45,1.43,4.57,2.87,9.16,4.16,13.83a87.55,87.55,0,0,1,2.94,14.44c.16,1.23.16,2.51.22,3.77,0,.64,0,1.28,0,1.92l0,1-.12,1a22.34,22.34,0,0,1-2.09,7.56,23.81,23.81,0,0,1-2,3.42,26.16,26.16,0,0,1-2.59,2.95,32.8,32.8,0,0,1-6.08,4.63,139.74,139.74,0,0,1-26.6,11.72c-9.16,3.06-18.48,5.53-27.84,7.69-18.78,4.16-37.76,7.14-56.8,9.45s-38.13,4-57.26,5.32-38.26,2.3-57.41,2.93-38.31,1.16-57.47,1.39-38.33.36-57.48.26c-38.31-.16-76.63-.58-114.95-1.66-19.16-.62-38.32-1.32-57.47-2.44s-38.29-2.42-57.41-4.34-38.2-4.25-57.17-7.78c-9.48-1.77-18.92-3.92-28.24-6.64s-18.55-6.1-27.16-11.11a65.72,65.72,0,0,1-6.25-4.15,47.07,47.07,0,0,1-5.68-5.1,35,35,0,0,1-4.68-6.17,33.14,33.14,0,0,1-3.12-7.17,37.63,37.63,0,0,1-1-15.26,55.93,55.93,0,0,1,1.4-7.36c.3-1.2.64-2.39,1-3.57l1-3.45,3.94-13.72c1.19-4.6,2.2-9.26,3.33-13.88s1.94-9.32,2.87-14l1.33-7,1-7.07a389.35,389.35,0,0,0,4.26-57c0-2.38,0-4.77,0-7.16l-.22-7.15c0-1.2-.06-2.39-.12-3.58l-.22-3.58c-.16-2.38-.25-4.77-.46-7.14l-.63-7.14-.8-7.12c-.31-2.37-.63-4.74-1-7.1l-.57-3.54-.33-1.76-.16-.88A7.42,7.42,0,0,1,660.89,375.51Z"/><path class="cls-10" d="M1416.57,284s132.94-67,103,203l-15.46-4.12s23.19-197.72-61.83-184.84"/><path class="cls-11" d="M1416.5,283.86a76.72,76.72,0,0,1,16.6-5.92,73.17,73.17,0,0,1,17.58-2.12,62.66,62.66,0,0,1,17.61,2.5,56.73,56.73,0,0,1,8.35,3.23,57.54,57.54,0,0,1,7.72,4.56,64,64,0,0,1,13,12.21,85,85,0,0,1,9.71,14.94,119.57,119.57,0,0,1,6.85,16.38,169.73,169.73,0,0,1,4.61,17.09,259.55,259.55,0,0,1,4.73,34.94c.87,11.72,1.16,23.45,1.16,35.19s-.45,23.45-1,35.17-1.58,23.42-2.69,35.11l-.12,1.29-1.29-.33-15.49-4-1-.26.11-1.1c1.74-18.1,2.6-36.35,2.58-54.55a410.35,410.35,0,0,0-3.35-54.43,211.38,211.38,0,0,0-5.28-26.67,109.87,109.87,0,0,0-10-25.12,59.28,59.28,0,0,0-7.84-10.94,41.63,41.63,0,0,0-10.45-8.37,37.69,37.69,0,0,0-12.69-4.38,48.94,48.94,0,0,0-13.57-.08l0-.3a46.78,46.78,0,0,1,13.73-.48,38.45,38.45,0,0,1,13.23,4,43.16,43.16,0,0,1,11.07,8.39,62.26,62.26,0,0,1,8.4,11.06,109.25,109.25,0,0,1,10.67,25.48,202.42,202.42,0,0,1,5.76,27,362.5,362.5,0,0,1,3.43,54.87c-.06,9.16-.37,18.31-.88,27.45s-1.23,18.26-2.31,27.39l-.92-1.36,15.42,4.25-1.4,1c1.38-11.63,2.63-23.27,3.52-34.95s1.38-23.38,1.48-35.09c.18-23.4-1.74-46.92-7.1-69.63q-2.09-8.49-4.89-16.75a130.92,130.92,0,0,0-6.82-16,85.79,85.79,0,0,0-9.29-14.56A61.39,61.39,0,0,0,1483,288a55.48,55.48,0,0,0-7.35-4.45,62,62,0,0,0-8-3.27,60.51,60.51,0,0,0-17-2.85,82.63,82.63,0,0,0-34,6.66Z"/><path class="cls-12" d="M1493,512.94c-14.88,93.32-54,198.36-54,198.36l25.77-34-1.12,11.27-.68,14v24.34L1480.8,691l3.38,28.4s14.22-39.22,15.1-45.53l1.13,42.38s31.78-43.28,30-205.13"/><path class="cls-13" d="M1488.31,519.55s2.44-48,28.85-40.27c22.54,6.61,14.43,48.68,14.43,48.68S1498.23,527.66,1488.31,519.55Z"/><path class="cls-11" d="M1488.13,519.63a.61.61,0,0,1,0-.2v-.78l0-.88c0-.59,0-1.18,0-1.77q0-1.77.15-3.54c.16-2.36.41-4.71.78-7.06a68.55,68.55,0,0,1,1.46-7,51.56,51.56,0,0,1,2.31-6.85,33.38,33.38,0,0,1,3.51-6.51,21.62,21.62,0,0,1,5.32-5.53,16.6,16.6,0,0,1,7.34-3,19.84,19.84,0,0,1,19.69,9.56,28.61,28.61,0,0,1,2.86,6.77,44,44,0,0,1,1.41,7,106.17,106.17,0,0,1,.72,14.13,130.29,130.29,0,0,1-.66,14.19l-.12,1.09-1.27,0a96,96,0,0,1-11.26-.15c-1.88-.11-3.74-.33-5.61-.55s-3.73-.48-5.58-.81a75.09,75.09,0,0,1-11-2.69,37.29,37.29,0,0,1-5.27-2.19,21.94,21.94,0,0,1-2.47-1.46c-.4-.25-.77-.57-1.15-.85S1488.46,520,1488.13,519.63Zm.36-.16,1.15.6c.42.19.81.4,1.24.58.83.36,1.7.65,2.56,1,1.73.55,3.51,1,5.29,1.36,3.58.74,7.22,1.24,10.87,1.67,1.82.19,3.65.4,5.48.57l5.5.45c3.67.26,7.37.64,11,.91l-1.39,1.14a76.32,76.32,0,0,0,2.11-13.7,53.75,53.75,0,0,0-1-13.82,32.08,32.08,0,0,0-5.23-12.38,18.51,18.51,0,0,0-4.56-4.45,16.35,16.35,0,0,0-5.77-2.45,16,16,0,0,0-6.18-.24,13.76,13.76,0,0,0-5.5,2.34,21,21,0,0,0-4.44,4.45,39,39,0,0,0-3.4,5.67,75.48,75.48,0,0,0-4.71,12.83q-.9,3.33-1.67,6.74-.39,1.71-.72,3.42l-.32,1.72-.16.87-.08.43,0,.21,0,.11S1488.53,519.57,1488.49,519.47Z"/><path class="cls-11" d="M1505.14,471.76c3.4-4.73,6.95-9.25,10.25-13.95,1.68-2.32,3.25-4.71,4.72-7.15a35.77,35.77,0,0,0,3.67-7.75,21.47,21.47,0,0,1-2.36,8.45c-.59,1.35-1.37,2.6-2.08,3.88s-1.56,2.47-2.41,3.67a70.33,70.33,0,0,1-5.49,6.8A57.2,57.2,0,0,1,1505.14,471.76Z"/><path class="cls-11" d="M1505.14,438.7c3.4-4.73,6.95-9.25,10.25-13.95,1.68-2.32,3.25-4.71,4.72-7.15a35.77,35.77,0,0,0,3.67-7.75,21.47,21.47,0,0,1-2.36,8.45c-.59,1.35-1.37,2.6-2.08,3.88s-1.56,2.48-2.41,3.67a70.33,70.33,0,0,1-5.49,6.8A57.2,57.2,0,0,1,1505.14,438.7Z"/><path class="cls-11" d="M1503.94,402.64c3.4-4.74,7-9.26,10.24-13.95,1.68-2.32,3.26-4.71,4.73-7.15a35.35,35.35,0,0,0,3.66-7.76,21.1,21.1,0,0,1-2.36,8.45,43.86,43.86,0,0,1-2.07,3.89c-.77,1.24-1.57,2.47-2.41,3.66a75,75,0,0,1-5.49,6.81A58.1,58.1,0,0,1,1503.94,402.64Z"/><path class="cls-14" d="M1501.84,364.17s13.7-14.13,15.32-25.25"/><path class="cls-14" d="M1494.62,332.61s11-6.31,12.63-17.43"/><path class="cls-15" d="M1477.49,312.17s12.63-14.41,13.83-23.44"/><path class="cls-14" d="M1466.07,277.91s2.11,13.52-1.8,20.44"/><path class="cls-14" d="M1436,277.91s9.61,7.51,13.82,19.24"/><path class="cls-11" d="M1508,525c-2.35,11.81-4.93,23.53-7.62,35.23s-5.55,23.37-8.58,35-6.27,23.18-9.77,34.66-7.32,22.87-11.61,34.07c4-11.32,7.43-22.8,10.65-34.35s6.05-23.19,8.79-34.86,5.21-23.4,7.59-35.14,4.6-23.53,6.62-35.31Z"/><path class="cls-11" d="M1521.07,530.16c-.76,8.66-1.85,17.21-3.12,25.75s-2.75,17.05-4.44,25.51c-.81,4.24-1.77,8.45-2.67,12.66s-1.93,8.41-3,12.58c-2.07,8.37-4.57,16.62-7.16,24.84,2.35-8.29,4.6-16.6,6.43-25,1-4.19,1.79-8.42,2.68-12.63s1.61-8.45,2.3-12.7q2.16-12.72,3.68-25.53c1-8.53,1.86-17.12,2.35-25.65Z"/></svg>