<svg id="Layer_1" data-name="Layer 1" xmlns="http://www.w3.org/2000/svg" viewBox="0 0 2000 1821"><defs><style>.cls-1,.cls-4{fill:#d35a2f;}.cls-12,.cls-13,.cls-2{fill:none;}.cls-2{stroke:#d35a2f;stroke-width:89px;}.cls-10,.cls-12,.cls-13,.cls-2{stroke-miterlimit:10;}.cls-2,.cls-3,.cls-4{fill-rule:evenodd;}.cls-3{fill:#7a3312;}.cls-5{fill:#424243;}.cls-6{fill:#343334;}.cls-7{fill:#161616;}.cls-10,.cls-8{fill:#ecb730;}.cls-9{fill:#94662f;}.cls-10,.cls-12,.cls-13{stroke:#94662f;}.cls-10{stroke-width:1.98px;}.cls-11{fill:#de8a2e;}.cls-12{stroke-width:1.9px;}.cls-13{stroke-width:1.47px;}</style></defs><title>Mesa de trabajo 14</title><path class="cls-1" d="M871.86,689a440.54,440.54,0,0,1,363.34,689.57,78,78,0,0,0-13.68,41.7c-.19,6.15-1.44,61.91,14.85,123.69a356.17,356.17,0,0,0,13.63,41.52,385.11,385.11,0,0,1-55.37-8.08c-32.49-7.25-62.33-18.81-88.7-34.35a78,78,0,0,0-68.87-5.1A440.61,440.61,0,1,1,871.86,689m0-78c-286.35,0-518.48,232.13-518.48,518.48s232.13,518.48,518.48,518.48a516.92,516.92,0,0,0,194.47-37.71c72.64,42.81,151.93,54.45,216.65,54.45,77.11,0,133.55-16.52,133.55-16.52-123.24-30.36-117-225.44-117-225.44a516.07,516.07,0,0,0,90.86-293.26c0-286.35-232.13-518.48-518.48-518.48Z"/><path class="cls-2" d="M1361.09,1140.61s119.32,61.68,155.33-52.2"/><path class="cls-3" d="M1574.35,1175.63a48.4,48.4,0,0,1-9.57,5.44c-35.13,15-74.82-11.31-95-39s-33.16-73.54-8.11-102.39c.89-1,1.82-2,2.79-3-3.52-17.42-5.25-35.68-6.71-54.23-1.68-20-56.79-48.4-56.34-87.76.38-33.19,44-59,81.22-40.54,40.09,19.92,46.91,42.25,61.19,79h0A114.68,114.68,0,0,1,1567.58,909l.56-.43c2.6-2,5.48-4,8.69-6l.11-.07.38-.24.1-.06c3.25-2,6.51-3.86,9.75-5.48,22.23-11.34,43.87-14.47,62.11-11.58,15,1.95,28.92,8.1,38.77,20.3a47.32,47.32,0,0,1,5.67,8.93c7,13.44,7.44,30.35-1.28,48.57l-.27.55-.55,1.13c-.32.63-.65,1.27-1,1.89l-.34.66.27.07.69.18c1.38.37,2.72.78,4,1.22l.13,0,.68.24h0l.65.24.68.26h0l.21.09,1.07.43,0,0a43,43,0,0,1,16.82,12.23l.14.17.57.72.13.18.08.1.36.49a37.19,37.19,0,0,1,6.84,16.68c1.66,10.56-1,20.87-6.18,30.31l-.29.53-.15.26c-.4.72-.8,1.42-1.24,2.13,39.13,23.89,9.87,89.9-41.88,101.32l-4.72,4.28c-21.61,24-56.1,34.69-87.77,29.9A49.19,49.19,0,0,1,1574.35,1175.63Z"/><path class="cls-4" d="M1593.6,905.91c-38.7,18.52-60.79,55.24-49.31,82s52.17,33.46,90.88,14.94,60.79-55.25,49.32-82-52.18-33.46-90.89-14.93Zm-3.93,118.43c17.61.2,35.83-4.54,50.29-11.46,15.69-7.51,32.32-20.19,43.87-35.75C1695,979.05,1704,984,1709,992c12.27,19.63-4.6,49.94-37.68,67.68s-69.85,16.21-82.12-3.43c-5.69-9.1-5.11-20.52.46-31.91Zm127.92,25.15a33.37,33.37,0,0,0-8.21-6.67,113.18,113.18,0,0,1-32.8,26.64c-15.46,8.3-38.34,15-58.82,13.37-4.22,10.38-3.63,21,4.47,30.14,9,10.1,24.69,13.46,37.78,12.83,17.16-.81,33.16-8.08,43.88-19.7,13.53-14.67,26.36-36.82,13.7-56.61ZM1536.64,945.21c-6,12.35-8.46,25.88-5,39.72a48,48,0,0,0,2.47,7.37,47,47,0,0,0,6.66,11.06c9.51,11.77,22.78,17.91,37.2,20.08-5.09,12.59-5.76,26.53,1.85,38.7,6.37,10.18,15.89,16.07,26.79,18.88-4.72,13.56-3,27.68,7.35,39.33s26.78,16.44,42.1,16.62c-47.11,43.66-136.69,24.78-130.83-49.06.73-6.18-6.26-12.54-8.09-7.32-3.56,10.15-1.6,22,1.31,30.82-10.27-7.82-15.61-14-22.09-23.42-20.6-30-24.47-67.44-27.52-106.39-2.18-25.8-56.7-53.09-56.31-86.72.27-24.22,34.6-45.91,65.17-30.73C1519.84,885.1,1522,910.9,1536.64,945.21Z"/><path class="cls-1" d="M665.6,887.73a62.86,62.86,0,1,0,62.93,62.87A62.78,62.78,0,0,0,665.6,887.73Z"/><path class="cls-1" d="M1091.32,887.73a62.86,62.86,0,1,0,62.77,62.87A62.78,62.78,0,0,0,1091.32,887.73Z"/><path class="cls-1" d="M626.87,1112.59c0,138.78,112.65,251.43,251.59,251.43,138.78,0,251.42-112.65,251.42-251.43Z"/><path class="cls-5" d="M1407.15,589.53c16.4-14.66,20.16-27.23,17.91-37.26-.12-12.65-10-16.68-10-16.68l-1.77-.87a51.32,51.32,0,0,0-10.39-6.6c-143-67.95-491.4-242.53-508.06-251.6-17.72-9.64-42.07-18.81-71.62-4.66-76.77,36.77-166,77.66-249.17,115C497.6,419.17,404,460,291,511.35l-.12.06c-10.47,5-12.07,14.42-10.3,23.56.95,8.75,5.35,20.4,16.33,35.7,12.51,17.43,51.3,36.93,96,54.58,64.35,29.44,143.55,52.58,205.21,60.82,120.47,16.1,486.41,23.76,486.41,23.76,11.81-1,29.42-3.82,50.58-8.34,0,.82,0,1.25,0,1.25,6-.51,28.13-6.33,57.56-15.5,57.49-16,123.77-39.64,173-68.38C1384.1,608.87,1398.81,598.9,1407.15,589.53Z"/><path class="cls-6" d="M510.1,526.5S528.47,604,499.22,699.83C482.4,754.89,536.3,776.69,866,780.6c102.73,1.22,270.79-2,331.34-38.56,28.15-17-1.89-48.11-9.52-108.78-8.17-65,6.8-105.13,6.8-107.16S898.6,411.22,510.1,526.5Z"/><path class="cls-7" d="M510.41,526.68a3.24,3.24,0,0,1,.26.63l.19.87.39,1.76.7,3.53q.66,3.54,1.24,7.09l1,7.12.85,7.15c.28,2.39.45,4.78.68,7.17l.32,3.59c.1,1.19.15,2.39.23,3.59l.43,7.19c.12,2.4.15,4.8.22,7.2a374.38,374.38,0,0,1-3,57.56l-.9,7.16-1.2,7.12c-.85,4.73-1.51,9.51-2.63,14.2s-2,9.41-3.15,14.09l-3.78,13.95-.94,3.47c-.32,1.12-.63,2.23-.89,3.36a50.92,50.92,0,0,0-1.19,6.76,32.5,32.5,0,0,0,1,13.18A28.29,28.29,0,0,0,507,735.55a42.79,42.79,0,0,0,5,4.44,61.4,61.4,0,0,0,5.75,3.72c8,4.57,16.94,7.71,26,10.32s18.37,4.56,27.72,6.25c18.71,3.4,37.68,5.64,56.68,7.45,38,3.55,76.25,5.5,114.48,7.14s76.5,2.79,114.78,3.63q28.71.66,57.42.78t57.41-.77c19.13-.59,38.25-1.42,57.34-2.78s38.15-3.05,57.11-5.56c9.48-1.19,18.93-2.66,28.35-4.25s18.76-3.58,28-5.79,18.44-4.85,27.4-8a137.05,137.05,0,0,0,25.72-11.77,28.83,28.83,0,0,0,5.24-4.13,19.77,19.77,0,0,0,2.11-2.48,20.24,20.24,0,0,0,1.57-2.8,18.53,18.53,0,0,0,1.6-6.24l.09-.82v-.83c0-.56,0-1.11,0-1.67-.08-1.13-.09-2.25-.26-3.39a83.09,83.09,0,0,0-3-13.63c-1.34-4.53-2.84-9.06-4.35-13.6-3-9.09-6-18.26-8.46-27.61a238.79,238.79,0,0,1-5.75-28.47c-.34-2.4-.57-4.8-.85-7.2s-.6-4.8-.77-7.21c-.34-4.82-.81-9.63-.92-14.47a278.18,278.18,0,0,1,.25-29,242.27,242.27,0,0,1,3.36-28.89c.86-4.78,1.86-9.54,3-14.26.59-2.34,1.23-4.76,1.84-7l.11-.42c.06-.19,0-.16,0-.16h0c-.32-.64,2.41,4.93,1.44,2.7l-.21-.1-.33-.15-.74-.33c-1-.44-2.12-.87-3.21-1.28-8.81-3.31-17.92-6.19-27-8.91s-18.32-5.21-27.56-7.55c-18.49-4.69-37.14-8.74-55.89-12.27s-37.59-6.58-56.5-9.15-37.89-4.63-56.91-6.28a1241.38,1241.38,0,0,0-228.82,1.53c-38,3.77-75.92,9.12-113.49,16.31q-28.17,5.4-56.13,11.91-14,3.3-27.87,6.88Zm-.62-.36c4.57-1.5,9.44-3.05,13.95-4.38s9.18-2.73,13.78-4.06q13.83-3.95,27.73-7.59c18.55-4.84,37.2-9.32,56-13.22,37.54-7.86,75.45-14.09,113.6-18.37a1181.5,1181.5,0,0,1,230.07-3.53q28.73,2.38,57.29,6.33t56.88,9.38q28.29,5.5,56.24,12.72c9.31,2.43,18.58,5,27.79,7.81s18.37,5.76,27.46,9.24c1.15.45,2.28.9,3.45,1.4l.9.4.48.23.59.31c-.78-2.07,2.44,3.62,1.92,3.34,0,.29-.08.59-.14.88a6.32,6.32,0,0,1-.16.71l-.12.45c-.67,2.4-1.28,4.6-1.87,6.9-1.16,4.57-2.15,9.18-3,13.81a245.58,245.58,0,0,0-3.49,28.13,271.54,271.54,0,0,0-.49,28.39c.05,4.74.49,9.47.76,14.2.13,2.37.44,4.72.66,7.08s.43,4.73.74,7.08a233.15,233.15,0,0,0,5.25,27.88c2.25,9.21,5,18.31,7.91,27.44,1.43,4.57,2.87,9.16,4.17,13.83a88.59,88.59,0,0,1,2.93,14.44c.16,1.24.16,2.51.23,3.77,0,.64,0,1.28-.06,1.92l0,1-.12,1a22.52,22.52,0,0,1-2.09,7.55,24,24,0,0,1-2,3.43,25.85,25.85,0,0,1-2.58,2.94,32.17,32.17,0,0,1-6.09,4.64,140,140,0,0,1-26.6,11.71c-9.16,3.07-18.47,5.53-27.84,7.69-18.77,4.16-37.75,7.14-56.79,9.45s-38.14,4-57.26,5.32-38.26,2.3-57.42,2.94-38.3,1.15-57.46,1.38-38.33.36-57.49.27c-38.31-.17-76.63-.58-114.95-1.67-19.15-.62-38.32-1.32-57.46-2.44S646.72,776,627.61,774s-38.21-4.25-57.17-7.78c-9.48-1.76-18.92-3.92-28.24-6.63s-18.55-6.11-27.16-11.12a65.22,65.22,0,0,1-6.26-4.15,47.75,47.75,0,0,1-5.67-5.09,35.11,35.11,0,0,1-4.68-6.18,32.82,32.82,0,0,1-3.13-7.16,37.87,37.87,0,0,1-1-15.27,56.11,56.11,0,0,1,1.41-7.35c.29-1.21.64-2.39,1-3.57l1-3.45,3.93-13.72c1.2-4.61,2.21-9.26,3.33-13.89s1.94-9.32,2.88-14l1.32-7,1-7.06a388.17,388.17,0,0,0,4.25-57c0-2.39,0-4.78,0-7.16l-.22-7.16c0-1.19-.06-2.39-.12-3.58l-.22-3.57c-.16-2.38-.26-4.77-.47-7.15l-.63-7.14-.79-7.12c-.31-2.37-.64-4.73-1-7.1l-.58-3.53-.32-1.76-.17-.89A7.42,7.42,0,0,1,509.79,526.32Z"/><path class="cls-8" d="M1265.47,434.81s132.94-67,103.06,203l-15.46-4.12s23.18-197.72-61.84-184.84"/><path class="cls-9" d="M1265.41,434.67a77.25,77.25,0,0,1,16.6-5.92,73.08,73.08,0,0,1,17.57-2.11,62.31,62.31,0,0,1,17.62,2.49,56.1,56.1,0,0,1,8.35,3.24,55.39,55.39,0,0,1,7.71,4.56,63.45,63.45,0,0,1,13,12.21,84.92,84.92,0,0,1,9.71,14.93,120.15,120.15,0,0,1,6.86,16.38,166.55,166.55,0,0,1,4.6,17.1,257.76,257.76,0,0,1,4.74,34.94c.86,11.71,1.16,23.45,1.15,35.18s-.45,23.46-1,35.18-1.58,23.41-2.69,35.1l-.12,1.29-1.28-.33-15.49-4-1-.27.1-1.09c1.74-18.1,2.61-36.36,2.58-54.56a412.25,412.25,0,0,0-3.34-54.43,213.52,213.52,0,0,0-5.28-26.67,110.23,110.23,0,0,0-10-25.12,60.58,60.58,0,0,0-7.84-10.94,41.63,41.63,0,0,0-10.45-8.37,37.65,37.65,0,0,0-12.7-4.37,48.87,48.87,0,0,0-13.56-.09l0-.3a47.5,47.5,0,0,1,13.73-.48,38.4,38.4,0,0,1,13.23,4,43.17,43.17,0,0,1,11.08,8.38,61.73,61.73,0,0,1,8.39,11.06,109.46,109.46,0,0,1,10.68,25.48,202.73,202.73,0,0,1,5.75,27,363.89,363.89,0,0,1,3.44,54.87q-.1,13.74-.89,27.45c-.53,9.15-1.22,18.26-2.3,27.39l-.93-1.36,15.43,4.25-1.41,1c1.39-11.62,2.64-23.27,3.52-34.94s1.38-23.39,1.48-35.09c.18-23.4-1.74-46.93-7.1-69.63q-2.08-8.51-4.89-16.75a129.55,129.55,0,0,0-6.81-16,86.73,86.73,0,0,0-9.29-14.57,61.07,61.07,0,0,0-12.42-11.88,53.93,53.93,0,0,0-7.36-4.45,62.81,62.81,0,0,0-8-3.28,60.86,60.86,0,0,0-17-2.84,82.83,82.83,0,0,0-34,6.65Z"/><path class="cls-10" d="M1341.88,663.75c-14.88,93.32-54,198.36-54,198.36l25.77-34-1.13,11.27-.67,14v24.34l17.8-35.84,3.38,28.4s14.23-39.22,15.11-45.53l1.12,42.38s31.79-43.28,30-205.12"/><path class="cls-11" d="M1337.22,670.36s2.43-48,28.85-40.27c22.54,6.61,14.43,48.69,14.43,48.69S1347.13,678.48,1337.22,670.36Z"/><path class="cls-9" d="M1337,670.44a1.35,1.35,0,0,1,0-.2v-.77l0-.89c0-.59,0-1.18,0-1.77q0-1.77.15-3.54c.15-2.35.4-4.71.78-7a67.44,67.44,0,0,1,1.46-7,50.7,50.7,0,0,1,2.3-6.86,34.48,34.48,0,0,1,3.51-6.51,21.76,21.76,0,0,1,5.32-5.52,16.41,16.41,0,0,1,7.35-3,19.85,19.85,0,0,1,19.69,9.55,28.33,28.33,0,0,1,2.85,6.77,45.14,45.14,0,0,1,1.42,7,106.25,106.25,0,0,1,.72,14.13,132.85,132.85,0,0,1-.66,14.19l-.13,1.1-1.27.05a96.07,96.07,0,0,1-11.26-.16c-1.87-.11-3.74-.33-5.6-.55s-3.73-.47-5.58-.81a72.74,72.74,0,0,1-11-2.69,38.24,38.24,0,0,1-5.27-2.18,25.27,25.27,0,0,1-2.46-1.46c-.4-.26-.78-.57-1.15-.86S1337.37,670.77,1337,670.44Zm.37-.16,1.14.6c.42.19.82.41,1.24.58.84.36,1.7.66,2.56.95a52.77,52.77,0,0,0,5.3,1.36c3.58.75,7.21,1.25,10.86,1.67,1.83.19,3.65.41,5.49.57l5.5.46c3.67.25,7.36.63,11,.9l-1.4,1.14a76.23,76.23,0,0,0,2.12-13.69,54.62,54.62,0,0,0-1-13.82,32.43,32.43,0,0,0-5.23-12.39,18.87,18.87,0,0,0-4.56-4.45,16.38,16.38,0,0,0-5.78-2.44,15.55,15.55,0,0,0-6.17-.24,13.74,13.74,0,0,0-5.5,2.33,20.59,20.59,0,0,0-4.44,4.45,38.22,38.22,0,0,0-3.41,5.67,76.31,76.31,0,0,0-4.7,12.83q-.92,3.35-1.67,6.75c-.26,1.13-.51,2.27-.72,3.42l-.32,1.72-.17.86-.07.43,0,.22,0,.1S1337.44,670.38,1337.4,670.28Z"/><path class="cls-9" d="M1354.05,622.58c3.4-4.74,7-9.26,10.24-14q2.52-3.5,4.73-7.15a35.81,35.81,0,0,0,3.66-7.76,21.31,21.31,0,0,1-2.36,8.45,42.34,42.34,0,0,1-2.07,3.88c-.78,1.25-1.57,2.48-2.41,3.67a75,75,0,0,1-5.49,6.81A59,59,0,0,1,1354.05,622.58Z"/><path class="cls-9" d="M1354.05,589.52c3.4-4.74,7-9.26,10.24-13.95q2.52-3.5,4.73-7.15a35.81,35.81,0,0,0,3.66-7.76,21.31,21.31,0,0,1-2.36,8.45,42.34,42.34,0,0,1-2.07,3.88c-.78,1.25-1.57,2.48-2.41,3.67a75,75,0,0,1-5.49,6.81A59,59,0,0,1,1354.05,589.52Z"/><path class="cls-9" d="M1352.85,553.45c3.39-4.73,7-9.26,10.24-14,1.68-2.32,3.26-4.71,4.72-7.15a35.77,35.77,0,0,0,3.67-7.75,21.22,21.22,0,0,1-2.36,8.44,43.86,43.86,0,0,1-2.07,3.89c-.78,1.24-1.57,2.47-2.41,3.67a72,72,0,0,1-5.5,6.8A58,58,0,0,1,1352.85,553.45Z"/><path class="cls-12" d="M1350.74,515s13.71-14.13,15.33-25.25"/><path class="cls-12" d="M1343.53,483.42s11-6.31,12.62-17.43"/><path class="cls-13" d="M1326.4,463s12.62-14.41,13.82-23.45"/><path class="cls-12" d="M1315,428.72s2.1,13.53-1.81,20.44"/><path class="cls-12" d="M1284.92,428.72s9.62,7.52,13.83,19.24"/><path class="cls-9" d="M1356.92,675.83c-2.36,11.8-4.93,23.52-7.63,35.23s-5.55,23.36-8.58,35-6.27,23.18-9.76,34.66-7.33,22.87-11.62,34.07c4-11.32,7.44-22.8,10.66-34.35s6-23.19,8.78-34.86,5.22-23.39,7.59-35.14,4.61-23.52,6.62-35.3Z"/><path class="cls-9" d="M1370,681c-.76,8.66-1.84,17.21-3.11,25.76s-2.75,17-4.44,25.51c-.81,4.23-1.77,8.44-2.68,12.66s-1.92,8.4-3,12.57c-2.08,8.37-4.58,16.63-7.16,24.84,2.34-8.29,4.6-16.6,6.43-25,1-4.18,1.79-8.42,2.67-12.63s1.62-8.45,2.3-12.7q2.16-12.72,3.69-25.53c1-8.53,1.85-17.11,2.35-25.64Z"/></svg>