<svg id="Layer_1" data-name="Layer 1" xmlns="http://www.w3.org/2000/svg" viewBox="0 0 2000 1819.29"><defs><style>.cls-1,.cls-17,.cls-18{fill:none;}.cls-1{stroke:#7d2a8b;stroke-width:79px;}.cls-1,.cls-15,.cls-17,.cls-18{stroke-miterlimit:10;}.cls-1,.cls-7,.cls-8{fill-rule:evenodd;}.cls-2{fill:#eaca9b;}.cls-3{fill:#473519;}.cls-4{fill:#f6dfb6;}.cls-5{fill:#ce3a35;}.cls-6{fill:#7a1e20;}.cls-7{fill:#4a0053;}.cls-8,.cls-9{fill:#7d2a8b;}.cls-10{fill:#424243;}.cls-11{fill:#343334;}.cls-12{fill:#161616;}.cls-13,.cls-15{fill:#ecb730;}.cls-14{fill:#94662f;}.cls-15,.cls-17,.cls-18{stroke:#94662f;}.cls-15{stroke-width:1.98px;}.cls-16{fill:#de8a2e;}.cls-17{stroke-width:1.9px;}.cls-18{stroke-width:1.47px;}</style></defs><title>Mesa de trabajo 18</title><path class="cls-1" d="M1525.47,1034.59s174.24,83.76,116.31-128.32"/><path class="cls-2" d="M1496.58,660c-20.23,6.43-49,9.95-77.82-34-28.66-43.65,10.39-95.12,62-110.77S1599.82,627.15,1496.58,660Z"/><path class="cls-3" d="M1496.65,660.17a84.17,84.17,0,0,1-13.72,3.24,55.38,55.38,0,0,1-14.09.24,51.36,51.36,0,0,1-13.67-3.48,60.58,60.58,0,0,1-12.33-6.89c-7.7-5.5-14.19-12.52-19.91-20l-2.1-2.84-2-2.91a64.32,64.32,0,0,1-3.75-6A58.51,58.51,0,0,1,1412,615a55.66,55.66,0,0,1-2.25-6.79,57,57,0,0,1,.07-28.4,76.08,76.08,0,0,1,12.29-25.66,103.06,103.06,0,0,1,19.8-20.43,120.09,120.09,0,0,1,37.65-19.91,33.44,33.44,0,0,1,14.64-1.45,43.32,43.32,0,0,1,14,4.3,61,61,0,0,1,12.12,8,80.48,80.48,0,0,1,10.17,10.22,87.33,87.33,0,0,1,8.33,11.72,97.54,97.54,0,0,1,11,26.44,87.43,87.43,0,0,1,2.3,14.19,76.88,76.88,0,0,1-.3,14.39,63.82,63.82,0,0,1-9.53,26.87,67.46,67.46,0,0,1-20.08,19.91A101.27,101.27,0,0,1,1496.65,660.17Zm-.13-.38a94.11,94.11,0,0,0,25.16-12.21,64.64,64.64,0,0,0,18.85-20.19,61.07,61.07,0,0,0,8.07-26.12A80.15,80.15,0,0,0,1546,574a95.81,95.81,0,0,0-10.73-25.29,86.08,86.08,0,0,0-17.53-21,59.41,59.41,0,0,0-11.26-7.61,39.84,39.84,0,0,0-12.74-4.1,29.87,29.87,0,0,0-13.17,1.14,115,115,0,0,0-36.86,18.92,99.73,99.73,0,0,0-19.49,19.66,73.73,73.73,0,0,0-12.18,24.69,55,55,0,0,0-.37,27.33,52.49,52.49,0,0,0,2,6.6,56,56,0,0,0,2.85,6.32,61.55,61.55,0,0,0,3.56,6l1.94,2.91,2,2.85c5.49,7.53,11.73,14.62,19.22,20.21a59.41,59.41,0,0,0,12.07,7c1.07.47,2.17.86,3.26,1.27s2.21.75,3.35,1a43.42,43.42,0,0,0,6.87,1.33,54.6,54.6,0,0,0,14-.24A82.05,82.05,0,0,0,1496.52,659.79Z"/><path class="cls-4" d="M1796.31,1031.71S1751.93,917.4,1634,808.15s-227.54-151-227.54-151,106.17,32.36,133.53-45.67c22.67-64.63-26.23-110.07-59.21-96.23,0,0,44.9-18.27,72.64,43.24s194.78,232.61,249.62,263.34,127.11,63,127.11,63,25.67,49.79-32.8,117.6C1852.78,1054.12,1796.31,1031.71,1796.31,1031.71Z"/><path class="cls-3" d="M1796.12,1031.9l-1.76-4.05-1.78-3.93c-1.21-2.61-2.44-5.2-3.7-7.79q-3.8-7.74-7.83-15.37-8.07-15.24-17-30c-12-19.64-24.65-38.82-38.39-57.23s-28.31-36.19-43.56-53.35-31.46-33.45-48.27-49.08-34.31-30.53-52.28-44.82q-3.35-2.71-6.77-5.33l-6.8-5.28-6.88-5.18c-2.28-1.73-4.59-3.45-6.91-5.13q-13.86-10.22-28.12-19.89c-19-12.85-38.45-25.15-58.44-36.45q-15-8.49-30.38-16.24-7.7-3.88-15.5-7.51c-5.2-2.41-10.46-4.77-15.74-6.89l.86-2.51a164.29,164.29,0,0,0,17.84,4.11c6,1.06,12.11,1.86,18.21,2.33a142.54,142.54,0,0,0,36.56-1.62c12-2.24,23.69-6.61,33.63-13.68a69.47,69.47,0,0,0,22.9-27.91,97.36,97.36,0,0,0,6-17.27,93.74,93.74,0,0,0,2.74-18.07,77,77,0,0,0-6.34-35.6c-4.94-11-12.86-20.89-23.08-27.28a43.71,43.71,0,0,0-16.63-6.33,32.14,32.14,0,0,0-17.34,2.07l-1.15-2.77a35.7,35.7,0,0,1,4.73-1.42,48,48,0,0,1,4.76-.87,51.78,51.78,0,0,1,28.38,4.2,59.14,59.14,0,0,1,16,10.8,81.82,81.82,0,0,1,12.3,14.7,121.66,121.66,0,0,1,9.15,16.71,148.71,148.71,0,0,0,9,16.14c6.65,10.46,14,20.52,21.65,30.37,15.29,19.68,31.56,38.65,48.27,57.2s33.92,36.67,51.49,54.42q13.18,13.3,26.68,26.3t27.28,25.64c9.21,8.41,18.58,16.65,28.14,24.62a346,346,0,0,0,29.58,22.53c2.58,1.71,5.15,3.27,7.85,4.77l8.18,4.53c5.49,3,11,6,16.5,8.85,11,5.83,22.18,11.47,33.35,17.07q33.51,16.74,67.62,32.31l.76.35.33.68a37.55,37.55,0,0,1,1.54,3.74c.44,1.23.83,2.47,1.19,3.71a73.45,73.45,0,0,1,1.71,7.55,87.71,87.71,0,0,1,1.28,15.33,105.67,105.67,0,0,1-4.73,30.16c-6,19.51-16.67,37.15-29.37,52.78l-4.87,5.78c-1.65,1.91-3.38,3.78-5.15,5.58a106.77,106.77,0,0,1-11.39,10.07,90.36,90.36,0,0,1-56.58,18.73,95.78,95.78,0,0,1-15-1.38q-3.72-.64-7.38-1.59c-1.21-.31-2.42-.65-3.62-1l-1.8-.59-.89-.31-.44-.17A3.66,3.66,0,0,1,1796.12,1031.9Zm.38-.38s.2,0,.35.1l.44.15.88.29,1.8.53c1.2.33,2.4.64,3.62.92,2.43.56,4.88,1,7.35,1.37a97.58,97.58,0,0,0,14.88,1,88.63,88.63,0,0,0,55-19.46,103.53,103.53,0,0,0,11-10c3.45-3.54,6.5-7.48,9.67-11.32,12.28-15.59,22.43-33,28-52a102.3,102.3,0,0,0,4.26-29,83.45,83.45,0,0,0-1.34-14.56,67.49,67.49,0,0,0-1.68-7.08c-.35-1.16-.72-2.3-1.13-3.43a34.45,34.45,0,0,0-1.34-3.19l1.09,1q-34.35-15.32-68.09-31.79-16.89-8.24-33.56-16.92c-5.57-2.88-11.09-5.86-16.61-8.82l-8.25-4.53c-2.77-1.52-5.56-3.19-8.2-4.94-5.33-3.47-10.44-7.19-15.44-11s-9.92-7.76-14.74-11.79c-9.65-8-19.07-16.35-28.32-24.81-18.54-16.9-36.49-34.4-54-52.3s-34.7-36.16-51.38-54.86q-12.53-14-24.63-28.41c-8-9.61-16-19.35-23.55-29.35s-15-20.2-21.62-30.92a151.06,151.06,0,0,1-9.12-16.7,117.71,117.71,0,0,0-8.7-16.25,78.41,78.41,0,0,0-11.54-14.16A55.41,55.41,0,0,0,1516.64,519a48.08,48.08,0,0,0-17.45-4.52,49.1,49.1,0,0,0-9.07.24c-1.5.18-3,.43-4.47.75a35.12,35.12,0,0,0-4.28,1.22l-1.14-2.77a35.18,35.18,0,0,1,18.91-2.05,46.13,46.13,0,0,1,17.58,6.92c10.64,6.84,18.68,17.15,23.65,28.59a79.91,79.91,0,0,1,6.21,36.53,98.37,98.37,0,0,1-2.89,18.39,99.48,99.48,0,0,1-6.18,17.56,72.1,72.1,0,0,1-23.45,28.55c-10.15,7.28-22.08,11.73-34.24,14.08a144.29,144.29,0,0,1-37,2q-9.27-.61-18.46-2.09a172.23,172.23,0,0,1-18.21-3.91l.86-2.51c5.43,2.1,10.71,4.38,16,6.73s10.5,4.8,15.69,7.32q15.58,7.54,30.76,15.88t30,17.3c9.86,6,19.62,12.15,29.21,18.59a848.62,848.62,0,0,1,108.34,86c16.87,15.78,32.91,32.42,48.21,49.71,7.59,8.7,15.06,17.5,22.2,26.57,3.64,4.48,7.1,9.1,10.64,13.66s6.94,9.22,10.27,13.93q10.15,14,19.56,28.54t18.08,29.5q8.63,15,16.41,30.44c2.57,5.15,5.11,10.33,7.48,15.58,1.2,2.62,2.36,5.26,3.5,7.91l1.67,4,.81,2,.4,1A7.13,7.13,0,0,1,1796.5,1031.52Z"/><path class="cls-3" d="M1504.63,651.59q-9.64-7.44-19.53-14.52t-20-13.84c-3.33-2.29-6.77-4.41-10.15-6.64l-5.12-3.24c-1.7-1.11-3.41-2.18-5.13-3.24-6.81-4.37-13.8-8.46-20.86-12.44l-7.27-4.1,8,2.32a91.13,91.13,0,0,0,24.3,3.67,56.56,56.56,0,0,0,12.21-1.07,32.23,32.23,0,0,0,11.13-4.47,20.48,20.48,0,0,0,2.34-1.8,11.24,11.24,0,0,0,1-1c.33-.36.68-.7,1-1.07l.84-1.18a6.8,6.8,0,0,0,.79-1.21,16.9,16.9,0,0,0,1.25-2.61,28.1,28.1,0,0,0,1.58-11.52l-.27-3c-.1-1-.3-2-.44-3s-.33-2-.52-3-.38-2-.64-3a41.17,41.17,0,0,0-4.13-11,18.25,18.25,0,0,0-3.44-4.34,11,11,0,0,0-4.52-2.43c-3.31-.88-7.07.16-10.35,2a25.48,25.48,0,0,0-4.65,3.3,21.77,21.77,0,0,0-2,2,11.49,11.49,0,0,0-1.49,2.24,31.68,31.68,0,0,0-3.34,11.09c-.38,3.86-.16,7.88,1.39,11.26A10.76,10.76,0,0,0,1450,580a11,11,0,0,0,5.12,2c3.82.53,7.86-.43,11.71-1.67a78.71,78.71,0,0,0,11.27-5l.2.34a67.58,67.58,0,0,1-10.91,6.1c-.49.21-1,.43-1.46.62l-1.5.53a28.47,28.47,0,0,1-3.07.88,21.57,21.57,0,0,1-6.49.6,13.78,13.78,0,0,1-6.47-2.07,13.25,13.25,0,0,1-4.58-5.14,24.75,24.75,0,0,1-2.21-13,34.29,34.29,0,0,1,3.41-12.65,15.9,15.9,0,0,1,1.9-2.95,23.85,23.85,0,0,1,2.32-2.48,28.69,28.69,0,0,1,5.37-4,22.74,22.74,0,0,1,6.37-2.47,15.58,15.58,0,0,1,7.12.07,14.66,14.66,0,0,1,6.25,3.48,22,22,0,0,1,4.15,5.42,44.94,44.94,0,0,1,4.3,12.21c.25,1,.42,2.09.6,3.13s.36,2.08.48,3.13.28,2.08.36,3.15l.19,3.22a29.44,29.44,0,0,1-2.38,12.78,19.54,19.54,0,0,1-1.6,2.9,9.62,9.62,0,0,1-1,1.33l-1,1.28c-.37.4-.79.76-1.18,1.15A11.45,11.45,0,0,1,1476,594a23.22,23.22,0,0,1-2.68,1.85,34.19,34.19,0,0,1-12,4.15,68.27,68.27,0,0,1-12.51.82,117.52,117.52,0,0,1-12.45-.95c-4.14-.52-8.23-1.2-12.35-2.11l.69-1.78c7.33,3.56,14.65,7.19,21.71,11.27,3.57,2,7,4.19,10.47,6.33s6.82,4.48,10.15,6.83q10.05,7,19.55,14.68c6.31,5.15,12.49,10.47,18.27,16.22Z"/><path class="cls-3" d="M1533.81,621.06l-.59-.72-.66-.76-1.32-1.51-2.65-3-5.27-6.06q-5.27-6.07-10.46-12.21c-6.86-8.23-13.62-16.56-20.1-25.14-3.26-4.27-6.4-8.65-9.47-13.11-1.43-2.32-3-4.53-4.22-7a56.62,56.62,0,0,0-3.79-6.67,15.29,15.29,0,0,0-2.37-2.62,11.48,11.48,0,0,0-2.91-1.73,10.38,10.38,0,0,0-3.34-.65,15.29,15.29,0,0,0-3.58.43,25.7,25.7,0,0,0-7,3.06,46.61,46.61,0,0,0-6.41,4.67l-.3-.26a34.64,34.64,0,0,1,5.65-5.9,25.08,25.08,0,0,1,7.22-4.26,15.85,15.85,0,0,1,4.32-.94,13.65,13.65,0,0,1,4.56.51,14,14,0,0,1,4.11,2.1,19.37,19.37,0,0,1,3.2,3.13,47.35,47.35,0,0,1,4.3,7.17l.91,1.73c.3.57.66,1.13,1,1.7l2,3.42c1.41,2.24,2.77,4.52,4.24,6.73s2.93,4.45,4.48,6.62c6.11,8.75,12.53,17.3,19.07,25.77q4.88,6.38,9.85,12.68l5,6.3,2.48,3.16,1.24,1.59.61.8c.21.27.42.59.62.88Z"/><path class="cls-2" d="M1917.65,875.45l13.58-28.34S1855.12,851,1746,769.5C1746,769.5,1818.32,852.51,1917.65,875.45Z"/><path class="cls-3" d="M1917.57,875.27l6.35-14.51c2.07-4.79,4.16-9.48,6.27-14.15l1.1,1.65a106.5,106.5,0,0,1-12.91-.35c-4.26-.39-8.53-.83-12.74-1.56s-8.42-1.48-12.61-2.33c-2.1-.4-4.17-.95-6.24-1.48l-6.21-1.57c-4.13-1.08-8.19-2.44-12.27-3.68-2.06-.59-4.06-1.34-6.06-2.08l-6-2.22c-4-1.39-7.91-3.19-11.83-4.87s-7.85-3.33-11.64-5.29l-11.46-5.63-11.23-6.08-5.62-3c-1.89-1-3.67-2.13-5.52-3.19-3.65-2.17-7.34-4.29-11-6.42l-2.76-1.6-2.69-1.7-5.39-3.41L1766.27,785l-21.07-14.4,1.88-2c5.76,6.15,11.85,12.12,18.1,17.84s12.62,11.34,19.19,16.71,13.3,10.53,20.14,15.54,13.83,9.81,21,14.4a361.23,361.23,0,0,0,44.45,24.64c3.82,1.84,7.73,3.47,11.62,5.17,2,.82,3.94,1.57,5.92,2.36l3,1.17c1,.38,2,.71,3,1.08l6,2.16,6.06,2,3,1,3,.86Zm.17.36-6.3-1.31-3.22-.7-3.1-.81-6.2-1.62-6.14-1.87c-1-.32-2-.61-3.06-1l-3-1c-2-.71-4-1.38-6.06-2.12-4-1.54-8-3-11.94-4.72s-7.84-3.45-11.73-5.25c-2-.9-3.85-1.88-5.77-2.83L1848.3,851l-2.83-1.5c-7.62-3.94-15-8.32-22.25-12.87a364.34,364.34,0,0,1-41.37-30.43A345.61,345.61,0,0,1,1745,770.42l-8.54-9.76,10.43,7.72c6.8,5,13.57,10.14,20.44,15.11l10.56,7.08,5.31,3.5c.89.58,1.76,1.18,2.66,1.74l2.74,1.61c3.66,2.15,7.31,4.31,11,6.42,1.85,1,3.64,2.18,5.54,3.13l5.66,2.89c3.79,1.91,7.55,3.86,11.38,5.67l11.63,5.11c3.84,1.79,7.82,3.23,11.76,4.77s7.87,3.09,11.88,4.41l6,2.07c2,.68,4,1.44,6,2l6.06,1.84,3,.94,1.51.47,1.53.41c8.14,2.2,16.33,4.25,24.64,5.69,4.14.8,8.31,1.34,12.49,1.88a120.52,120.52,0,0,0,12.52.83h1.93l-.83,1.66c-2.42,4.78-4.85,9.54-7.3,14.2Z"/><path class="cls-5" d="M1677.82,862.13S1728.36,838.48,1756,774c0,0-51.63-37.57-84.74-76.66,0,0-20.66,59.95-71.66,82.35C1599.6,779.69,1637.38,807,1677.82,862.13Z"/><path class="cls-6" d="M1677.89,861.87c-.12-.07.11-.11.22-.2l.41-.23.81-.47,1.6-1,3.15-2c2.08-1.37,4.12-2.8,6.13-4.26,4-3,7.86-6.09,11.63-9.33a188.22,188.22,0,0,0,20.77-21.21c1.62-1.87,3.13-3.83,4.67-5.76s3-3.92,4.42-5.94c2.92-4,5.6-8.14,8.18-12.34a203.07,203.07,0,0,0,13.5-26.29l.94,3.43c-7.74-5.74-15.27-11.61-22.63-17.76s-14.61-12.39-21.72-18.81l-5.3-4.86c-1.76-1.62-3.47-3.3-5.21-5l-2.6-2.49-2.55-2.53c-1.68-1.71-3.39-3.39-5-5.12-6.67-6.89-13-14.11-19.09-21.52l2.43-.46A179.19,179.19,0,0,1,1660,723c-2.42,4-4.91,8-7.6,11.82s-5.46,7.62-8.43,11.25-6,7.18-9.3,10.57a131.08,131.08,0,0,1-10.29,9.7,109,109,0,0,1-23.86,15.38l.4-3.83c4,2.88,7.69,5.82,11.33,9s7.23,6.27,10.69,9.57c1.75,1.63,3.46,3.3,5.16,5s3.42,3.34,5.08,5.06c3.36,3.39,6.58,6.92,9.83,10.42,1.59,1.77,3.18,3.55,4.75,5.35l2.35,2.7,2.3,2.74,4.58,5.49,4.42,5.63c3,3.7,5.73,7.61,8.57,11.43l1,1.44,1,1.42,1.93,2.87Zm-.14.52-9.27-11-4.63-5.41-2.31-2.7-2.35-2.66c-6.22-7.15-12.71-14.05-19.23-20.9-3.31-3.37-6.62-6.75-10-10-1.67-1.68-3.37-3.32-5.09-4.94s-3.42-3.25-5.17-4.84c-7-6.34-14.06-12.67-21.39-18.38l-3.07-2.39,3.48-1.44A108.55,108.55,0,0,0,1622.5,764a130.21,130.21,0,0,0,10.58-8.94,135.88,135.88,0,0,0,9.53-10.1,152.33,152.33,0,0,0,15.81-22.87c2.29-4,4.42-8.16,6.33-12.39s3.7-8.53,5.16-12.84l.77-2.3,1.66,1.84c6.36,7.06,13,13.82,19.88,20.39s13.88,13,21,19.21,14.47,12.33,21.89,18.27,14.92,11.82,22.52,17.41l1.86,1.36-.91,2.07a196.47,196.47,0,0,1-14.3,26.83,182.38,182.38,0,0,1-18.5,24.06c-1.69,1.89-3.46,3.7-5.22,5.51s-3.61,3.54-5.48,5.24q-5.58,5.13-11.55,9.78a145.26,145.26,0,0,1-12.39,8.65c-2.14,1.33-4.29,2.62-6.5,3.83-1.1.61-2.21,1.19-3.33,1.75l-1.7.83-.86.39-.43.19A1.88,1.88,0,0,1,1677.75,862.39Z"/><path class="cls-7" d="M1739.15,914.14a46.84,46.84,0,0,1-3.68,12.2,46.13,46.13,0,0,1-3.69,6.55c-21.29,31.3-69.26,26-100.09,10.44-29.22-14.7-61.93-47.81-56.23-84.23a47.39,47.39,0,0,1,2.2-8.7c-22.48-52.64-10.56-122.27,33.06-153.36a69.54,69.54,0,0,1,1.83-12.78c6.72-28.23,20.47-55.62,46.38-68.09,25.35-12.21,52.54-6.21,71.26,18.65a51.31,51.31,0,0,1,10.22,26.58l.27.19c21.92-3.74,43.18,5.32,57.56,27.12a51.26,51.26,0,0,1,8.56,27.39c16.34,1.68,31.45,10.9,42.49,27.65,28.52,43.25-21.64,110.84-62.28,117.54C1774.28,887.24,1758.59,904.58,1739.15,914.14Z"/><path class="cls-8" d="M1668,909c34.7-7.49,44.76-44.62,27.22-78.34,6.5,63.75-28.73,82.14-63.26,64.83-73.36-36.77-70.51-159.8-7-194.12,28.11-15.18,85.58-22.77,96,22.11,12,53.34-43,89.71-81,61.22,21.75,25.89,39.78,27.54,58.88,14.09,6.5,5,16.2,7.77,26.59,10.39,2.24,28.14,23.81,49.49,49.26,52.25C1754.52,900,1727,920.68,1668,909Zm160.2-89.21c17.6-23.67,25.88-49.95,12.6-70.08-9.72-14.75-22.12-21.43-34.7-22.6-2.56,16.45-11.22,32.31-20.51,44.79A106.61,106.61,0,0,1,1773,786.11a75.65,75.65,0,0,1-10.51,9.27,57.53,57.53,0,0,1-26.52,10.87c1.17,34.9,38.53,58.7,71.25,34.92a65.65,65.65,0,0,0,9.34-8.29,96.58,96.58,0,0,0,11.63-13.1Zm-51.05-55c17.59-23.67,25.87-50,12.6-70.08-13.52-20.51-32.22-25.44-49.35-21.59-1.26,13.25-6.35,26.37-12.62,37.79a63.44,63.44,0,0,1,3.47,10.66c6.14,27.43-3.34,53.85-21.71,69.57,13.46,6.91,30.6,6.69,46.63-5a65.71,65.71,0,0,0,9.35-8.29,97.26,97.26,0,0,0,11.63-13.1Zm-154.85-74.63c29-14.51,76.78-19.37,99,9.6,10.36-21.05,12.86-42.35.84-58.33-17.11-22.73-39.81-24-58.31-15.07-23.19,11.16-35.06,36.35-41,61.25C1622.58,688.42,1622.41,689.26,1622.25,690.11Z"/><path class="cls-9" d="M767.19,972.26a49,49,0,1,0,49.15,48.84A48.84,48.84,0,0,0,767.19,972.26Z"/><path class="cls-9" d="M1181.75,972.26a49,49,0,1,0,49.15,48.84A48.85,48.85,0,0,0,1181.75,972.26Z"/><path class="cls-9" d="M1221.8,1254.24c-141.53,139.81-352.84,139.81-494.66,0-11.3-11.14-12.82-28.87-4.47-38.19,8.66-9.63,22.89-8.52,32.9,1,125.47,124.24,312.63,124.24,438.08,0,9.76-9.54,24.25-10.65,32.7-1C1234.93,1225.37,1233.09,1243.1,1221.8,1254.24Z"/><path class="cls-9" d="M1375.82,950.4c-8.14-19-32.63-26.76-54.38-17a39.89,39.89,0,0,0-9.38,5.5,151,151,0,0,0-265.94,25,27.16,27.16,0,0,1-3.89-1.78c-20.86-9.44-48.06-12.65-67.77-12.65-20.57,0-46.66,3.21-67.58,12.65-1.64.76-2.63,1.34-3.77,1.78a151,151,0,0,0-266-25,36.93,36.93,0,0,0-9.44-5.5c-21.69-9.73-46.08-2-54.52,17-8.13,18.72,2.77,41.81,24.48,51.53a50.75,50.75,0,0,0,15.66,3.88c-.47,5-.77,10.15-.77,15.27,0,83.42,67.81,150.95,151,150.95a150.89,150.89,0,0,0,151-150.95,129.43,129.43,0,0,0-.8-14.15c3.46-2,7.25-3.77,11-5.6,20.52-9.39,30.49-12.24,49.87-12.5s29.25,3.11,50.15,12.5c3.66,1.83,7.23,3.6,11,5.6a140.25,140.25,0,0,0-.79,14.15A150.79,150.79,0,0,0,1185.72,1172c83.18,0,150.59-67.53,150.59-150.95a140.66,140.66,0,0,0-.79-15.27,51.36,51.36,0,0,0,16.06-3.88C1373.36,992.21,1384.26,969.12,1375.82,950.4ZM763.44,1129.07a107.83,107.83,0,1,1,107.65-108A107.66,107.66,0,0,1,763.44,1129.07Zm422.28,0a108,108,0,0,1-108-108c0-59.35,48.44-107.67,108-107.67,59.29,0,107.7,48.32,107.7,107.67C1293.42,1080.77,1245,1129.07,1185.72,1129.07Z"/><path class="cls-9" d="M972.68,585.66a499.25,499.25,0,0,1,411.76,781.47,88.41,88.41,0,0,0-15.5,47.25c-.22,7-1.63,70.17,16.83,140.18a402.22,402.22,0,0,0,15.44,47.06,438.94,438.94,0,0,1-62.75-9.16c-36.81-8.22-70.63-21.32-100.51-38.93a88.42,88.42,0,0,0-78.06-5.78A499.33,499.33,0,1,1,972.68,585.66m0-88.4c-324.51,0-587.58,263.07-587.58,587.58s263.07,587.58,587.58,587.58a585.86,585.86,0,0,0,220.39-42.74c82.32,48.52,172.17,61.71,245.52,61.71,87.39,0,151.34-18.71,151.34-18.71-139.65-34.41-132.64-255.49-132.64-255.49a584.85,584.85,0,0,0,103-332.35c0-324.51-263.07-587.58-587.58-587.58Z"/><path class="cls-10" d="M271.14,628c-19.83-10.79-26.53-22.45-26.65-33-2.85-12.66,6-19,6-19l1.56-1.29a52.71,52.71,0,0,1,8.82-9c126.74-101.48,433.51-357.77,448-370.75,15.43-13.8,37.59-28.68,70.41-21.5,85.3,18.63,184,38.47,275.82,56.17,84,14.25,187,33,311.94,57.65l.13,0c11.63,2.55,15.44,11.56,15.82,21.1,1.11,9-.53,21.63-7.89,39.48-8.39,20.35-42.53,48.95-83,77.08-57.31,44.54-130.94,86.28-190.56,109-116.48,44.43-480,138.2-480,138.2-12,1.81-30.28,3.11-52.47,3.57l.29,1.26c-6.09.9-29.58.3-61.12-1.93-61.17-2.46-132.89-10.44-188.84-27.55C298.71,641.85,281.67,635.36,271.14,628Z"/><path class="cls-11" d="M1151.87,353.94s-.1,81.72,51.66,170.47c29.74,51-18.93,85.47-347.11,167-102.29,25.4-270.83,61.7-339.88,39.48-32.09-10.32-9.43-48.47-16.09-110.84-7.13-66.76-31.54-103.36-32-105.38S736.88,330.28,1151.87,353.94Z"/><path class="cls-12" d="M1152.13,353.69a8.59,8.59,0,0,1,.12,1.16l0,.92.08,1.83.26,3.67c.2,2.44.44,4.88.68,7.32l.88,7.29,1,7.28c.35,2.42.81,4.83,1.21,7.25l.62,3.61c.22,1.21.49,2.41.72,3.61l1.47,7.19c.51,2.4,1.11,4.77,1.65,7.16a399.18,399.18,0,0,0,17.65,55.91l2.7,6.82,3,6.7c2,4.44,3.87,9,6.16,13.29s4.32,8.76,6.59,13.08l7.16,12.77,1.8,3.21c.63,1.1,1.26,2.2,1.83,3.33a56.63,56.63,0,0,1,3.13,7,38.62,38.62,0,0,1,2.6,15.45,34,34,0,0,1-1.43,7.87,35.43,35.43,0,0,1-3.22,7.25,48.77,48.77,0,0,1-4.45,6.41,70.13,70.13,0,0,1-5.27,5.61c-7.41,7-15.87,12.5-24.48,17.47A297.38,297.38,0,0,1,1148,607.43c-18.1,8-36.62,14.81-55.24,21.21s-37.43,12.25-56.29,17.84-37.82,10.84-56.79,16c-38,10.11-76.16,19.55-114.36,28.74q-28.67,6.91-57.45,13.28t-57.7,12.14c-19.27,3.88-38.61,7.37-58,10.59s-38.86,6-58.41,8.16-39.2,3.66-58.92,3.93c-9.86,0-19.74-.23-29.6-1.13A144.12,144.12,0,0,1,516,732.71a33.22,33.22,0,0,1-7.15-3.19,27.07,27.07,0,0,1-3.27-2.33,25.05,25.05,0,0,1-2.79-2.94,22.92,22.92,0,0,1-3.85-7l-.34-.94-.27-.94c-.16-.64-.35-1.27-.5-1.9-.23-1.28-.53-2.55-.66-3.82a90,90,0,0,1-.47-15.09c.2-5,.56-9.89.91-14.79.71-9.79,1.36-19.53,1.45-29.27a239.11,239.11,0,0,0-1.32-29.08c-.25-2.41-.62-4.82-.92-7.23s-.59-4.84-1-7.23c-.85-4.79-1.52-9.61-2.58-14.36A278.66,278.66,0,0,0,486,564.33a249.4,249.4,0,0,0-10.1-27.26Q473,530.42,469.64,524c-1.14-2.15-2.27-4.22-3.49-6.45l-.23-.42a7.05,7.05,0,0,1-.32-.66c-.13-.28-.24-.56-.34-.84-.45.39,1.38-5.89,1.1-3.7.19-.17.37-.33.51-.44l.43-.34.8-.62c1-.77,2.07-1.49,3.11-2.2,8.25-5.62,16.69-10.71,25.23-15.69s17.19-9.72,25.91-14.33q26.16-13.82,53.15-25.93t54.57-22.75q27.6-10.61,55.71-19.8a1213.48,1213.48,0,0,1,230.49-50.64c39.09-4.7,78.4-7.42,117.73-8.41,19.66-.53,39.34-.46,59,0q14.74.36,29.47,1c4.91.24,9.82.5,14.72.81S1147.22,353.27,1152.13,353.69Zm-.52.49-29.2-.79q-14.73-.33-29.44-.32-29.45,0-58.85,1.31c-39.2,1.64-78.29,5.21-117.14,10.39a1272.73,1272.73,0,0,0-228.83,52.3q-27.9,9.18-55.34,19.67t-54.26,22.43q-26.84,11.91-52.91,25.41-13,6.78-25.74,14c-8.46,4.86-16.88,9.88-24.9,15.26-1,.68-2,1.36-2.91,2l-.67.5-.29.23-.19.16c-.44,2.39.94-3.65.78-2.95h0s0,0,.08.16l.21.39c1.13,2.08,2.35,4.33,3.48,6.53q3.42,6.66,6.38,13.53a250.08,250.08,0,0,1,10.16,28,284.62,284.62,0,0,1,7.07,28.91c1,4.85,1.69,9.77,2.49,14.66.4,2.45.62,4.92.94,7.37s.62,4.92.84,7.39a244.75,244.75,0,0,1,1,29.77c-.24,9.91-1.07,19.77-1.94,29.55-.43,4.89-.87,9.76-1.14,14.61a85.34,85.34,0,0,0,.2,14.32c.09,1.18.35,2.3.53,3.45.12.56.28,1.11.42,1.67l.21.83.28.8a19.15,19.15,0,0,0,3.08,5.87,20.46,20.46,0,0,0,2.23,2.43,23,23,0,0,0,2.69,2,29.43,29.43,0,0,0,6.22,2.89,139.78,139.78,0,0,0,28.46,5.69c9.69,1,19.46,1.44,29.24,1.53s19.58-.28,29.36-.82,19.56-1.39,29.31-2.44c19.52-2,39-4.75,58.32-7.89s38.67-6.8,57.9-10.71,38.4-8.21,57.5-12.74,38.13-9.34,57.14-14.28q57-14.76,113.75-30.62c37.78-10.62,75.48-21.57,112.61-34.06,18.55-6.28,37-13,54.84-20.78,8.94-3.89,17.74-8.07,26.21-12.77s16.61-10,23.54-16.43a62.85,62.85,0,0,0,4.86-5.08,43.61,43.61,0,0,0,4-5.63,29,29,0,0,0,4.1-12.72,33.43,33.43,0,0,0-2.1-13.43,51.66,51.66,0,0,0-2.78-6.47c-.52-1.07-1.1-2.11-1.68-3.15l-1.76-3.24-7-13c-2.24-4.41-4.32-8.89-6.47-13.33s-4-9-6-13.56l-2.87-6.82-2.59-6.93a383.4,383.4,0,0,1-16.54-56.75c-.5-2.41-1-4.81-1.48-7.24l-1.27-7.28c-.2-1.21-.43-2.42-.62-3.64l-.52-3.65c-.34-2.44-.73-4.87-1-7.32l-.84-7.34-.63-7.35c-.16-2.46-.32-4.92-.43-7.37l-.14-3.69,0-1.85v-.92A3,3,0,0,1,1151.61,354.18Z"/><path class="cls-13" d="M376.17,440.17S227.68,404.58,321.06,667.1l14.47-7.75s-69.68-192,18.23-199.09"/><path class="cls-14" d="M376.13,440.31a84.92,84.92,0,0,0-35.53,1.34,59.37,59.37,0,0,0-23.51,12,55.81,55.81,0,0,0-6.31,6.18,62.8,62.8,0,0,0-9.6,14.79,88.6,88.6,0,0,0-5.86,16.74,132.88,132.88,0,0,0-3,17.56c-.57,5.93-.88,11.9-.94,17.87,0,23.94,3.64,47.87,9.32,71.19q4.29,17.5,9.73,34.69c3.63,11.45,7.62,22.78,11.73,34.06l-1.59-.61,14.4-7.87-.58,1.53c-3.23-8.85-6.07-17.79-8.74-26.79s-5.13-18.07-7.35-27.2a372.66,372.66,0,0,1-9.48-55.58,206.69,206.69,0,0,1-.6-28.27A111.64,111.64,0,0,1,312.83,494a63.61,63.61,0,0,1,5.77-13,44.14,44.14,0,0,1,9.08-11,39.5,39.5,0,0,1,12.25-7.14,48.47,48.47,0,0,1,13.82-2.75l0,.3a50.12,50.12,0,0,0-13.53,3.27A38.77,38.77,0,0,0,328.59,471a42.57,42.57,0,0,0-8.47,10.82,61.65,61.65,0,0,0-5.26,12.77,113.17,113.17,0,0,0-4.05,27.43,218.31,218.31,0,0,0,1,27.88,423.46,423.46,0,0,0,9.47,55.13c4.26,18.18,9.42,36.2,15.43,53.86l.35,1-.94.49-14.53,7.64-1.17.62-.41-1.23c-3.86-11.41-7.55-22.87-11-34.41s-6.54-23.17-9.3-34.88-5.24-23.5-7.12-35.39a264.32,264.32,0,0,1-3.49-36,171.77,171.77,0,0,1,.58-18.14,123.4,123.4,0,0,1,3-18,87.51,87.51,0,0,1,6.17-17.19A65.5,65.5,0,0,1,309,458.25a56.51,56.51,0,0,1,14.2-11.56,64.17,64.17,0,0,1,17-6.63,74.16,74.16,0,0,1,18-2,79.13,79.13,0,0,1,18,2Z"/><path class="cls-15" d="M353.77,686.71C390.59,776.37,454.31,872,454.31,872l-33.74-27.91,3.78,11,4,13.79,5.73,24.3-26.22-31.59,3.31,29.15s-23.43-35.81-25.79-41.9l8.85,42.57S352.28,855.71,316,693.71"/><path class="cls-16" d="M360,692.21s-13.73-47.37-38.28-33.41c-20.95,11.9-2.95,52-2.95,52S352,702.65,360,692.21Z"/><path class="cls-14" d="M359.78,692.18c0,.1,0,0,0,0l-.05-.11-.08-.21-.18-.41-.36-.82-.72-1.65c-.49-1.09-1-2.17-1.52-3.24-1-2.15-2.12-4.27-3.25-6.35a77,77,0,0,0-7.7-11.72,39.67,39.67,0,0,0-4.74-4.86,21.7,21.7,0,0,0-5.5-3.42,14.05,14.05,0,0,0-6.06-1,16.15,16.15,0,0,0-6.13,1.7,16.81,16.81,0,0,0-5.2,3.81,19.34,19.34,0,0,0-3.51,5.54,33.39,33.39,0,0,0-2.29,13.6,56.46,56.46,0,0,0,2.26,14A78.46,78.46,0,0,0,320,710.22l-1.62-.79L329.21,706l5.39-1.76c1.79-.59,3.56-1.23,5.34-1.86,3.54-1.28,7.06-2.64,10.45-4.24a54.65,54.65,0,0,0,5-2.61c.79-.5,1.58-1,2.33-1.56.38-.27.72-.58,1.1-.87Zm.4.07c-.26.4-.56.89-.87,1.29s-.61.77-.95,1.13a29,29,0,0,1-2.12,2,40.73,40.73,0,0,1-4.75,3.41,76.25,76.25,0,0,1-10.35,5.26c-1.77.77-3.58,1.46-5.39,2.12s-3.62,1.31-5.46,1.87a101.32,101.32,0,0,1-11.2,2.81l-1.25.24-.37-1a134.66,134.66,0,0,1-4-14,106.68,106.68,0,0,1-2.61-14.27,46.09,46.09,0,0,1-.23-7.35,29.28,29.28,0,0,1,1.26-7.41,19.66,19.66,0,0,1,9.82-11.73,20.16,20.16,0,0,1,7.56-2.41,16.91,16.91,0,0,1,8,1.22,22.35,22.35,0,0,1,6.6,4.26,34.87,34.87,0,0,1,5,5.66,52.24,52.24,0,0,1,3.92,6.29,67.78,67.78,0,0,1,3.11,6.64c.93,2.25,1.74,4.54,2.45,6.86.35,1.16.68,2.32,1,3.49.15.59.31,1.17.44,1.76l.19.89.09.44.05.22,0,.12A1.12,1.12,0,0,1,360.18,692.25Z"/><path class="cls-14" d="M331.93,648.47a59.64,59.64,0,0,1-7.7-4.58,73.32,73.32,0,0,1-7.08-5.5c-1.12-1-2.2-2-3.27-3.09s-2.08-2.17-3-3.39a21.87,21.87,0,0,1-4.35-7.86,36.29,36.29,0,0,0,5.47,6.89c2,2.09,4.17,4.11,6.39,6C322.8,640.88,327.41,644.56,331.93,648.47Z"/><path class="cls-14" d="M324.15,615.46a59.57,59.57,0,0,1-7.7-4.57,75,75,0,0,1-7.08-5.51c-1.12-1-2.2-2-3.27-3.09s-2.08-2.17-3-3.38a21.91,21.91,0,0,1-4.35-7.87,35.9,35.9,0,0,0,5.47,6.89q3.06,3.15,6.39,6C315,607.88,319.63,611.55,324.15,615.46Z"/><path class="cls-14" d="M316.86,579.17a59.11,59.11,0,0,1-7.7-4.57,76.63,76.63,0,0,1-7.08-5.5c-1.12-1-2.2-2-3.27-3.1s-2.08-2.17-3-3.38a21.94,21.94,0,0,1-4.36-7.87,36,36,0,0,0,5.47,6.89q3.06,3.15,6.4,6C307.73,571.59,312.34,575.26,316.86,579.17Z"/><path class="cls-17" d="M309.91,540.27s-17-10.87-21.24-21.6"/><path class="cls-17" d="M309.68,507.07s-12.47-3.71-16.7-14.43"/><path class="cls-18" d="M322,482.63s-16-11.41-19.32-20.15"/><path class="cls-17" d="M325.32,445.74s1.08,14,6.61,20"/><path class="cls-17" d="M355.32,438.67s-7.83,9.76-9.28,22.45"/><path class="cls-14" d="M345.31,700.69c4.79,11.29,9.81,22.52,14.93,33.69s10.41,22.27,15.86,33.29,11.1,21.94,17,32.73,12.09,21.41,18.73,31.78c-6.91-10.18-13.37-20.67-19.6-31.29s-12.11-21.44-17.9-32.31S363,746.71,357.53,735.67s-10.76-22.15-15.88-33.38Z"/><path class="cls-14" d="M332.69,709.64c2.5,8.4,5.36,16.77,8.38,25s6.26,16.5,9.7,24.62c1.69,4.08,3.52,8.1,5.29,12.14s3.67,8,5.65,12c3.81,8,8,15.74,12.31,23.46-4.5-7.6-8.94-15.25-13-23.12-2.1-3.9-4-7.89-6-11.84s-3.84-8-5.64-12q-5.52-12.07-10.43-24.43c-3.27-8.23-6.37-16.51-9.16-25Z"/></svg>