<svg id="Layer_1" data-name="Layer 1" xmlns="http://www.w3.org/2000/svg" viewBox="0 0 2000 1884.43"><defs><style>.cls-1,.cls-12,.cls-13{fill:none;}.cls-1{stroke:#ce7d3d;stroke-width:89px;}.cls-1,.cls-10,.cls-12,.cls-13{stroke-miterlimit:10;}.cls-1,.cls-3,.cls-4{fill-rule:evenodd;}.cls-2,.cls-4{fill:#d67f39;}.cls-3{fill:#7b4a1c;}.cls-5{fill:#424243;}.cls-6{fill:#343334;}.cls-7{fill:#161616;}.cls-10,.cls-8{fill:#ecb730;}.cls-9{fill:#94662f;}.cls-10,.cls-12,.cls-13{stroke:#94662f;}.cls-10{stroke-width:1.98px;}.cls-11{fill:#de8a2e;}.cls-12{stroke-width:1.9px;}.cls-13{stroke-width:1.47px;}</style></defs><title>Artboard 4 copia</title><path class="cls-1" d="M1311.6,1038.19s119.31,61.69,155.33-52.2"/><path class="cls-2" d="M630.87,803.09a62.88,62.88,0,1,0,62.79,62.81A62.81,62.81,0,0,0,630.87,803.09Z"/><path class="cls-2" d="M1056.45,803.09a62.88,62.88,0,1,0,62.93,62.81A62.89,62.89,0,0,0,1056.45,803.09Z"/><path class="cls-2" d="M1102.32,1028.42c-8.74-9.8-23.52-8.66-33.64,1.15-128.83,127.59-321.19,127.59-450,0-10.12-9.81-24.89-10.95-33.64-1.15s-7,27.88,4.65,39.31c38.63,38.07,82.5,66.26,128.58,84.17,4.46,104.45,59,170,125.36,170s120.88-65.57,125.5-170c46-17.91,89.78-46.11,128.47-84.17C1109.18,1056.3,1111.05,1038.1,1102.32,1028.42Z"/><path class="cls-3" d="M1524.86,1073.22a49,49,0,0,1-9.58,5.44c-35.13,15-74.82-11.31-95-39s-33.17-73.53-8.11-102.39c.88-1,1.82-2,2.79-2.94-3.52-17.42-5.26-35.69-6.71-54.23-1.69-20-56.8-48.4-56.34-87.76.38-33.2,44-59,81.22-40.54,40.08,19.91,46.9,42.25,61.19,79h0a114.68,114.68,0,0,1,23.78-24.21l.56-.43c2.6-2,5.48-4,8.68-6l.11-.07.39-.24.1-.06c3.25-2,6.51-3.86,9.75-5.48,22.22-11.34,43.86-14.47,62.11-11.58,15,1.95,28.91,8.09,38.76,20.3a47.87,47.87,0,0,1,5.68,8.93c7,13.44,7.44,30.35-1.29,48.56l-.26.56-.56,1.13c-.32.63-.65,1.27-1,1.89l-.35.66.27.07.7.18c1.38.37,2.71.78,4,1.22l.13,0,.68.24h0l.66.25.67.26h0l.22.09,1.07.43,0,0a43,43,0,0,1,16.82,12.23l.13.16.57.72.14.18.07.11.37.48a37.39,37.39,0,0,1,6.83,16.68c1.66,10.57-1,20.88-6.17,30.32l-.29.52-.15.27c-.4.71-.81,1.42-1.25,2.13,39.14,23.89,9.88,89.9-41.88,101.32l-4.72,4.28c-21.6,24-56.09,34.69-87.77,29.89A48.1,48.1,0,0,1,1524.86,1073.22Z"/><path class="cls-4" d="M1544.11,803.49c-38.7,18.53-60.79,55.25-49.32,82S1547,919,1585.68,900.45s60.79-55.25,49.32-82-52.18-33.46-90.89-14.94Zm-3.93,118.44c17.6.2,35.83-4.55,50.29-11.46,15.69-7.51,32.31-20.19,43.86-35.76,11.18,1.92,20.21,6.91,25.19,14.88,12.27,19.63-4.61,49.93-37.68,67.67s-69.85,16.21-82.12-3.42c-5.7-9.11-5.12-20.53.46-31.91Zm127.91,25.15a33.19,33.19,0,0,0-8.21-6.67,113.18,113.18,0,0,1-32.8,26.64c-15.45,8.29-38.34,15-58.81,13.37-4.23,10.38-3.63,21,4.46,30.14,9,10.1,24.69,13.46,37.79,12.83,17.15-.81,33.16-8.08,43.87-19.71,13.53-14.66,26.36-36.81,13.7-56.6ZM1487.15,842.8c-6,12.35-8.47,25.88-5,39.72a49.07,49.07,0,0,0,2.47,7.37,47.86,47.86,0,0,0,6.66,11.06c9.51,11.77,22.79,17.91,37.2,20.07-5.08,12.6-5.76,26.54,1.86,38.71,6.36,10.18,15.89,16.07,26.79,18.88-4.73,13.56-3,27.67,7.34,39.33s26.78,16.44,42.11,16.61c-47.12,43.67-136.69,24.78-130.84-49,.74-6.18-6.26-12.54-8.09-7.32-3.55,10.15-1.59,22,1.32,30.81-10.27-7.81-15.62-14-22.09-23.41-20.6-30.05-24.47-67.45-27.53-106.4-2.18-25.79-56.69-53.08-56.31-86.71.28-24.22,34.6-45.92,65.17-30.73C1470.34,782.69,1472.5,808.49,1487.15,842.8Z"/><path class="cls-2" d="M830.55,574.61a440.54,440.54,0,0,1,363.34,689.57,78,78,0,0,0-13.68,41.7c-.19,6.16-1.44,61.92,14.85,123.69a356.34,356.34,0,0,0,13.63,41.53,388.29,388.29,0,0,1-55.38-8.08c-32.48-7.26-62.32-18.82-88.69-34.36a77.95,77.95,0,0,0-68.87-5.09,440.61,440.61,0,1,1-165.2-849m0-78c-286.35,0-518.49,232.14-518.49,518.49s232.14,518.48,518.49,518.48A516.92,516.92,0,0,0,1025,1495.86c72.64,42.81,151.93,54.45,216.64,54.45,77.12,0,133.55-16.51,133.55-16.51-123.23-30.36-117-225.45-117-225.45A516,516,0,0,0,1349,1015.1c0-286.35-232.13-518.49-518.48-518.49Z"/><path class="cls-5" d="M1385,521.6c16.41-14.67,20.16-27.24,17.91-37.26-.12-12.65-10-16.68-10-16.68l-1.76-.88a51.47,51.47,0,0,0-10.4-6.59c-143-67.95-491.39-242.53-508-251.6-17.73-9.65-42.08-18.81-71.63-4.66-76.77,36.76-166,77.66-249.17,115-76.47,32.31-170.06,73.15-283.1,124.49l-.12.05c-10.46,5-12.07,14.43-10.29,23.57.95,8.75,5.34,20.4,16.32,35.7,12.51,17.43,51.3,36.93,96,54.58,64.35,29.44,143.55,52.58,205.21,60.82,120.47,16.1,486.42,23.76,486.42,23.76,11.81-1,29.42-3.83,50.58-8.35,0,.83,0,1.26,0,1.26,6-.51,28.14-6.33,57.57-15.5,57.48-16,123.76-39.64,173-68.39C1361.94,540.94,1376.65,531,1385,521.6Z"/><path class="cls-6" d="M488,458.57s18.37,77.53-10.89,173.32c-16.82,55.07,37.08,76.87,366.73,80.78,102.74,1.22,270.79-2,331.35-38.56,28.14-17-1.9-48.11-9.53-108.79-8.16-64.94,6.81-105.13,6.81-107.16S876.45,343.29,488,458.57Z"/><path class="cls-7" d="M488.26,458.75a3.1,3.1,0,0,1,.25.62l.19.88.39,1.76.7,3.53q.66,3.54,1.24,7.09l1.05,7.12.86,7.15c.28,2.38.44,4.78.67,7.17l.33,3.58c.09,1.2.15,2.4.23,3.6l.43,7.19c.12,2.4.14,4.8.21,7.2a375.44,375.44,0,0,1-3,57.55l-.91,7.17-1.2,7.11c-.85,4.74-1.5,9.52-2.63,14.2s-2,9.42-3.15,14.1l-3.78,14-.94,3.47c-.32,1.11-.63,2.23-.89,3.36a51.06,51.06,0,0,0-1.19,6.75,32.55,32.55,0,0,0,1,13.19,28.16,28.16,0,0,0,6.72,11.13,43,43,0,0,0,5.05,4.44,60,60,0,0,0,5.74,3.72c8,4.56,16.95,7.7,26,10.32s18.37,4.56,27.73,6.25c18.71,3.4,37.67,5.64,56.68,7.45,38,3.54,76.24,5.5,114.47,7.14s76.51,2.79,114.79,3.63q28.71.66,57.41.78t57.41-.77c19.13-.59,38.25-1.42,57.34-2.79s38.15-3,57.11-5.55c9.49-1.2,18.93-2.66,28.35-4.25s18.76-3.58,28-5.79,18.44-4.86,27.4-8a136.73,136.73,0,0,0,25.72-11.76,28.91,28.91,0,0,0,5.25-4.13,22.49,22.49,0,0,0,2.11-2.48A19.2,19.2,0,0,0,1183,663a18.07,18.07,0,0,0,1.6-6.24l.09-.82,0-.83c0-.56,0-1.12,0-1.68-.08-1.12-.09-2.24-.26-3.38a83.13,83.13,0,0,0-3-13.63c-1.33-4.53-2.84-9.06-4.34-13.6-3-9.09-6-18.26-8.47-27.61a240.79,240.79,0,0,1-5.75-28.47c-.34-2.4-.56-4.8-.85-7.2s-.59-4.8-.77-7.21c-.33-4.82-.81-9.64-.91-14.47a275.62,275.62,0,0,1,.24-29A242.12,242.12,0,0,1,1164,480q1.29-7.17,3-14.27c.59-2.34,1.24-4.75,1.84-7l.11-.42c.06-.19,0-.17,0-.16h0c-.33-.63,2.41,4.93,1.43,2.71l-.2-.1-.33-.16-.74-.32c-1-.44-2.13-.87-3.22-1.28-8.81-3.32-17.92-6.19-27-8.91s-18.33-5.21-27.57-7.55q-27.72-7-55.88-12.28T999,421.13c-18.91-2.58-37.89-4.63-56.91-6.28a1241.39,1241.39,0,0,0-228.82,1.52c-38,3.78-75.92,9.12-113.48,16.32q-28.17,5.4-56.14,11.91-14,3.28-27.87,6.88Zm-.62-.36c4.56-1.5,9.43-3.05,13.94-4.38s9.19-2.73,13.79-4.06q13.82-3.94,27.73-7.59c18.54-4.84,37.2-9.32,56-13.22,37.54-7.87,75.45-14.09,113.6-18.37a1181.39,1181.39,0,0,1,230.06-3.53q28.72,2.38,57.29,6.32t56.88,9.38q28.3,5.52,56.25,12.73,14,3.63,27.79,7.8c9.21,2.82,18.36,5.76,27.46,9.25,1.14.44,2.28.9,3.44,1.4l.9.4.49.23c.15.07.36.19.58.31-.77-2.07,2.44,3.62,1.92,3.33,0,.3-.08.6-.14.89a4.64,4.64,0,0,1-.16.71l-.12.45c-.66,2.39-1.27,4.6-1.87,6.9q-1.73,6.84-3,13.81a243.2,243.2,0,0,0-3.49,28.12,271.74,271.74,0,0,0-.5,28.4c.06,4.74.5,9.46.76,14.2.14,2.36.45,4.72.66,7.08s.44,4.73.74,7.07a234.93,234.93,0,0,0,5.25,27.89c2.26,9.21,5.06,18.3,7.92,27.44,1.43,4.57,2.87,9.16,4.16,13.83a86.52,86.52,0,0,1,2.93,14.44c.17,1.23.17,2.51.23,3.77,0,.64,0,1.28,0,1.92l0,1-.12,1a22.35,22.35,0,0,1-2.09,7.55,23.81,23.81,0,0,1-2,3.42,26.16,26.16,0,0,1-2.59,2.95,32.8,32.8,0,0,1-6.08,4.63,139.74,139.74,0,0,1-26.6,11.72c-9.16,3.06-18.48,5.53-27.85,7.69-18.77,4.16-37.75,7.14-56.79,9.45s-38.13,4-57.26,5.32-38.26,2.3-57.41,2.93-38.31,1.16-57.47,1.39-38.33.36-57.48.26c-38.32-.16-76.63-.57-114.95-1.66-19.16-.62-38.32-1.32-57.47-2.44s-38.29-2.42-57.41-4.34-38.2-4.25-57.17-7.78c-9.48-1.77-18.92-3.92-28.24-6.64s-18.55-6.1-27.16-11.11a67.16,67.16,0,0,1-6.26-4.15,47.75,47.75,0,0,1-5.67-5.1,34.68,34.68,0,0,1-4.68-6.17,32.31,32.31,0,0,1-3.12-7.16,37.52,37.52,0,0,1-1-15.27,55.93,55.93,0,0,1,1.4-7.36c.3-1.2.64-2.39,1-3.57l1-3.45,3.94-13.72c1.19-4.6,2.2-9.25,3.33-13.88s1.94-9.32,2.87-14l1.33-7,1-7.07a389.35,389.35,0,0,0,4.26-57c0-2.38,0-4.77,0-7.16l-.22-7.15c0-1.2-.06-2.39-.12-3.58l-.22-3.58c-.16-2.38-.25-4.77-.47-7.14l-.62-7.14-.8-7.12c-.31-2.37-.63-4.74-1-7.1l-.57-3.53-.33-1.76-.16-.89A7.42,7.42,0,0,1,487.64,458.39Z"/><path class="cls-8" d="M1243.32,366.88s132.94-67,103,203l-15.46-4.12s23.19-197.72-61.83-184.84"/><path class="cls-9" d="M1243.25,366.74a77.25,77.25,0,0,1,16.6-5.92,73.17,73.17,0,0,1,17.58-2.12,62.66,62.66,0,0,1,17.61,2.5,55.68,55.68,0,0,1,8.35,3.24,56.43,56.43,0,0,1,7.72,4.55,64,64,0,0,1,13,12.21,85.57,85.57,0,0,1,9.71,14.94,119.57,119.57,0,0,1,6.85,16.38,169.73,169.73,0,0,1,4.61,17.09,259.55,259.55,0,0,1,4.73,34.94c.87,11.72,1.16,23.45,1.16,35.19s-.45,23.45-1,35.17-1.58,23.42-2.68,35.11l-.12,1.29-1.29-.33-15.49-4-1-.26.11-1.1c1.74-18.1,2.6-36.35,2.57-54.55a412,412,0,0,0-3.34-54.43,211.38,211.38,0,0,0-5.28-26.67,110.05,110.05,0,0,0-10-25.12,59.76,59.76,0,0,0-7.84-10.94,41.63,41.63,0,0,0-10.45-8.37,37.69,37.69,0,0,0-12.69-4.38,49.33,49.33,0,0,0-13.57-.08l0-.3a46.86,46.86,0,0,1,13.74-.48,38.66,38.66,0,0,1,13.23,4,43.16,43.16,0,0,1,11.07,8.39,62.26,62.26,0,0,1,8.4,11.06,109.25,109.25,0,0,1,10.67,25.48,202.39,202.39,0,0,1,5.75,27,361.22,361.22,0,0,1,3.44,54.87q-.09,13.74-.89,27.45c-.52,9.15-1.22,18.26-2.3,27.39l-.92-1.36,15.42,4.25-1.4,1c1.38-11.62,2.63-23.27,3.52-34.95s1.38-23.38,1.47-35.09c.19-23.4-1.74-46.92-7.09-69.63q-2.09-8.49-4.9-16.75a129.32,129.32,0,0,0-6.81-16,85.79,85.79,0,0,0-9.29-14.56,61.39,61.39,0,0,0-12.42-11.89,55,55,0,0,0-7.36-4.45,57.92,57.92,0,0,0-25-6.12,82.87,82.87,0,0,0-34,6.66Z"/><path class="cls-10" d="M1319.72,595.82c-14.88,93.32-54,198.36-54,198.36l25.77-34-1.12,11.27-.68,14v24.34l17.81-35.84,3.38,28.4s14.22-39.22,15.1-45.53l1.13,42.38s31.78-43.28,30-205.13"/><path class="cls-11" d="M1315.06,602.43s2.43-48,28.85-40.27c22.54,6.61,14.43,48.68,14.43,48.68S1325,610.54,1315.06,602.43Z"/><path class="cls-9" d="M1314.88,602.51a.61.61,0,0,1,0-.2v-.78l0-.88c0-.59,0-1.18,0-1.77q0-1.77.15-3.54.23-3.54.78-7.06a67.8,67.8,0,0,1,1.46-7,50.29,50.29,0,0,1,2.31-6.86,33.38,33.38,0,0,1,3.51-6.51,21.62,21.62,0,0,1,5.32-5.53,16.47,16.47,0,0,1,7.34-2.95,21,21,0,0,1,14.66,3.89,20.07,20.07,0,0,1,5,5.66,28.78,28.78,0,0,1,2.86,6.77,45.11,45.11,0,0,1,1.41,7,106.17,106.17,0,0,1,.72,14.13,132.85,132.85,0,0,1-.66,14.19l-.12,1.09-1.27,0a96.24,96.24,0,0,1-11.27-.15c-1.87-.11-3.73-.33-5.6-.55s-3.73-.48-5.58-.81a75.09,75.09,0,0,1-11-2.69,37.29,37.29,0,0,1-5.27-2.19,23.47,23.47,0,0,1-2.47-1.45c-.4-.26-.77-.57-1.15-.86S1315.21,602.83,1314.88,602.51Zm.36-.16,1.15.6c.42.19.81.4,1.24.58.83.36,1.7.66,2.55,1a54.19,54.19,0,0,0,5.3,1.36c3.58.74,7.22,1.24,10.86,1.67,1.83.19,3.66.4,5.49.57l5.5.45c3.67.26,7.36.64,11,.91l-1.39,1.14a76.32,76.32,0,0,0,2.11-13.7,53.75,53.75,0,0,0-1-13.82,32.39,32.39,0,0,0-5.23-12.38,18.69,18.69,0,0,0-4.56-4.45,16.58,16.58,0,0,0-5.78-2.45,15.72,15.72,0,0,0-6.17-.23,13.6,13.6,0,0,0-5.5,2.33,21,21,0,0,0-4.44,4.45A40,40,0,0,0,1323,576a76.31,76.31,0,0,0-4.7,12.83c-.6,2.22-1.17,4.47-1.67,6.74q-.39,1.71-.72,3.42l-.32,1.72-.16.87-.08.43,0,.21,0,.11S1315.28,602.45,1315.24,602.35Z"/><path class="cls-9" d="M1331.89,554.64c3.4-4.73,6.95-9.25,10.25-13.95,1.67-2.32,3.25-4.7,4.72-7.15a35.77,35.77,0,0,0,3.67-7.75,21.47,21.47,0,0,1-2.36,8.45c-.59,1.35-1.37,2.6-2.08,3.88s-1.56,2.48-2.41,3.67a71.87,71.87,0,0,1-5.49,6.8A57.16,57.16,0,0,1,1331.89,554.64Z"/><path class="cls-9" d="M1331.89,521.58c3.4-4.73,6.95-9.25,10.25-14,1.67-2.32,3.25-4.7,4.72-7.15a35.77,35.77,0,0,0,3.67-7.75,21.47,21.47,0,0,1-2.36,8.45c-.59,1.35-1.37,2.6-2.08,3.88s-1.57,2.48-2.41,3.67a71.87,71.87,0,0,1-5.49,6.8A57.16,57.16,0,0,1,1331.89,521.58Z"/><path class="cls-9" d="M1330.69,485.52c3.4-4.74,7-9.26,10.24-13.95,1.68-2.32,3.26-4.71,4.73-7.15a36,36,0,0,0,3.66-7.75,21.1,21.1,0,0,1-2.36,8.44,43.86,43.86,0,0,1-2.07,3.89c-.78,1.24-1.57,2.47-2.41,3.66a73.62,73.62,0,0,1-5.49,6.81A58.1,58.1,0,0,1,1330.69,485.52Z"/><path class="cls-12" d="M1328.59,447.05s13.7-14.13,15.32-25.25"/><path class="cls-12" d="M1321.37,415.49s11-6.31,12.63-17.43"/><path class="cls-13" d="M1304.24,395.05s12.62-14.4,13.83-23.44"/><path class="cls-12" d="M1292.82,360.79s2.1,13.53-1.8,20.44"/><path class="cls-12" d="M1262.77,360.79s9.61,7.51,13.82,19.24"/><path class="cls-9" d="M1334.76,607.89c-2.35,11.81-4.93,23.53-7.62,35.23s-5.55,23.37-8.58,35-6.27,23.18-9.77,34.66-7.33,22.87-11.61,34.07c4-11.32,7.43-22.8,10.65-34.35s6.05-23.19,8.79-34.86,5.21-23.4,7.59-35.14,4.6-23.53,6.61-35.31Z"/><path class="cls-9" d="M1347.81,613c-.75,8.66-1.84,17.21-3.11,25.75s-2.75,17.05-4.44,25.51c-.81,4.24-1.77,8.45-2.67,12.66s-1.93,8.41-3,12.58c-2.08,8.37-4.57,16.62-7.16,24.84,2.35-8.29,4.6-16.6,6.43-25,1-4.18,1.79-8.42,2.68-12.63s1.61-8.45,2.3-12.7q2.16-12.72,3.68-25.53c1-8.53,1.85-17.12,2.35-25.65Z"/><path class="cls-1" d="M1311.6,1038.19s119.31,61.69,155.33-52.2"/><path class="cls-2" d="M630.87,803.09a62.88,62.88,0,1,0,62.79,62.81A62.81,62.81,0,0,0,630.87,803.09Z"/><path class="cls-2" d="M1056.45,803.09a62.88,62.88,0,1,0,62.93,62.81A62.89,62.89,0,0,0,1056.45,803.09Z"/><path class="cls-2" d="M1102.32,1028.42c-8.74-9.8-23.52-8.66-33.64,1.15-128.83,127.59-321.19,127.59-450,0-10.12-9.81-24.89-10.95-33.64-1.15s-7,27.88,4.65,39.31c38.63,38.07,82.5,66.26,128.58,84.17,4.46,104.45,59,170,125.36,170s120.88-65.57,125.5-170c46-17.91,89.78-46.11,128.47-84.17C1109.18,1056.3,1111.05,1038.1,1102.32,1028.42Z"/><path class="cls-3" d="M1524.86,1073.22a49,49,0,0,1-9.58,5.44c-35.13,15-74.82-11.31-95-39s-33.17-73.53-8.11-102.39c.88-1,1.82-2,2.79-2.94-3.52-17.42-5.26-35.69-6.71-54.23-1.69-20-56.8-48.4-56.34-87.76.38-33.2,44-59,81.22-40.54,40.08,19.91,46.9,42.25,61.19,79h0a114.68,114.68,0,0,1,23.78-24.21l.56-.43c2.6-2,5.48-4,8.68-6l.11-.07.39-.24.1-.06c3.25-2,6.51-3.86,9.75-5.48,22.22-11.34,43.86-14.47,62.11-11.58,15,1.95,28.91,8.09,38.76,20.3a47.87,47.87,0,0,1,5.68,8.93c7,13.44,7.44,30.35-1.29,48.56l-.26.56-.56,1.13c-.32.63-.65,1.27-1,1.89l-.35.66.27.07.7.18c1.38.37,2.71.78,4,1.22l.13,0,.68.24h0l.66.25.67.26h0l.22.09,1.07.43,0,0a43,43,0,0,1,16.82,12.23l.13.16.57.72.14.18.07.11.37.48a37.39,37.39,0,0,1,6.83,16.68c1.66,10.57-1,20.88-6.17,30.32l-.29.52-.15.27c-.4.71-.81,1.42-1.25,2.13,39.14,23.89,9.88,89.9-41.88,101.32l-4.72,4.28c-21.6,24-56.09,34.69-87.77,29.89A48.1,48.1,0,0,1,1524.86,1073.22Z"/><path class="cls-4" d="M1544.11,803.49c-38.7,18.53-60.79,55.25-49.32,82S1547,919,1585.68,900.45s60.79-55.25,49.32-82-52.18-33.46-90.89-14.94Zm-3.93,118.44c17.6.2,35.83-4.55,50.29-11.46,15.69-7.51,32.31-20.19,43.86-35.76,11.18,1.92,20.21,6.91,25.19,14.88,12.27,19.63-4.61,49.93-37.68,67.67s-69.85,16.21-82.12-3.42c-5.7-9.11-5.12-20.53.46-31.91Zm127.91,25.15a33.19,33.19,0,0,0-8.21-6.67,113.18,113.18,0,0,1-32.8,26.64c-15.45,8.29-38.34,15-58.81,13.37-4.23,10.38-3.63,21,4.46,30.14,9,10.1,24.69,13.46,37.79,12.83,17.15-.81,33.16-8.08,43.87-19.71,13.53-14.66,26.36-36.81,13.7-56.6ZM1487.15,842.8c-6,12.35-8.47,25.88-5,39.72a49.07,49.07,0,0,0,2.47,7.37,47.86,47.86,0,0,0,6.66,11.06c9.51,11.77,22.79,17.91,37.2,20.07-5.08,12.6-5.76,26.54,1.86,38.71,6.36,10.18,15.89,16.07,26.79,18.88-4.73,13.56-3,27.67,7.34,39.33s26.78,16.44,42.11,16.61c-47.12,43.67-136.69,24.78-130.84-49,.74-6.18-6.26-12.54-8.09-7.32-3.55,10.15-1.59,22,1.32,30.81-10.27-7.81-15.62-14-22.09-23.41-20.6-30.05-24.47-67.45-27.53-106.4-2.18-25.79-56.69-53.08-56.31-86.71.28-24.22,34.6-45.92,65.17-30.73C1470.34,782.69,1472.5,808.49,1487.15,842.8Z"/><path class="cls-2" d="M830.55,574.61a440.54,440.54,0,0,1,363.34,689.57,78,78,0,0,0-13.68,41.7c-.19,6.16-1.44,61.92,14.85,123.69a356.34,356.34,0,0,0,13.63,41.53,388.29,388.29,0,0,1-55.38-8.08c-32.48-7.26-62.32-18.82-88.69-34.36a77.95,77.95,0,0,0-68.87-5.09,440.61,440.61,0,1,1-165.2-849m0-78c-286.35,0-518.49,232.14-518.49,518.49s232.14,518.48,518.49,518.48A516.92,516.92,0,0,0,1025,1495.86c72.64,42.81,151.93,54.45,216.64,54.45,77.12,0,133.55-16.51,133.55-16.51-123.23-30.36-117-225.45-117-225.45A516,516,0,0,0,1349,1015.1c0-286.35-232.13-518.49-518.48-518.49Z"/><path class="cls-5" d="M1385,521.6c16.41-14.67,20.16-27.24,17.91-37.26-.12-12.65-10-16.68-10-16.68l-1.76-.88a51.47,51.47,0,0,0-10.4-6.59c-143-67.95-491.39-242.53-508-251.6-17.73-9.65-42.08-18.81-71.63-4.66-76.77,36.76-166,77.66-249.17,115-76.47,32.31-170.06,73.15-283.1,124.49l-.12.05c-10.46,5-12.07,14.43-10.29,23.57.95,8.75,5.34,20.4,16.32,35.7,12.51,17.43,51.3,36.93,96,54.58,64.35,29.44,143.55,52.58,205.21,60.82,120.47,16.1,486.42,23.76,486.42,23.76,11.81-1,29.42-3.83,50.58-8.35,0,.83,0,1.26,0,1.26,6-.51,28.14-6.33,57.57-15.5,57.48-16,123.76-39.64,173-68.39C1361.94,540.94,1376.65,531,1385,521.6Z"/><path class="cls-6" d="M488,458.57s18.37,77.53-10.89,173.32c-16.82,55.07,37.08,76.87,366.73,80.78,102.74,1.22,270.79-2,331.35-38.56,28.14-17-1.9-48.11-9.53-108.79-8.16-64.94,6.81-105.13,6.81-107.16S876.45,343.29,488,458.57Z"/><path class="cls-7" d="M488.26,458.75a3.1,3.1,0,0,1,.25.62l.19.88.39,1.76.7,3.53q.66,3.54,1.24,7.09l1.05,7.12.86,7.15c.28,2.38.44,4.78.67,7.17l.33,3.58c.09,1.2.15,2.4.23,3.6l.43,7.19c.12,2.4.14,4.8.21,7.2a375.44,375.44,0,0,1-3,57.55l-.91,7.17-1.2,7.11c-.85,4.74-1.5,9.52-2.63,14.2s-2,9.42-3.15,14.1l-3.78,14-.94,3.47c-.32,1.11-.63,2.23-.89,3.36a51.06,51.06,0,0,0-1.19,6.75,32.55,32.55,0,0,0,1,13.19,28.16,28.16,0,0,0,6.72,11.13,43,43,0,0,0,5.05,4.44,60,60,0,0,0,5.74,3.72c8,4.56,16.95,7.7,26,10.32s18.37,4.56,27.73,6.25c18.71,3.4,37.67,5.64,56.68,7.45,38,3.54,76.24,5.5,114.47,7.14s76.51,2.79,114.79,3.63q28.71.66,57.41.78t57.41-.77c19.13-.59,38.25-1.42,57.34-2.79s38.15-3,57.11-5.55c9.49-1.2,18.93-2.66,28.35-4.25s18.76-3.58,28-5.79,18.44-4.86,27.4-8a136.73,136.73,0,0,0,25.72-11.76,28.91,28.91,0,0,0,5.25-4.13,22.49,22.49,0,0,0,2.11-2.48A19.2,19.2,0,0,0,1183,663a18.07,18.07,0,0,0,1.6-6.24l.09-.82,0-.83c0-.56,0-1.12,0-1.68-.08-1.12-.09-2.24-.26-3.38a83.13,83.13,0,0,0-3-13.63c-1.33-4.53-2.84-9.06-4.34-13.6-3-9.09-6-18.26-8.47-27.61a240.79,240.79,0,0,1-5.75-28.47c-.34-2.4-.56-4.8-.85-7.2s-.59-4.8-.77-7.21c-.33-4.82-.81-9.64-.91-14.47a275.62,275.62,0,0,1,.24-29A242.12,242.12,0,0,1,1164,480q1.29-7.17,3-14.27c.59-2.34,1.24-4.75,1.84-7l.11-.42c.06-.19,0-.17,0-.16h0c-.33-.63,2.41,4.93,1.43,2.71l-.2-.1-.33-.16-.74-.32c-1-.44-2.13-.87-3.22-1.28-8.81-3.32-17.92-6.19-27-8.91s-18.33-5.21-27.57-7.55q-27.72-7-55.88-12.28T999,421.13c-18.91-2.58-37.89-4.63-56.91-6.28a1241.39,1241.39,0,0,0-228.82,1.52c-38,3.78-75.92,9.12-113.48,16.32q-28.17,5.4-56.14,11.91-14,3.28-27.87,6.88Zm-.62-.36c4.56-1.5,9.43-3.05,13.94-4.38s9.19-2.73,13.79-4.06q13.82-3.94,27.73-7.59c18.54-4.84,37.2-9.32,56-13.22,37.54-7.87,75.45-14.09,113.6-18.37a1181.39,1181.39,0,0,1,230.06-3.53q28.72,2.38,57.29,6.32t56.88,9.38q28.3,5.52,56.25,12.73,14,3.63,27.79,7.8c9.21,2.82,18.36,5.76,27.46,9.25,1.14.44,2.28.9,3.44,1.4l.9.4.49.23c.15.07.36.19.58.31-.77-2.07,2.44,3.62,1.92,3.33,0,.3-.08.6-.14.89a4.64,4.64,0,0,1-.16.71l-.12.45c-.66,2.39-1.27,4.6-1.87,6.9q-1.73,6.84-3,13.81a243.2,243.2,0,0,0-3.49,28.12,271.74,271.74,0,0,0-.5,28.4c.06,4.74.5,9.46.76,14.2.14,2.36.45,4.72.66,7.08s.44,4.73.74,7.07a234.93,234.93,0,0,0,5.25,27.89c2.26,9.21,5.06,18.3,7.92,27.44,1.43,4.57,2.87,9.16,4.16,13.83a86.52,86.52,0,0,1,2.93,14.44c.17,1.23.17,2.51.23,3.77,0,.64,0,1.28,0,1.92l0,1-.12,1a22.35,22.35,0,0,1-2.09,7.55,23.81,23.81,0,0,1-2,3.42,26.16,26.16,0,0,1-2.59,2.95,32.8,32.8,0,0,1-6.08,4.63,139.74,139.74,0,0,1-26.6,11.72c-9.16,3.06-18.48,5.53-27.85,7.69-18.77,4.16-37.75,7.14-56.79,9.45s-38.13,4-57.26,5.32-38.26,2.3-57.41,2.93-38.31,1.16-57.47,1.39-38.33.36-57.48.26c-38.32-.16-76.63-.57-114.95-1.66-19.16-.62-38.32-1.32-57.47-2.44s-38.29-2.42-57.41-4.34-38.2-4.25-57.17-7.78c-9.48-1.77-18.92-3.92-28.24-6.64s-18.55-6.1-27.16-11.11a67.16,67.16,0,0,1-6.26-4.15,47.75,47.75,0,0,1-5.67-5.1,34.68,34.68,0,0,1-4.68-6.17,32.31,32.31,0,0,1-3.12-7.16,37.52,37.52,0,0,1-1-15.27,55.93,55.93,0,0,1,1.4-7.36c.3-1.2.64-2.39,1-3.57l1-3.45,3.94-13.72c1.19-4.6,2.2-9.25,3.33-13.88s1.94-9.32,2.87-14l1.33-7,1-7.07a389.35,389.35,0,0,0,4.26-57c0-2.38,0-4.77,0-7.16l-.22-7.15c0-1.2-.06-2.39-.12-3.58l-.22-3.58c-.16-2.38-.25-4.77-.47-7.14l-.62-7.14-.8-7.12c-.31-2.37-.63-4.74-1-7.1l-.57-3.53-.33-1.76-.16-.89A7.42,7.42,0,0,1,487.64,458.39Z"/><path class="cls-8" d="M1243.32,366.88s132.94-67,103,203l-15.46-4.12s23.19-197.72-61.83-184.84"/><path class="cls-9" d="M1243.25,366.74a77.25,77.25,0,0,1,16.6-5.92,73.17,73.17,0,0,1,17.58-2.12,62.66,62.66,0,0,1,17.61,2.5,55.68,55.68,0,0,1,8.35,3.24,56.43,56.43,0,0,1,7.72,4.55,64,64,0,0,1,13,12.21,85.57,85.57,0,0,1,9.71,14.94,119.57,119.57,0,0,1,6.85,16.38,169.73,169.73,0,0,1,4.61,17.09,259.55,259.55,0,0,1,4.73,34.94c.87,11.72,1.16,23.45,1.16,35.19s-.45,23.45-1,35.17-1.58,23.42-2.68,35.11l-.12,1.29-1.29-.33-15.49-4-1-.26.11-1.1c1.74-18.1,2.6-36.35,2.57-54.55a412,412,0,0,0-3.34-54.43,211.38,211.38,0,0,0-5.28-26.67,110.05,110.05,0,0,0-10-25.12,59.76,59.76,0,0,0-7.84-10.94,41.63,41.63,0,0,0-10.45-8.37,37.69,37.69,0,0,0-12.69-4.38,49.33,49.33,0,0,0-13.57-.08l0-.3a46.86,46.86,0,0,1,13.74-.48,38.66,38.66,0,0,1,13.23,4,43.16,43.16,0,0,1,11.07,8.39,62.26,62.26,0,0,1,8.4,11.06,109.25,109.25,0,0,1,10.67,25.48,202.39,202.39,0,0,1,5.75,27,361.22,361.22,0,0,1,3.44,54.87q-.09,13.74-.89,27.45c-.52,9.15-1.22,18.26-2.3,27.39l-.92-1.36,15.42,4.25-1.4,1c1.38-11.62,2.63-23.27,3.52-34.95s1.38-23.38,1.47-35.09c.19-23.4-1.74-46.92-7.09-69.63q-2.09-8.49-4.9-16.75a129.32,129.32,0,0,0-6.81-16,85.79,85.79,0,0,0-9.29-14.56,61.39,61.39,0,0,0-12.42-11.89,55,55,0,0,0-7.36-4.45,57.92,57.92,0,0,0-25-6.12,82.87,82.87,0,0,0-34,6.66Z"/><path class="cls-10" d="M1319.72,595.82c-14.88,93.32-54,198.36-54,198.36l25.77-34-1.12,11.27-.68,14v24.34l17.81-35.84,3.38,28.4s14.22-39.22,15.1-45.53l1.13,42.38s31.78-43.28,30-205.13"/><path class="cls-11" d="M1315.06,602.43s2.43-48,28.85-40.27c22.54,6.61,14.43,48.68,14.43,48.68S1325,610.54,1315.06,602.43Z"/><path class="cls-9" d="M1314.88,602.51a.61.61,0,0,1,0-.2v-.78l0-.88c0-.59,0-1.18,0-1.77q0-1.77.15-3.54.23-3.54.78-7.06a67.8,67.8,0,0,1,1.46-7,50.29,50.29,0,0,1,2.31-6.86,33.38,33.38,0,0,1,3.51-6.51,21.62,21.62,0,0,1,5.32-5.53,16.47,16.47,0,0,1,7.34-2.95,21,21,0,0,1,14.66,3.89,20.07,20.07,0,0,1,5,5.66,28.78,28.78,0,0,1,2.86,6.77,45.11,45.11,0,0,1,1.41,7,106.17,106.17,0,0,1,.72,14.13,132.85,132.85,0,0,1-.66,14.19l-.12,1.09-1.27,0a96.24,96.24,0,0,1-11.27-.15c-1.87-.11-3.73-.33-5.6-.55s-3.73-.48-5.58-.81a75.09,75.09,0,0,1-11-2.69,37.29,37.29,0,0,1-5.27-2.19,23.47,23.47,0,0,1-2.47-1.45c-.4-.26-.77-.57-1.15-.86S1315.21,602.83,1314.88,602.51Zm.36-.16,1.15.6c.42.19.81.4,1.24.58.83.36,1.7.66,2.55,1a54.19,54.19,0,0,0,5.3,1.36c3.58.74,7.22,1.24,10.86,1.67,1.83.19,3.66.4,5.49.57l5.5.45c3.67.26,7.36.64,11,.91l-1.39,1.14a76.32,76.32,0,0,0,2.11-13.7,53.75,53.75,0,0,0-1-13.82,32.39,32.39,0,0,0-5.23-12.38,18.69,18.69,0,0,0-4.56-4.45,16.58,16.58,0,0,0-5.78-2.45,15.72,15.72,0,0,0-6.17-.23,13.6,13.6,0,0,0-5.5,2.33,21,21,0,0,0-4.44,4.45A40,40,0,0,0,1323,576a76.31,76.31,0,0,0-4.7,12.83c-.6,2.22-1.17,4.47-1.67,6.74q-.39,1.71-.72,3.42l-.32,1.72-.16.87-.08.43,0,.21,0,.11S1315.28,602.45,1315.24,602.35Z"/><path class="cls-9" d="M1331.89,554.64c3.4-4.73,6.95-9.25,10.25-13.95,1.67-2.32,3.25-4.7,4.72-7.15a35.77,35.77,0,0,0,3.67-7.75,21.47,21.47,0,0,1-2.36,8.45c-.59,1.35-1.37,2.6-2.08,3.88s-1.56,2.48-2.41,3.67a71.87,71.87,0,0,1-5.49,6.8A57.16,57.16,0,0,1,1331.89,554.64Z"/><path class="cls-9" d="M1331.89,521.58c3.4-4.73,6.95-9.25,10.25-14,1.67-2.32,3.25-4.7,4.72-7.15a35.77,35.77,0,0,0,3.67-7.75,21.47,21.47,0,0,1-2.36,8.45c-.59,1.35-1.37,2.6-2.08,3.88s-1.57,2.48-2.41,3.67a71.87,71.87,0,0,1-5.49,6.8A57.16,57.16,0,0,1,1331.89,521.58Z"/><path class="cls-9" d="M1330.69,485.52c3.4-4.74,7-9.26,10.24-13.95,1.68-2.32,3.26-4.71,4.73-7.15a36,36,0,0,0,3.66-7.75,21.1,21.1,0,0,1-2.36,8.44,43.86,43.86,0,0,1-2.07,3.89c-.78,1.24-1.57,2.47-2.41,3.66a73.62,73.62,0,0,1-5.49,6.81A58.1,58.1,0,0,1,1330.69,485.52Z"/><path class="cls-12" d="M1328.59,447.05s13.7-14.13,15.32-25.25"/><path class="cls-12" d="M1321.37,415.49s11-6.31,12.63-17.43"/><path class="cls-13" d="M1304.24,395.05s12.62-14.4,13.83-23.44"/><path class="cls-12" d="M1292.82,360.79s2.1,13.53-1.8,20.44"/><path class="cls-12" d="M1262.77,360.79s9.61,7.51,13.82,19.24"/><path class="cls-9" d="M1334.76,607.89c-2.35,11.81-4.93,23.53-7.62,35.23s-5.55,23.37-8.58,35-6.27,23.18-9.77,34.66-7.33,22.87-11.61,34.07c4-11.32,7.43-22.8,10.65-34.35s6.05-23.19,8.79-34.86,5.21-23.4,7.59-35.14,4.6-23.53,6.61-35.31Z"/><path class="cls-9" d="M1347.81,613c-.75,8.66-1.84,17.21-3.11,25.75s-2.75,17.05-4.44,25.51c-.81,4.24-1.77,8.45-2.67,12.66s-1.93,8.41-3,12.58c-2.08,8.37-4.57,16.62-7.16,24.84,2.35-8.29,4.6-16.6,6.43-25,1-4.18,1.79-8.42,2.68-12.63s1.61-8.45,2.3-12.7q2.16-12.72,3.68-25.53c1-8.53,1.85-17.12,2.35-25.65Z"/></svg>