<svg id="Layer_1" data-name="Layer 1" xmlns="http://www.w3.org/2000/svg" viewBox="0 0 2000 1821"><defs><style>.cls-1,.cls-2,.cls-4{fill:#9ec54c;}.cls-2{stroke:#99bd4f;stroke-width:88px;}.cls-10,.cls-12,.cls-13,.cls-2{stroke-miterlimit:10;}.cls-2,.cls-3,.cls-4{fill-rule:evenodd;}.cls-3{fill:#5a752c;}.cls-5{fill:#424243;}.cls-6{fill:#343334;}.cls-7{fill:#161616;}.cls-10,.cls-8{fill:#ecb730;}.cls-9{fill:#94662f;}.cls-10,.cls-12,.cls-13{stroke:#94662f;}.cls-10{stroke-width:1.98px;}.cls-11{fill:#de8a2e;}.cls-12,.cls-13{fill:none;}.cls-12{stroke-width:1.9px;}.cls-13{stroke-width:1.47px;}</style></defs><title>Mesa de trabajo 13</title><path class="cls-1" d="M950.14,668.19a440.53,440.53,0,0,1,363.34,689.57,78,78,0,0,0-13.67,41.69c-.19,6.16-1.44,61.92,14.85,123.7a354.29,354.29,0,0,0,13.62,41.52,386.94,386.94,0,0,1-55.37-8.08c-32.48-7.26-62.32-18.81-88.69-34.35a78,78,0,0,0-68.87-5.1A440.61,440.61,0,1,1,950.14,668.19m0-78c-286.35,0-518.48,232.13-518.48,518.48s232.13,518.48,518.48,518.48a517.16,517.16,0,0,0,194.48-37.71c72.64,42.8,151.93,54.45,216.64,54.45,77.12,0,133.55-16.52,133.55-16.52-123.23-30.36-117-225.44-117-225.44a516.09,516.09,0,0,0,90.86-293.26c0-286.35-232.14-518.48-518.49-518.48Z"/><path class="cls-2" d="M1426.8,1121.13s119.32,61.69,155.33-52.2"/><path class="cls-3" d="M1640.06,1156.15a49,49,0,0,1-9.57,5.45c-35.13,15-74.82-11.32-95-39s-33.16-73.53-8.11-102.39c.89-1,1.82-2,2.79-3-3.52-17.41-5.25-35.68-6.71-54.23-1.68-20-56.79-48.4-56.34-87.75.38-33.2,44.05-59,81.22-40.55,40.09,19.92,46.9,42.25,61.19,79h0a114.92,114.92,0,0,1,23.77-24.22l.56-.43c2.6-2,5.48-4,8.68-6l.11-.07.39-.25.1-.06c3.25-2,6.51-3.86,9.75-5.47,22.23-11.34,43.87-14.48,62.11-11.59,15,2,28.92,8.1,38.77,20.31a47.32,47.32,0,0,1,5.67,8.93c7,13.43,7.44,30.34-1.28,48.56l-.27.55-.55,1.13c-.32.63-.65,1.27-1,1.9l-.34.66.27.07.69.18c1.38.36,2.72.77,4,1.21l.13,0,.68.23h0l.66.24.67.26,0,0,.22.08,1.07.44,0,0a43,43,0,0,1,16.82,12.23l.14.17.57.72.13.18.08.1.36.49a37.35,37.35,0,0,1,6.84,16.68c1.66,10.56-1,20.87-6.18,30.31l-.29.53-.15.27c-.4.71-.8,1.42-1.24,2.13,39.13,23.88,9.87,89.89-41.88,101.31l-4.72,4.29c-21.61,24-56.1,34.68-87.77,29.89A48.61,48.61,0,0,1,1640.06,1156.15Z"/><path class="cls-4" d="M1659.31,886.43c-38.7,18.52-60.79,55.25-49.31,82s52.17,33.46,90.88,14.94,60.79-55.25,49.32-82-52.18-33.46-90.89-14.93Zm-3.93,118.44c17.61.2,35.83-4.55,50.29-11.47,15.69-7.5,32.32-20.19,43.87-35.75,11.17,1.92,20.2,6.91,25.18,14.87,12.27,19.63-4.6,49.94-37.68,67.68s-69.85,16.21-82.12-3.42c-5.69-9.11-5.11-20.53.46-31.91ZM1783.29,1030a33.33,33.33,0,0,0-8.2-6.66,113.35,113.35,0,0,1-32.8,26.64c-15.46,8.29-38.34,15-58.82,13.37-4.22,10.38-3.63,21,4.47,30.14,9,10.1,24.68,13.45,37.78,12.83,17.16-.81,33.16-8.09,43.88-19.71,13.53-14.67,26.36-36.81,13.69-56.61ZM1602.35,925.74c-6,12.34-8.46,25.87-5,39.72a47.85,47.85,0,0,0,2.47,7.36,47,47,0,0,0,6.66,11.06c9.5,11.78,22.78,17.91,37.2,20.08-5.09,12.59-5.76,26.53,1.85,38.71,6.37,10.18,15.89,16.06,26.79,18.87-4.72,13.57-3,27.68,7.35,39.34s26.78,16.43,42.1,16.61c-47.11,43.66-136.69,24.78-130.83-49,.73-6.18-6.26-12.54-8.09-7.32-3.56,10.14-1.6,22,1.31,30.81-10.27-7.82-15.61-14-22.09-23.42-20.6-30-24.47-67.44-27.52-106.39-2.18-25.8-56.7-53.09-56.31-86.72.27-24.21,34.6-45.91,65.17-30.72C1585.55,865.63,1587.7,891.42,1602.35,925.74Z"/><path class="cls-1" d="M738.92,876.57c-34.69,0-63.09,28.08-63.09,62.78a62.94,62.94,0,1,0,63.09-62.78Z"/><path class="cls-1" d="M1164.64,876.57a62.94,62.94,0,1,0,62.78,62.78A62.82,62.82,0,0,0,1164.64,876.57Z"/><path class="cls-1" d="M951.75,1022.4c-62.63,0-113.56,69.37-113.56,154.7,0,85.59,50.93,154.69,113.56,154.69s113.3-69.1,113.3-154.69C1065.05,1091.77,1014.39,1022.4,951.75,1022.4Z"/><path class="cls-5" d="M1505.46,555.67c16.4-14.66,20.15-27.23,17.9-37.26-.12-12.65-10-16.68-10-16.68l-1.77-.87a51.32,51.32,0,0,0-10.39-6.6c-143-67.95-491.4-242.53-508.06-251.6-17.72-9.64-42.08-18.8-71.62-4.66-76.77,36.77-165.95,77.66-249.17,115-76.48,32.3-170.07,73.15-283.11,124.48l-.11.06c-10.47,5-12.07,14.42-10.3,23.56.95,8.75,5.34,20.4,16.32,35.7,12.52,17.43,51.31,36.93,96,54.58,64.35,29.44,143.56,52.58,205.22,60.82C816.86,668.31,1182.8,676,1182.8,676c11.81-1,29.42-3.82,50.58-8.34,0,.82,0,1.26,0,1.26,6-.52,28.14-6.33,57.57-15.51,57.49-16,123.77-39.64,173-68.38C1482.41,575,1497.11,565,1505.46,555.67Z"/><path class="cls-6" d="M608.41,492.64S626.78,570.17,597.53,666c-16.82,55.06,37.08,76.87,366.72,80.77,102.74,1.22,270.8-2,331.35-38.56,28.15-17-1.9-48.11-9.52-108.78-8.17-64.95,6.8-105.13,6.8-107.16S996.91,377.37,608.41,492.64Z"/><path class="cls-7" d="M608.72,492.82a3.17,3.17,0,0,1,.25.63l.2.87.39,1.76.7,3.53c.44,2.36.84,4.72,1.24,7.09l1,7.12.86,7.15c.28,2.39.45,4.78.68,7.17l.32,3.59c.1,1.19.15,2.39.23,3.59l.43,7.19c.12,2.4.15,4.8.22,7.2a374.38,374.38,0,0,1-3,57.56l-.91,7.16-1.2,7.12c-.85,4.73-1.5,9.51-2.62,14.2s-2,9.42-3.15,14.1l-3.78,13.95-1,3.46c-.32,1.12-.63,2.24-.88,3.36a50.92,50.92,0,0,0-1.19,6.76,32.5,32.5,0,0,0,1,13.18,28.18,28.18,0,0,0,6.73,11.13,42,42,0,0,0,5,4.44,60.89,60.89,0,0,0,5.75,3.73c8,4.56,16.94,7.7,26,10.31s18.37,4.56,27.72,6.25c18.71,3.4,37.68,5.64,56.68,7.45,38,3.55,76.25,5.5,114.48,7.14s76.5,2.79,114.78,3.63q28.71.66,57.42.78t57.41-.76c19.13-.6,38.25-1.43,57.34-2.79s38.15-3,57.1-5.56c9.49-1.19,18.94-2.66,28.36-4.25s18.76-3.58,28-5.79,18.43-4.85,27.4-8a137.05,137.05,0,0,0,25.72-11.77,28.83,28.83,0,0,0,5.24-4.13,21.61,21.61,0,0,0,2.11-2.48,19.63,19.63,0,0,0,1.56-2.79,18.42,18.42,0,0,0,1.61-6.25l.09-.82v-.83c0-.56,0-1.11,0-1.67-.08-1.13-.09-2.25-.26-3.39a84.37,84.37,0,0,0-3-13.63c-1.34-4.53-2.84-9.06-4.35-13.6-3-9.09-6-18.26-8.46-27.61a238.39,238.39,0,0,1-5.75-28.47c-.35-2.4-.57-4.8-.86-7.2s-.59-4.8-.76-7.21c-.34-4.82-.81-9.63-.92-14.47a281,281,0,0,1,.24-29,242.29,242.29,0,0,1,3.37-28.89c.86-4.78,1.86-9.54,3-14.26.58-2.34,1.23-4.76,1.84-7l.11-.41c0-.2,0-.17,0-.17h0c-.32-.63,2.41,4.93,1.44,2.7l-.21-.1-.33-.15-.74-.33c-1-.44-2.12-.86-3.22-1.28-8.8-3.31-17.92-6.19-27-8.91s-18.33-5.21-27.57-7.55c-18.48-4.69-37.13-8.74-55.88-12.27s-37.59-6.58-56.5-9.15-37.9-4.63-56.91-6.28a1241.5,1241.5,0,0,0-228.83,1.53c-38,3.77-75.91,9.12-113.48,16.31q-28.17,5.4-56.13,11.91-14,3.3-27.87,6.88Zm-.62-.36c4.57-1.5,9.44-3,13.95-4.38s9.18-2.73,13.78-4.06q13.83-3.94,27.73-7.59c18.55-4.84,37.2-9.32,56-13.22,37.54-7.86,75.45-14.08,113.6-18.37a1181.49,1181.49,0,0,1,230.07-3.53c19.14,1.59,38.25,3.74,57.29,6.33s38,5.68,56.87,9.38,37.64,7.88,56.25,12.72c9.31,2.43,18.58,5,27.79,7.81s18.37,5.76,27.46,9.24c1.14.45,2.28.9,3.45,1.4l.9.4.48.24.59.3c-.78-2.07,2.44,3.62,1.91,3.34,0,.29-.08.59-.13.88s-.13.62-.16.71l-.12.45c-.67,2.4-1.28,4.6-1.87,6.9q-1.74,6.85-3,13.81a243.37,243.37,0,0,0-3.49,28.13,271.54,271.54,0,0,0-.49,28.39c0,4.74.49,9.47.75,14.2.14,2.37.45,4.72.66,7.08s.44,4.73.74,7.08a235.15,235.15,0,0,0,5.25,27.88c2.26,9.21,5.06,18.31,7.92,27.44,1.43,4.57,2.87,9.16,4.16,13.83a87.55,87.55,0,0,1,2.94,14.44c.16,1.24.16,2.51.22,3.78,0,.63,0,1.27,0,1.91l0,1-.11,1a22.75,22.75,0,0,1-2.09,7.55,24,24,0,0,1-2,3.43,25.93,25.93,0,0,1-2.59,2.94,32.11,32.11,0,0,1-6.08,4.64,140,140,0,0,1-26.6,11.71c-9.16,3.07-18.47,5.53-27.84,7.69-18.78,4.16-37.75,7.14-56.79,9.45s-38.14,4-57.26,5.32-38.27,2.3-57.42,2.94-38.3,1.15-57.47,1.39-38.32.35-57.48.26c-38.31-.17-76.63-.58-115-1.67-19.16-.62-38.32-1.32-57.47-2.44s-38.29-2.42-57.4-4.34-38.21-4.25-57.18-7.78a289.68,289.68,0,0,1-28.24-6.63c-9.29-2.79-18.54-6.11-27.15-11.12a63.39,63.39,0,0,1-6.26-4.15,47,47,0,0,1-5.67-5.09,34.69,34.69,0,0,1-4.69-6.18,33.27,33.27,0,0,1-3.12-7.16,37.69,37.69,0,0,1-1-15.27,54.51,54.51,0,0,1,1.41-7.35c.29-1.21.64-2.39,1-3.57l1-3.45L600,648.71c1.2-4.61,2.2-9.26,3.33-13.89s1.94-9.32,2.87-14l1.33-7,1-7.07a388.17,388.17,0,0,0,4.25-57c0-2.39,0-4.78,0-7.16l-.21-7.16c0-1.19-.07-2.39-.13-3.58l-.21-3.57c-.16-2.38-.26-4.77-.47-7.15l-.63-7.14-.8-7.12c-.31-2.37-.63-4.73-1-7.1l-.58-3.53-.32-1.76-.17-.89A7.42,7.42,0,0,1,608.1,492.46Z"/><path class="cls-8" d="M1363.78,401s132.94-67,103.06,203l-15.46-4.13s23.18-197.72-61.84-184.84"/><path class="cls-9" d="M1363.71,400.82a76.83,76.83,0,0,1,16.61-5.93,73.08,73.08,0,0,1,17.57-2.11,62.36,62.36,0,0,1,17.62,2.49,55,55,0,0,1,16.06,7.8,63.45,63.45,0,0,1,13,12.21,84.92,84.92,0,0,1,9.71,14.93,120.15,120.15,0,0,1,6.86,16.38,166.55,166.55,0,0,1,4.6,17.1,256.17,256.17,0,0,1,4.73,34.94c.87,11.71,1.16,23.45,1.16,35.18s-.45,23.46-1,35.18-1.58,23.41-2.69,35.1l-.12,1.29-1.28-.33-15.5-4-1-.27.11-1.09c1.74-18.1,2.61-36.36,2.58-54.56a412,412,0,0,0-3.34-54.42,215.14,215.14,0,0,0-5.28-26.68,110.26,110.26,0,0,0-10-25.12,60,60,0,0,0-7.83-10.94,41.81,41.81,0,0,0-10.45-8.37,37.65,37.65,0,0,0-12.7-4.37,48.94,48.94,0,0,0-13.57-.09l0-.3a47.48,47.48,0,0,1,13.73-.48,38.46,38.46,0,0,1,13.23,4,43,43,0,0,1,11.07,8.38,61.78,61.78,0,0,1,8.4,11.06,109,109,0,0,1,10.67,25.48,201.19,201.19,0,0,1,5.76,27,363.89,363.89,0,0,1,3.44,54.87q-.1,13.74-.89,27.45c-.53,9.15-1.22,18.26-2.31,27.39l-.92-1.36,15.42,4.25-1.4,1c1.38-11.62,2.64-23.27,3.52-34.94s1.38-23.39,1.48-35.09c.18-23.4-1.74-46.93-7.1-69.63q-2.08-8.49-4.89-16.75a130.2,130.2,0,0,0-6.81-16,86.15,86.15,0,0,0-9.3-14.57A61,61,0,0,0,1430.21,405a54.55,54.55,0,0,0-7.36-4.45,63.42,63.42,0,0,0-8-3.28,60.86,60.86,0,0,0-17-2.84,82.8,82.8,0,0,0-34,6.65Z"/><path class="cls-10" d="M1440.18,629.89c-14.87,93.32-53.94,198.36-53.94,198.36l25.77-34-1.13,11.27-.68,14V843.8L1428,808l3.38,28.4s14.23-39.22,15.11-45.53l1.12,42.38s31.78-43.28,30-205.12"/><path class="cls-11" d="M1435.53,636.5s2.43-48,28.85-40.27c22.54,6.61,14.42,48.69,14.42,48.69S1445.44,644.62,1435.53,636.5Z"/><path class="cls-9" d="M1435.34,636.58a1.35,1.35,0,0,1,0-.2v-.33l0-.44v-.89c0-.59,0-1.18,0-1.77,0-1.18.08-2.35.15-3.53.15-2.36.4-4.72.78-7.06a64.93,64.93,0,0,1,1.46-7,50.7,50.7,0,0,1,2.3-6.86,34.48,34.48,0,0,1,3.51-6.51,21.93,21.93,0,0,1,5.32-5.52,16.37,16.37,0,0,1,7.35-3,19.83,19.83,0,0,1,19.69,9.56,28.5,28.5,0,0,1,2.85,6.76,44,44,0,0,1,1.41,7,104.68,104.68,0,0,1,.72,14.13,130.26,130.26,0,0,1-.65,14.19l-.13,1.1-1.27.05a96,96,0,0,1-11.26-.16c-1.87-.11-3.74-.33-5.6-.55s-3.73-.47-5.59-.81a72.62,72.62,0,0,1-11-2.69,38.24,38.24,0,0,1-5.27-2.18,26.68,26.68,0,0,1-2.47-1.46c-.4-.26-.77-.57-1.14-.86S1435.68,636.91,1435.34,636.58Zm.37-.16,1.14.6c.42.19.82.41,1.24.58.84.36,1.7.66,2.56.95a52.77,52.77,0,0,0,5.3,1.36c3.57.75,7.21,1.25,10.86,1.67,1.83.19,3.65.41,5.48.57l5.51.46c3.67.25,7.36.63,11,.9l-1.4,1.14a76.23,76.23,0,0,0,2.12-13.69,54.17,54.17,0,0,0-1-13.82,32.33,32.33,0,0,0-5.22-12.39,19.09,19.09,0,0,0-4.57-4.45,16.33,16.33,0,0,0-5.77-2.44,15.55,15.55,0,0,0-6.17-.24,13.68,13.68,0,0,0-5.5,2.33,20.64,20.64,0,0,0-4.44,4.46,37.61,37.61,0,0,0-3.41,5.66,74.61,74.61,0,0,0-4.7,12.83q-.91,3.35-1.68,6.75-.39,1.7-.72,3.42l-.32,1.72-.16.86-.07.43,0,.22,0,.11S1435.75,636.52,1435.71,636.42Z"/><path class="cls-9" d="M1452.36,588.72c3.39-4.74,6.94-9.26,10.24-14,1.68-2.33,3.26-4.71,4.72-7.15a35.38,35.38,0,0,0,3.67-7.76,21.26,21.26,0,0,1-2.36,8.45,42.34,42.34,0,0,1-2.07,3.88c-.78,1.25-1.57,2.48-2.41,3.67a73.4,73.4,0,0,1-5.5,6.81A58,58,0,0,1,1452.36,588.72Z"/><path class="cls-9" d="M1452.36,555.66c3.39-4.74,6.94-9.26,10.24-13.95,1.68-2.33,3.26-4.71,4.72-7.15a35.38,35.38,0,0,0,3.67-7.76,21.26,21.26,0,0,1-2.36,8.45,42.34,42.34,0,0,1-2.07,3.88c-.78,1.25-1.57,2.48-2.41,3.67a73.4,73.4,0,0,1-5.5,6.81A58,58,0,0,1,1452.36,555.66Z"/><path class="cls-9" d="M1451.15,519.59c3.4-4.73,6.95-9.25,10.25-14,1.68-2.32,3.25-4.71,4.72-7.15a35.77,35.77,0,0,0,3.67-7.75,21.38,21.38,0,0,1-2.36,8.44,42.6,42.6,0,0,1-2.08,3.89c-.77,1.24-1.56,2.47-2.41,3.67a70.33,70.33,0,0,1-5.49,6.8A57.2,57.2,0,0,1,1451.15,519.59Z"/><path class="cls-12" d="M1449.05,481.12s13.71-14.12,15.33-25.24"/><path class="cls-12" d="M1441.84,449.56s11-6.31,12.62-17.43"/><path class="cls-13" d="M1424.71,429.13s12.62-14.41,13.82-23.45"/><path class="cls-12" d="M1413.28,394.86s2.11,13.53-1.8,20.44"/><path class="cls-12" d="M1383.23,394.86s9.62,7.52,13.83,19.24"/><path class="cls-9" d="M1455.23,642c-2.36,11.8-4.93,23.52-7.63,35.23s-5.55,23.36-8.58,35-6.27,23.18-9.77,34.66-7.32,22.87-11.61,34.07c4-11.32,7.44-22.8,10.65-34.34s6.06-23.2,8.79-34.87,5.22-23.39,7.59-35.14,4.61-23.52,6.62-35.3Z"/><path class="cls-9" d="M1468.28,647.12c-.76,8.65-1.85,17.2-3.11,25.75s-2.75,17-4.44,25.51c-.81,4.23-1.77,8.44-2.68,12.66s-1.92,8.41-3,12.57c-2.07,8.37-4.57,16.63-7.15,24.85,2.34-8.3,4.6-16.61,6.42-25,1-4.19,1.79-8.43,2.68-12.63s1.62-8.46,2.3-12.71q2.16-12.72,3.69-25.53c1-8.53,1.85-17.11,2.34-25.64Z"/></svg>