<svg id="Layer_1" data-name="Layer 1" xmlns="http://www.w3.org/2000/svg" viewBox="0 0 2000 1821"><defs><style>.cls-1,.cls-3{fill:#862d88;}.cls-2{fill:#500051;}.cls-2,.cls-3{fill-rule:evenodd;}.cls-4{fill:#424243;}.cls-5{fill:#343334;}.cls-6{fill:#161616;}.cls-7,.cls-9{fill:#ecb730;}.cls-8{fill:#94662f;}.cls-11,.cls-12,.cls-9{stroke:#94662f;stroke-miterlimit:10;}.cls-9{stroke-width:1.98px;}.cls-10{fill:#de8a2e;}.cls-11,.cls-12{fill:none;}.cls-11{stroke-width:1.9px;}.cls-12{stroke-width:1.47px;}</style></defs><title>Artboard 7</title><path class="cls-1" d="M1008.55,606.49a440.54,440.54,0,0,1,363.34,689.57,78,78,0,0,0-13.68,41.7c-.19,6.15-1.44,61.91,14.85,123.69a355.55,355.55,0,0,0,13.63,41.52,385.11,385.11,0,0,1-55.37-8.08c-32.49-7.25-62.33-18.81-88.7-34.35a78,78,0,0,0-68.87-5.1,440.61,440.61,0,1,1-165.2-848.95m0-78c-286.35,0-518.48,232.13-518.48,518.48s232.13,518.48,518.48,518.48A516.92,516.92,0,0,0,1203,1527.74c72.64,42.81,151.93,54.45,216.65,54.45,77.11,0,133.55-16.51,133.55-16.51-123.24-30.36-117-225.45-117-225.45A516.07,516.07,0,0,0,1527,1047c0-286.35-232.13-518.48-518.48-518.48Z"/><path class="cls-1" d="M797.32,814.56c-34.69,0-63.09,28.08-63.09,62.78a62.94,62.94,0,1,0,63.09-62.78Z"/><path class="cls-1" d="M1223,814.56a62.94,62.94,0,1,0,62.78,62.78A62.82,62.82,0,0,0,1223,814.56Z"/><path class="cls-1" d="M1010.15,960.39c-62.62,0-113.56,69.37-113.56,154.7,0,85.59,50.94,154.69,113.56,154.69s113.3-69.1,113.3-154.69C1123.45,1029.76,1072.79,960.39,1010.15,960.39Z"/><path class="cls-2" d="M1507.31,1132.44l-5.56,1.62c-52.75,15.43-47.85,125,8.49,126h8.63c12.85,11.82,29.8,19.46,49.42,21.44a236.47,236.47,0,0,0,46.12,1.8c11.68-.56,24.89-.81,35.64,4.51,5.31,2.62,10.41,6.39,15.28,9.75a278.07,278.07,0,0,0,25.31,15.73c12.9,7,28.24,11.58,42.94,8.42,11.65-2.5,21.57-9.79,26.37-20.84,13.42-30.88-15.93-53.43-46.5-66,2.27.36,4.55.67,6.82,1,14.76,1.78,43,3.18,56.61-2.17,31.57-12.47,33.66-62.55,2-76.52-12.77-5.65-38.56-6-54.18-3.72,18-8.38,37.43-23.87,44-40.82a40.59,40.59,0,0,0-19.88-50.71c-26-13-67.76,11.19-87,27.62-11.84,10.09-23.61,23.67-39.3,27.09,18-21.44,27.38-48.89,10.15-75.08-11.19-17-39.38-34.56-59-21.27-8.65,5.87-11.49,15.9-11,25.9.72,15.54-2.33,39.78-11.8,52.54a28.23,28.23,0,0,1-4.63,4.83c-11.41,9.49-23.93,12.33-35.26,24.58a54.34,54.34,0,0,0-3.67,4.39ZM1690,1162.5c-3.58,1.18-7.16,2.4-10.74,3.63a10.11,10.11,0,0,0-3.65,2.2c-.28-1.34-.58-2.67-.9-4C1680.11,1163.65,1685.11,1163.13,1690,1162.5Z"/><path class="cls-3" d="M1673.1,1232.42c30.05,4,94.86,28.3,78.91,65-6.69,15.39-28.22,24.06-57.23,8.26-39.81-21.68-36.22-33.18-80.78-31a214.7,214.7,0,0,1-44.68-1.75c-42.12-4.18-65.62-35.18-67.77-69.88-5.29-85.64,38.29-75,56.28-99.22,10.65-14.36,14.32-40.07,13.49-58.11-2.52-54.47,113,4.39,34,76.26,4.94,35-7.66,62.41-32.13,84.11,7.85-1.45,16.23-8.25,21.75-13.88,13.77,9.53,16.51,37.18,14.15,52.14,12.21-20.13,2.52-52.58-7.79-60.08,14.8-17.37,19.55-34.38,16-58.27,21.69-1.12,35-17,50.15-29.92,29.36-25,62.46-34,77.54-26.47a31.94,31.94,0,0,1,15.68,39.86c-7.16,18.59-32.81,34.72-49.06,39.82s-32.39,5.76-39,6.62c-5.47-11.26-13.8-21.33-24.61-26.94,27.94,31.43,29.37,96.51,2.84,129.14,9.83-5.67,17.35-15.12,22.34-25.66Zm100.6-6.86c25.33-10,25.79-49.91,1.73-60.55-11.1-4.9-38-5.42-52.69-2.52s-29.43,8-40.63,11.83c-6.37,2.18-4.94,43.06-1.17,44a251,251,0,0,0,40.37,8.83C1735.82,1228.94,1762.51,1230,1773.7,1225.56Z"/><path class="cls-2" d="M503.73,1143.19a54.35,54.35,0,0,0-3.66-4.4c-11.3-12.27-23.81-15.15-35.19-24.67a28.28,28.28,0,0,1-4.62-4.85c-9.44-12.78-12.42-37-11.65-52.57.49-10-2.32-20-11-25.93-19.53-13.34-47.77,4.13-59,21.12-17.31,26.14-8,53.62,10,75.11-15.69-3.47-27.42-17.08-39.23-27.2-19.23-16.49-60.91-40.82-86.95-27.86a40.6,40.6,0,0,0-20,50.66c6.49,17,25.88,32.51,43.86,40.93-15.62-2.33-41.41-2-54.2,3.58-31.65,13.89-29.7,64,1.84,76.52,13.54,5.39,41.84,4.07,56.6,2.32q3.42-.39,6.82-.93c-30.6,12.54-60,35-46.68,65.92,4.78,11.06,14.67,18.38,26.31,20.91,14.7,3.2,30.05-1.31,43-8.3a281.5,281.5,0,0,0,25.34-15.66c4.88-3.36,10-7.11,15.31-9.72,10.76-5.28,24-5,35.65-4.41a235.77,235.77,0,0,0,46.13-1.68c19.62-1.92,36.6-9.52,49.48-21.3l8.62,0c56.35-.85,61.54-110.4,8.83-126l-5.55-1.64Zm-167.52,31.44c-.33,1.33-.63,2.66-.91,4a10.3,10.3,0,0,0-3.65-2.22c-3.58-1.23-7.15-2.46-10.73-3.65C325.85,1173.4,330.85,1173.93,336.21,1174.63Z"/><path class="cls-3" d="M337.67,1242.73c5,10.55,12.46,20,22.27,25.71-26.44-32.69-24.84-97.78,3.19-129.13-10.82,5.59-19.18,15.63-24.68,26.88-6.64-.88-22.77-1.59-39-6.73s-41.85-21.34-49-40a31.94,31.94,0,0,1,15.79-39.82c15.1-7.51,48.18,1.58,77.47,26.68,15.08,12.94,28.38,28.87,50.07,30.05-3.63,23.89,1.07,40.91,15.83,58.32-10.33,7.47-20.11,39.9-7.95,60.06-2.32-15,.49-42.61,14.29-52.11,5.51,5.65,13.87,12.47,21.71,14-24.41-21.77-36.94-49.25-31.9-84.2-78.83-72.09,36.84-130.63,34.17-76.17-.89,18,2.72,43.76,13.33,58.14,17.92,24.29,61.53,13.75,56,99.38-2.23,34.69-25.82,65.63-68,69.69a215.16,215.16,0,0,1-44.68,1.64c-44.55-2.28-41,9.24-80.87,30.81-29.05,15.72-50.56,7-57.2-8.42-15.85-36.75,49-60.83,79.08-64.78Zm-48.19-5.37a251.93,251.93,0,0,0,40.39-8.73c3.77-1,5.31-41.83-1.05-44-11.19-3.86-25.9-9-40.6-11.94s-41.59-2.49-52.69,2.38c-24.09,10.57-23.74,50.47,1.56,60.55C248.27,1240,275,1239.07,289.48,1237.36Z"/><path class="cls-4" d="M1556.28,511.66c16.4-14.66,20.15-27.23,17.9-37.26-.12-12.65-10-16.68-10-16.68l-1.77-.87a51.32,51.32,0,0,0-10.39-6.6c-143-67.95-491.4-242.53-508.06-251.6-17.72-9.64-42.08-18.8-71.62-4.66-76.77,36.77-166,77.66-249.17,115-76.48,32.3-170.07,73.15-283.11,124.48l-.11.06c-10.47,5-12.07,14.42-10.3,23.56.95,8.75,5.34,20.4,16.32,35.7,12.52,17.43,51.3,36.93,96,54.58C606.34,576.82,685.54,600,747.21,608.2,867.68,624.3,1233.62,632,1233.62,632c11.81-1,29.42-3.82,50.58-8.34,0,.82,0,1.26,0,1.26,6-.52,28.14-6.33,57.57-15.51,57.49-16,123.77-39.63,173-68.38C1533.22,531,1547.93,521,1556.28,511.66Z"/><path class="cls-5" d="M659.23,448.63S677.6,526.16,648.35,622c-16.82,55.06,37.08,76.87,366.72,80.77,102.74,1.22,270.8-2,331.35-38.56,28.15-17-1.9-48.11-9.52-108.78-8.17-64.95,6.8-105.13,6.8-107.16S1047.73,333.36,659.23,448.63Z"/><path class="cls-6" d="M659.54,448.81a3.17,3.17,0,0,1,.25.63l.2.87.39,1.76.7,3.53c.44,2.36.84,4.72,1.24,7.09l1,7.12.86,7.15c.28,2.39.45,4.78.68,7.17l.32,3.59c.1,1.19.15,2.39.23,3.59l.43,7.19c.12,2.4.14,4.8.22,7.2a375.64,375.64,0,0,1-3,57.56l-.91,7.16-1.2,7.12c-.85,4.73-1.5,9.51-2.62,14.2s-2,9.42-3.15,14.1l-3.78,13.95-1,3.46c-.32,1.12-.63,2.24-.88,3.36a50.92,50.92,0,0,0-1.19,6.76,32.5,32.5,0,0,0,1,13.18,28.18,28.18,0,0,0,6.73,11.13,41.25,41.25,0,0,0,5,4.44,62,62,0,0,0,5.74,3.73c8,4.56,16.95,7.7,26,10.31s18.37,4.56,27.72,6.25c18.71,3.4,37.68,5.64,56.68,7.45,38,3.55,76.25,5.5,114.47,7.14s76.51,2.79,114.79,3.63q28.71.66,57.42.78t57.41-.76c19.13-.6,38.25-1.43,57.34-2.79s38.15-3.05,57.1-5.56c9.49-1.19,18.94-2.66,28.36-4.25s18.76-3.58,28-5.78,18.43-4.86,27.4-8a137.05,137.05,0,0,0,25.72-11.77,28.83,28.83,0,0,0,5.24-4.13,22.39,22.39,0,0,0,2.11-2.47,20.3,20.3,0,0,0,1.56-2.8,18.36,18.36,0,0,0,1.61-6.25l.09-.82v-.83c0-.56,0-1.11,0-1.67-.08-1.13-.09-2.25-.26-3.39a84.37,84.37,0,0,0-3-13.63c-1.34-4.53-2.84-9.06-4.35-13.6-3-9.09-6-18.26-8.46-27.61a238.39,238.39,0,0,1-5.75-28.47c-.35-2.4-.57-4.8-.86-7.2s-.59-4.8-.76-7.21c-.34-4.82-.81-9.63-.92-14.47a281,281,0,0,1,.24-29,242.29,242.29,0,0,1,3.37-28.89q1.29-7.17,3-14.26c.59-2.34,1.24-4.76,1.85-7l.11-.41c0-.2,0-.17,0-.17h0c-.32-.63,2.41,4.93,1.44,2.7l-.21-.1-.33-.15-.74-.33c-1-.44-2.12-.86-3.22-1.28-8.8-3.31-17.92-6.19-27-8.91s-18.33-5.21-27.57-7.55c-18.48-4.69-37.13-8.74-55.88-12.27s-37.59-6.58-56.51-9.15-37.89-4.63-56.9-6.28a1241.5,1241.5,0,0,0-228.83,1.53c-38,3.77-75.91,9.12-113.48,16.32q-28.17,5.39-56.13,11.9-14,3.3-27.87,6.88Zm-.62-.36c4.57-1.5,9.44-3,14-4.38s9.18-2.73,13.78-4.06q13.83-3.94,27.73-7.59c18.55-4.84,37.2-9.32,56-13.22,37.54-7.86,75.45-14.08,113.6-18.37A1181.49,1181.49,0,0,1,1114,397.3c19.14,1.59,38.24,3.74,57.29,6.33s38,5.68,56.87,9.38,37.64,7.88,56.25,12.72c9.31,2.43,18.57,5,27.79,7.81s18.37,5.76,27.46,9.24c1.14.45,2.28.9,3.45,1.4l.9.4.48.24.59.3c-.78-2.07,2.44,3.62,1.91,3.34,0,.29-.08.59-.13.88s-.13.62-.16.71l-.12.45c-.67,2.4-1.28,4.6-1.87,6.9q-1.74,6.86-3,13.81a243.37,243.37,0,0,0-3.49,28.13,271.54,271.54,0,0,0-.49,28.39c0,4.74.49,9.47.75,14.2.14,2.37.45,4.72.66,7.08s.44,4.73.74,7.08a235.15,235.15,0,0,0,5.25,27.88c2.26,9.21,5.06,18.31,7.92,27.44,1.43,4.57,2.87,9.16,4.16,13.83a87.55,87.55,0,0,1,2.94,14.44c.16,1.24.16,2.52.22,3.78,0,.63,0,1.27-.05,1.91l0,1-.11,1a22.75,22.75,0,0,1-2.09,7.55,24,24,0,0,1-2,3.43,25.93,25.93,0,0,1-2.59,2.94,32.11,32.11,0,0,1-6.08,4.64,140.73,140.73,0,0,1-26.6,11.72c-9.16,3.06-18.47,5.52-27.84,7.69-18.78,4.16-37.76,7.13-56.79,9.45s-38.14,4-57.26,5.31-38.27,2.3-57.42,2.94-38.31,1.15-57.47,1.39-38.32.35-57.48.26c-38.31-.17-76.63-.58-114.95-1.66-19.16-.63-38.32-1.33-57.47-2.45s-38.29-2.42-57.4-4.34-38.21-4.25-57.18-7.77c-9.48-1.77-18.91-3.92-28.24-6.64s-18.54-6.11-27.16-11.12a64.46,64.46,0,0,1-6.25-4.15,47,47,0,0,1-5.67-5.09,34.69,34.69,0,0,1-4.69-6.18,33.27,33.27,0,0,1-3.12-7.16,37.69,37.69,0,0,1-1-15.27,54.51,54.51,0,0,1,1.41-7.35c.29-1.21.64-2.39,1-3.57l1-3.45,3.93-13.72c1.19-4.61,2.2-9.26,3.33-13.89s1.94-9.31,2.87-14l1.33-7,1-7.07a389.55,389.55,0,0,0,4.25-57c0-2.39,0-4.78,0-7.16l-.21-7.16c-.05-1.19-.07-2.39-.13-3.58l-.21-3.57c-.16-2.38-.26-4.77-.47-7.15l-.63-7.14-.8-7.12c-.31-2.37-.63-4.73-1-7.09l-.58-3.54-.33-1.76-.16-.89A7.42,7.42,0,0,1,658.92,448.45Z"/><path class="cls-7" d="M1414.6,356.94s132.94-67,103.06,203l-15.46-4.13s23.18-197.72-61.84-184.84"/><path class="cls-8" d="M1414.53,356.81a76.83,76.83,0,0,1,16.61-5.93,73.08,73.08,0,0,1,17.57-2.11,62.36,62.36,0,0,1,17.62,2.49,55,55,0,0,1,16.06,7.8,63.45,63.45,0,0,1,13,12.21,84.92,84.92,0,0,1,9.71,14.93,120.15,120.15,0,0,1,6.86,16.38,167.24,167.24,0,0,1,4.6,17.1,256.17,256.17,0,0,1,4.73,34.94c.87,11.71,1.16,23.45,1.16,35.18s-.45,23.46-1,35.18-1.58,23.41-2.69,35.1l-.12,1.29-1.28-.33-15.5-4-1-.27.11-1.09c1.74-18.1,2.61-36.35,2.58-54.56a410.31,410.31,0,0,0-3.35-54.42,213.29,213.29,0,0,0-5.27-26.68,110.26,110.26,0,0,0-10-25.12A60,60,0,0,0,1477.1,384a41.68,41.68,0,0,0-10.46-8.37,37.52,37.52,0,0,0-12.69-4.37,48.94,48.94,0,0,0-13.57-.09l0-.3a47.48,47.48,0,0,1,13.73-.48,38.46,38.46,0,0,1,13.23,4,43,43,0,0,1,11.07,8.38,61.78,61.78,0,0,1,8.4,11.06,109,109,0,0,1,10.67,25.48,201.19,201.19,0,0,1,5.76,27,364,364,0,0,1,3.44,54.87q-.11,13.74-.89,27.46c-.53,9.14-1.22,18.25-2.31,27.38l-.92-1.36,15.42,4.25-1.4,1c1.38-11.62,2.64-23.27,3.52-34.94s1.38-23.38,1.48-35.09c.18-23.4-1.74-46.93-7.1-69.63q-2.09-8.49-4.89-16.75a130.2,130.2,0,0,0-6.81-16,86.15,86.15,0,0,0-9.3-14.57A61,61,0,0,0,1481,361a54.55,54.55,0,0,0-7.36-4.45,63.42,63.42,0,0,0-8-3.28,60.86,60.86,0,0,0-17-2.84,82.8,82.8,0,0,0-34,6.65Z"/><path class="cls-9" d="M1491,585.88c-14.87,93.32-53.94,198.36-53.94,198.36l25.77-34-1.13,11.27-.68,14v24.34L1478.83,764l3.38,28.41s14.22-39.23,15.1-45.54l1.13,42.38s31.78-43.28,30-205.12"/><path class="cls-10" d="M1486.34,592.49s2.44-48,28.86-40.27c22.54,6.61,14.42,48.69,14.42,48.69S1496.26,600.61,1486.34,592.49Z"/><path class="cls-8" d="M1486.16,592.57a1.35,1.35,0,0,1,0-.2V592l0-.44v-.89c0-.59,0-1.18,0-1.77,0-1.18.08-2.35.15-3.53.15-2.36.4-4.72.78-7.06a64.93,64.93,0,0,1,1.46-7,50.7,50.7,0,0,1,2.3-6.86,34.1,34.1,0,0,1,3.51-6.5,21.63,21.63,0,0,1,5.32-5.53,16.37,16.37,0,0,1,7.34-3,19.83,19.83,0,0,1,19.7,9.56,28.5,28.5,0,0,1,2.85,6.76,44.21,44.21,0,0,1,1.41,7,104.68,104.68,0,0,1,.72,14.13,132.83,132.83,0,0,1-.65,14.19l-.13,1.1-1.27.05a96,96,0,0,1-11.26-.16c-1.87-.11-3.74-.33-5.61-.55s-3.72-.47-5.58-.81a72.62,72.62,0,0,1-11-2.69,38.24,38.24,0,0,1-5.27-2.18,26.68,26.68,0,0,1-2.47-1.46c-.4-.26-.77-.57-1.14-.86S1486.5,592.9,1486.16,592.57Zm.37-.16,1.14.6c.42.19.82.41,1.24.58.84.36,1.7.66,2.56.95a52.77,52.77,0,0,0,5.3,1.36c3.57.75,7.21,1.25,10.86,1.68,1.82.19,3.65.4,5.48.56l5.51.46c3.67.25,7.36.63,11,.9l-1.4,1.14a75.33,75.33,0,0,0,2.11-13.69,53.72,53.72,0,0,0-1-13.82,32.33,32.33,0,0,0-5.22-12.39,19.09,19.09,0,0,0-4.57-4.45,16.33,16.33,0,0,0-5.77-2.44,15.74,15.74,0,0,0-6.17-.24,13.68,13.68,0,0,0-5.5,2.33,20.64,20.64,0,0,0-4.44,4.46,37.61,37.61,0,0,0-3.41,5.66,74.61,74.61,0,0,0-4.7,12.83q-.91,3.35-1.68,6.75-.39,1.7-.72,3.42l-.32,1.72-.16.86-.07.43,0,.22,0,.11S1486.57,592.51,1486.53,592.41Z"/><path class="cls-8" d="M1503.18,544.71c3.39-4.74,6.94-9.26,10.24-14,1.68-2.32,3.25-4.71,4.72-7.15a35.84,35.84,0,0,0,3.67-7.76,21.26,21.26,0,0,1-2.36,8.45,42.34,42.34,0,0,1-2.07,3.88c-.78,1.25-1.57,2.48-2.41,3.67a73.4,73.4,0,0,1-5.5,6.81A58,58,0,0,1,1503.18,544.71Z"/><path class="cls-8" d="M1503.18,511.65c3.39-4.74,6.94-9.26,10.24-13.95,1.68-2.32,3.25-4.71,4.72-7.15a35.84,35.84,0,0,0,3.67-7.76,21.26,21.26,0,0,1-2.36,8.45,43.86,43.86,0,0,1-2.07,3.89c-.78,1.24-1.57,2.47-2.41,3.66a73.4,73.4,0,0,1-5.5,6.81A58,58,0,0,1,1503.18,511.65Z"/><path class="cls-8" d="M1502,475.58c3.4-4.73,7-9.25,10.25-13.95,1.68-2.32,3.25-4.71,4.72-7.15a35.77,35.77,0,0,0,3.67-7.75,21.38,21.38,0,0,1-2.36,8.44,42.6,42.6,0,0,1-2.08,3.89c-.77,1.24-1.56,2.47-2.41,3.67a70.33,70.33,0,0,1-5.49,6.8A57.2,57.2,0,0,1,1502,475.58Z"/><path class="cls-11" d="M1499.87,437.11s13.71-14.12,15.33-25.24"/><path class="cls-11" d="M1492.66,405.55s11-6.31,12.62-17.43"/><path class="cls-12" d="M1475.52,385.12s12.63-14.41,13.83-23.45"/><path class="cls-11" d="M1464.1,350.85s2.11,13.53-1.8,20.44"/><path class="cls-11" d="M1434.05,350.85s9.62,7.52,13.83,19.24"/><path class="cls-8" d="M1506.05,598c-2.36,11.8-4.93,23.52-7.63,35.23s-5.55,23.36-8.58,35-6.27,23.18-9.77,34.66-7.32,22.87-11.61,34.07c4-11.32,7.44-22.8,10.65-34.34s6.06-23.2,8.79-34.87,5.21-23.39,7.59-35.14,4.61-23.52,6.62-35.3Z"/><path class="cls-8" d="M1519.1,603.11c-.76,8.65-1.85,17.2-3.11,25.75s-2.75,17-4.44,25.51c-.81,4.23-1.77,8.44-2.68,12.66s-1.92,8.41-3,12.57c-2.07,8.37-4.57,16.63-7.15,24.85,2.34-8.3,4.6-16.61,6.42-25,1-4.19,1.79-8.43,2.68-12.63s1.62-8.46,2.3-12.71q2.16-12.72,3.69-25.53c1-8.53,1.85-17.11,2.34-25.64Z"/></svg>