<svg id="Layer_1" data-name="Layer 1" xmlns="http://www.w3.org/2000/svg" viewBox="0 0 2000 1819.29"><defs><style>.cls-1,.cls-17,.cls-18{fill:none;}.cls-1{stroke:#bc1f80;stroke-width:79px;}.cls-1,.cls-15,.cls-17,.cls-18{stroke-miterlimit:10;}.cls-1,.cls-8,.cls-9{fill-rule:evenodd;}.cls-2{fill:#eaca9b;}.cls-3{fill:#473519;}.cls-4{fill:#f6dfb6;}.cls-5{fill:#ce3a35;}.cls-6{fill:#7a1e20;}.cls-7,.cls-9{fill:#ca0088;}.cls-8{fill:#770051;}.cls-10{fill:#424243;}.cls-11{fill:#343334;}.cls-12{fill:#161616;}.cls-13,.cls-15{fill:#ecb730;}.cls-14{fill:#94662f;}.cls-15,.cls-17,.cls-18{stroke:#94662f;}.cls-15{stroke-width:1.98px;}.cls-16{fill:#de8a2e;}.cls-17{stroke-width:1.9px;}.cls-18{stroke-width:1.47px;}</style></defs><title>Mesa de trabajo 15</title><path class="cls-1" d="M1495.15,1034.59s174.24,83.76,116.32-128.32"/><path class="cls-2" d="M1466.27,660c-20.23,6.43-49,9.95-77.83-34-28.66-43.65,10.39-95.12,62.06-110.77S1569.51,627.15,1466.27,660Z"/><path class="cls-3" d="M1466.33,660.17a83.68,83.68,0,0,1-13.72,3.24,55.37,55.37,0,0,1-14.09.24,51.29,51.29,0,0,1-13.66-3.48,60.92,60.92,0,0,1-12.34-6.89c-7.7-5.5-14.18-12.52-19.9-20l-2.11-2.84-2-2.91a62.3,62.3,0,0,1-3.75-6,56.75,56.75,0,0,1-3.06-6.45,52.42,52.42,0,0,1-2.25-6.79,57,57,0,0,1,.07-28.4,76.08,76.08,0,0,1,12.29-25.66,102.78,102.78,0,0,1,19.8-20.43,120.23,120.23,0,0,1,37.64-19.91,33.49,33.49,0,0,1,14.65-1.45,43.34,43.34,0,0,1,14,4.3,60.73,60.73,0,0,1,12.12,8,81.22,81.22,0,0,1,10.18,10.22,89.16,89.16,0,0,1,8.33,11.72,97.83,97.83,0,0,1,11,26.44,87.45,87.45,0,0,1,2.31,14.19,76.88,76.88,0,0,1-.3,14.39,63.84,63.84,0,0,1-9.54,26.87,67.22,67.22,0,0,1-20.08,19.91A101,101,0,0,1,1466.33,660.17Zm-.12-.38a94.05,94.05,0,0,0,25.15-12.21,64.79,64.79,0,0,0,18.86-20.19,61.07,61.07,0,0,0,8.07-26.12A80.4,80.4,0,0,0,1515.7,574,95.84,95.84,0,0,0,1505,548.72a85.85,85.85,0,0,0-17.53-21,59.09,59.09,0,0,0-11.26-7.61,39.76,39.76,0,0,0-12.74-4.1,29.82,29.82,0,0,0-13.16,1.14,114,114,0,0,0-13,4.8,115.69,115.69,0,0,0-23.86,14.12,99.68,99.68,0,0,0-19.48,19.66,73.54,73.54,0,0,0-12.18,24.69,55,55,0,0,0-.37,27.33,50.89,50.89,0,0,0,2.05,6.6,54.28,54.28,0,0,0,2.85,6.32,63.53,63.53,0,0,0,3.55,6l2,2.91,2,2.85c5.49,7.53,11.72,14.62,19.21,20.21a59.48,59.48,0,0,0,12.08,7c1.06.47,2.17.86,3.26,1.27s2.21.75,3.35,1a43.2,43.2,0,0,0,6.87,1.33,54.61,54.61,0,0,0,14-.24A82.29,82.29,0,0,0,1466.21,659.79Z"/><path class="cls-4" d="M1766,1031.71s-44.38-114.31-162.28-223.56-227.55-151-227.55-151,106.18,32.36,133.54-45.67c22.66-64.63-26.23-110.07-59.21-96.23,0,0,44.9-18.27,72.64,43.24s194.77,232.61,249.62,263.34,127.11,63,127.11,63,25.66,49.79-32.81,117.6C1822.46,1054.12,1766,1031.71,1766,1031.71Z"/><path class="cls-3" d="M1765.81,1031.9l-1.76-4.05-1.78-3.93c-1.21-2.61-2.45-5.2-3.71-7.79-2.52-5.16-5.14-10.28-7.82-15.37q-8.07-15.24-17-30c-12-19.64-24.65-38.82-38.39-57.23s-28.31-36.19-43.56-53.35-31.47-33.45-48.27-49.08-34.32-30.53-52.29-44.82q-3.35-2.71-6.76-5.33l-6.8-5.28-6.88-5.18c-2.29-1.73-4.59-3.45-6.92-5.13q-13.86-10.22-28.11-19.89c-19-12.85-38.45-25.15-58.45-36.45q-15-8.49-30.38-16.24-7.68-3.88-15.49-7.51c-5.2-2.41-10.46-4.77-15.74-6.89l.86-2.51A163.75,163.75,0,0,0,1394.4,660c6,1.06,12.1,1.86,18.21,2.33a142.56,142.56,0,0,0,36.56-1.62c12-2.24,23.68-6.61,33.62-13.68a69.49,69.49,0,0,0,22.91-27.91,98.16,98.16,0,0,0,6-17.27,93,93,0,0,0,2.73-18.07,76.85,76.85,0,0,0-6.33-35.6c-5-11-12.86-20.89-23.08-27.28a43.76,43.76,0,0,0-16.64-6.33,32.11,32.11,0,0,0-17.33,2.07l-1.15-2.77a35.13,35.13,0,0,1,4.72-1.42c1.58-.37,3.16-.66,4.76-.87a51.76,51.76,0,0,1,28.38,4.2,59.19,59.19,0,0,1,16,10.8,81.77,81.77,0,0,1,12.29,14.7A120.67,120.67,0,0,1,1525.2,558a145.4,145.4,0,0,0,9,16.14c6.64,10.46,14,20.52,21.64,30.37,15.3,19.68,31.57,38.65,48.28,57.2s33.92,36.67,51.49,54.42q13.19,13.3,26.67,26.3t27.29,25.64c9.21,8.41,18.58,16.65,28.14,24.62a344.43,344.43,0,0,0,29.58,22.53c2.57,1.71,5.14,3.27,7.85,4.77l8.18,4.53c5.48,3,11,6,16.49,8.85,11,5.83,22.18,11.47,33.35,17.07q33.52,16.74,67.63,32.31l.76.35.33.68a40.1,40.1,0,0,1,1.54,3.74c.43,1.23.83,2.47,1.18,3.71a71,71,0,0,1,1.72,7.55,88.69,88.69,0,0,1,1.28,15.33,105.67,105.67,0,0,1-4.73,30.16c-6,19.51-16.68,37.15-29.37,52.78l-4.88,5.78c-1.64,1.91-3.37,3.78-5.15,5.58a105.81,105.81,0,0,1-11.39,10.07,90.31,90.31,0,0,1-56.57,18.73,95.78,95.78,0,0,1-15-1.38q-3.72-.64-7.38-1.59-1.83-.46-3.63-1l-1.79-.59-.89-.31-.45-.17A4.2,4.2,0,0,1,1765.81,1031.9Zm.38-.38s.19,0,.34.1l.44.15.89.29,1.79.53c1.2.33,2.41.64,3.63.92,2.43.56,4.88,1,7.34,1.37a97.8,97.8,0,0,0,14.89,1,88.63,88.63,0,0,0,55-19.46,104.52,104.52,0,0,0,11-10c3.44-3.54,6.5-7.48,9.66-11.32,12.29-15.59,22.43-33,28-52a102.66,102.66,0,0,0,4.26-29,83.46,83.46,0,0,0-1.35-14.56,70.05,70.05,0,0,0-1.67-7.08c-.35-1.16-.73-2.3-1.13-3.43s-.89-2.27-1.34-3.19l1.09,1q-34.35-15.32-68.09-31.79-16.89-8.24-33.56-16.92c-5.57-2.88-11.09-5.86-16.62-8.82l-8.25-4.53c-2.76-1.52-5.56-3.19-8.2-4.94-5.33-3.47-10.43-7.19-15.44-11s-9.91-7.76-14.74-11.79c-9.64-8-19.06-16.35-28.32-24.81-18.53-16.9-36.48-34.4-54-52.3s-34.7-36.16-51.39-54.86q-12.51-14-24.62-28.41c-8.06-9.61-16-19.35-23.55-29.35s-15-20.2-21.62-30.92a151.06,151.06,0,0,1-9.12-16.7,117.76,117.76,0,0,0-8.71-16.25,77.94,77.94,0,0,0-11.53-14.16A55.57,55.57,0,0,0,1486.33,519a48.08,48.08,0,0,0-17.45-4.52,49.1,49.1,0,0,0-9.07.24c-1.51.18-3,.43-4.48.75a35.47,35.47,0,0,0-4.27,1.22l-1.15-2.77a35.21,35.21,0,0,1,18.92-2.05,46.19,46.19,0,0,1,17.58,6.92c10.64,6.84,18.68,17.15,23.64,28.59a79.65,79.65,0,0,1,6.21,36.53,96.75,96.75,0,0,1-2.89,18.39,98.65,98.65,0,0,1-6.17,17.56,72.19,72.19,0,0,1-23.45,28.55c-10.15,7.28-22.08,11.73-34.25,14.08a144.19,144.19,0,0,1-37,2q-9.27-.61-18.46-2.09a171.69,171.69,0,0,1-18.21-3.91l.85-2.51c5.44,2.1,10.72,4.38,16,6.73s10.5,4.8,15.69,7.32q15.59,7.54,30.76,15.88t30,17.3c9.87,6,19.63,12.15,29.21,18.59a848.72,848.72,0,0,1,108.35,86c16.86,15.78,32.91,32.42,48.21,49.71,7.59,8.7,15.06,17.5,22.2,26.57,3.64,4.48,7.1,9.1,10.64,13.66s6.93,9.22,10.27,13.93q10.15,14,19.56,28.54t18.07,29.5q8.63,15,16.42,30.44c2.57,5.15,5.11,10.33,7.48,15.58q1.79,3.93,3.5,7.91l1.67,4,.81,2,.4,1A9.06,9.06,0,0,1,1766.19,1031.52Z"/><path class="cls-3" d="M1474.31,651.59q-9.64-7.44-19.52-14.52t-20-13.84c-3.33-2.29-6.78-4.41-10.15-6.64l-5.13-3.24c-1.69-1.11-3.4-2.18-5.13-3.24-6.81-4.37-13.79-8.46-20.85-12.44l-7.28-4.1,8,2.32a91.07,91.07,0,0,0,24.3,3.67,56.67,56.67,0,0,0,12.21-1.07A32.31,32.31,0,0,0,1441.9,594a20.37,20.37,0,0,0,2.33-1.8,9.19,9.19,0,0,0,1-1c.33-.36.68-.7,1-1.07l.85-1.18a8.11,8.11,0,0,0,.79-1.21,16.85,16.85,0,0,0,1.24-2.61,27.94,27.94,0,0,0,1.59-11.52l-.27-3c-.11-1-.3-2-.44-3s-.33-2-.53-3-.37-2-.63-3a41.17,41.17,0,0,0-4.13-11,18.54,18.54,0,0,0-3.45-4.34,10.91,10.91,0,0,0-4.52-2.43c-3.31-.88-7.06.16-10.34,2a24.81,24.81,0,0,0-4.65,3.3,20.67,20.67,0,0,0-2,2,11.45,11.45,0,0,0-1.48,2.24A31.47,31.47,0,0,0,1415,564.5a22.2,22.2,0,0,0,1.38,11.26,10.87,10.87,0,0,0,3.35,4.22,11,11,0,0,0,5.11,2c3.83.53,7.87-.43,11.72-1.67a78.11,78.11,0,0,0,11.26-5l.21.34a67.67,67.67,0,0,1-10.92,6.1c-.48.21-1,.43-1.45.62l-1.5.53a29.14,29.14,0,0,1-3.07.88,21.57,21.57,0,0,1-6.49.6,13.78,13.78,0,0,1-6.47-2.07,13.17,13.17,0,0,1-4.58-5.14,24.86,24.86,0,0,1-2.22-13,34.11,34.11,0,0,1,3.42-12.65,16.37,16.37,0,0,1,1.89-2.95,25,25,0,0,1,2.32-2.48,28.76,28.76,0,0,1,5.38-4,22.62,22.62,0,0,1,6.37-2.47,15.54,15.54,0,0,1,7.11.07,14.7,14.7,0,0,1,6.26,3.48,22.54,22.54,0,0,1,4.15,5.42,44.91,44.91,0,0,1,4.29,12.21c.25,1,.43,2.09.6,3.13s.37,2.08.48,3.13.28,2.08.36,3.15l.19,3.22a29.29,29.29,0,0,1-2.37,12.78,19.54,19.54,0,0,1-1.6,2.9,9.69,9.69,0,0,1-1,1.33l-1,1.28c-.38.4-.79.76-1.18,1.15a12.51,12.51,0,0,1-1.23,1.08,24.12,24.12,0,0,1-2.68,1.85,34.24,34.24,0,0,1-12,4.15,68.21,68.21,0,0,1-12.51.82,117.92,117.92,0,0,1-12.45-.95c-4.14-.52-8.22-1.2-12.34-2.11l.69-1.78c7.32,3.56,14.65,7.19,21.71,11.27,3.57,2,7,4.19,10.47,6.33s6.81,4.48,10.15,6.83q10.05,7,19.55,14.68c6.31,5.15,12.48,10.47,18.26,16.22Z"/><path class="cls-3" d="M1503.49,621.06l-.59-.72-.65-.76-1.32-1.51-2.65-3L1493,609c-3.5-4-7-8.11-10.45-12.21-6.87-8.23-13.63-16.56-20.11-25.14-3.26-4.27-6.4-8.65-9.47-13.11-1.43-2.32-3-4.53-4.22-7a55.24,55.24,0,0,0-3.79-6.67,14.51,14.51,0,0,0-2.37-2.62,11.43,11.43,0,0,0-2.9-1.73,10.44,10.44,0,0,0-3.35-.65,15.21,15.21,0,0,0-3.57.43,25.89,25.89,0,0,0-7,3.06,47.13,47.13,0,0,0-6.4,4.67l-.3-.26a33.89,33.89,0,0,1,5.65-5.9,24.94,24.94,0,0,1,7.22-4.26,15.78,15.78,0,0,1,4.31-.94,13.62,13.62,0,0,1,4.56.51,13.78,13.78,0,0,1,4.11,2.1,19,19,0,0,1,3.2,3.13,47.45,47.45,0,0,1,4.31,7.17l.9,1.73c.31.57.67,1.13,1,1.7l2,3.42c1.41,2.24,2.76,4.52,4.24,6.73s2.93,4.45,4.48,6.62c6.1,8.75,12.53,17.3,19.07,25.77q4.88,6.38,9.84,12.68l5,6.3,2.48,3.16,1.23,1.59.62.8c.21.27.42.59.62.88Z"/><path class="cls-2" d="M1887.34,875.45l13.57-28.34S1824.8,851,1715.72,769.5C1715.72,769.5,1788,852.51,1887.34,875.45Z"/><path class="cls-3" d="M1887.25,875.27l6.35-14.51c2.08-4.79,4.16-9.48,6.27-14.15l1.1,1.65a106.33,106.33,0,0,1-12.9-.35c-4.27-.39-8.53-.83-12.74-1.56s-8.42-1.48-12.61-2.33c-2.11-.4-4.17-.95-6.24-1.48l-6.22-1.57c-4.13-1.08-8.18-2.44-12.27-3.68-2-.59-4-1.34-6-2.08l-6-2.22c-4-1.39-7.91-3.19-11.83-4.87s-7.84-3.33-11.63-5.29L1791,817.2l-11.22-6.08-5.62-3c-1.89-1-3.68-2.13-5.52-3.19-3.66-2.17-7.34-4.29-11-6.42l-2.76-1.6-2.69-1.7-5.39-3.41L1736,785l-21.08-14.4,1.89-2c5.76,6.15,11.84,12.12,18.09,17.84s12.63,11.34,19.2,16.71,13.3,10.53,20.14,15.54,13.83,9.81,21,14.4a361.84,361.84,0,0,0,44.44,24.64c3.82,1.84,7.74,3.47,11.63,5.17,2,.82,3.94,1.57,5.91,2.36l3,1.17c1,.38,2,.71,3,1.08l6,2.16,6.07,2,3,1,3,.86Zm.18.36-6.3-1.31-3.22-.7-3.1-.81-6.21-1.62-6.14-1.87c-1-.32-2-.61-3.06-1l-3-1c-2-.71-4-1.38-6.06-2.12-4-1.54-8-3-12-4.72s-7.83-3.45-11.73-5.25c-1.94-.9-3.84-1.88-5.76-2.83L1818,851l-2.84-1.5c-7.61-3.94-15-8.32-22.25-12.87a364.23,364.23,0,0,1-41.36-30.43,345.71,345.71,0,0,1-36.88-35.74l-8.53-9.76,10.42,7.72c6.81,5,13.58,10.14,20.44,15.11l10.57,7.08,5.31,3.5c.88.58,1.76,1.18,2.66,1.74l2.74,1.61c3.65,2.15,7.3,4.31,11,6.42,1.85,1,3.64,2.18,5.53,3.13l5.67,2.89c3.78,1.91,7.54,3.86,11.38,5.67l11.62,5.11c3.84,1.79,7.82,3.23,11.76,4.77s7.87,3.09,11.89,4.41l6,2.07c2,.68,4,1.44,6,2l6.05,1.84,3,.94,1.51.47,1.53.41c8.13,2.2,16.33,4.25,24.63,5.69,4.14.8,8.32,1.34,12.49,1.88a120.89,120.89,0,0,0,12.52.83h1.94l-.83,1.66c-2.42,4.78-4.86,9.54-7.31,14.2Z"/><path class="cls-5" d="M1647.51,862.13s50.54-23.65,78.18-88.13c0,0-51.64-37.57-84.75-76.66,0,0-20.65,59.95-71.66,82.35C1569.28,779.69,1607.07,807,1647.51,862.13Z"/><path class="cls-6" d="M1647.57,861.87c-.12-.07.11-.11.23-.2l.41-.23.8-.47,1.6-1,3.15-2c2.09-1.37,4.13-2.8,6.14-4.26,4-3,7.86-6.09,11.62-9.33a187.45,187.45,0,0,0,20.78-21.21c1.62-1.87,3.12-3.83,4.67-5.76s3-3.92,4.42-5.94c2.91-4,5.6-8.14,8.18-12.34a205.61,205.61,0,0,0,13.5-26.29l.94,3.43c-7.74-5.74-15.28-11.61-22.64-17.76s-14.61-12.39-21.72-18.81l-5.3-4.86c-1.76-1.62-3.47-3.3-5.21-5l-2.59-2.49L1664,724.9c-1.69-1.71-3.39-3.39-5-5.12-6.67-6.89-13-14.11-19.1-21.52l2.44-.46a180.32,180.32,0,0,1-12.64,25.2c-2.41,4-4.9,8-7.59,11.82s-5.46,7.62-8.43,11.25-6.05,7.18-9.31,10.57a129.2,129.2,0,0,1-10.28,9.7,109,109,0,0,1-23.87,15.38l.41-3.83c4,2.88,7.68,5.82,11.33,9s7.23,6.27,10.68,9.57c1.76,1.63,3.47,3.3,5.17,5s3.41,3.34,5.08,5.06c3.36,3.39,6.58,6.92,9.83,10.42,1.59,1.77,3.18,3.55,4.75,5.35l2.35,2.7,2.29,2.74,4.58,5.49,4.42,5.63c3,3.7,5.73,7.61,8.58,11.43l1,1.44,1,1.42,1.94,2.87Zm-.13.52-9.28-11-4.62-5.41-2.31-2.7-2.36-2.66c-6.22-7.15-12.7-14.05-19.22-20.9-3.32-3.37-6.62-6.75-10-10-1.66-1.68-3.37-3.32-5.09-4.94s-3.41-3.25-5.17-4.84c-6.95-6.34-14.06-12.67-21.38-18.38l-3.07-2.39,3.47-1.44A108.32,108.32,0,0,0,1592.18,764a128.52,128.52,0,0,0,10.58-8.94,131.83,131.83,0,0,0,9.53-10.1,151.66,151.66,0,0,0,15.82-22.87c2.28-4,4.42-8.16,6.32-12.39a137.62,137.62,0,0,0,5.16-12.84l.78-2.3,1.66,1.84c6.36,7.06,13,13.82,19.88,20.39s13.87,13,21,19.21,14.46,12.33,21.89,18.27,14.91,11.82,22.52,17.41l1.85,1.36-.9,2.07A195.44,195.44,0,0,1,1714,802a180.69,180.69,0,0,1-18.5,24.06c-1.69,1.89-3.45,3.7-5.21,5.51s-3.61,3.54-5.48,5.24q-5.58,5.13-11.56,9.78a146.71,146.71,0,0,1-12.38,8.65c-2.14,1.33-4.3,2.62-6.5,3.83-1.1.61-2.21,1.19-3.34,1.75l-1.7.83-.85.39-.43.19A2.09,2.09,0,0,1,1647.44,862.39Z"/><path class="cls-7" d="M1233.3,1128.47c-10.19-11.14-26.89-9.85-38.65,1.37-147.31,145.69-367.08,145.69-514.38,0-11.45-11.22-28.47-12.51-38.39-1.37-10.06,10.93-7.91,31.74,5.35,44.82,44.06,43.71,94.24,75.75,146.9,96.23,5.11,119.43,67.4,194.4,143.52,194.4,75.75,0,138-75,143.14-194.4,53-20.48,102.84-52.53,147.26-96.23C1241.32,1160.22,1243.09,1139.4,1233.3,1128.47Z"/><path class="cls-7" d="M1181,863.84a72,72,0,1,0,71.78,72A72,72,0,0,0,1181,863.84Z"/><path class="cls-7" d="M743.55,900.19l-81.28,14.43c-16.74,2.9-27.83,18-25.28,33.61,2.91,15.72,18.39,26,35.07,23L753.71,957c16.56-3,27.82-18,24.91-33.61C776.08,907.61,760.28,897.29,743.55,900.19Z"/><path class="cls-8" d="M1708.84,914.14a46.54,46.54,0,0,1-7.37,18.75c-21.3,31.3-69.27,26-100.09,10.44-29.23-14.7-61.94-47.81-56.24-84.23a48.24,48.24,0,0,1,2.21-8.7c-22.49-52.64-10.56-122.27,33.06-153.36a69.54,69.54,0,0,1,1.83-12.78c6.72-28.23,20.46-55.62,46.37-68.09,25.36-12.21,52.55-6.21,71.26,18.65a51.31,51.31,0,0,1,10.22,26.58l.28.19c21.91-3.74,43.18,5.32,57.56,27.12a51.25,51.25,0,0,1,8.55,27.39c16.35,1.68,31.45,10.9,42.5,27.65,28.51,43.25-21.65,110.84-62.28,117.54C1744,887.24,1728.28,904.58,1708.84,914.14Z"/><path class="cls-9" d="M1637.64,909c34.69-7.49,44.76-44.62,27.21-78.34,6.5,63.75-28.72,82.14-63.26,64.83-73.36-36.77-70.51-159.8-7-194.12,28.11-15.18,85.58-22.77,96,22.11,11.95,53.34-43.05,89.71-81,61.22,21.75,25.89,39.78,27.54,58.87,14.09,6.51,5,16.2,7.77,26.6,10.39,2.24,28.14,23.81,49.49,49.26,52.25-20.2,38.56-47.68,59.26-106.76,47.57Zm160.19-89.21c17.6-23.67,25.88-49.95,12.61-70.08-9.73-14.75-22.13-21.43-34.7-22.6-2.57,16.45-11.23,32.31-20.51,44.79a106.68,106.68,0,0,1-12.59,14.22,75,75,0,0,1-10.5,9.27,57.52,57.52,0,0,1-26.53,10.87c1.18,34.9,38.54,58.7,71.25,34.92a66.26,66.26,0,0,0,9.35-8.29,96.52,96.52,0,0,0,11.62-13.1Zm-51-55c17.6-23.67,25.88-50,12.6-70.08-13.52-20.51-32.21-25.44-49.35-21.59-1.26,13.25-6.34,26.37-12.62,37.79a61.67,61.67,0,0,1,3.47,10.66c6.15,27.43-3.33,53.85-21.7,69.57,13.46,6.91,30.6,6.69,46.63-5a65.65,65.65,0,0,0,9.34-8.29,96.58,96.58,0,0,0,11.63-13.1Zm-154.85-74.63c29-14.51,76.79-19.37,99,9.6,10.36-21.05,12.85-42.35.83-58.33-17.1-22.73-39.81-24-58.3-15.07-23.2,11.16-35.06,36.35-41,61.25C1592.26,688.42,1592.1,689.26,1591.93,690.11Z"/><path class="cls-7" d="M942,585.66a499.24,499.24,0,0,1,411.76,781.47,88.31,88.31,0,0,0-15.49,47.25c-.22,7-1.63,70.17,16.82,140.18a402.23,402.23,0,0,0,15.45,47.06,438.94,438.94,0,0,1-62.75-9.16c-36.82-8.22-70.63-21.32-100.52-38.93a88.4,88.4,0,0,0-78-5.78A499.33,499.33,0,1,1,942,585.66m0-88.4c-324.51,0-587.58,263.07-587.58,587.58S617.44,1672.42,942,1672.42a585.82,585.82,0,0,0,220.39-42.74c82.32,48.52,172.18,61.71,245.52,61.71,87.39,0,151.35-18.71,151.35-18.71-139.66-34.41-132.64-255.49-132.64-255.49a584.84,584.84,0,0,0,103-332.35c0-324.51-263.07-587.58-587.58-587.58Z"/><path class="cls-10" d="M163.77,745.83c-21.41-7.13-30.06-17.44-32-27.8-5-11.95,2.59-19.76,2.59-19.76l1.31-1.54a53.19,53.19,0,0,1,7.1-10.44c107-122.17,363.91-428.37,375.91-443.69,12.76-16.29,32-34.83,65.53-33.54,87.24,3.36,187.85,5.56,281.4,6.84,85.15-.71,189.89-.36,317.21,2h.13c11.9.47,17.24,8.67,19.29,18,2.67,8.62,3.28,21.38-.84,40.25-4.68,21.51-33.26,55.66-68.14,90.46-48.6,53.91-113.75,107.94-168.44,140.79-106.87,64.2-448.28,220.38-448.28,220.38-11.51,3.9-29.25,8.38-51,12.74.33.78.51,1.18.51,1.18-5.84,2-29.07,5.5-60.51,8.84-60.65,8.32-132.66,13.07-190.74,6C193.34,754.65,175.44,751.25,163.77,745.83Z"/><path class="cls-11" d="M982.66,321.33s14.26,80.47,80.8,158.74c38.25,45-3.62,87.47-312.38,225.34-96.23,43-255.77,108.32-327.66,98.57-33.41-4.52-17.79-46.06-35.31-106.29-18.75-64.47-49.2-96.21-50-98.12S570,370.94,982.66,321.33Z"/><path class="cls-12" d="M982.87,321a7.53,7.53,0,0,1,.32,1.11l.21.9.41,1.79.9,3.57c.62,2.37,1.28,4.73,1.95,7.08l2.15,7,2.31,7c.77,2.32,1.65,4.61,2.47,6.92l1.24,3.45c.43,1.15.9,2.28,1.35,3.42l2.7,6.83c.93,2.27,1.93,4.5,2.89,6.75A398.91,398.91,0,0,0,1029,428.82l3.86,6.23,4.1,6.07c2.78,4,5.39,8.16,8.4,12s5.79,7.87,8.78,11.72l9.29,11.32,2.34,2.84c.82,1,1.62,1.94,2.39,2.95a55.75,55.75,0,0,1,4.31,6.35,38.52,38.52,0,0,1,5.27,14.75,33.45,33.45,0,0,1,0,8,35.91,35.91,0,0,1-1.89,7.71,50.11,50.11,0,0,1-3.26,7.09,68.61,68.61,0,0,1-4.2,6.45c-6.07,8.21-13.43,15.1-21,21.5s-15.67,12.22-23.88,17.74c-16.42,11-33.44,21-50.66,30.59s-34.69,18.63-52.27,27.45-35.33,17.31-53.11,25.7c-35.63,16.62-71.53,32.62-107.53,48.38q-27,11.83-54.22,23.16T651,748.93q-27.44,10.8-55.24,20.61c-18.53,6.57-37.21,12.72-56.08,18.3s-37.94,10.49-57.31,14.21c-9.7,1.78-19.47,3.24-29.34,4.09a143.45,143.45,0,0,1-29.8-.21,33.77,33.77,0,0,1-7.61-1.89,27.1,27.1,0,0,1-3.62-1.71,24.82,24.82,0,0,1-3.27-2.41,23.23,23.23,0,0,1-5-6.25l-.5-.86-.42-.89c-.28-.59-.58-1.18-.83-1.78-.46-1.21-1-2.41-1.32-3.64a89,89,0,0,1-3.11-14.78c-.69-4.92-1.2-9.83-1.71-14.71-1-9.77-2.09-19.47-3.71-29.07a240.35,240.35,0,0,0-6.41-28.39c-.67-2.33-1.46-4.64-2.18-7s-1.43-4.65-2.26-6.93c-1.68-4.57-3.19-9.2-5.07-13.68a277.71,277.71,0,0,0-12-26.54,250.46,250.46,0,0,0-14.74-25.07q-4-6-8.46-11.78c-1.5-1.92-3-3.76-4.57-5.74l-.3-.37a7.38,7.38,0,0,1-.43-.6c-.17-.25-.33-.51-.49-.77-.37.47.33-6,.44-3.83.16-.2.31-.39.43-.52l.36-.41.68-.75c.89-.94,1.78-1.83,2.67-2.71,7.14-7,14.56-13.48,22.09-19.88s15.21-12.59,23-18.66q23.33-18.2,47.77-34.87t49.73-32q25.31-15.28,51.36-29.27a1212.11,1212.11,0,0,1,218-90.35c37.66-11.5,75.88-21.09,114.42-29,19.27-4,38.65-7.36,58.08-10.36q14.58-2.22,29.19-4.15c4.88-.63,9.75-1.24,14.64-1.79S978,321.48,982.87,321Zm-.43.57L953.56,326q-14.55,2.27-29,4.86-29,5.21-57.7,11.62c-38.3,8.51-76.16,18.89-113.5,30.81a1273.7,1273.7,0,0,0-216.08,91.69q-25.85,13.95-51,29.08t-49.48,31.62Q412.42,542.08,389.12,560q-11.61,9-22.88,18.34c-7.47,6.27-14.88,12.69-21.83,19.39-.86.84-1.71,1.69-2.51,2.52l-.56.61-.25.28-.16.19c0,2.43.29-3.75.25-3l0,0s0,0,.11.15l.27.34c1.48,1.85,3.07,3.86,4.58,5.82,3,4,5.89,8.05,8.65,12.2a246.22,246.22,0,0,1,14.92,25.81,283.18,283.18,0,0,1,12.05,27.22c1.87,4.59,3.38,9.32,5,14,.81,2.34,1.47,4.73,2.21,7.1s1.47,4.72,2.13,7.12a249,249,0,0,1,6.18,29.13c1.5,9.8,2.41,19.66,3.27,29.44.44,4.89.86,9.76,1.45,14.58a85.17,85.17,0,0,0,2.71,14.07c.3,1.14.75,2.2,1.13,3.3.22.53.47,1,.7,1.56l.36.78.42.74a18.71,18.71,0,0,0,4.06,5.24,19.71,19.71,0,0,0,2.62,2,22.59,22.59,0,0,0,3,1.48A29.67,29.67,0,0,0,423.7,802a139.88,139.88,0,0,0,29,.61c9.72-.7,19.41-2,29-3.63s19.22-3.72,28.76-6,19-4.8,28.42-7.54c18.87-5.36,37.51-11.53,56-18S631.85,754,650.1,746.77s36.36-14.83,54.37-22.64,35.9-15.9,53.74-24.1q53.55-24.56,106.6-50.12c35.33-17.1,70.52-34.5,104.88-53.32,17.15-9.44,34.1-19.28,50.33-30.09,8.12-5.4,16-11.06,23.56-17.18s14.6-12.74,20.28-20.31a61.94,61.94,0,0,0,3.9-5.85,43.81,43.81,0,0,0,2.94-6.25,28.94,28.94,0,0,0,1.81-13.24,33.33,33.33,0,0,0-4.43-12.85,52.83,52.83,0,0,0-3.87-5.89c-.7-.95-1.45-1.88-2.21-2.8l-2.3-2.88-9.23-11.59c-3-3.94-5.81-8-8.71-12s-5.53-8.18-8.25-12.29l-4-6.21-3.77-6.38a384.59,384.59,0,0,1-26.26-53c-.91-2.29-1.86-4.56-2.72-6.87L994.2,364c-.41-1.16-.85-2.31-1.25-3.48L991.79,357c-.75-2.34-1.57-4.66-2.28-7l-2.11-7.08-1.91-7.13c-.6-2.39-1.18-4.78-1.72-7.18L983,325l-.35-1.81-.18-.9A4,4,0,0,1,982.44,321.61Z"/><path class="cls-13" d="M234.17,542.49s-152.43-9-14.38,233.08l12.87-10.17s-102.31-176.72-17-199.2"/><path class="cls-14" d="M234.16,542.64a84.93,84.93,0,0,0-34.75,7.56,62.29,62.29,0,0,0-14.87,9.61,64.58,64.58,0,0,0-6.17,6.32,56.79,56.79,0,0,0-5.12,7.19,62.87,62.87,0,0,0-6.85,16.25,88.36,88.36,0,0,0-2.83,17.5,132.64,132.64,0,0,0,.1,17.83q.72,8.91,2.21,17.76c4.21,23.56,12,46.49,21.68,68.44q7.29,16.49,15.67,32.44c5.59,10.64,11.5,21.09,17.53,31.48l-1.67-.33,12.8-10.28-.31,1.62c-4.73-8.15-9.1-16.45-13.31-24.85s-8.22-16.89-12-25.48a373.47,373.47,0,0,1-19.1-53.05,207,207,0,0,1-5.56-27.72,111.91,111.91,0,0,1-.33-28.33,63,63,0,0,1,3.4-13.83,44.25,44.25,0,0,1,7-12.39,39.46,39.46,0,0,1,10.81-9.18,48.48,48.48,0,0,1,13.12-5.14l.08.29a50.1,50.1,0,0,0-12.75,5.6,38.69,38.69,0,0,0-10.18,9.28,43.17,43.17,0,0,0-6.44,12.14,62.57,62.57,0,0,0-2.93,13.49,113.4,113.4,0,0,0,.83,27.72,217.85,217.85,0,0,0,5.89,27.27,421.87,421.87,0,0,0,19,52.61c7.38,17.15,15.63,34,24.64,50.31l.53,1-.84.65-12.95,10.07-1.05.82-.63-1.14c-5.8-10.55-11.44-21.18-16.82-32s-10.51-21.65-15.29-32.7-9.28-22.21-13.23-33.59a262.49,262.49,0,0,1-9.75-34.83,171.89,171.89,0,0,1-2.62-18,121.6,121.6,0,0,1-.21-18.21,87,87,0,0,1,3.06-18,65.06,65.06,0,0,1,7.29-16.79,55.84,55.84,0,0,1,11.94-13.87,63.8,63.8,0,0,1,15.56-9.52,74.73,74.73,0,0,1,17.4-5.17,79.12,79.12,0,0,1,18-1.19Z"/><path class="cls-15" d="M255.43,789.13C307.43,870.93,387,953.92,387,953.92l-38.12-21.55,5.65,10.15,6.33,12.88,9.91,22.92-31.36-26.49,8.38,28.11S318.4,948.81,315,943.22l16.19,40.36s-47.54-27.81-111.73-180.92"/><path class="cls-16" d="M262.51,793.46S240.67,749.24,219,767.29c-18.53,15.4,6.24,51.71,6.24,51.71S256.48,805.14,262.51,793.46Z"/><path class="cls-14" d="M262.31,793.46c0,.11,0,0,0,0l-.06-.09-.12-.19-.25-.38-.5-.74-1-1.5c-.68-1-1.37-2-2.07-2.93q-2.1-2.89-4.31-5.67a77.77,77.77,0,0,0-9.64-10.19,40.48,40.48,0,0,0-5.52-4,21.65,21.65,0,0,0-6-2.4,14.07,14.07,0,0,0-6.16.05,16.3,16.3,0,0,0-5.73,2.75,17,17,0,0,0-4.45,4.66,19.32,19.32,0,0,0-2.48,6.07,33.12,33.12,0,0,0,.14,13.8,56,56,0,0,0,4.68,13.42,79,79,0,0,0,7.56,12.05l-1.74-.5,10-5.33,5-2.67c1.66-.9,3.29-1.84,4.94-2.77,3.25-1.89,6.47-3.84,9.54-6,1.52-1.08,3-2.21,4.43-3.44.68-.63,1.37-1.26,2-1.94.33-.34.61-.71.93-1.06Zm.4,0c-.18.44-.39,1-.63,1.42s-.46.87-.73,1.28a26.58,26.58,0,0,1-1.73,2.37,38.47,38.47,0,0,1-4.08,4.19,75.34,75.34,0,0,1-9.27,7c-1.61,1.07-3.26,2.06-4.92,3s-3.34,1.93-5,2.8a100.85,100.85,0,0,1-10.54,4.74l-1.18.46-.55-1a134,134,0,0,1-6.41-13.08,106.94,106.94,0,0,1-5.07-13.59,45.7,45.7,0,0,1-1.52-7.19,29.17,29.17,0,0,1-.06-7.53,20.85,20.85,0,0,1,14.62-17,16.83,16.83,0,0,1,8.1-.21,22.37,22.37,0,0,1,7.24,3,35.54,35.54,0,0,1,5.95,4.69,52.62,52.62,0,0,1,5,5.51,68.87,68.87,0,0,1,4.23,6c1.31,2,2.51,4.16,3.61,6.31.55,1.09,1.08,2.17,1.59,3.27.25.55.51,1.1.74,1.66l.35.83.17.43.08.21,0,.1A1.3,1.3,0,0,1,262.71,793.46Z"/><path class="cls-14" d="M227.21,755.32a59.53,59.53,0,0,1-8.38-3.15,76,76,0,0,1-7.94-4.17c-1.28-.78-2.52-1.62-3.76-2.47s-2.43-1.77-3.53-2.81a22,22,0,0,1-5.67-7,36,36,0,0,0,6.59,5.82q3.57,2.57,7.36,4.82C216.89,749.46,222.08,752.26,227.21,755.32Z"/><path class="cls-14" d="M213.76,724.2a60.43,60.43,0,0,1-8.39-3.15,75,75,0,0,1-7.93-4.18c-1.28-.78-2.53-1.61-3.77-2.47s-2.43-1.77-3.53-2.81a21.83,21.83,0,0,1-5.67-7,36,36,0,0,0,6.59,5.82q3.57,2.55,7.36,4.81C203.44,718.33,208.62,721.14,213.76,724.2Z"/><path class="cls-14" d="M200.21,689.75a59.19,59.19,0,0,1-8.39-3.15,73.07,73.07,0,0,1-7.93-4.17c-1.28-.78-2.53-1.62-3.77-2.47s-2.43-1.77-3.53-2.81a22,22,0,0,1-5.67-7,36.33,36.33,0,0,0,6.59,5.82q3.57,2.57,7.36,4.82C189.89,683.89,195.07,686.69,200.21,689.75Z"/><path class="cls-17" d="M186.53,652.68s-18.66-7.72-24.71-17.53"/><path class="cls-17" d="M180.47,620s-12.93-1.46-19-11.27"/><path class="cls-18" d="M188.28,593.82s-17.75-8.43-22.56-16.45"/><path class="cls-17" d="M185.09,556.91s3.52,13.59,10,18.51"/><path class="cls-17" d="M213.38,544.68s-6,11-5.18,23.73"/><path class="cls-14" d="M249.56,804.38c6.7,10.27,13.61,20.45,20.62,30.54s14.16,20.1,21.46,30,14.78,19.65,22.47,29.23,15.67,19,24,28c-8.59-8.81-16.79-18-24.79-27.36s-15.69-19-23.29-28.66-15-19.54-22.31-29.45-14.49-19.92-21.51-30.07Z"/><path class="cls-14" d="M238.7,815.41c4,7.82,8.23,15.56,12.66,23.18s9.06,15.14,13.88,22.53c2.37,3.72,4.88,7.36,7.33,11s5,7.27,7.67,10.8c5.15,7.18,10.66,14.09,16.24,20.94-5.77-6.69-11.48-13.45-16.84-20.49-2.75-3.46-5.33-7.06-8-10.6S266.47,865.62,264,862q-7.56-10.92-14.56-22.21c-4.67-7.54-9.17-15.14-13.4-23Z"/></svg>