<svg id="Layer_1" data-name="Layer 1" xmlns="http://www.w3.org/2000/svg" viewBox="0 0 2000 1821"><defs><style>.cls-1,.cls-4{fill:#ebb530;}.cls-12,.cls-13,.cls-2{fill:none;}.cls-2{stroke:#e2b138;stroke-width:78px;}.cls-10,.cls-12,.cls-13,.cls-2{stroke-miterlimit:10;}.cls-2,.cls-3,.cls-4{fill-rule:evenodd;}.cls-3{fill:#876a16;}.cls-5{fill:#424243;}.cls-6{fill:#343334;}.cls-7{fill:#161616;}.cls-10,.cls-8{fill:#ecb730;}.cls-9{fill:#94662f;}.cls-10,.cls-12,.cls-13{stroke:#94662f;}.cls-10{stroke-width:1.98px;}.cls-11{fill:#de8a2e;}.cls-12{stroke-width:1.9px;}.cls-13{stroke-width:1.47px;}</style></defs><title>Artboard 6</title><path class="cls-1" d="M996.52,637.18a440.54,440.54,0,0,1,363.34,689.57,78,78,0,0,0-13.67,41.7c-.2,6.15-1.44,61.92,14.84,123.69a356.34,356.34,0,0,0,13.63,41.53,388.36,388.36,0,0,1-55.37-8.08c-32.48-7.26-62.32-18.82-88.69-34.36a78,78,0,0,0-68.88-5.1,440.61,440.61,0,1,1-165.2-849m0-78C710.17,559.18,478,791.31,478,1077.66s232.13,518.49,518.48,518.49A517,517,0,0,0,1191,1558.43c72.63,42.81,151.92,54.45,216.64,54.45,77.11,0,133.55-16.51,133.55-16.51-123.23-30.36-117-225.45-117-225.45A516,516,0,0,0,1515,1077.66c0-286.35-232.13-518.48-518.48-518.48Z"/><path class="cls-2" d="M1471.65,1193.53s103.78,59.63,116.22-66.2"/><path class="cls-1" d="M781.78,931.92a63.87,63.87,0,1,0,63.8,63.87A63.8,63.8,0,0,0,781.78,931.92Z"/><path class="cls-1" d="M1214.2,931.92a63.87,63.87,0,1,0,64,63.87A63.89,63.89,0,0,0,1214.2,931.92Z"/><path class="cls-1" d="M1256,1200.78c-147.74,146-368.32,146-516.09,0-11.85-11.63-13.6-30.12-4.73-40s23.9-8.75,34.18,1.37c130.91,129.47,326.37,129.47,457.27,0,10.29-10.12,25.3-11.11,34.18-1.37S1267.78,1189.16,1256,1200.78Z"/><path class="cls-3" d="M1533.52,875.18c2.51-73.34,85.93-69.83,92.4-3,1.58,16.33-9.14,44.94-14.45,60.82,29.3-17.93,61.49-2.63,61.53,31.63,42.06-6.13,68.31,40.83,29.21,84.87-6.86,7.72-6.62,3.88-7.74,15-1.46,26.34-14.12,46.22-33,59.61l-3.38,15.76c-22.25,54.71-137.5,31.71-132.8-27l.61-7.64c-21.65-33.36-24-81.48,1.3-112.36C1531.71,983.13,1533,889.79,1533.52,875.18Z"/><path class="cls-4" d="M1617.1,1133.48c24.07-15.67,22.73-45.5,1.64-64.7,20,44.18-1.86,67.9-31.71,65.59-63.41-4.9-90.55-94.71-51.37-138.32,17.34-19.29,58.35-41.77,76.8-12.4,21.59,35-10.74,77.6-45.77,68.21,22.37,12.3,44.67.54,55.7-14.83,4.67,26.88,32.87,47.69,63.63,26.19-5.32,36.2-20.16,60.87-68.92,70.26Zm93.53-114c10-28.78-11.5-51.18-38.36-46-3.52,22.93-20.46,53-42.31,61.94a37.11,37.11,0,0,0,13.66,23.31c22.31,18.63,57.64-12.27,67-39.21Zm-76.45,3.79c15.7-11.1,28.2-35.5,30-54.31,4.17-42.5-46.1-47.68-68.18-7.07,23.23,5,34.4,31.44,31.22,53.69,0,0-1.6,10.47-1.77,11.52a25.72,25.72,0,0,0,8.69-3.83Zm-92.12-147.79c-1.83,53.27-1.15,81.27-4.56,106.9,13.38-11.47,31.89-21,49-21.37.56,0,.52,0,.77-.49a74.11,74.11,0,0,1,12.21-17.71c7.8-26.1,19.49-54.23,18-69.8C1611.94,816.5,1544.2,812.9,1542.06,875.48Z"/><path class="cls-5" d="M1551.25,556.37c16.4-14.67,20.16-27.24,17.91-37.27-.12-12.64-10-16.68-10-16.68l-1.77-.87A51,51,0,0,0,1547,495c-143-68-491.4-242.53-508.06-251.6-17.72-9.65-42.07-18.81-71.62-4.66-76.77,36.76-166,77.65-249.17,115C641.7,386,548.12,426.85,435.08,478.18l-.12.06c-10.47,5-12.07,14.43-10.3,23.57.95,8.75,5.35,20.4,16.33,35.69,12.51,17.44,51.3,36.94,96,54.59,64.35,29.44,143.55,52.58,205.21,60.82,120.47,16.09,486.41,23.76,486.41,23.76,11.81-1,29.42-3.83,50.58-8.35,0,.83,0,1.26,0,1.26,6-.51,28.13-6.33,57.56-15.51,57.49-16,123.77-39.63,173-68.38C1528.2,575.7,1542.91,565.74,1551.25,556.37Z"/><path class="cls-6" d="M654.2,493.34s18.37,77.53-10.88,173.32c-16.82,55.06,37.08,76.87,366.73,80.78,102.73,1.22,270.79-2,331.34-38.56,28.15-17-1.89-48.11-9.52-108.79-8.17-64.94,6.8-105.13,6.8-107.16S1042.7,378.06,654.2,493.34Z"/><path class="cls-7" d="M654.51,493.52a3.17,3.17,0,0,1,.26.62l.19.88.39,1.75.7,3.54c.44,2.35.85,4.72,1.24,7.09l1.05,7.12.85,7.15c.28,2.38.45,4.78.68,7.17l.32,3.58c.1,1.2.16,2.4.23,3.6l.43,7.19c.13,2.4.15,4.8.22,7.2a374.19,374.19,0,0,1-3,57.55l-.9,7.16-1.2,7.12c-.85,4.74-1.51,9.52-2.63,14.2s-2,9.42-3.15,14.1l-3.78,14-.94,3.47c-.32,1.11-.63,2.23-.89,3.36a51.06,51.06,0,0,0-1.19,6.75,32.55,32.55,0,0,0,1,13.19,28.19,28.19,0,0,0,6.73,11.12,43.8,43.8,0,0,0,5,4.45,61.4,61.4,0,0,0,5.75,3.72c8,4.56,16.94,7.7,26,10.32s18.37,4.56,27.72,6.25c18.71,3.4,37.68,5.64,56.68,7.44,38,3.55,76.25,5.5,114.48,7.14s76.5,2.8,114.78,3.64q28.71.66,57.42.78t57.41-.77c19.13-.59,38.25-1.43,57.34-2.79s38.15-3,57.11-5.55c9.48-1.2,18.93-2.66,28.35-4.25s18.76-3.59,28-5.79,18.44-4.86,27.4-8a137,137,0,0,0,25.72-11.76,28.86,28.86,0,0,0,5.25-4.14,22.39,22.39,0,0,0,2.11-2.47,21.27,21.27,0,0,0,1.56-2.8,18.53,18.53,0,0,0,1.6-6.24l.09-.82v-.84c0-.55,0-1.11,0-1.67-.08-1.13-.09-2.25-.26-3.38a83.09,83.09,0,0,0-3-13.63c-1.34-4.54-2.84-9.06-4.35-13.6-3-9.09-6-18.26-8.46-27.62a238.23,238.23,0,0,1-5.75-28.46c-.34-2.4-.57-4.8-.85-7.2s-.6-4.8-.77-7.21c-.34-4.82-.81-9.64-.91-14.47a275.62,275.62,0,0,1,.24-29,242.1,242.1,0,0,1,3.36-28.88c.86-4.78,1.86-9.54,3-14.27.59-2.34,1.23-4.75,1.84-7l.11-.42c.06-.19,0-.17,0-.16h0c-.32-.63,2.41,4.93,1.44,2.71l-.21-.11-.32-.15-.75-.32c-1-.44-2.12-.87-3.21-1.29-8.81-3.31-17.92-6.18-27-8.9s-18.32-5.21-27.56-7.56q-27.74-7-55.89-12.27t-56.5-9.14c-18.91-2.58-37.89-4.63-56.91-6.29a1242.26,1242.26,0,0,0-228.82,1.53c-38,3.78-75.92,9.12-113.49,16.32q-28.17,5.4-56.13,11.91-14,3.28-27.87,6.87Zm-.62-.36c4.57-1.51,9.44-3.05,14-4.38s9.18-2.74,13.78-4.06q13.83-4,27.73-7.59c18.55-4.84,37.2-9.32,56-13.22,37.54-7.87,75.45-14.09,113.6-18.38A1181.5,1181.5,0,0,1,1109,442q28.73,2.39,57.29,6.32t56.88,9.38c18.86,3.68,37.63,7.88,56.24,12.73q14,3.63,27.79,7.8c9.22,2.82,18.37,5.76,27.47,9.25,1.14.44,2.27.89,3.44,1.4l.9.4.48.23c.15.07.37.18.59.31-.77-2.07,2.44,3.62,1.92,3.33,0,.3-.08.59-.14.89a6.32,6.32,0,0,1-.16.71l-.12.45c-.67,2.39-1.27,4.6-1.87,6.9-1.16,4.56-2.15,9.17-3,13.81A245.41,245.41,0,0,0,1333.2,544a271.69,271.69,0,0,0-.49,28.4c0,4.74.49,9.46.76,14.2.13,2.36.44,4.72.66,7.08s.43,4.73.74,7.07a232.4,232.4,0,0,0,5.25,27.88c2.25,9.22,5.05,18.31,7.92,27.45,1.42,4.57,2.86,9.16,4.16,13.83a87.54,87.54,0,0,1,2.93,14.44c.16,1.23.17,2.51.23,3.77,0,.64,0,1.28-.06,1.92l0,1-.12,1a22.57,22.57,0,0,1-2.09,7.56,23.87,23.87,0,0,1-2,3.42,25.12,25.12,0,0,1-2.58,2.95,32.54,32.54,0,0,1-6.09,4.63,139.46,139.46,0,0,1-26.6,11.72c-9.15,3.06-18.47,5.53-27.84,7.69-18.77,4.16-37.75,7.14-56.79,9.45s-38.14,4-57.26,5.32-38.26,2.3-57.41,2.93-38.31,1.16-57.47,1.39-38.33.36-57.49.26c-38.31-.16-76.63-.58-114.95-1.66-19.15-.62-38.32-1.32-57.46-2.44s-38.3-2.42-57.41-4.34-38.21-4.25-57.17-7.78c-9.48-1.77-18.92-3.92-28.24-6.64s-18.55-6.1-27.16-11.11a67.16,67.16,0,0,1-6.26-4.15,47,47,0,0,1-5.67-5.1,35,35,0,0,1-4.68-6.17,32.69,32.69,0,0,1-3.13-7.17,37.81,37.81,0,0,1-1-15.26,55.94,55.94,0,0,1,1.41-7.36c.29-1.2.64-2.39,1-3.57l1-3.45,3.93-13.72c1.2-4.6,2.21-9.26,3.33-13.88s1.94-9.32,2.88-14l1.32-7,1-7.07a388.07,388.07,0,0,0,4.25-57c0-2.38,0-4.77,0-7.16l-.22-7.15c0-1.2-.06-2.39-.12-3.58L658,529c-.16-2.38-.26-4.77-.47-7.14l-.63-7.14-.79-7.12q-.47-3.56-1-7.1l-.58-3.54-.32-1.76-.17-.88A7.58,7.58,0,0,1,653.89,493.16Z"/><path class="cls-8" d="M1409.57,401.64s132.94-67,103.06,203l-15.46-4.12s23.18-197.73-61.84-184.84"/><path class="cls-9" d="M1409.51,401.51a76.72,76.72,0,0,1,16.6-5.92,73.09,73.09,0,0,1,17.57-2.12,62.68,62.68,0,0,1,17.62,2.5,54.33,54.33,0,0,1,16.06,7.79,63.73,63.73,0,0,1,13,12.21,85,85,0,0,1,9.71,14.94,119.63,119.63,0,0,1,6.86,16.38,167.06,167.06,0,0,1,4.6,17.09,258,258,0,0,1,4.74,34.94c.86,11.72,1.16,23.45,1.15,35.18s-.45,23.46-1,35.18-1.58,23.42-2.69,35.1l-.12,1.3-1.28-.33-15.49-4-1-.26.1-1.1c1.74-18.1,2.61-36.35,2.58-54.55a412,412,0,0,0-3.34-54.43,212.81,212.81,0,0,0-5.28-26.67,109.87,109.87,0,0,0-10-25.12,60.24,60.24,0,0,0-7.84-10.94,41.41,41.41,0,0,0-10.45-8.37,37.67,37.67,0,0,0-12.7-4.38,49.26,49.26,0,0,0-13.56-.09l0-.29a46.8,46.8,0,0,1,13.73-.48,38.38,38.38,0,0,1,13.23,4,43.4,43.4,0,0,1,11.08,8.38,62.16,62.16,0,0,1,8.39,11.07A109.28,109.28,0,0,1,1492.42,464a202.39,202.39,0,0,1,5.75,27,363.76,363.76,0,0,1,3.44,54.86q-.1,13.75-.89,27.46c-.52,9.15-1.22,18.26-2.3,27.38l-.93-1.35,15.43,4.25-1.41,1c1.39-11.63,2.64-23.27,3.52-34.95s1.38-23.38,1.48-35.09c.18-23.4-1.74-46.92-7.09-69.63q-2.1-8.49-4.9-16.75a128.68,128.68,0,0,0-6.81-16,87.13,87.13,0,0,0-9.29-14.57A61.62,61.62,0,0,0,1476,405.69a55,55,0,0,0-7.36-4.45,61.32,61.32,0,0,0-8-3.27,60.51,60.51,0,0,0-17-2.85,82.68,82.68,0,0,0-34,6.66Z"/><path class="cls-10" d="M1486,630.59C1471.1,723.91,1432,829,1432,829l25.77-34-1.13,11.27-.67,14V844.5l17.8-35.84,3.39,28.4s14.22-39.22,15.1-45.53l1.12,42.37s31.79-43.27,30-205.12"/><path class="cls-11" d="M1481.32,637.2s2.43-48,28.85-40.27c22.54,6.61,14.43,48.68,14.43,48.68S1491.24,645.31,1481.32,637.2Z"/><path class="cls-9" d="M1481.13,637.28a1.47,1.47,0,0,1,0-.2v-.78l0-.88c0-.59,0-1.18,0-1.77q0-1.77.15-3.54c.15-2.36.4-4.71.78-7.06a68.55,68.55,0,0,1,1.46-7,50.11,50.11,0,0,1,2.3-6.85,34.48,34.48,0,0,1,3.51-6.51,22,22,0,0,1,5.32-5.53,16.64,16.64,0,0,1,7.35-3,19.88,19.88,0,0,1,19.69,9.56,28.16,28.16,0,0,1,2.85,6.77,45.14,45.14,0,0,1,1.42,7,106.17,106.17,0,0,1,.72,14.13,132.85,132.85,0,0,1-.66,14.19l-.13,1.09-1.27,0a96.1,96.1,0,0,1-11.26-.15c-1.87-.11-3.74-.33-5.6-.55s-3.73-.48-5.58-.81a74,74,0,0,1-11-2.7,37,37,0,0,1-5.27-2.18,21.81,21.81,0,0,1-2.46-1.46c-.4-.25-.78-.57-1.15-.85S1481.47,637.6,1481.13,637.28Zm.37-.16,1.14.6c.42.19.82.4,1.24.58.84.36,1.7.65,2.56,1,1.73.55,3.51,1,5.3,1.36,3.58.74,7.21,1.24,10.86,1.67,1.83.19,3.65.4,5.49.57l5.5.45c3.67.26,7.36.64,11,.91l-1.4,1.14a76.33,76.33,0,0,0,2.12-13.7,54.66,54.66,0,0,0-1-13.82,32.39,32.39,0,0,0-5.23-12.38,18.51,18.51,0,0,0-4.56-4.45,16.4,16.4,0,0,0-5.78-2.45,15.92,15.92,0,0,0-6.17-.24,13.76,13.76,0,0,0-5.5,2.34,20.59,20.59,0,0,0-4.44,4.45,38.22,38.22,0,0,0-3.41,5.67,76.31,76.31,0,0,0-4.7,12.83q-.91,3.33-1.67,6.74c-.26,1.14-.51,2.28-.72,3.42l-.32,1.72-.17.86-.07.44,0,.21,0,.11S1481.54,637.22,1481.5,637.12Z"/><path class="cls-9" d="M1498.15,589.41c3.4-4.73,6.95-9.25,10.24-13.95,1.68-2.32,3.26-4.71,4.73-7.15a35.73,35.73,0,0,0,3.66-7.75,21.22,21.22,0,0,1-2.36,8.44,42.51,42.51,0,0,1-2.07,3.89c-.78,1.24-1.57,2.47-2.41,3.67a73.48,73.48,0,0,1-5.49,6.8A58.1,58.1,0,0,1,1498.15,589.41Z"/><path class="cls-9" d="M1498.15,556.35c3.4-4.73,6.95-9.25,10.24-14,1.68-2.32,3.26-4.71,4.73-7.15a35.73,35.73,0,0,0,3.66-7.75,21.22,21.22,0,0,1-2.36,8.44,42.51,42.51,0,0,1-2.07,3.89c-.78,1.24-1.57,2.47-2.41,3.67a73.48,73.48,0,0,1-5.49,6.8A58.1,58.1,0,0,1,1498.15,556.35Z"/><path class="cls-9" d="M1497,520.29c3.39-4.74,7-9.26,10.24-13.95,1.68-2.33,3.26-4.71,4.72-7.15a35.38,35.38,0,0,0,3.67-7.76,21.26,21.26,0,0,1-2.36,8.45,42.34,42.34,0,0,1-2.07,3.88c-.78,1.25-1.57,2.48-2.41,3.67a75,75,0,0,1-5.49,6.81A59,59,0,0,1,1497,520.29Z"/><path class="cls-12" d="M1494.84,481.82s13.71-14.13,15.33-25.25"/><path class="cls-12" d="M1487.63,450.26s11-6.31,12.62-17.43"/><path class="cls-13" d="M1470.5,429.82s12.62-14.41,13.82-23.44"/><path class="cls-12" d="M1459.08,395.56s2.1,13.52-1.81,20.44"/><path class="cls-12" d="M1429,395.56s9.62,7.51,13.83,19.23"/><path class="cls-9" d="M1501,642.66c-2.36,11.81-4.93,23.53-7.62,35.23s-5.55,23.37-8.59,35-6.27,23.18-9.76,34.66-7.33,22.86-11.61,34.07c4-11.32,7.43-22.8,10.65-34.35s6.05-23.2,8.78-34.86,5.22-23.4,7.59-35.14,4.61-23.53,6.62-35.31Z"/><path class="cls-9" d="M1514.07,647.81c-.75,8.66-1.84,17.21-3.11,25.75s-2.75,17.05-4.44,25.51c-.81,4.24-1.77,8.45-2.68,12.66s-1.92,8.41-3,12.58c-2.08,8.37-4.58,16.62-7.16,24.84,2.34-8.29,4.6-16.6,6.43-25,1-4.19,1.79-8.42,2.67-12.63s1.62-8.45,2.3-12.7q2.16-12.72,3.69-25.53c1-8.53,1.85-17.12,2.35-25.65Z"/></svg>