<svg id="Layer_1" data-name="Layer 1" xmlns="http://www.w3.org/2000/svg" viewBox="0 0 2000 1694.14"><defs><style>.cls-1,.cls-3{fill:#32a457;}.cls-2{fill:#186534;}.cls-2,.cls-3{fill-rule:evenodd;}.cls-4{fill:#424243;}.cls-5{fill:#343334;}.cls-6{fill:#161616;}.cls-7,.cls-9{fill:#ecb730;}.cls-8{fill:#94662f;}.cls-11,.cls-12,.cls-9{stroke:#94662f;stroke-miterlimit:10;}.cls-9{stroke-width:1.98px;}.cls-10{fill:#de8a2e;}.cls-11,.cls-12{fill:none;}.cls-11{stroke-width:1.9px;}.cls-12{stroke-width:1.47px;}</style></defs><title>Mesa de trabajo 23</title><path class="cls-1" d="M762.44,837.89a49,49,0,1,0,49.15,48.84A48.84,48.84,0,0,0,762.44,837.89Z"/><path class="cls-1" d="M1177,837.89a49,49,0,1,0,49.15,48.84A48.85,48.85,0,0,0,1177,837.89Z"/><path class="cls-1" d="M1217.05,1119.88c-141.53,139.81-352.84,139.81-494.66,0-11.3-11.14-12.82-28.88-4.47-38.2,8.66-9.63,22.89-8.52,32.9,1,125.47,124.23,312.63,124.23,438.08,0,9.76-9.55,24.25-10.66,32.7-1C1230.17,1091,1228.34,1108.74,1217.05,1119.88Z"/><path class="cls-1" d="M1371.07,816c-8.14-19-32.63-26.77-54.38-17a39.58,39.58,0,0,0-9.38,5.51,151,151,0,0,0-265.94,25,26.65,26.65,0,0,1-3.9-1.78c-20.85-9.43-48.05-12.64-67.76-12.64-20.57,0-46.66,3.21-67.59,12.64-1.63.76-2.62,1.35-3.76,1.78a151,151,0,0,0-266-25,36.67,36.67,0,0,0-9.44-5.51c-21.69-9.73-46.08-2-54.52,17-8.13,18.71,2.76,41.8,24.48,51.52a50.68,50.68,0,0,0,15.66,3.88c-.47,5-.77,10.16-.77,15.27,0,83.43,67.81,151,151,151a150.89,150.89,0,0,0,151-151,129.11,129.11,0,0,0-.8-14.14c3.46-2,7.25-3.78,11-5.61,20.52-9.39,30.49-12.23,49.87-12.5s29.25,3.11,50.15,12.5c3.65,1.83,7.23,3.6,11,5.61a137,137,0,0,0-.79,14.14,150.78,150.78,0,0,0,150.91,151c83.18,0,150.59-67.52,150.59-151a143.38,143.38,0,0,0-.79-15.27,51.36,51.36,0,0,0,16.06-3.88C1368.6,857.84,1379.51,834.75,1371.07,816ZM758.69,994.71a107.83,107.83,0,1,1,107.65-108A107.67,107.67,0,0,1,758.69,994.71Zm422.28,0a108,108,0,0,1-108-108c0-59.35,48.44-107.66,108-107.66,59.29,0,107.7,48.31,107.7,107.66C1288.67,946.4,1240.26,994.71,1181,994.71Z"/><path class="cls-1" d="M573.16,1537.53a40.16,40.16,0,0,1-15.14-40l37.6-185c-93.14-97.15-144.17-223.9-144.17-359.35,0-286.71,233.26-520,520-520s520,233.26,520,520-233.25,519.95-520,519.95a518,518,0,0,1-169.26-28.21l-186.33,96.27a40.16,40.16,0,0,1-42.66-3.65Zm240.6-173.88a437.78,437.78,0,0,0,157.65,29.13c242.41,0,439.62-197.21,439.62-439.61S1213.82,513.54,971.41,513.54,531.79,710.76,531.79,953.17c0,120.87,48.06,233.54,135.33,317.26a40.17,40.17,0,0,1,11.14,38.83l-24.81,122,127.46-65.85a40.1,40.1,0,0,1,32.85-1.81Z"/><path class="cls-2" d="M1487.43,964.45l-5.56,1.63c-52.75,15.42-47.85,125,8.49,126H1499c12.85,11.82,29.8,19.46,49.42,21.44a235.69,235.69,0,0,0,46.12,1.8c11.68-.56,24.89-.8,35.64,4.51,5.31,2.62,10.41,6.39,15.28,9.75a275.87,275.87,0,0,0,25.31,15.73c12.9,7,28.24,11.59,42.94,8.42,11.65-2.5,21.57-9.79,26.37-20.83,13.42-30.89-15.93-53.43-46.5-66.05,2.27.36,4.55.68,6.82,1,14.76,1.79,43,3.19,56.61-2.17,31.57-12.47,33.66-62.54,2-76.51-12.77-5.65-38.56-6-54.18-3.73,18-8.37,37.43-23.87,44-40.81a40.6,40.6,0,0,0-19.88-50.72c-26-13-67.76,11.19-87,27.62-11.84,10.09-23.61,23.67-39.3,27.1,18-21.44,27.38-48.89,10.15-75.08-11.19-17-39.38-34.57-59-21.28-8.65,5.88-11.49,15.9-11,25.9.72,15.54-2.33,39.78-11.8,52.54a28.23,28.23,0,0,1-4.63,4.83c-11.41,9.5-23.93,12.34-35.26,24.58a56.13,56.13,0,0,0-3.67,4.39Zm182.73,30.06c-3.58,1.19-7.16,2.41-10.74,3.63a10.25,10.25,0,0,0-3.65,2.2c-.28-1.33-.58-2.67-.9-4C1660.23,995.66,1665.23,995.14,1670.16,994.51Z"/><path class="cls-3" d="M1653.22,1064.44c30,4,94.86,28.29,78.91,65-6.69,15.38-28.22,24.06-57.23,8.26-39.81-21.68-36.22-33.19-80.78-31a214.85,214.85,0,0,1-44.68-1.76c-42.12-4.18-65.62-35.18-67.77-69.88-5.29-85.64,38.29-75,56.28-99.22,10.65-14.35,14.32-40.07,13.49-58.1-2.52-54.48,113,4.38,34,76.26,4.94,35-7.66,62.4-32.13,84.11,7.85-1.46,16.23-8.26,21.75-13.89,13.77,9.53,16.51,37.18,14.15,52.14,12.21-20.12,2.52-52.57-7.79-60.08,14.8-17.37,19.55-34.38,16-58.27,21.69-1.12,35-17,50.15-29.92,29.36-25,62.46-34,77.54-26.47a32,32,0,0,1,15.68,39.86c-7.16,18.59-32.81,34.73-49.06,39.82s-32.39,5.77-39,6.63c-5.47-11.27-13.8-21.33-24.61-26.95,27.94,31.43,29.37,96.52,2.84,129.14,9.83-5.66,17.35-15.12,22.34-25.65Zm100.6-6.87c25.33-10,25.79-49.91,1.73-60.54-11.1-4.9-38-5.43-52.69-2.53s-29.43,8-40.63,11.83c-6.37,2.19-4.94,43.07-1.17,44a250.91,250.91,0,0,0,40.37,8.84C1715.94,1061,1742.63,1062,1753.82,1057.57Z"/><path class="cls-2" d="M461.74,964.86a54.13,54.13,0,0,0-3.66-4.41c-11.3-12.27-23.81-15.14-35.19-24.67a27.86,27.86,0,0,1-4.62-4.84c-9.43-12.79-12.41-37-11.65-52.58.49-10-2.32-20-10.95-25.93-19.53-13.33-47.77,4.14-59,21.12-17.3,26.15-8,53.62,9.95,75.11-15.69-3.47-27.42-17.08-39.23-27.2-19.23-16.49-60.91-40.82-86.95-27.86a40.6,40.6,0,0,0-20,50.66c6.49,17,25.88,32.51,43.86,40.94-15.62-2.34-41.41-2-54.2,3.58-31.65,13.88-29.7,64,1.84,76.52,13.54,5.39,41.84,4.06,56.61,2.32,2.27-.27,4.55-.58,6.82-.93-30.6,12.53-60,35-46.68,65.92,4.77,11.05,14.66,18.37,26.31,20.91,14.7,3.2,30-1.31,43-8.31a277.87,277.87,0,0,0,25.34-15.66c4.89-3.35,10-7.11,15.31-9.71,10.76-5.29,24-5,35.65-4.41a236.55,236.55,0,0,0,46.13-1.68c19.62-1.93,36.6-9.52,49.48-21.3h8.62c56.35-.84,61.54-110.4,8.83-126l-5.55-1.64ZM294.22,996.29c-.33,1.33-.63,2.67-.91,4a10.13,10.13,0,0,0-3.65-2.21q-5.36-1.86-10.73-3.66C283.86,995.07,288.86,995.6,294.22,996.29Z"/><path class="cls-3" d="M295.69,1064.39c4.95,10.55,12.45,20,22.26,25.72-26.44-32.7-24.84-97.78,3.19-129.13-10.82,5.58-19.18,15.63-24.68,26.87-6.64-.88-22.77-1.59-39-6.73s-41.85-21.34-49-40a31.93,31.93,0,0,1,15.79-39.81c15.11-7.52,48.18,1.57,77.47,26.67,15.08,12.94,28.39,28.88,50.07,30.06-3.63,23.88,1.08,40.9,15.83,58.31-10.32,7.48-20.1,39.9-7.95,60.06-2.32-15,.49-42.61,14.29-52.1,5.51,5.64,13.87,12.46,21.71,13.94-24.41-21.77-36.94-49.25-31.9-84.2C285,882,400.64,823.47,398,877.94c-.88,18,2.72,43.76,13.33,58.14,17.92,24.29,61.53,13.74,56,99.37-2.24,34.69-25.83,65.63-68,69.7a214.31,214.31,0,0,1-44.68,1.63c-44.55-2.27-41,9.24-80.86,30.81-29.06,15.72-50.57,7-57.21-8.41-15.85-36.75,49-60.84,79.09-64.79Zm-48.2-5.37a250.66,250.66,0,0,0,40.39-8.72c3.78-1,5.31-41.84-1.05-44-11.19-3.86-25.9-9-40.59-11.94s-41.6-2.49-52.7,2.38c-24.09,10.57-23.74,50.47,1.56,60.55C206.28,1061.7,233,1060.73,247.49,1059Z"/><path class="cls-4" d="M1520.35,417.71c16.4-14.67,20.16-27.24,17.91-37.27-.12-12.65-10-16.68-10-16.68l-1.76-.87a51.1,51.1,0,0,0-10.4-6.6c-143-68-491.39-242.53-508.05-251.6C990.35,95.05,966,85.89,936.45,100c-76.77,36.77-166,77.66-249.17,115-76.47,32.3-170.06,73.15-283.1,124.48l-.12.06c-10.46,5-12.07,14.43-10.29,23.56,1,8.75,5.34,20.4,16.32,35.7,12.51,17.43,51.3,36.93,96,54.58,64.35,29.44,143.55,52.58,205.21,60.82C831.75,530.34,1197.7,538,1197.7,538c11.81-1,29.42-3.82,50.58-8.34,0,.82,0,1.26,0,1.26,6-.51,28.14-6.33,57.57-15.51,57.48-16,123.76-39.63,173-68.38C1497.3,437,1512,427.07,1520.35,417.71Z"/><path class="cls-5" d="M623.31,354.67S641.68,432.2,612.42,528c-16.82,55.06,37.08,76.87,366.73,80.77,102.74,1.22,270.79-2,331.35-38.56,28.14-17-1.9-48.11-9.53-108.78-8.16-64.95,6.81-105.13,6.81-107.16S1011.81,239.4,623.31,354.67Z"/><path class="cls-6" d="M623.62,354.85a3.17,3.17,0,0,1,.25.63l.19.87.39,1.76.7,3.53q.66,3.54,1.24,7.09l1.05,7.12.86,7.15c.28,2.39.44,4.78.67,7.17l.33,3.59c.09,1.2.15,2.39.23,3.59l.43,7.19c.12,2.4.14,4.8.21,7.21a375.51,375.51,0,0,1-3,57.55l-.91,7.16-1.2,7.12c-.85,4.73-1.5,9.51-2.63,14.2s-2,9.42-3.15,14.1l-3.78,14-.94,3.46c-.32,1.12-.63,2.24-.89,3.36a51.2,51.2,0,0,0-1.19,6.76,32.5,32.5,0,0,0,1,13.18,28.16,28.16,0,0,0,6.72,11.13,42.11,42.11,0,0,0,5,4.44,62,62,0,0,0,5.74,3.73c8,4.56,17,7.7,26,10.31s18.37,4.56,27.73,6.26c18.71,3.39,37.67,5.63,56.68,7.44,38,3.55,76.24,5.5,114.47,7.14s76.51,2.79,114.79,3.63q28.71.66,57.41.78t57.41-.76c19.13-.6,38.25-1.43,57.34-2.79s38.15-3,57.11-5.56c9.49-1.19,18.93-2.66,28.35-4.25s18.76-3.58,28-5.78,18.44-4.86,27.4-8a136.13,136.13,0,0,0,25.72-11.77,28.91,28.91,0,0,0,5.25-4.13,22.39,22.39,0,0,0,2.11-2.47,19.73,19.73,0,0,0,1.56-2.8,18.12,18.12,0,0,0,1.6-6.25l.09-.82,0-.83c0-.56,0-1.11,0-1.67-.08-1.13-.09-2.25-.26-3.39a83.24,83.24,0,0,0-3-13.62c-1.33-4.54-2.84-9.07-4.34-13.61-3-9.09-6-18.26-8.47-27.61a240.38,240.38,0,0,1-5.75-28.47c-.34-2.4-.56-4.8-.85-7.2s-.59-4.79-.77-7.21c-.33-4.82-.81-9.63-.91-14.47a275.46,275.46,0,0,1,.24-29,242.53,242.53,0,0,1,3.37-28.89q1.29-7.17,3-14.26c.59-2.34,1.24-4.75,1.84-7l.11-.41c.06-.2,0-.17,0-.17h.05c-.33-.63,2.41,4.93,1.43,2.7l-.2-.1-.33-.15-.74-.33c-1-.44-2.13-.86-3.22-1.28-8.81-3.31-17.92-6.19-27-8.91s-18.33-5.21-27.57-7.55c-18.48-4.69-37.13-8.74-55.88-12.27s-37.6-6.58-56.51-9.15-37.89-4.63-56.91-6.28a1241.4,1241.4,0,0,0-228.82,1.53c-38,3.77-75.92,9.12-113.48,16.32Q707,334.18,679,340.7q-14,3.3-27.87,6.88Zm-.62-.35c4.56-1.51,9.43-3.05,13.94-4.39s9.19-2.73,13.79-4.06q13.82-3.94,27.73-7.59c18.54-4.84,37.2-9.32,56-13.22,37.54-7.86,75.45-14.08,113.6-18.37a1181.39,1181.39,0,0,1,230.06-3.53q28.73,2.4,57.29,6.33t56.88,9.38c18.87,3.68,37.63,7.88,56.25,12.73,9.3,2.42,18.57,5,27.79,7.8s18.36,5.76,27.46,9.24c1.14.45,2.28.9,3.44,1.4l.9.41.49.23c.15.07.36.18.58.31-.77-2.08,2.44,3.62,1.92,3.33,0,.29-.08.59-.14.88a4.64,4.64,0,0,1-.16.71l-.12.45c-.66,2.4-1.27,4.6-1.87,6.9q-1.72,6.85-3,13.82a245.12,245.12,0,0,0-3.48,28.12,271.54,271.54,0,0,0-.5,28.39c.06,4.74.5,9.47.76,14.2.14,2.37.44,4.72.66,7.08s.44,4.73.74,7.08a235.15,235.15,0,0,0,5.25,27.88c2.26,9.21,5.06,18.31,7.92,27.44,1.43,4.57,2.87,9.16,4.16,13.83a86.73,86.73,0,0,1,2.93,14.44c.17,1.24.17,2.52.23,3.78,0,.63,0,1.28,0,1.91l0,1-.12,1a22.22,22.22,0,0,1-2.09,7.55,23.92,23.92,0,0,1-2,3.43,27,27,0,0,1-2.59,2.94,32.43,32.43,0,0,1-6.08,4.64,141,141,0,0,1-26.6,11.72c-9.16,3.06-18.48,5.52-27.85,7.69-18.77,4.16-37.75,7.13-56.79,9.45s-38.13,4-57.26,5.31-38.26,2.3-57.41,2.94-38.31,1.15-57.47,1.39-38.33.35-57.48.26c-38.32-.17-76.63-.58-114.95-1.66-19.16-.63-38.32-1.33-57.47-2.45s-38.29-2.42-57.41-4.34-38.2-4.24-57.17-7.77c-9.48-1.77-18.92-3.92-28.24-6.64s-18.55-6.11-27.16-11.12a65.12,65.12,0,0,1-6.26-4.14,49.56,49.56,0,0,1-5.67-5.1,35.11,35.11,0,0,1-4.68-6.18,32.31,32.31,0,0,1-3.12-7.16,37.52,37.52,0,0,1-1-15.27,56.09,56.09,0,0,1,1.4-7.35c.3-1.21.64-2.39,1-3.57l1-3.45,3.94-13.72c1.19-4.61,2.2-9.26,3.33-13.88s1.94-9.32,2.87-14l1.33-7,1-7.07a389.56,389.56,0,0,0,4.26-57c0-2.39,0-4.78,0-7.16l-.22-7.16c0-1.19-.06-2.39-.12-3.58l-.22-3.57c-.16-2.38-.25-4.77-.47-7.15L626,376l-.8-7.12c-.31-2.36-.63-4.73-1-7.09l-.57-3.54-.33-1.76-.16-.89A7.45,7.45,0,0,1,623,354.5Z"/><path class="cls-7" d="M1378.68,263s132.94-67,103,203l-15.46-4.13s23.19-197.72-61.83-184.84"/><path class="cls-8" d="M1378.61,262.85a77.28,77.28,0,0,1,16.6-5.93,73.16,73.16,0,0,1,17.58-2.11,62.29,62.29,0,0,1,17.61,2.49,56.78,56.78,0,0,1,8.35,3.24,57.54,57.54,0,0,1,7.72,4.56,63.71,63.71,0,0,1,13,12.21,86.07,86.07,0,0,1,9.71,14.93,119.7,119.7,0,0,1,6.85,16.39,169,169,0,0,1,4.61,17.09,259.33,259.33,0,0,1,4.73,34.94c.87,11.71,1.16,23.45,1.16,35.18s-.45,23.46-1,35.18-1.58,23.41-2.68,35.1l-.12,1.29-1.29-.33-15.49-4-1-.27.11-1.09c1.74-18.1,2.6-36.35,2.57-54.56a412,412,0,0,0-3.34-54.42,213.32,213.32,0,0,0-5.28-26.68A110.23,110.23,0,0,0,1449,301a60.45,60.45,0,0,0-7.84-10.94,41.63,41.63,0,0,0-10.45-8.37,37.67,37.67,0,0,0-12.69-4.37,48.94,48.94,0,0,0-13.57-.09l0-.3a47.55,47.55,0,0,1,13.74-.48,38.68,38.68,0,0,1,13.23,4,43.12,43.12,0,0,1,11.07,8.38,62.26,62.26,0,0,1,8.4,11.06,109.32,109.32,0,0,1,10.67,25.49,202.05,202.05,0,0,1,5.75,27,361.16,361.16,0,0,1,3.44,54.86q-.09,13.74-.89,27.46c-.52,9.14-1.22,18.26-2.3,27.38l-.92-1.36,15.42,4.25-1.4,1c1.38-11.62,2.63-23.26,3.52-34.94s1.37-23.38,1.47-35.09c.19-23.4-1.74-46.92-7.09-69.63q-2.08-8.49-4.9-16.75a128.68,128.68,0,0,0-6.81-16,85.48,85.48,0,0,0-9.29-14.57A61.34,61.34,0,0,0,1445.1,267a53.93,53.93,0,0,0-7.36-4.45,62.81,62.81,0,0,0-8-3.28,60.86,60.86,0,0,0-17-2.84,82.86,82.86,0,0,0-34,6.65Z"/><path class="cls-9" d="M1455.08,491.92c-14.88,93.32-53.95,198.36-53.95,198.36l25.77-34-1.12,11.28-.68,14v24.34L1442.91,670l3.38,28.41s14.22-39.23,15.1-45.54l1.13,42.38s31.78-43.28,30-205.12"/><path class="cls-10" d="M1450.42,498.53s2.43-48,28.85-40.27c22.54,6.61,14.43,48.69,14.43,48.69S1460.34,506.65,1450.42,498.53Z"/><path class="cls-8" d="M1450.24,498.61a.6.6,0,0,1,0-.2v-.77l0-.89c0-.59,0-1.18,0-1.77,0-1.17.08-2.35.15-3.53.15-2.36.41-4.72.78-7.06a67.44,67.44,0,0,1,1.46-7,50.75,50.75,0,0,1,2.31-6.86,33,33,0,0,1,3.51-6.5,21.46,21.46,0,0,1,5.32-5.53,16.37,16.37,0,0,1,7.34-3,21.17,21.17,0,0,1,14.66,3.89,20,20,0,0,1,5,5.67,28.54,28.54,0,0,1,2.86,6.76,45.24,45.24,0,0,1,1.41,7,106.1,106.1,0,0,1,.72,14.12,133.16,133.16,0,0,1-.66,14.2l-.12,1.09-1.27.05a96.24,96.24,0,0,1-11.27-.16c-1.87-.11-3.73-.33-5.6-.55s-3.73-.47-5.58-.81a72.62,72.62,0,0,1-11-2.69A37.24,37.24,0,0,1,1455,502a23.55,23.55,0,0,1-2.47-1.46c-.4-.26-.77-.57-1.15-.86A13.87,13.87,0,0,1,1450.24,498.61Zm.36-.16,1.15.6c.42.19.81.41,1.24.58.83.36,1.7.66,2.55.95a54.19,54.19,0,0,0,5.3,1.36c3.58.75,7.22,1.25,10.86,1.68,1.83.19,3.66.4,5.49.56l5.5.46c3.67.25,7.36.63,11,.9l-1.39,1.14a76.21,76.21,0,0,0,2.11-13.69,53.75,53.75,0,0,0-1-13.82,32.39,32.39,0,0,0-5.23-12.38,18.73,18.73,0,0,0-4.56-4.46,16.38,16.38,0,0,0-5.78-2.44,15.73,15.73,0,0,0-6.17-.24,13.74,13.74,0,0,0-5.5,2.33,21.1,21.1,0,0,0-4.44,4.46,39.34,39.34,0,0,0-3.41,5.66,76.31,76.31,0,0,0-4.7,12.83q-.92,3.35-1.67,6.75-.39,1.69-.72,3.42l-.32,1.72-.16.86-.08.43,0,.22,0,.11S1450.64,498.56,1450.6,498.45Z"/><path class="cls-8" d="M1467.25,450.75c3.4-4.74,7-9.26,10.25-13.95,1.67-2.32,3.25-4.71,4.72-7.15a35.84,35.84,0,0,0,3.67-7.76,21.43,21.43,0,0,1-2.36,8.45c-.59,1.36-1.37,2.6-2.08,3.89s-1.56,2.47-2.41,3.66a72,72,0,0,1-5.49,6.81A58.1,58.1,0,0,1,1467.25,450.75Z"/><path class="cls-8" d="M1467.25,417.69c3.4-4.74,7-9.26,10.24-13.95,1.68-2.32,3.26-4.71,4.73-7.15a35.84,35.84,0,0,0,3.67-7.76,21.43,21.43,0,0,1-2.36,8.45c-.59,1.36-1.37,2.6-2.08,3.89s-1.57,2.47-2.41,3.66a72,72,0,0,1-5.49,6.81A58.1,58.1,0,0,1,1467.25,417.69Z"/><path class="cls-8" d="M1466.05,381.62c3.4-4.73,7-9.25,10.24-13.95,1.68-2.32,3.26-4.71,4.73-7.15a35.73,35.73,0,0,0,3.66-7.75,21.14,21.14,0,0,1-2.36,8.45,43.69,43.69,0,0,1-2.07,3.88c-.78,1.24-1.57,2.47-2.41,3.67a73.48,73.48,0,0,1-5.49,6.8A58.1,58.1,0,0,1,1466.05,381.62Z"/><path class="cls-11" d="M1464,343.15s13.7-14.12,15.32-25.24"/><path class="cls-11" d="M1456.73,311.59s11-6.31,12.63-17.43"/><path class="cls-12" d="M1439.6,291.16s12.62-14.41,13.83-23.44"/><path class="cls-11" d="M1428.18,256.9s2.1,13.52-1.8,20.43"/><path class="cls-11" d="M1398.13,256.9s9.61,7.51,13.82,19.23"/><path class="cls-8" d="M1470.12,504c-2.36,11.8-4.93,23.52-7.62,35.23s-5.55,23.36-8.58,35-6.27,23.18-9.77,34.67-7.33,22.86-11.61,34.07c4-11.32,7.43-22.81,10.65-34.35s6-23.2,8.79-34.87,5.21-23.39,7.59-35.13,4.6-23.53,6.61-35.31Z"/><path class="cls-8" d="M1483.17,509.15c-.75,8.65-1.84,17.2-3.11,25.75s-2.75,17.05-4.44,25.51c-.81,4.24-1.77,8.44-2.67,12.66s-1.93,8.41-3,12.57c-2.08,8.37-4.57,16.63-7.16,24.85,2.35-8.29,4.6-16.61,6.43-25,1-4.19,1.79-8.42,2.68-12.63s1.61-8.46,2.3-12.7q2.16-12.74,3.68-25.54c1-8.53,1.85-17.11,2.35-25.64Z"/></svg>