<svg id="Layer_1" data-name="Layer 1" xmlns="http://www.w3.org/2000/svg" viewBox="0 0 2000 1694.14"><defs><style>.cls-1,.cls-3{fill:#d35a2a;}.cls-2{fill:#7a330d;}.cls-2,.cls-3{fill-rule:evenodd;}.cls-4{fill:#424243;}.cls-5{fill:#343334;}.cls-6{fill:#161616;}.cls-7,.cls-9{fill:#ecb730;}.cls-8{fill:#94662f;}.cls-11,.cls-12,.cls-9{stroke:#94662f;stroke-miterlimit:10;}.cls-9{stroke-width:1.98px;}.cls-10{fill:#de8a2e;}.cls-11,.cls-12{fill:none;}.cls-11{stroke-width:1.9px;}.cls-12{stroke-width:1.47px;}</style></defs><title>Mesa de trabajo 20</title><path class="cls-1" d="M610.29,1537.53a40.15,40.15,0,0,1-15.15-40l37.6-185c-93.14-97.15-144.16-223.9-144.16-359.35,0-286.71,233.25-520,520-520s520,233.26,520,520-233.25,519.95-520,519.95a518,518,0,0,1-169.26-28.21L653,1541.18a40.16,40.16,0,0,1-42.66-3.65Zm240.6-173.88a437.78,437.78,0,0,0,157.65,29.13c242.41,0,439.62-197.21,439.62-439.61S1251,513.54,1008.54,513.54,568.92,710.76,568.92,953.17c0,120.87,48.06,233.54,135.33,317.26a40.19,40.19,0,0,1,11.14,38.83l-24.81,122L818,1365.46a40.1,40.1,0,0,1,32.85-1.81Z"/><path class="cls-1" d="M1262.47,1070.85c-145.38,143.9-362.48,143.9-507.91,0-11.66-11.43-13.38-29.63-4.65-39.19s23.52-8.78,33.64,1.35c128.84,127.26,321.2,127.26,450,0,10.12-10.13,24.9-11,33.64-1.35S1274.08,1059.43,1262.47,1070.85Z"/><path class="cls-1" d="M1221.35,806.25A62.94,62.94,0,1,0,1284.28,869,62.87,62.87,0,0,0,1221.35,806.25Z"/><path class="cls-1" d="M839.06,838.19,767.67,850.8c-14.48,2.4-24.33,15.64-21.92,29.42,2.51,13.46,16.17,22.65,30.65,20l71.39-12.63c14.48-2.37,24.33-15.62,21.8-29.39C867.2,844.69,853.54,835.5,839.06,838.19Z"/><path class="cls-2" d="M1524.56,964.45l-5.56,1.63c-52.75,15.42-47.86,125,8.49,126h8.62c12.85,11.82,29.81,19.46,49.43,21.44a235.69,235.69,0,0,0,46.12,1.8c11.68-.56,24.89-.8,35.64,4.51,5.31,2.62,10.41,6.39,15.28,9.75a277.08,277.08,0,0,0,25.3,15.73c12.91,7,28.24,11.59,42.95,8.42,11.65-2.5,21.57-9.79,26.37-20.83,13.42-30.89-15.94-53.43-46.5-66.05q3.4.54,6.82,1c14.76,1.79,43,3.19,56.61-2.17,31.57-12.47,33.65-62.54,2-76.51-12.78-5.65-38.56-6-54.18-3.73,18-8.37,37.43-23.87,44-40.81a40.61,40.61,0,0,0-19.89-50.72c-26-13-67.75,11.19-87,27.62-11.83,10.09-23.6,23.67-39.29,27.1,18-21.44,27.38-48.89,10.15-75.08-11.19-17-39.39-34.57-59-21.28-8.65,5.88-11.49,15.9-11,25.9.72,15.54-2.32,39.78-11.79,52.54a27.92,27.92,0,0,1-4.64,4.83c-11.4,9.5-23.92,12.34-35.25,24.58a56.13,56.13,0,0,0-3.67,4.39Zm182.73,30.06c-3.59,1.19-7.16,2.41-10.74,3.63a10.38,10.38,0,0,0-3.66,2.2c-.27-1.33-.57-2.67-.9-4C1697.35,995.66,1702.36,995.14,1707.29,994.51Z"/><path class="cls-3" d="M1690.34,1064.44c30.05,4,94.87,28.29,78.92,65-6.69,15.38-28.22,24.06-57.23,8.26-39.82-21.68-36.23-33.19-80.79-31a214.74,214.74,0,0,1-44.67-1.76c-42.12-4.18-65.62-35.18-67.77-69.88-5.29-85.64,38.29-75,56.28-99.22,10.64-14.35,14.32-40.07,13.48-58.1-2.52-54.48,113,4.38,34,76.26,5,35-7.66,62.4-32.12,84.11,7.84-1.46,16.22-8.26,21.75-13.89,13.77,9.53,16.51,37.18,14.14,52.14,12.22-20.12,2.52-52.57-7.79-60.08,14.81-17.37,19.56-34.38,16-58.27,21.68-1.12,35-17,50.15-29.92,29.36-25,62.45-34,77.53-26.47a31.94,31.94,0,0,1,15.69,39.86c-7.16,18.59-32.81,34.73-49.07,39.82s-32.38,5.77-39,6.63c-5.48-11.27-13.8-21.33-24.61-26.95,27.94,31.43,29.36,96.52,2.84,129.14,9.82-5.66,17.35-15.12,22.33-25.65Zm100.61-6.87c25.33-10,25.78-49.91,1.72-60.54-11.09-4.9-38-5.43-52.69-2.53s-29.43,8-40.62,11.83c-6.37,2.19-4.95,43.07-1.18,44a251.15,251.15,0,0,0,40.37,8.84C1753.06,1061,1779.75,1062,1791,1057.57Z"/><path class="cls-2" d="M498.87,964.86q-1.71-2.28-3.66-4.41c-11.3-12.27-23.81-15.14-35.19-24.67a27.86,27.86,0,0,1-4.62-4.84c-9.44-12.79-12.42-37-11.65-52.58.49-10-2.32-20-11-25.93-19.53-13.33-47.77,4.14-59,21.12-17.31,26.15-8,53.62,9.94,75.11-15.68-3.47-27.41-17.08-39.22-27.2-19.23-16.49-60.91-40.82-87-27.86a40.61,40.61,0,0,0-20,50.66c6.48,17,25.88,32.51,43.85,40.94-15.61-2.34-41.4-2-54.19,3.58-31.65,13.88-29.7,64,1.83,76.52,13.55,5.39,41.85,4.06,56.61,2.32q3.42-.4,6.82-.93c-30.6,12.53-60,35-46.68,65.92,4.77,11.05,14.67,18.37,26.31,20.91,14.7,3.2,30.05-1.31,43-8.31a278,278,0,0,0,25.35-15.66c4.88-3.35,10-7.11,15.31-9.71,10.76-5.29,24-5,35.65-4.41a236.55,236.55,0,0,0,46.13-1.68c19.62-1.93,36.6-9.52,49.48-21.3h8.62c56.35-.84,61.54-110.4,8.83-126l-5.55-1.64ZM331.35,996.29c-.33,1.33-.63,2.67-.91,4a10.09,10.09,0,0,0-3.66-2.21q-5.36-1.86-10.73-3.66C321,995.07,326,995.6,331.35,996.29Z"/><path class="cls-3" d="M332.81,1064.39c5,10.55,12.46,20,22.27,25.72-26.44-32.7-24.84-97.78,3.19-129.13-10.82,5.58-19.18,15.63-24.68,26.87-6.64-.88-22.77-1.59-39-6.73s-41.85-21.34-49-40a31.93,31.93,0,0,1,15.79-39.81c15.1-7.52,48.18,1.57,77.46,26.67C354,941,367.26,956.91,389,958.09,385.32,982,390,999,404.78,1016.4c-10.33,7.48-20.11,39.9-7.95,60.06-2.32-15,.49-42.61,14.29-52.1,5.51,5.64,13.87,12.46,21.71,13.94-24.41-21.77-36.94-49.25-31.9-84.2C322.1,882,437.77,823.47,435.1,877.94c-.89,18,2.72,43.76,13.33,58.14,17.92,24.29,61.53,13.74,56,99.37-2.24,34.69-25.82,65.63-68,69.7a214.21,214.21,0,0,1-44.67,1.63c-44.56-2.27-41,9.24-80.87,30.81-29.05,15.72-50.56,7-57.21-8.41-15.85-36.75,49-60.84,79.09-64.79ZM284.62,1059A250.9,250.9,0,0,0,325,1050.3c3.77-1,5.31-41.84-1.06-44-11.18-3.86-25.89-9-40.59-11.94s-41.59-2.49-52.69,2.38c-24.09,10.57-23.75,50.47,1.56,60.55C243.41,1061.7,270.1,1060.73,284.62,1059Z"/><path class="cls-4" d="M1557.48,417.71c16.4-14.67,20.16-27.24,17.91-37.27-.12-12.65-10-16.68-10-16.68l-1.77-.87a51,51,0,0,0-10.39-6.6c-143-68-491.4-242.53-508.06-251.6-17.72-9.64-42.07-18.8-71.62-4.66-76.77,36.77-166,77.66-249.17,115-76.48,32.3-170.06,73.15-283.1,124.48l-.12.06c-10.47,5-12.07,14.43-10.3,23.56.95,8.75,5.35,20.4,16.33,35.7,12.51,17.43,51.3,36.93,96,54.58,64.35,29.44,143.55,52.58,205.21,60.82C868.88,530.34,1234.82,538,1234.82,538c11.81-1,29.42-3.82,50.58-8.34,0,.82,0,1.26,0,1.26,6-.51,28.13-6.33,57.56-15.51,57.49-16,123.77-39.63,173-68.38C1534.43,437,1549.14,427.07,1557.48,417.71Z"/><path class="cls-5" d="M660.43,354.67S678.8,432.2,649.55,528c-16.82,55.06,37.08,76.87,366.73,80.77,102.73,1.22,270.79-2,331.34-38.56,28.15-17-1.89-48.11-9.52-108.78-8.17-64.95,6.8-105.13,6.8-107.16S1048.93,239.4,660.43,354.67Z"/><path class="cls-6" d="M660.74,354.85a3.24,3.24,0,0,1,.26.63l.19.87.39,1.76.7,3.53q.66,3.54,1.24,7.09l1.05,7.12.85,7.15c.28,2.39.45,4.78.68,7.17l.32,3.59c.1,1.2.15,2.39.23,3.59l.43,7.19c.12,2.4.15,4.8.22,7.21a374.25,374.25,0,0,1-3,57.55l-.9,7.16-1.2,7.12c-.85,4.73-1.51,9.51-2.63,14.2s-2,9.42-3.15,14.1l-3.78,14-.94,3.46c-.32,1.12-.63,2.24-.89,3.36a51.2,51.2,0,0,0-1.19,6.76,32.5,32.5,0,0,0,1,13.18,28.29,28.29,0,0,0,6.73,11.13,42.79,42.79,0,0,0,5,4.44,63.58,63.58,0,0,0,5.75,3.73c8,4.56,16.94,7.7,26,10.31s18.37,4.56,27.72,6.26c18.71,3.39,37.68,5.63,56.68,7.44,38,3.55,76.25,5.5,114.48,7.14s76.5,2.79,114.78,3.63q28.71.66,57.42.78t57.41-.76c19.13-.6,38.25-1.43,57.34-2.79s38.15-3,57.11-5.56c9.48-1.19,18.93-2.66,28.35-4.25s18.76-3.58,28-5.78,18.44-4.86,27.4-8a136.42,136.42,0,0,0,25.72-11.77,29.25,29.25,0,0,0,5.25-4.13,21.27,21.27,0,0,0,2.1-2.47,20.84,20.84,0,0,0,1.57-2.8,18.58,18.58,0,0,0,1.6-6.25l.09-.82v-.83c0-.56,0-1.11,0-1.67-.08-1.13-.09-2.25-.26-3.39a83.2,83.2,0,0,0-3-13.62c-1.34-4.54-2.84-9.07-4.35-13.61-3-9.09-6-18.26-8.46-27.61a238.39,238.39,0,0,1-5.75-28.47c-.34-2.4-.57-4.8-.85-7.2s-.6-4.79-.77-7.21c-.34-4.82-.81-9.63-.91-14.47a275.46,275.46,0,0,1,.24-29,242.51,242.51,0,0,1,3.36-28.89c.86-4.78,1.86-9.54,3-14.26.59-2.34,1.23-4.75,1.84-7l.11-.41c.06-.2,0-.17,0-.17h0c-.32-.63,2.41,4.93,1.44,2.7l-.21-.1-.33-.15-.74-.33c-1-.44-2.12-.86-3.21-1.28-8.81-3.31-17.92-6.19-27-8.91s-18.32-5.21-27.56-7.55c-18.49-4.69-37.14-8.74-55.89-12.27s-37.59-6.58-56.5-9.15-37.89-4.63-56.91-6.28a1241.38,1241.38,0,0,0-228.82,1.53c-38,3.77-75.92,9.12-113.49,16.32q-28.17,5.38-56.13,11.9-14,3.3-27.87,6.88Zm-.62-.35c4.57-1.51,9.44-3.05,14-4.39s9.18-2.73,13.78-4.06q13.83-3.94,27.73-7.59c18.55-4.84,37.2-9.32,56-13.22,37.54-7.86,75.45-14.08,113.6-18.37a1181.5,1181.5,0,0,1,230.07-3.53q28.73,2.4,57.29,6.33t56.88,9.38c18.86,3.68,37.63,7.88,56.24,12.73,9.31,2.42,18.58,5,27.79,7.8s18.37,5.76,27.47,9.24c1.14.45,2.27.9,3.44,1.4l.9.41.48.23c.15.07.37.18.59.31-.77-2.08,2.44,3.62,1.92,3.33,0,.29-.08.59-.14.88a6.32,6.32,0,0,1-.16.71l-.12.45c-.67,2.4-1.28,4.6-1.87,6.9-1.16,4.57-2.15,9.18-3,13.82a245.13,245.13,0,0,0-3.49,28.12,271.54,271.54,0,0,0-.49,28.39c0,4.74.49,9.47.76,14.2.13,2.37.44,4.72.66,7.08s.43,4.73.74,7.08a233.15,233.15,0,0,0,5.25,27.88c2.25,9.21,5.05,18.31,7.91,27.44,1.43,4.57,2.87,9.16,4.17,13.83a88.8,88.8,0,0,1,2.93,14.44c.16,1.24.16,2.52.23,3.78,0,.63,0,1.28-.06,1.91l0,1-.12,1a22.45,22.45,0,0,1-2.09,7.55,24,24,0,0,1-2,3.43,25.85,25.85,0,0,1-2.58,2.94,32.17,32.17,0,0,1-6.09,4.64,140.73,140.73,0,0,1-26.6,11.72c-9.16,3.06-18.47,5.52-27.84,7.69-18.77,4.16-37.75,7.13-56.79,9.45s-38.14,4-57.26,5.31-38.26,2.3-57.42,2.94-38.3,1.15-57.46,1.39-38.33.35-57.49.26c-38.31-.17-76.63-.58-115-1.66-19.15-.63-38.32-1.33-57.46-2.45s-38.3-2.42-57.41-4.34-38.21-4.24-57.17-7.77c-9.48-1.77-18.92-3.92-28.24-6.64s-18.55-6.11-27.16-11.12a65.12,65.12,0,0,1-6.26-4.14,48.73,48.73,0,0,1-5.67-5.1,35.11,35.11,0,0,1-4.68-6.18,32.82,32.82,0,0,1-3.13-7.16,37.87,37.87,0,0,1-1-15.27,56.11,56.11,0,0,1,1.41-7.35c.29-1.21.64-2.39,1-3.57l1-3.45L652,510.74c1.2-4.61,2.21-9.26,3.33-13.88s1.94-9.32,2.88-14l1.32-7,1-7.07a388.17,388.17,0,0,0,4.25-57c0-2.39,0-4.78,0-7.16l-.22-7.16c0-1.19-.06-2.39-.12-3.58l-.22-3.57c-.16-2.38-.26-4.77-.47-7.15l-.63-7.14-.79-7.12c-.31-2.36-.64-4.73-1-7.09l-.58-3.54-.32-1.76-.17-.89A7.45,7.45,0,0,1,660.12,354.5Z"/><path class="cls-7" d="M1415.8,263s132.94-67,103.06,203l-15.46-4.13s23.18-197.72-61.84-184.84"/><path class="cls-8" d="M1415.74,262.85a77.28,77.28,0,0,1,16.6-5.93,73.08,73.08,0,0,1,17.57-2.11,62.31,62.31,0,0,1,17.62,2.49,54.69,54.69,0,0,1,16.06,7.8,63.45,63.45,0,0,1,13,12.21,84.92,84.92,0,0,1,9.71,14.93,119.75,119.75,0,0,1,6.86,16.39,166.37,166.37,0,0,1,4.6,17.09,257.76,257.76,0,0,1,4.74,34.94c.86,11.71,1.16,23.45,1.15,35.18s-.45,23.46-1,35.18-1.58,23.41-2.69,35.1l-.12,1.29-1.28-.33-15.49-4-1-.27.1-1.09c1.74-18.1,2.61-36.35,2.58-54.56a412,412,0,0,0-3.34-54.42,213.32,213.32,0,0,0-5.28-26.68,109.81,109.81,0,0,0-10-25.12A60.39,60.39,0,0,0,1478.3,290a41.63,41.63,0,0,0-10.45-8.37,37.65,37.65,0,0,0-12.7-4.37,48.87,48.87,0,0,0-13.56-.09l0-.3a47.5,47.5,0,0,1,13.73-.48,38.61,38.61,0,0,1,13.23,4,43.17,43.17,0,0,1,11.08,8.38,61.73,61.73,0,0,1,8.39,11.06,109.35,109.35,0,0,1,10.68,25.49,202.05,202.05,0,0,1,5.75,27,363.76,363.76,0,0,1,3.44,54.86q-.1,13.74-.89,27.46c-.53,9.14-1.22,18.26-2.3,27.38l-.93-1.36,15.43,4.25-1.41,1c1.39-11.62,2.64-23.26,3.52-34.94s1.38-23.38,1.48-35.09c.18-23.4-1.74-46.92-7.09-69.63q-2.1-8.49-4.9-16.75a128.68,128.68,0,0,0-6.81-16,86.73,86.73,0,0,0-9.29-14.57A61.34,61.34,0,0,0,1482.23,267a53.93,53.93,0,0,0-7.36-4.45,63.42,63.42,0,0,0-8-3.28,60.86,60.86,0,0,0-17-2.84,82.83,82.83,0,0,0-34,6.65Z"/><path class="cls-9" d="M1492.21,491.92c-14.88,93.32-54,198.36-54,198.36l25.77-34-1.13,11.28-.67,14v24.34L1480,670l3.38,28.41s14.23-39.23,15.11-45.54l1.12,42.38s31.79-43.28,30-205.12"/><path class="cls-10" d="M1487.55,498.53s2.43-48,28.85-40.27c22.54,6.61,14.43,48.69,14.43,48.69S1497.46,506.65,1487.55,498.53Z"/><path class="cls-8" d="M1487.36,498.61a1.35,1.35,0,0,1,0-.2v-.77l0-.89c0-.59,0-1.18,0-1.77,0-1.17.08-2.35.15-3.53.15-2.36.4-4.72.78-7.06a67.44,67.44,0,0,1,1.46-7,50.7,50.7,0,0,1,2.3-6.86,34.1,34.1,0,0,1,3.51-6.5,21.8,21.8,0,0,1,5.32-5.53,16.41,16.41,0,0,1,7.35-3,21.16,21.16,0,0,1,14.65,3.89,19.86,19.86,0,0,1,5,5.67,28.1,28.1,0,0,1,2.85,6.76,45.27,45.27,0,0,1,1.42,7,106.1,106.1,0,0,1,.72,14.12,133.16,133.16,0,0,1-.66,14.2l-.13,1.09-1.27.05a96.1,96.1,0,0,1-11.26-.16c-1.87-.11-3.74-.33-5.6-.55s-3.73-.47-5.58-.81a72.74,72.74,0,0,1-11-2.69,38.24,38.24,0,0,1-5.27-2.18,23.41,23.41,0,0,1-2.46-1.46c-.4-.26-.78-.57-1.15-.86S1487.7,498.94,1487.36,498.61Zm.37-.16,1.14.6c.42.19.82.41,1.24.58.84.36,1.7.66,2.56.95a52.77,52.77,0,0,0,5.3,1.36c3.58.75,7.21,1.25,10.86,1.68,1.83.19,3.65.4,5.49.56l5.5.46c3.67.25,7.36.63,11,.9l-1.4,1.14a76.23,76.23,0,0,0,2.12-13.69,54.66,54.66,0,0,0-1-13.82,32.39,32.39,0,0,0-5.23-12.38,18.91,18.91,0,0,0-4.56-4.46,16.38,16.38,0,0,0-5.78-2.44,15.73,15.73,0,0,0-6.17-.24,13.74,13.74,0,0,0-5.5,2.33,20.64,20.64,0,0,0-4.44,4.46,37.61,37.61,0,0,0-3.41,5.66,76.31,76.31,0,0,0-4.7,12.83q-.91,3.35-1.67,6.75c-.26,1.13-.51,2.27-.72,3.42l-.32,1.72-.17.86-.07.43,0,.22,0,.11S1487.77,498.56,1487.73,498.45Z"/><path class="cls-8" d="M1504.38,450.75c3.4-4.74,6.95-9.26,10.24-13.95,1.68-2.32,3.26-4.71,4.73-7.15a35.81,35.81,0,0,0,3.66-7.76,21.26,21.26,0,0,1-2.36,8.45,43.86,43.86,0,0,1-2.07,3.89c-.78,1.24-1.57,2.47-2.41,3.66a73.62,73.62,0,0,1-5.49,6.81A59,59,0,0,1,1504.38,450.75Z"/><path class="cls-8" d="M1504.38,417.69c3.4-4.74,6.95-9.26,10.24-13.95,1.68-2.32,3.26-4.71,4.73-7.15a35.81,35.81,0,0,0,3.66-7.76,21.26,21.26,0,0,1-2.36,8.45,43.86,43.86,0,0,1-2.07,3.89c-.78,1.24-1.57,2.47-2.41,3.66a73.62,73.62,0,0,1-5.49,6.81A59,59,0,0,1,1504.38,417.69Z"/><path class="cls-8" d="M1503.18,381.62c3.39-4.73,7-9.25,10.24-13.95,1.68-2.32,3.26-4.71,4.72-7.15a35.3,35.3,0,0,0,3.67-7.75,21.31,21.31,0,0,1-2.36,8.45,43.69,43.69,0,0,1-2.07,3.88c-.78,1.24-1.57,2.47-2.41,3.67a72,72,0,0,1-5.5,6.8A58,58,0,0,1,1503.18,381.62Z"/><path class="cls-11" d="M1501.07,343.15s13.71-14.12,15.33-25.24"/><path class="cls-11" d="M1493.86,311.59s11-6.31,12.62-17.43"/><path class="cls-12" d="M1476.73,291.16s12.62-14.41,13.82-23.44"/><path class="cls-11" d="M1465.31,256.9s2.1,13.52-1.81,20.43"/><path class="cls-11" d="M1435.25,256.9s9.62,7.51,13.83,19.23"/><path class="cls-8" d="M1507.25,504c-2.36,11.8-4.93,23.52-7.63,35.23s-5.54,23.36-8.58,35-6.27,23.18-9.76,34.67S1474,631.74,1469.67,643c4-11.32,7.43-22.81,10.65-34.35s6-23.2,8.78-34.87,5.22-23.39,7.59-35.13,4.61-23.53,6.62-35.31Z"/><path class="cls-8" d="M1520.3,509.15c-.76,8.65-1.84,17.2-3.11,25.75s-2.75,17.05-4.44,25.51c-.81,4.24-1.77,8.44-2.68,12.66s-1.92,8.41-3,12.57c-2.08,8.37-4.58,16.63-7.16,24.85,2.34-8.29,4.6-16.61,6.43-25,1-4.19,1.79-8.42,2.67-12.63s1.62-8.46,2.3-12.7q2.16-12.74,3.69-25.54c1-8.53,1.85-17.11,2.35-25.64Z"/></svg>