<svg id="Layer_1" data-name="Layer 1" xmlns="http://www.w3.org/2000/svg" viewBox="0 0 2000 1694.14"><defs><style>.cls-1,.cls-3{fill:#00abda;}.cls-2{fill:#006883;}.cls-2,.cls-3{fill-rule:evenodd;}.cls-4{fill:#424243;}.cls-5{fill:#343334;}.cls-6{fill:#161616;}.cls-7,.cls-9{fill:#ecb730;}.cls-8{fill:#94662f;}.cls-11,.cls-12,.cls-9{stroke:#94662f;stroke-miterlimit:10;}.cls-9{stroke-width:1.98px;}.cls-10{fill:#de8a2e;}.cls-11,.cls-12{fill:none;}.cls-11{stroke-width:1.9px;}.cls-12{stroke-width:1.47px;}</style></defs><title>Mesa de trabajo 25</title><path class="cls-1" d="M747,801.64a58.32,58.32,0,1,0,58.53,58.24A58.22,58.22,0,0,0,747,801.64Z"/><path class="cls-1" d="M1142,801.64a58.32,58.32,0,1,0,58.54,58.24C1200.49,827.7,1174.14,801.64,1142,801.64Z"/><polygon class="cls-1" points="1070.19 704.08 1054.15 747.91 1229.49 812.17 1245.51 768.34 1070.19 704.08"/><polygon class="cls-1" points="643.4 768.34 659.45 812.17 834.76 747.91 818.74 704.08 643.4 768.34"/><path class="cls-1" d="M711.19,996.84c0,128.89,104.51,233.41,233.27,233.41,129,0,233.56-104.52,233.56-233.41Z"/><path class="cls-1" d="M546.44,1537.53a40.16,40.16,0,0,1-15.14-40l37.6-185c-93.14-97.15-144.17-223.9-144.17-359.35,0-286.71,233.26-520,520-520s520,233.26,520,520-233.26,519.95-520,519.95a518,518,0,0,1-169.27-28.21L589.1,1541.18a40.16,40.16,0,0,1-42.66-3.65ZM787,1363.65a437.83,437.83,0,0,0,157.66,29.13c242.4,0,439.61-197.21,439.61-439.61S1187.1,513.54,944.7,513.54,505.07,710.76,505.07,953.17c0,120.87,48.07,233.54,135.33,317.26a40.2,40.2,0,0,1,11.15,38.83l-24.81,122,127.45-65.85a40.1,40.1,0,0,1,32.85-1.81Z"/><path class="cls-2" d="M1460.71,964.45l-5.55,1.63c-52.76,15.42-47.86,125,8.49,126h8.62c12.85,11.82,29.81,19.46,49.42,21.44a235.72,235.72,0,0,0,46.12,1.8c11.68-.56,24.9-.8,35.65,4.51,5.3,2.62,10.4,6.39,15.27,9.75A275.87,275.87,0,0,0,1644,1145.3c12.91,7,28.24,11.59,43,8.42,11.65-2.5,21.56-9.79,26.37-20.83,13.41-30.89-15.94-53.43-46.51-66.05,2.27.36,4.55.68,6.82,1,14.76,1.79,43,3.19,56.61-2.17,31.57-12.47,33.66-62.54,2-76.51-12.78-5.65-38.56-6-54.19-3.73,18-8.37,37.44-23.87,44-40.81a40.6,40.6,0,0,0-19.88-50.72c-26-13-67.75,11.19-87,27.62-11.84,10.09-23.61,23.67-39.3,27.1,18-21.44,27.38-48.89,10.15-75.08-11.19-17-39.38-34.57-59-21.28-8.65,5.88-11.48,15.9-11,25.9.72,15.54-2.32,39.78-11.79,52.54a27.92,27.92,0,0,1-4.64,4.83c-11.41,9.5-23.92,12.34-35.26,24.58a56.13,56.13,0,0,0-3.67,4.39Zm182.74,30.06c-3.59,1.19-7.17,2.41-10.74,3.63a10.21,10.21,0,0,0-3.66,2.2c-.28-1.33-.58-2.67-.9-4C1633.51,995.66,1638.51,995.14,1643.45,994.51Z"/><path class="cls-3" d="M1626.5,1064.44c30,4,94.86,28.29,78.91,65-6.69,15.38-28.22,24.06-57.23,8.26-39.81-21.68-36.22-33.19-80.78-31a214.74,214.74,0,0,1-44.67-1.76c-42.12-4.18-65.63-35.18-67.77-69.88-5.3-85.64,38.29-75,56.27-99.22,10.65-14.35,14.33-40.07,13.49-58.1-2.52-54.48,113,4.38,34,76.26,4.94,35-7.66,62.4-32.13,84.11,7.85-1.46,16.23-8.26,21.75-13.89,13.78,9.53,16.51,37.18,14.15,52.14,12.21-20.12,2.52-52.57-7.79-60.08,14.81-17.37,19.56-34.38,16-58.27,21.69-1.12,35-17,50.16-29.92,29.35-25,62.45-34,77.53-26.47A31.93,31.93,0,0,1,1714,941.45c-7.16,18.59-32.81,34.73-49.06,39.82s-32.39,5.77-39,6.63c-5.47-11.27-13.8-21.33-24.6-26.95,27.94,31.43,29.36,96.52,2.83,129.14,9.83-5.66,17.35-15.12,22.34-25.65Zm100.6-6.87c25.33-10,25.79-49.91,1.73-60.54-11.09-4.9-38-5.43-52.69-2.53s-29.43,8-40.63,11.83c-6.36,2.19-4.94,43.07-1.17,44a250.91,250.91,0,0,0,40.37,8.84C1689.22,1061,1715.91,1062,1727.1,1057.57Z"/><path class="cls-2" d="M435,964.86a56.13,56.13,0,0,0-3.65-4.41c-11.3-12.27-23.81-15.14-35.19-24.67a27.92,27.92,0,0,1-4.63-4.84c-9.43-12.79-12.41-37-11.65-52.58.49-10-2.32-20-10.95-25.93-19.53-13.33-47.77,4.14-59,21.12-17.3,26.15-8,53.62,9.95,75.11-15.68-3.47-27.42-17.08-39.22-27.2-19.24-16.49-60.92-40.82-87-27.86a40.59,40.59,0,0,0-20,50.66c6.48,17,25.88,32.51,43.85,40.94-15.62-2.34-41.4-2-54.19,3.58-31.66,13.88-29.7,64,1.83,76.52,13.55,5.39,41.84,4.06,56.61,2.32,2.27-.27,4.55-.58,6.82-.93-30.6,12.53-60,35-46.68,65.92,4.77,11.05,14.67,18.37,26.31,20.91,14.7,3.2,30-1.31,43-8.31a279.4,279.4,0,0,0,25.35-15.66c4.88-3.35,10-7.11,15.3-9.71,10.77-5.29,24-5,35.66-4.41a236.47,236.47,0,0,0,46.12-1.68c19.62-1.93,36.6-9.52,49.48-21.3h8.63c56.34-.84,61.54-110.4,8.83-126L435,964.86ZM267.5,996.29c-.32,1.33-.63,2.67-.91,4a10.13,10.13,0,0,0-3.65-2.21q-5.35-1.86-10.73-3.66C257.14,995.07,262.15,995.6,267.5,996.29Z"/><path class="cls-3" d="M269,1064.39c5,10.55,12.46,20,22.27,25.72-26.44-32.7-24.84-97.78,3.18-129.13-10.82,5.58-19.17,15.63-24.68,26.87-6.64-.88-22.77-1.59-39-6.73s-41.84-21.34-48.95-40a31.92,31.92,0,0,1,15.79-39.81c15.1-7.52,48.17,1.57,77.46,26.67,15.09,12.94,28.39,28.88,50.07,30.06-3.63,23.88,1.08,40.9,15.84,58.31-10.33,7.48-20.11,39.9-7.95,60.06-2.33-15,.48-42.61,14.28-52.1,5.51,5.64,13.87,12.46,21.72,13.94-24.41-21.77-36.94-49.25-31.9-84.2-78.84-72.08,36.83-130.63,34.16-76.16-.88,18,2.72,43.76,13.33,58.14,17.92,24.29,61.54,13.74,56,99.37-2.24,34.69-25.83,65.63-68,69.7a214.23,214.23,0,0,1-44.67,1.63c-44.56-2.27-41,9.24-80.87,30.81-29.06,15.72-50.56,7-57.21-8.41-15.85-36.75,49-60.84,79.09-64.79Zm-48.2-5.37a251,251,0,0,0,40.4-8.72c3.77-1,5.3-41.84-1.06-44-11.18-3.86-25.89-9-40.59-11.94s-41.59-2.49-52.7,2.38c-24.09,10.57-23.74,50.47,1.56,60.55C179.56,1061.7,206.26,1060.73,220.77,1059Z"/><path class="cls-4" d="M1493.64,417.71c16.4-14.67,20.15-27.24,17.9-37.27-.12-12.65-10-16.68-10-16.68l-1.77-.87a51.1,51.1,0,0,0-10.4-6.6c-143-68-491.39-242.53-508.05-251.6-17.72-9.64-42.08-18.8-71.62-4.66-76.77,36.77-166,77.66-249.17,115-76.48,32.3-170.07,73.15-283.11,124.48l-.11.06c-10.47,5-12.08,14.43-10.3,23.56.95,8.75,5.34,20.4,16.32,35.7,12.52,17.43,51.3,36.93,96,54.58C543.7,482.86,622.9,506,684.56,514.24,805,530.34,1171,538,1171,538c11.81-1,29.42-3.82,50.58-8.34,0,.82,0,1.26,0,1.26,6-.51,28.14-6.33,57.57-15.51,57.49-16,123.77-39.63,173-68.38C1470.58,437,1485.29,427.07,1493.64,417.71Z"/><path class="cls-5" d="M596.59,354.67S615,432.2,585.7,528c-16.81,55.06,37.09,76.87,366.73,80.77,102.74,1.22,270.8-2,331.35-38.56,28.15-17-1.9-48.11-9.53-108.78-8.16-64.95,6.81-105.13,6.81-107.16S985.09,239.4,596.59,354.67Z"/><path class="cls-6" d="M596.9,354.85a3.17,3.17,0,0,1,.25.63l.2.87.38,1.76.71,3.53c.44,2.36.84,4.72,1.24,7.09l1,7.12.86,7.15c.28,2.39.45,4.78.68,7.17l.32,3.59c.1,1.2.15,2.39.23,3.59l.43,7.19c.12,2.4.14,4.8.22,7.21a375.51,375.51,0,0,1-3,57.55l-.91,7.16-1.2,7.12c-.85,4.73-1.5,9.51-2.62,14.2s-2,9.42-3.16,14.1l-3.77,14-.95,3.46c-.32,1.12-.63,2.24-.88,3.36a49.62,49.62,0,0,0-1.19,6.76,32.5,32.5,0,0,0,1,13.18,28.27,28.27,0,0,0,6.72,11.13,42.11,42.11,0,0,0,5.05,4.44,62,62,0,0,0,5.74,3.73c8,4.56,17,7.7,26,10.31s18.37,4.56,27.72,6.26c18.71,3.39,37.68,5.63,56.68,7.44,38,3.55,76.25,5.5,114.47,7.14s76.51,2.79,114.79,3.63q28.71.66,57.41.78t57.42-.76c19.12-.6,38.25-1.43,57.33-2.79s38.15-3,57.11-5.56c9.49-1.19,18.93-2.66,28.35-4.25s18.77-3.58,28.05-5.78,18.43-4.86,27.39-8a136.22,136.22,0,0,0,25.73-11.77,28.83,28.83,0,0,0,5.24-4.13,22.39,22.39,0,0,0,2.11-2.47,19.73,19.73,0,0,0,1.56-2.8,18.36,18.36,0,0,0,1.61-6.25l.08-.82,0-.83c0-.56,0-1.11,0-1.67-.08-1.13-.09-2.25-.26-3.39a83.24,83.24,0,0,0-3-13.62c-1.33-4.54-2.84-9.07-4.34-13.61-3-9.09-6-18.26-8.47-27.61a242.41,242.41,0,0,1-5.75-28.47c-.34-2.4-.56-4.8-.85-7.2s-.59-4.79-.76-7.21c-.34-4.82-.82-9.63-.92-14.47a278.18,278.18,0,0,1,.24-29,242.53,242.53,0,0,1,3.37-28.89q1.29-7.17,3-14.26c.59-2.34,1.24-4.75,1.84-7l.12-.41c.05-.2,0-.17,0-.17h0c-.32-.63,2.41,4.93,1.44,2.7l-.21-.1-.33-.15-.74-.33c-1-.44-2.12-.86-3.22-1.28-8.81-3.31-17.92-6.19-27-8.91s-18.33-5.21-27.57-7.55c-18.48-4.69-37.13-8.74-55.88-12.27s-37.6-6.58-56.51-9.15-37.89-4.63-56.9-6.28a1241.5,1241.5,0,0,0-228.83,1.53c-38,3.77-75.92,9.12-113.48,16.32q-28.17,5.38-56.13,11.9-14,3.3-27.87,6.88Zm-.62-.35c4.57-1.51,9.44-3.05,14-4.39s9.18-2.73,13.78-4.06q13.82-3.94,27.73-7.59c18.55-4.84,37.2-9.32,56-13.22,37.54-7.86,75.45-14.08,113.6-18.37a1181.39,1181.39,0,0,1,230.06-3.53q28.72,2.4,57.29,6.33t56.88,9.38c18.87,3.68,37.64,7.88,56.25,12.73,9.31,2.42,18.57,5,27.79,7.8s18.36,5.76,27.46,9.24c1.14.45,2.28.9,3.45,1.4l.9.41.48.23c.15.07.37.18.59.31-.78-2.08,2.43,3.62,1.91,3.33,0,.29-.08.59-.13.88s-.13.62-.16.71l-.13.45c-.66,2.4-1.27,4.6-1.86,6.9q-1.74,6.85-3,13.82a242.93,242.93,0,0,0-3.49,28.12,271.54,271.54,0,0,0-.49,28.39c.05,4.74.49,9.47.75,14.2.14,2.37.45,4.72.66,7.08s.44,4.73.74,7.08A235.15,235.15,0,0,0,1282.5,490c2.26,9.21,5.06,18.31,7.92,27.44,1.43,4.57,2.87,9.16,4.16,13.83a87.77,87.77,0,0,1,2.94,14.44c.16,1.24.16,2.52.22,3.78,0,.63,0,1.28,0,1.91l0,1-.11,1a22.69,22.69,0,0,1-2.09,7.55,24,24,0,0,1-2,3.43,27,27,0,0,1-2.59,2.94,32.11,32.11,0,0,1-6.08,4.64,140.73,140.73,0,0,1-26.6,11.72c-9.16,3.06-18.47,5.52-27.84,7.69-18.78,4.16-37.76,7.13-56.79,9.45s-38.14,4-57.27,5.31-38.26,2.3-57.41,2.94-38.31,1.15-57.47,1.39-38.32.35-57.48.26c-38.31-.17-76.63-.58-114.95-1.66-19.16-.63-38.32-1.33-57.47-2.45s-38.29-2.42-57.4-4.34-38.21-4.24-57.18-7.77c-9.48-1.77-18.91-3.92-28.24-6.64s-18.54-6.11-27.16-11.12a65,65,0,0,1-6.25-4.14,48.82,48.82,0,0,1-5.68-5.1,35.11,35.11,0,0,1-4.68-6.18,33.27,33.27,0,0,1-3.12-7.16,37.69,37.69,0,0,1-1-15.27,56.09,56.09,0,0,1,1.4-7.35c.3-1.21.64-2.39,1-3.57l1-3.45,3.93-13.72c1.19-4.61,2.2-9.26,3.33-13.88s1.94-9.32,2.87-14l1.33-7,1-7.07a389.56,389.56,0,0,0,4.26-57c0-2.39,0-4.78,0-7.16l-.22-7.16c0-1.19-.06-2.39-.12-3.58l-.22-3.57c-.15-2.38-.25-4.77-.46-7.15l-.63-7.14-.8-7.12c-.31-2.36-.63-4.73-1-7.09l-.57-3.54-.33-1.76-.16-.89A7.45,7.45,0,0,1,596.28,354.5Z"/><path class="cls-7" d="M1352,263s132.94-67,103,203l-15.45-4.13s23.18-197.72-61.84-184.84"/><path class="cls-8" d="M1351.89,262.85a77.36,77.36,0,0,1,16.61-5.93,73.08,73.08,0,0,1,17.57-2.11,62.41,62.41,0,0,1,17.62,2.49,55,55,0,0,1,16.06,7.8,63.45,63.45,0,0,1,13,12.21,84.92,84.92,0,0,1,9.71,14.93,119.75,119.75,0,0,1,6.86,16.39,169,169,0,0,1,4.6,17.09,257.74,257.74,0,0,1,4.73,34.94c.87,11.71,1.16,23.45,1.16,35.18s-.45,23.46-1,35.18-1.58,23.41-2.69,35.1l-.12,1.29-1.29-.33-15.49-4-1-.27.11-1.09c1.74-18.1,2.61-36.35,2.58-54.56a410.31,410.31,0,0,0-3.35-54.42,213.29,213.29,0,0,0-5.27-26.68,110.72,110.72,0,0,0-10-25.12,60.39,60.39,0,0,0-7.83-10.94,41.68,41.68,0,0,0-10.46-8.37,37.52,37.52,0,0,0-12.69-4.37,48.94,48.94,0,0,0-13.57-.09l0-.3a47.48,47.48,0,0,1,13.73-.48,38.68,38.68,0,0,1,13.23,4,43,43,0,0,1,11.07,8.38,61.78,61.78,0,0,1,8.4,11.06,108.9,108.9,0,0,1,10.67,25.49,202.09,202.09,0,0,1,5.76,27,362.45,362.45,0,0,1,3.43,54.86c-.06,9.16-.37,18.32-.88,27.46s-1.22,18.26-2.31,27.38l-.92-1.36,15.42,4.25-1.4,1c1.38-11.62,2.64-23.26,3.52-34.94s1.38-23.38,1.48-35.09c.18-23.4-1.74-46.92-7.1-69.63q-2.08-8.49-4.89-16.75a131.77,131.77,0,0,0-6.81-16,86.15,86.15,0,0,0-9.3-14.57A61.55,61.55,0,0,0,1418.39,267a55.18,55.18,0,0,0-7.36-4.45,63,63,0,0,0-8-3.28,60.85,60.85,0,0,0-17-2.84,82.8,82.8,0,0,0-34,6.65Z"/><path class="cls-9" d="M1428.36,491.92c-14.88,93.32-53.95,198.36-53.95,198.36l25.78-34-1.13,11.28-.68,14v24.34L1416.19,670l3.38,28.41s14.22-39.23,15.1-45.54l1.13,42.38s31.78-43.28,30-205.12"/><path class="cls-10" d="M1423.7,498.53s2.44-48,28.86-40.27C1475.1,464.87,1467,507,1467,507S1433.62,506.65,1423.7,498.53Z"/><path class="cls-8" d="M1423.52,498.61a.6.6,0,0,1,0-.2v-.33l0-.44,0-.89q0-.88,0-1.77c0-1.17.07-2.35.14-3.53.16-2.36.41-4.72.78-7.06a65,65,0,0,1,1.47-7,50.7,50.7,0,0,1,2.3-6.86,34.1,34.1,0,0,1,3.51-6.5,21.63,21.63,0,0,1,5.32-5.53,16.37,16.37,0,0,1,7.34-3,21.17,21.17,0,0,1,14.66,3.89,19.86,19.86,0,0,1,5,5.67,28.92,28.92,0,0,1,2.85,6.76,44.1,44.1,0,0,1,1.41,7A104.45,104.45,0,0,1,1469,493a130.59,130.59,0,0,1-.66,14.2l-.12,1.09-1.27.05a96,96,0,0,1-11.26-.16c-1.88-.11-3.74-.33-5.61-.55s-3.73-.47-5.58-.81a72.62,72.62,0,0,1-11-2.69,37.74,37.74,0,0,1-5.27-2.18,23.55,23.55,0,0,1-2.47-1.46c-.4-.26-.77-.57-1.15-.86S1423.86,498.94,1423.52,498.61Zm.37-.16,1.14.6c.42.19.82.41,1.24.58.84.36,1.7.66,2.56.95a52.77,52.77,0,0,0,5.3,1.36c3.57.75,7.21,1.25,10.86,1.68,1.82.19,3.65.4,5.48.56l5.51.46c3.67.25,7.36.63,11,.9l-1.39,1.14a76.21,76.21,0,0,0,2.11-13.69,53.75,53.75,0,0,0-1-13.82,32.22,32.22,0,0,0-5.22-12.38,19,19,0,0,0-4.57-4.46,16.33,16.33,0,0,0-5.77-2.44,15.74,15.74,0,0,0-6.17-.24,13.78,13.78,0,0,0-5.51,2.33,21.1,21.1,0,0,0-4.44,4.46,38.4,38.4,0,0,0-3.4,5.66,74.61,74.61,0,0,0-4.7,12.83q-.92,3.35-1.68,6.75-.39,1.69-.72,3.42l-.32,1.72-.16.86-.08.43,0,.22,0,.11S1423.93,498.56,1423.89,498.45Z"/><path class="cls-8" d="M1440.53,450.75c3.4-4.74,7-9.26,10.25-13.95,1.68-2.32,3.25-4.71,4.72-7.15a35.84,35.84,0,0,0,3.67-7.76,21.43,21.43,0,0,1-2.36,8.45,44,44,0,0,1-2.08,3.89c-.77,1.24-1.56,2.47-2.41,3.66a70.46,70.46,0,0,1-5.49,6.81A57.2,57.2,0,0,1,1440.53,450.75Z"/><path class="cls-8" d="M1440.53,417.69c3.4-4.74,7-9.26,10.25-13.95,1.68-2.32,3.25-4.71,4.72-7.15a35.84,35.84,0,0,0,3.67-7.76,21.43,21.43,0,0,1-2.36,8.45,44,44,0,0,1-2.08,3.89c-.77,1.24-1.56,2.47-2.41,3.66a70.46,70.46,0,0,1-5.49,6.81A57.2,57.2,0,0,1,1440.53,417.69Z"/><path class="cls-8" d="M1439.33,381.62c3.4-4.73,7-9.25,10.25-13.95,1.68-2.32,3.25-4.71,4.72-7.15a35.77,35.77,0,0,0,3.67-7.75,21.47,21.47,0,0,1-2.36,8.45c-.59,1.35-1.37,2.6-2.08,3.88s-1.56,2.47-2.41,3.67a70.33,70.33,0,0,1-5.49,6.8A58.1,58.1,0,0,1,1439.33,381.62Z"/><path class="cls-11" d="M1437.23,343.15s13.71-14.12,15.33-25.24"/><path class="cls-11" d="M1430,311.59s11-6.31,12.63-17.43"/><path class="cls-12" d="M1412.88,291.16s12.63-14.41,13.83-23.44"/><path class="cls-11" d="M1401.46,256.9s2.11,13.52-1.8,20.43"/><path class="cls-11" d="M1371.41,256.9s9.62,7.51,13.82,19.23"/><path class="cls-8" d="M1443.4,504c-2.35,11.8-4.92,23.52-7.62,35.23s-5.55,23.36-8.58,35-6.27,23.18-9.77,34.67-7.32,22.86-11.61,34.07c4-11.32,7.44-22.81,10.65-34.35s6-23.2,8.79-34.87,5.21-23.39,7.59-35.13,4.61-23.53,6.62-35.31Z"/><path class="cls-8" d="M1456.46,509.15c-.76,8.65-1.85,17.2-3.11,25.75s-2.75,17.05-4.45,25.51c-.81,4.24-1.77,8.44-2.67,12.66s-1.93,8.41-3,12.57c-2.07,8.37-4.57,16.63-7.15,24.85,2.34-8.29,4.59-16.61,6.42-25,1-4.19,1.79-8.42,2.68-12.63s1.61-8.46,2.3-12.7q2.16-12.74,3.69-25.54c1-8.53,1.85-17.11,2.34-25.64Z"/></svg>